<?xml version="1.0" encoding="UTF-8" standalone="no"?>
<!-- Created with Inkscape (http://www.inkscape.org/) -->

<svg
   xmlns:dc="http://purl.org/dc/elements/1.1/"
   xmlns:cc="http://creativecommons.org/ns#"
   xmlns:rdf="http://www.w3.org/1999/02/22-rdf-syntax-ns#"
   xmlns:svg="http://www.w3.org/2000/svg"
   xmlns="http://www.w3.org/2000/svg"
   xmlns:sodipodi="http://sodipodi.sourceforge.net/DTD/sodipodi-0.dtd"
   xmlns:inkscape="http://www.inkscape.org/namespaces/inkscape"
   width="273.19809"
   height="344.04187"
   id="svg2"
   version="1.1"
   inkscape:version="0.48.4 r9939"
   sodipodi:docname="borg_spuckschutz_outline.svg">
  <defs
     id="defs4" />
  <sodipodi:namedview
     id="base"
     pagecolor="#ffffff"
     bordercolor="#666666"
     borderopacity="1.0"
     inkscape:pageopacity="0.0"
     inkscape:pageshadow="2"
     inkscape:zoom="2.6653733"
     inkscape:cx="137.34941"
     inkscape:cy="322.09372"
     inkscape:document-units="mm"
     inkscape:current-layer="layer1"
     showgrid="false"
     fit-margin-top="0"
     fit-margin-left="0"
     fit-margin-right="0"
     fit-margin-bottom="0"
     units="mm"
     showguides="true"
     inkscape:guide-bbox="true"
     inkscape:window-width="1440"
     inkscape:window-height="826"
     inkscape:window-x="0"
     inkscape:window-y="25"
     inkscape:window-maximized="1" />
  <metadata
     id="metadata7">
    <rdf:RDF>
      <cc:Work
         rdf:about="">
        <dc:format>image/svg+xml</dc:format>
        <dc:type
           rdf:resource="http://purl.org/dc/dcmitype/StillImage" />
        <dc:title />
      </cc:Work>
    </rdf:RDF>
  </metadata>
  <g
     inkscape:label="Ebene 1"
     inkscape:groupmode="layer"
     id="layer1"
     transform="translate(-467.35408,-3.5543846)">
    <path
       style="fill:none;stroke:#000000;stroke-width:0.35433072;stroke-miterlimit:4;stroke-opacity:1;stroke-dasharray:none"
       d="m 239.1875,354.34375 c -1.96299,0 -3.5625,1.56826 -3.5625,3.53125 l 0,35.4375 0,20.78125 0,7.5625 c 0,1.96299 1.56826,3.53125 3.53125,3.53125 l 1.75,0 30.15625,0 c 1.96299,0 3.53125,1.59951 3.53125,3.5625 l 0,28.34375 c 0,1.96299 -1.56826,3.53125 -3.53125,3.53125 l -27.84375,0 -4.0625,0 c -1.96299,0 -3.53125,1.56826 -3.53125,3.53125 l 0,3.65625 0,24.71875 0,198.40625 0,3.5625 c 0,0.49075 0.10242,0.9508 0.28125,1.375 0.17883,0.4242 0.42977,0.80477 0.75,1.125 0.32023,0.32023 0.7008,0.57117 1.125,0.75 0.008,0.004 0.0227,-0.004 0.0312,0 0.41716,0.17189 0.86313,0.28125 1.34375,0.28125 0.0106,9e-5 0.0207,0 0.0312,0 l 27.09375,0 3.03125,0 c 1.96299,0 3.53125,-1.56826 3.53125,-3.53125 l 0,-1.9375 0,-1.625 0,-31.875 c 0,-1.96299 1.56826,-3.5625 3.53125,-3.5625 l 191.34375,0 c 1.96299,0 3.53125,1.59951 3.53125,3.5625 l 0,31.875 0,2.75 0,0.8125 c 0,1.96299 1.56826,3.53125 3.53125,3.53125 l 5.34375,0 24.8125,0 c 1.96299,0 3.53125,-1.56826 3.53125,-3.53125 l 0,-3.5625 0,-333.0625 c 0,-1.96299 -1.56826,-3.53125 -3.53125,-3.53125 l -265.75,0 z m 132.875,67.3125 c 3.13106,0 5.65625,2.52519 5.65625,5.65625 0,3.13106 -2.52519,5.6875 -5.65625,5.6875 -3.13106,0 -5.6875,-2.55644 -5.6875,-5.6875 0,-3.13106 2.55644,-5.65625 5.6875,-5.65625 z m -60.25,21.25 63.78125,0 c 1.96299,0 3.53125,1.59951 3.53125,3.5625 l 0,24.78125 c 0,1.96299 -1.56826,3.5625 -3.53125,3.5625 l -63.78125,0 c -1.96299,0 -3.5625,-1.59951 -3.5625,-3.5625 l 0,-24.78125 c 0,-1.96299 1.59951,-3.5625 3.5625,-3.5625 z m -54.5,231.03125 c 3.13106,0 5.65625,2.52519 5.65625,5.65625 0,3.13106 -2.52519,5.6875 -5.65625,5.6875 -3.13106,0 -5.6875,-2.55644 -5.6875,-5.6875 0,-3.13106 2.55644,-5.65625 5.6875,-5.65625 z m 229.5,0 c 3.13106,0 5.65625,2.52519 5.65625,5.65625 0,3.13106 -2.52519,5.6875 -5.65625,5.6875 -3.13106,0 -5.6875,-2.55644 -5.6875,-5.6875 0,-3.13106 2.55644,-5.65625 5.6875,-5.65625 z"
       transform="translate(231.90625,-350.6122)"
       id="rect3762"
       inkscape:connector-curvature="0" />
  </g>
</svg>
