<?xml version="1.0" encoding="UTF-8" standalone="no"?>
<!-- Created with Sodipodi ("http://www.sodipodi.com/") -->
<svg
   xmlns:dc="http://purl.org/dc/elements/1.1/"
   xmlns:cc="http://web.resource.org/cc/"
   xmlns:rdf="http://www.w3.org/1999/02/22-rdf-syntax-ns#"
   xmlns:svg="http://www.w3.org/2000/svg"
   xmlns="http://www.w3.org/2000/svg"
   xmlns:sodipodi="http://sodipodi.sourceforge.net/DTD/sodipodi-0.dtd"
   xmlns:inkscape="http://www.inkscape.org/namespaces/inkscape"
   id="svg602"
   sodipodi:version="0.32"
   width="745.02917"
   height="867.72156"
   xml:space="preserve"
   sodipodi:docname="Labor.svg"
   inkscape:version="0.45.1"
   sodipodi:docbase="/home/bg/workspace/AnonAccess/Doc/paper"
   inkscape:output_extension="org.inkscape.output.svg.inkscape"
   version="1.0">
  <metadata
   id="metadata26">
    <rdf:RDF>
      <cc:Work
   rdf:about="">
        <dc:format>image/svg+xml</dc:format>


        <dc:type
   rdf:resource="http://purl.org/dc/dcmitype/StillImage" />


      </cc:Work>


    </rdf:RDF>


  </metadata>


  <defs
   id="defs604" />


  <sodipodi:namedview
   id="base"
   showgrid="true"
   inkscape:grid-bbox="true"
   showguides="true"
   inkscape:guide-bbox="true"
   showborder="true"
   inkscape:grid-points="false"
   inkscape:guide-points="true"
   inkscape:zoom="0.79283337"
   inkscape:cx="403.37927"
   inkscape:cy="706.08127"
   inkscape:window-width="1024"
   inkscape:window-height="600"
   inkscape:window-x="-1"
   inkscape:window-y="-16"
   inkscape:current-layer="svg602"
   gridempspacing="10"
   pagecolor="#000000"
   inkscape:pageopacity="0.0000000"
   gridspacingx="5.0000000mm"
   gridspacingy="5.0000000mm"
   gridtolerance="5.0000000px" />


  
  
<text
   style="font-size:127.54364777px;font-style:normal;font-weight:normal;line-height:100%;writing-mode:lr-tb;text-anchor:start;fill:#000000;fill-opacity:1;stroke:none;stroke-width:1pt;stroke-linecap:butt;stroke-linejoin:miter;stroke-opacity:1;font-family:Arial Black"
   x="13.44674"
   y="860.12872"
   id="text608"
   sodipodi:linespacing="100%"
   xml:space="preserve"
   transform="scale(0.993044,1.0070047)"><tspan
     x="13.44674"
     y="860.12872"
     sodipodi:role="line"
     id="tspan613">L A B O R .</tspan></text>















<path
   style="fill:#000000;fill-opacity:1;fill-rule:evenodd;stroke:none;stroke-width:1.25;stroke-linecap:butt;stroke-linejoin:miter;stroke-miterlimit:4;stroke-dashoffset:0;stroke-opacity:1"
   d="M 335.42522,0 C 312.61182,0.123389 290.3358,2.634165 268.81578,7.193623 C 264.63486,8.079463 260.62735,9.370923 256.50524,10.414463 C 116.18988,45.240779 10.255119,168.95503 0.782511,319.38233 L 70.040809,319.38233 L 70.040809,246.48214 L 82.802869,246.48214 L 121.05892,246.48214 L 121.05892,205.39667 C 113.74163,203.09695 108.35705,196.42642 108.35705,188.24032 C 108.35705,178.17853 116.3321,170.06031 126.23587,170.06031 C 136.13993,170.06031 144.20512,178.17853 144.20512,188.24032 C 144.20512,195.52834 139.91001,201.69818 133.82098,204.61416 L 133.82098,246.48214 L 166.96025,246.48214 C 169.45536,239.46233 175.95895,234.38225 183.72529,234.38225 C 193.62933,234.38225 201.60425,242.50047 201.60425,252.56212 C 201.60425,262.62392 193.62933,270.80231 183.72529,270.80231 C 175.94123,270.80231 169.44231,265.68664 166.96025,258.64209 L 82.802869,258.64209 L 82.802869,319.38233 L 114.73795,319.38233 L 124.79108,319.38233 L 127.43982,319.38233 L 127.43982,416.66273 L 166.96025,416.66273 C 169.44231,409.61846 175.94123,404.47269 183.72529,404.47269 C 193.62933,404.47269 201.60425,412.68105 201.60425,422.74284 C 201.60425,432.80477 193.62933,440.92285 183.72529,440.92285 C 175.93834,440.92285 169.44011,435.8113 166.96025,428.76277 L 60.047724,428.76277 C 57.567454,435.81047 51.129134,440.92285 43.342873,440.92285 C 33.438828,440.92285 25.403737,432.80477 25.403737,422.74284 C 25.403737,412.68105 33.438828,404.47269 43.342873,404.47269 C 51.126114,404.47269 57.565264,409.61929 60.047724,416.66273 L 114.73795,416.66273 L 114.73795,331.57237 L 82.802869,331.57237 L 70.040809,331.57237 L 0.210774,331.57237 C 0.119812,334.82485 0,338.08008 0,341.35469 C 0,510.98126 122.55675,651.38867 282.69149,677.62287 C 299.90953,680.50904 317.43097,682.49177 335.42522,682.58919 L 335.42522,682.34819 C 335.82739,682.34969 336.1966,682.4085 336.59892,682.4085 C 522.40916,682.4085 673.22834,529.62927 673.22834,341.35469 C 673.22834,153.0801 522.40916,0.240869 336.59892,0.240869 C 336.1966,0.240869 335.82739,0.299677 335.42522,0.300914 L 335.42522,0 z M 336.59892,11.196983 C 516.97403,11.196983 663.38598,159.24925 663.38598,341.71606 C 663.38571,524.18258 516.97403,672.23486 336.59892,672.23486 C 336.19646,672.23514 335.82753,672.1762 335.42522,672.17496 L 335.42522,580.97426 L 269.11669,580.97426 L 269.11669,272.78889 L 335.42522,272.78889 L 335.42522,238.11454 C 298.98866,237.38753 269.5983,207.28872 269.5983,170.12049 C 269.5983,132.9524 298.98866,102.76275 335.42522,102.03616 L 335.42522,11.257153 C 335.82753,11.255653 336.19646,11.196983 336.59892,11.196983 z M 335.42522,102.03616 L 335.42522,111.57761 C 335.97277,111.56181 336.46908,111.39706 337.02034,111.39706 C 368.52492,111.39706 394.08846,137.46418 394.08846,169.5787 C 394.08846,201.69323 368.52492,227.79044 337.02034,227.79044 C 336.46908,227.79044 335.97277,227.62584 335.42522,227.61004 L 335.42522,238.11454 C 335.8715,238.12347 336.27122,238.23504 336.71942,238.23504 C 373.77457,238.23504 403.87078,207.74408 403.87078,170.12049 C 403.87078,132.49704 373.77457,101.91566 336.71942,101.91566 C 336.27122,101.91566 335.8715,102.02723 335.42522,102.03616 z M 335.42522,227.61004 L 335.42522,111.57761 C 304.68184,112.46744 279.95248,138.02629 279.95248,169.5787 C 279.95248,201.13111 304.68198,226.71938 335.42522,227.61004 z M 335.42522,272.78889 L 335.42522,283.77487 L 392.01175,283.77487 L 392.01175,569.98815 L 335.42522,569.98815 L 335.42522,580.97426 L 404.26197,580.97426 L 404.26197,272.78889 L 335.42522,272.78889 z M 335.42522,569.98815 L 335.42522,283.77487 L 281.45733,283.77487 L 281.45733,569.98815 L 335.42522,569.98815 z "
   id="path4853" />








</svg>