<?xml version="1.0" encoding="UTF-8" standalone="no"?>
<!-- Created with Inkscape (http://www.inkscape.org/) -->
<svg
   xmlns:dc="http://purl.org/dc/elements/1.1/"
   xmlns:cc="http://web.resource.org/cc/"
   xmlns:rdf="http://www.w3.org/1999/02/22-rdf-syntax-ns#"
   xmlns:svg="http://www.w3.org/2000/svg"
   xmlns="http://www.w3.org/2000/svg"
   xmlns:sodipodi="http://sodipodi.sourceforge.net/DTD/sodipodi-0.dtd"
   xmlns:inkscape="http://www.inkscape.org/namespaces/inkscape"
   width="210mm"
   height="297mm"
   id="svg2"
   sodipodi:version="0.32"
   inkscape:version="0.45.1"
   sodipodi:docbase="/home/tixiv"
   sodipodi:docname="Borg_3d.svg"
   inkscape:output_extension="org.inkscape.output.svg.inkscape">
  <defs
     id="defs4" />
  <sodipodi:namedview
     id="base"
     pagecolor="#ffffff"
     bordercolor="#666666"
     borderopacity="1.0"
     inkscape:pageopacity="0.0"
     inkscape:pageshadow="2"
     inkscape:zoom="0.98994949"
     inkscape:cx="239.92377"
     inkscape:cy="833.71721"
     inkscape:document-units="px"
     inkscape:current-layer="layer6"
     inkscape:window-width="975"
     inkscape:window-height="744"
     inkscape:window-x="49"
     inkscape:window-y="0"
     showgrid="false" />
  <metadata
     id="metadata7">
    <rdf:RDF>
      <cc:Work
         rdf:about="">
        <dc:format>image/svg+xml</dc:format>
        <dc:type
           rdf:resource="http://purl.org/dc/dcmitype/StillImage" />
      </cc:Work>
    </rdf:RDF>
  </metadata>
  <g
     inkscape:label="Schablone"
     inkscape:groupmode="layer"
     id="layer1"
     style="display:none">
    <rect
       style="fill:#deaa87"
       id="rect2160"
       width="520.22858"
       height="599.02045"
       x="46.467018"
       y="37.158875" />
    <g
       id="g2342">
      <g
         transform="translate(3.0304581,-110.10663)"
         id="g2194">
        <rect
           style="fill:#784421"
           id="rect2164"
           width="432.34528"
           height="28.284271"
           x="87.88327"
           y="621.02704" />
        <g
           id="g2184"
           transform="translate(3.5355339,-32.829958)">
          <rect
             y="653.85699"
             x="114.14725"
             height="28.284269"
             width="5.5558391"
             id="rect2166"
             style="fill:#c87137" />
          <rect
             y="653.85699"
             x="166.27834"
             height="28.284269"
             width="5.5558391"
             id="rect2170"
             style="fill:#c87137" />
          <rect
             y="653.85699"
             x="218.40942"
             height="28.284269"
             width="5.5558391"
             id="rect2172"
             style="fill:#c87137" />
          <rect
             y="653.85699"
             x="270.5405"
             height="28.284269"
             width="5.5558391"
             id="rect2174"
             style="fill:#c87137" />
          <rect
             y="653.85699"
             x="322.6716"
             height="28.284269"
             width="5.5558391"
             id="rect2176"
             style="fill:#c87137" />
          <rect
             y="653.85699"
             x="374.80267"
             height="28.284269"
             width="5.5558391"
             id="rect2178"
             style="fill:#c87137" />
          <rect
             y="653.85699"
             x="426.93375"
             height="28.284269"
             width="5.5558391"
             id="rect2180"
             style="fill:#c87137" />
          <rect
             y="653.85699"
             x="479.06482"
             height="28.284269"
             width="5.5558391"
             id="rect2182"
             style="fill:#c87137" />
        </g>
      </g>
      <g
         transform="translate(3.0304581,-580.8377)"
         id="g2206">
        <rect
           style="fill:#784421"
           id="rect2208"
           width="432.34528"
           height="28.284271"
           x="87.88327"
           y="621.02704" />
        <g
           id="g2210"
           transform="translate(3.5355339,-32.829958)">
          <rect
             y="653.85699"
             x="114.14725"
             height="28.284269"
             width="5.5558391"
             id="rect2212"
             style="fill:#c87137" />
          <rect
             y="653.85699"
             x="166.27834"
             height="28.284269"
             width="5.5558391"
             id="rect2214"
             style="fill:#c87137" />
          <rect
             y="653.85699"
             x="218.40942"
             height="28.284269"
             width="5.5558391"
             id="rect2216"
             style="fill:#c87137" />
          <rect
             y="653.85699"
             x="270.5405"
             height="28.284269"
             width="5.5558391"
             id="rect2218"
             style="fill:#c87137" />
          <rect
             y="653.85699"
             x="322.6716"
             height="28.284269"
             width="5.5558391"
             id="rect2220"
             style="fill:#c87137" />
          <rect
             y="653.85699"
             x="374.80267"
             height="28.284269"
             width="5.5558391"
             id="rect2222"
             style="fill:#c87137" />
          <rect
             y="653.85699"
             x="426.93375"
             height="28.284269"
             width="5.5558391"
             id="rect2224"
             style="fill:#c87137" />
          <rect
             y="653.85699"
             x="479.06482"
             height="28.284269"
             width="5.5558391"
             id="rect2226"
             style="fill:#c87137" />
        </g>
      </g>
    </g>
    <g
       id="g2366"
       transform="matrix(0,-1,1,0,18.399516,596.78338)">
      <g
         transform="translate(3.0304581,-110.10663)"
         id="g2368">
        <rect
           style="fill:#784421"
           id="rect2370"
           width="432.34528"
           height="28.284271"
           x="87.88327"
           y="621.02704" />
        <g
           id="g2372"
           transform="translate(3.5355339,-32.829958)">
          <rect
             y="653.85699"
             x="114.14725"
             height="28.284269"
             width="5.5558391"
             id="rect2374"
             style="fill:#c87137" />
          <rect
             y="653.85699"
             x="166.27834"
             height="28.284269"
             width="5.5558391"
             id="rect2376"
             style="fill:#c87137" />
          <rect
             y="653.85699"
             x="218.40942"
             height="28.284269"
             width="5.5558391"
             id="rect2378"
             style="fill:#c87137" />
          <rect
             y="653.85699"
             x="270.5405"
             height="28.284269"
             width="5.5558391"
             id="rect2380"
             style="fill:#c87137" />
          <rect
             y="653.85699"
             x="322.6716"
             height="28.284269"
             width="5.5558391"
             id="rect2382"
             style="fill:#c87137" />
          <rect
             y="653.85699"
             x="374.80267"
             height="28.284269"
             width="5.5558391"
             id="rect2384"
             style="fill:#c87137" />
          <rect
             y="653.85699"
             x="426.93375"
             height="28.284269"
             width="5.5558391"
             id="rect2386"
             style="fill:#c87137" />
          <rect
             y="653.85699"
             x="479.06482"
             height="28.284269"
             width="5.5558391"
             id="rect2388"
             style="fill:#c87137" />
        </g>
      </g>
      <g
         transform="translate(3.0304581,-580.8377)"
         id="g2390">
        <rect
           style="fill:#784421"
           id="rect2392"
           width="432.34528"
           height="28.284271"
           x="87.88327"
           y="621.02704" />
        <g
           id="g2394"
           transform="translate(3.5355339,-32.829958)">
          <rect
             y="653.85699"
             x="114.14725"
             height="28.284269"
             width="5.5558391"
             id="rect2396"
             style="fill:#c87137" />
          <rect
             y="653.85699"
             x="166.27834"
             height="28.284269"
             width="5.5558391"
             id="rect2398"
             style="fill:#c87137" />
          <rect
             y="653.85699"
             x="218.40942"
             height="28.284269"
             width="5.5558391"
             id="rect2400"
             style="fill:#c87137" />
          <rect
             y="653.85699"
             x="270.5405"
             height="28.284269"
             width="5.5558391"
             id="rect2402"
             style="fill:#c87137" />
          <rect
             y="653.85699"
             x="322.6716"
             height="28.284269"
             width="5.5558391"
             id="rect2404"
             style="fill:#c87137" />
          <rect
             y="653.85699"
             x="374.80267"
             height="28.284269"
             width="5.5558391"
             id="rect2406"
             style="fill:#c87137" />
          <rect
             y="653.85699"
             x="426.93375"
             height="28.284269"
             width="5.5558391"
             id="rect2408"
             style="fill:#c87137" />
          <rect
             y="653.85699"
             x="479.06482"
             height="28.284269"
             width="5.5558391"
             id="rect2410"
             style="fill:#c87137" />
        </g>
      </g>
    </g>
  </g>
  <g
     inkscape:groupmode="layer"
     id="layer2"
     inkscape:label="Draht Säulen"
     style="display:inline">
    <rect
       style="fill:#00ff00"
       id="rect2431"
       width="3.0304577"
       height="566.69562"
       x="121.93259"
       y="38.342339" />
    <rect
       style="fill:#00ff00;display:inline"
       id="rect2433"
       width="3.0304577"
       height="566.69562"
       x="174.05704"
       y="38.342339" />
    <rect
       style="fill:#00ff00;display:inline"
       id="rect2435"
       width="3.0304577"
       height="566.69562"
       x="226.18147"
       y="38.342339" />
    <rect
       style="fill:#00ff00;display:inline"
       id="rect2437"
       width="3.0304577"
       height="566.69562"
       x="278.30591"
       y="38.342339" />
    <rect
       style="fill:#00ff00;display:inline"
       id="rect2439"
       width="3.0304577"
       height="566.69562"
       x="330.43036"
       y="38.342339" />
    <rect
       style="fill:#00ff00;display:inline"
       id="rect2441"
       width="3.0304577"
       height="566.69562"
       x="382.55481"
       y="38.342339" />
    <rect
       style="fill:#00ff00;display:inline"
       id="rect2443"
       width="3.0304577"
       height="566.69562"
       x="434.67926"
       y="38.342339" />
    <rect
       style="fill:#00ff00;display:inline"
       id="rect2445"
       width="3.0304577"
       height="566.69562"
       x="486.80368"
       y="38.342339" />
  </g>
  <g
     inkscape:groupmode="layer"
     id="layer5"
     inkscape:label="LEDs erste Ebene"
     style="display:inline">
    <g
       id="g28859"
       transform="translate(0,1.1444092e-5)">
      <g
         transform="matrix(0.6686359,0,0,0.748324,108.3217,-36.052754)"
         id="g28813">
        <path
           style="fill:#ff0000"
           d="M 22.919962,168.20663 C 19.653089,168.20663 16.994557,170.67912 16.866613,173.76536 L 16.853976,173.76536 L 16.853976,173.99823 L 16.853976,182.95902 L 15.918803,182.95902 C 15.638756,182.95902 15.413304,183.13965 15.413304,183.36403 L 15.413304,183.59691 C 15.413304,183.82128 15.638756,184.00191 15.918803,184.00191 L 29.996947,184.00191 C 30.276993,184.00191 30.502441,183.82128 30.502445,183.59691 L 30.502445,183.36403 C 30.502445,183.13965 30.276989,182.95902 29.996947,182.95902 L 28.985949,182.95902 L 28.985949,173.99823 L 28.985949,173.76536 L 28.973311,173.76536 C 28.845283,170.67919 26.186779,168.20662 22.919962,168.20663 z "
           id="path2476" />
        <path
           style="fill:#000000;fill-opacity:0.88235294;fill-rule:evenodd;stroke:#00a9ff;stroke-width:2.19996095;stroke-linecap:butt;stroke-linejoin:miter;stroke-miterlimit:4;stroke-dasharray:none;stroke-opacity:1"
           d="M 22.663034,184.0699 L 22.663034,201.16404"
           id="path9013" />
      </g>
      <g
         transform="matrix(0.6686359,0,0,0.748324,160.45017,-36.052754)"
         id="g28817">
        <path
           style="fill:#ff0000"
           d="M 22.919962,168.20663 C 19.653089,168.20663 16.994557,170.67912 16.866613,173.76536 L 16.853976,173.76536 L 16.853976,173.99823 L 16.853976,182.95902 L 15.918803,182.95902 C 15.638756,182.95902 15.413304,183.13965 15.413304,183.36403 L 15.413304,183.59691 C 15.413304,183.82128 15.638756,184.00191 15.918803,184.00191 L 29.996947,184.00191 C 30.276993,184.00191 30.502441,183.82128 30.502445,183.59691 L 30.502445,183.36403 C 30.502445,183.13965 30.276989,182.95902 29.996947,182.95902 L 28.985949,182.95902 L 28.985949,173.99823 L 28.985949,173.76536 L 28.973311,173.76536 C 28.845283,170.67919 26.186779,168.20662 22.919962,168.20663 z "
           id="path28819" />
        <path
           style="fill:#000000;fill-opacity:0.88235294;fill-rule:evenodd;stroke:#00a9ff;stroke-width:2.19996095;stroke-linecap:butt;stroke-linejoin:miter;stroke-miterlimit:4;stroke-dasharray:none;stroke-opacity:1"
           d="M 22.663034,184.0699 L 22.663034,201.16404"
           id="path28821" />
      </g>
      <g
         transform="matrix(0.6686359,0,0,0.748324,212.57865,-36.052754)"
         id="g28823">
        <path
           style="fill:#ff0000"
           d="M 22.919962,168.20663 C 19.653089,168.20663 16.994557,170.67912 16.866613,173.76536 L 16.853976,173.76536 L 16.853976,173.99823 L 16.853976,182.95902 L 15.918803,182.95902 C 15.638756,182.95902 15.413304,183.13965 15.413304,183.36403 L 15.413304,183.59691 C 15.413304,183.82128 15.638756,184.00191 15.918803,184.00191 L 29.996947,184.00191 C 30.276993,184.00191 30.502441,183.82128 30.502445,183.59691 L 30.502445,183.36403 C 30.502445,183.13965 30.276989,182.95902 29.996947,182.95902 L 28.985949,182.95902 L 28.985949,173.99823 L 28.985949,173.76536 L 28.973311,173.76536 C 28.845283,170.67919 26.186779,168.20662 22.919962,168.20663 z "
           id="path28825" />
        <path
           style="fill:#000000;fill-opacity:0.88235294;fill-rule:evenodd;stroke:#00a9ff;stroke-width:2.19996095;stroke-linecap:butt;stroke-linejoin:miter;stroke-miterlimit:4;stroke-dasharray:none;stroke-opacity:1"
           d="M 22.663034,184.0699 L 22.663034,201.16404"
           id="path28827" />
      </g>
      <g
         transform="matrix(0.6686359,0,0,0.748324,264.7071,-36.052754)"
         id="g28829">
        <path
           style="fill:#ff0000"
           d="M 22.919962,168.20663 C 19.653089,168.20663 16.994557,170.67912 16.866613,173.76536 L 16.853976,173.76536 L 16.853976,173.99823 L 16.853976,182.95902 L 15.918803,182.95902 C 15.638756,182.95902 15.413304,183.13965 15.413304,183.36403 L 15.413304,183.59691 C 15.413304,183.82128 15.638756,184.00191 15.918803,184.00191 L 29.996947,184.00191 C 30.276993,184.00191 30.502441,183.82128 30.502445,183.59691 L 30.502445,183.36403 C 30.502445,183.13965 30.276989,182.95902 29.996947,182.95902 L 28.985949,182.95902 L 28.985949,173.99823 L 28.985949,173.76536 L 28.973311,173.76536 C 28.845283,170.67919 26.186779,168.20662 22.919962,168.20663 z "
           id="path28831" />
        <path
           style="fill:#000000;fill-opacity:0.88235294;fill-rule:evenodd;stroke:#00a9ff;stroke-width:2.19996095;stroke-linecap:butt;stroke-linejoin:miter;stroke-miterlimit:4;stroke-dasharray:none;stroke-opacity:1"
           d="M 22.663034,184.0699 L 22.663034,201.16404"
           id="path28833" />
      </g>
      <g
         transform="matrix(0.6686359,0,0,0.748324,316.83559,-36.052754)"
         id="g28835">
        <path
           style="fill:#ff0000"
           d="M 22.919962,168.20663 C 19.653089,168.20663 16.994557,170.67912 16.866613,173.76536 L 16.853976,173.76536 L 16.853976,173.99823 L 16.853976,182.95902 L 15.918803,182.95902 C 15.638756,182.95902 15.413304,183.13965 15.413304,183.36403 L 15.413304,183.59691 C 15.413304,183.82128 15.638756,184.00191 15.918803,184.00191 L 29.996947,184.00191 C 30.276993,184.00191 30.502441,183.82128 30.502445,183.59691 L 30.502445,183.36403 C 30.502445,183.13965 30.276989,182.95902 29.996947,182.95902 L 28.985949,182.95902 L 28.985949,173.99823 L 28.985949,173.76536 L 28.973311,173.76536 C 28.845283,170.67919 26.186779,168.20662 22.919962,168.20663 z "
           id="path28837" />
        <path
           style="fill:#000000;fill-opacity:0.88235294;fill-rule:evenodd;stroke:#00a9ff;stroke-width:2.19996095;stroke-linecap:butt;stroke-linejoin:miter;stroke-miterlimit:4;stroke-dasharray:none;stroke-opacity:1"
           d="M 22.663034,184.0699 L 22.663034,201.16404"
           id="path28839" />
      </g>
      <g
         transform="matrix(0.6686359,0,0,0.748324,368.96405,-36.052754)"
         id="g28841">
        <path
           style="fill:#ff0000"
           d="M 22.919962,168.20663 C 19.653089,168.20663 16.994557,170.67912 16.866613,173.76536 L 16.853976,173.76536 L 16.853976,173.99823 L 16.853976,182.95902 L 15.918803,182.95902 C 15.638756,182.95902 15.413304,183.13965 15.413304,183.36403 L 15.413304,183.59691 C 15.413304,183.82128 15.638756,184.00191 15.918803,184.00191 L 29.996947,184.00191 C 30.276993,184.00191 30.502441,183.82128 30.502445,183.59691 L 30.502445,183.36403 C 30.502445,183.13965 30.276989,182.95902 29.996947,182.95902 L 28.985949,182.95902 L 28.985949,173.99823 L 28.985949,173.76536 L 28.973311,173.76536 C 28.845283,170.67919 26.186779,168.20662 22.919962,168.20663 z "
           id="path28843" />
        <path
           style="fill:#000000;fill-opacity:0.88235294;fill-rule:evenodd;stroke:#00a9ff;stroke-width:2.19996095;stroke-linecap:butt;stroke-linejoin:miter;stroke-miterlimit:4;stroke-dasharray:none;stroke-opacity:1"
           d="M 22.663034,184.0699 L 22.663034,201.16404"
           id="path28845" />
      </g>
      <g
         transform="matrix(0.6686359,0,0,0.748324,421.09253,-36.052754)"
         id="g28847">
        <path
           style="fill:#ff0000"
           d="M 22.919962,168.20663 C 19.653089,168.20663 16.994557,170.67912 16.866613,173.76536 L 16.853976,173.76536 L 16.853976,173.99823 L 16.853976,182.95902 L 15.918803,182.95902 C 15.638756,182.95902 15.413304,183.13965 15.413304,183.36403 L 15.413304,183.59691 C 15.413304,183.82128 15.638756,184.00191 15.918803,184.00191 L 29.996947,184.00191 C 30.276993,184.00191 30.502441,183.82128 30.502445,183.59691 L 30.502445,183.36403 C 30.502445,183.13965 30.276989,182.95902 29.996947,182.95902 L 28.985949,182.95902 L 28.985949,173.99823 L 28.985949,173.76536 L 28.973311,173.76536 C 28.845283,170.67919 26.186779,168.20662 22.919962,168.20663 z "
           id="path28849" />
        <path
           style="fill:#000000;fill-opacity:0.88235294;fill-rule:evenodd;stroke:#00a9ff;stroke-width:2.19996095;stroke-linecap:butt;stroke-linejoin:miter;stroke-miterlimit:4;stroke-dasharray:none;stroke-opacity:1"
           d="M 22.663034,184.0699 L 22.663034,201.16404"
           id="path28851" />
      </g>
      <g
         transform="matrix(0.6686359,0,0,0.748324,473.22099,-36.052754)"
         id="g28853">
        <path
           style="fill:#ff0000"
           d="M 22.919962,168.20663 C 19.653089,168.20663 16.994557,170.67912 16.866613,173.76536 L 16.853976,173.76536 L 16.853976,173.99823 L 16.853976,182.95902 L 15.918803,182.95902 C 15.638756,182.95902 15.413304,183.13965 15.413304,183.36403 L 15.413304,183.59691 C 15.413304,183.82128 15.638756,184.00191 15.918803,184.00191 L 29.996947,184.00191 C 30.276993,184.00191 30.502441,183.82128 30.502445,183.59691 L 30.502445,183.36403 C 30.502445,183.13965 30.276989,182.95902 29.996947,182.95902 L 28.985949,182.95902 L 28.985949,173.99823 L 28.985949,173.76536 L 28.973311,173.76536 C 28.845283,170.67919 26.186779,168.20662 22.919962,168.20663 z "
           id="path28855" />
        <path
           style="fill:#000000;fill-opacity:0.88235294;fill-rule:evenodd;stroke:#00a9ff;stroke-width:2.19996095;stroke-linecap:butt;stroke-linejoin:miter;stroke-miterlimit:4;stroke-dasharray:none;stroke-opacity:1"
           d="M 22.663034,184.0699 L 22.663034,201.16404"
           id="path28857" />
      </g>
    </g>
  </g>
  <g
     inkscape:groupmode="layer"
     id="layer6"
     inkscape:label="LEDs Ebenen"
     style="display:inline">
    <g
       style="display:inline"
       id="g28886"
       transform="translate(0,52.015321)">
      <g
         transform="matrix(0.6686359,0,0,0.748324,108.3217,-36.052754)"
         id="g28888">
        <path
           style="fill:#ff0000"
           d="M 22.919962,168.20663 C 19.653089,168.20663 16.994557,170.67912 16.866613,173.76536 L 16.853976,173.76536 L 16.853976,173.99823 L 16.853976,182.95902 L 15.918803,182.95902 C 15.638756,182.95902 15.413304,183.13965 15.413304,183.36403 L 15.413304,183.59691 C 15.413304,183.82128 15.638756,184.00191 15.918803,184.00191 L 29.996947,184.00191 C 30.276993,184.00191 30.502441,183.82128 30.502445,183.59691 L 30.502445,183.36403 C 30.502445,183.13965 30.276989,182.95902 29.996947,182.95902 L 28.985949,182.95902 L 28.985949,173.99823 L 28.985949,173.76536 L 28.973311,173.76536 C 28.845283,170.67919 26.186779,168.20662 22.919962,168.20663 z "
           id="path28890" />
        <path
           style="fill:#000000;fill-opacity:0.88235294;fill-rule:evenodd;stroke:#00a9ff;stroke-width:2.19996095;stroke-linecap:butt;stroke-linejoin:miter;stroke-miterlimit:4;stroke-dasharray:none;stroke-opacity:1"
           d="M 22.663034,184.0699 L 22.663034,201.16404"
           id="path28892" />
      </g>
      <g
         transform="matrix(0.6686359,0,0,0.748324,160.45017,-36.052754)"
         id="g28894">
        <path
           style="fill:#ff0000"
           d="M 22.919962,168.20663 C 19.653089,168.20663 16.994557,170.67912 16.866613,173.76536 L 16.853976,173.76536 L 16.853976,173.99823 L 16.853976,182.95902 L 15.918803,182.95902 C 15.638756,182.95902 15.413304,183.13965 15.413304,183.36403 L 15.413304,183.59691 C 15.413304,183.82128 15.638756,184.00191 15.918803,184.00191 L 29.996947,184.00191 C 30.276993,184.00191 30.502441,183.82128 30.502445,183.59691 L 30.502445,183.36403 C 30.502445,183.13965 30.276989,182.95902 29.996947,182.95902 L 28.985949,182.95902 L 28.985949,173.99823 L 28.985949,173.76536 L 28.973311,173.76536 C 28.845283,170.67919 26.186779,168.20662 22.919962,168.20663 z "
           id="path28896" />
        <path
           style="fill:#000000;fill-opacity:0.88235294;fill-rule:evenodd;stroke:#00a9ff;stroke-width:2.19996095;stroke-linecap:butt;stroke-linejoin:miter;stroke-miterlimit:4;stroke-dasharray:none;stroke-opacity:1"
           d="M 22.663034,184.0699 L 22.663034,201.16404"
           id="path28898" />
      </g>
      <g
         transform="matrix(0.6686359,0,0,0.748324,212.57865,-36.052754)"
         id="g28900">
        <path
           style="fill:#ff0000"
           d="M 22.919962,168.20663 C 19.653089,168.20663 16.994557,170.67912 16.866613,173.76536 L 16.853976,173.76536 L 16.853976,173.99823 L 16.853976,182.95902 L 15.918803,182.95902 C 15.638756,182.95902 15.413304,183.13965 15.413304,183.36403 L 15.413304,183.59691 C 15.413304,183.82128 15.638756,184.00191 15.918803,184.00191 L 29.996947,184.00191 C 30.276993,184.00191 30.502441,183.82128 30.502445,183.59691 L 30.502445,183.36403 C 30.502445,183.13965 30.276989,182.95902 29.996947,182.95902 L 28.985949,182.95902 L 28.985949,173.99823 L 28.985949,173.76536 L 28.973311,173.76536 C 28.845283,170.67919 26.186779,168.20662 22.919962,168.20663 z "
           id="path28902" />
        <path
           style="fill:#000000;fill-opacity:0.88235294;fill-rule:evenodd;stroke:#00a9ff;stroke-width:2.19996095;stroke-linecap:butt;stroke-linejoin:miter;stroke-miterlimit:4;stroke-dasharray:none;stroke-opacity:1"
           d="M 22.663034,184.0699 L 22.663034,201.16404"
           id="path28904" />
      </g>
      <g
         transform="matrix(0.6686359,0,0,0.748324,264.7071,-36.052754)"
         id="g28906">
        <path
           style="fill:#ff0000"
           d="M 22.919962,168.20663 C 19.653089,168.20663 16.994557,170.67912 16.866613,173.76536 L 16.853976,173.76536 L 16.853976,173.99823 L 16.853976,182.95902 L 15.918803,182.95902 C 15.638756,182.95902 15.413304,183.13965 15.413304,183.36403 L 15.413304,183.59691 C 15.413304,183.82128 15.638756,184.00191 15.918803,184.00191 L 29.996947,184.00191 C 30.276993,184.00191 30.502441,183.82128 30.502445,183.59691 L 30.502445,183.36403 C 30.502445,183.13965 30.276989,182.95902 29.996947,182.95902 L 28.985949,182.95902 L 28.985949,173.99823 L 28.985949,173.76536 L 28.973311,173.76536 C 28.845283,170.67919 26.186779,168.20662 22.919962,168.20663 z "
           id="path28908" />
        <path
           style="fill:#000000;fill-opacity:0.88235294;fill-rule:evenodd;stroke:#00a9ff;stroke-width:2.19996095;stroke-linecap:butt;stroke-linejoin:miter;stroke-miterlimit:4;stroke-dasharray:none;stroke-opacity:1"
           d="M 22.663034,184.0699 L 22.663034,201.16404"
           id="path28910" />
      </g>
      <g
         transform="matrix(0.6686359,0,0,0.748324,316.83559,-36.052754)"
         id="g28912">
        <path
           style="fill:#ff0000"
           d="M 22.919962,168.20663 C 19.653089,168.20663 16.994557,170.67912 16.866613,173.76536 L 16.853976,173.76536 L 16.853976,173.99823 L 16.853976,182.95902 L 15.918803,182.95902 C 15.638756,182.95902 15.413304,183.13965 15.413304,183.36403 L 15.413304,183.59691 C 15.413304,183.82128 15.638756,184.00191 15.918803,184.00191 L 29.996947,184.00191 C 30.276993,184.00191 30.502441,183.82128 30.502445,183.59691 L 30.502445,183.36403 C 30.502445,183.13965 30.276989,182.95902 29.996947,182.95902 L 28.985949,182.95902 L 28.985949,173.99823 L 28.985949,173.76536 L 28.973311,173.76536 C 28.845283,170.67919 26.186779,168.20662 22.919962,168.20663 z "
           id="path28914" />
        <path
           style="fill:#000000;fill-opacity:0.88235294;fill-rule:evenodd;stroke:#00a9ff;stroke-width:2.19996095;stroke-linecap:butt;stroke-linejoin:miter;stroke-miterlimit:4;stroke-dasharray:none;stroke-opacity:1"
           d="M 22.663034,184.0699 L 22.663034,201.16404"
           id="path28916" />
      </g>
      <g
         transform="matrix(0.6686359,0,0,0.748324,368.96405,-36.052754)"
         id="g28918">
        <path
           style="fill:#ff0000"
           d="M 22.919962,168.20663 C 19.653089,168.20663 16.994557,170.67912 16.866613,173.76536 L 16.853976,173.76536 L 16.853976,173.99823 L 16.853976,182.95902 L 15.918803,182.95902 C 15.638756,182.95902 15.413304,183.13965 15.413304,183.36403 L 15.413304,183.59691 C 15.413304,183.82128 15.638756,184.00191 15.918803,184.00191 L 29.996947,184.00191 C 30.276993,184.00191 30.502441,183.82128 30.502445,183.59691 L 30.502445,183.36403 C 30.502445,183.13965 30.276989,182.95902 29.996947,182.95902 L 28.985949,182.95902 L 28.985949,173.99823 L 28.985949,173.76536 L 28.973311,173.76536 C 28.845283,170.67919 26.186779,168.20662 22.919962,168.20663 z "
           id="path28920" />
        <path
           style="fill:#000000;fill-opacity:0.88235294;fill-rule:evenodd;stroke:#00a9ff;stroke-width:2.19996095;stroke-linecap:butt;stroke-linejoin:miter;stroke-miterlimit:4;stroke-dasharray:none;stroke-opacity:1"
           d="M 22.663034,184.0699 L 22.663034,201.16404"
           id="path28922" />
      </g>
      <g
         transform="matrix(0.6686359,0,0,0.748324,421.09253,-36.052754)"
         id="g28924">
        <path
           style="fill:#ff0000"
           d="M 22.919962,168.20663 C 19.653089,168.20663 16.994557,170.67912 16.866613,173.76536 L 16.853976,173.76536 L 16.853976,173.99823 L 16.853976,182.95902 L 15.918803,182.95902 C 15.638756,182.95902 15.413304,183.13965 15.413304,183.36403 L 15.413304,183.59691 C 15.413304,183.82128 15.638756,184.00191 15.918803,184.00191 L 29.996947,184.00191 C 30.276993,184.00191 30.502441,183.82128 30.502445,183.59691 L 30.502445,183.36403 C 30.502445,183.13965 30.276989,182.95902 29.996947,182.95902 L 28.985949,182.95902 L 28.985949,173.99823 L 28.985949,173.76536 L 28.973311,173.76536 C 28.845283,170.67919 26.186779,168.20662 22.919962,168.20663 z "
           id="path28926" />
        <path
           style="fill:#000000;fill-opacity:0.88235294;fill-rule:evenodd;stroke:#00a9ff;stroke-width:2.19996095;stroke-linecap:butt;stroke-linejoin:miter;stroke-miterlimit:4;stroke-dasharray:none;stroke-opacity:1"
           d="M 22.663034,184.0699 L 22.663034,201.16404"
           id="path28928" />
      </g>
      <g
         transform="matrix(0.6686359,0,0,0.748324,473.22099,-36.052754)"
         id="g28930">
        <path
           style="fill:#ff0000"
           d="M 22.919962,168.20663 C 19.653089,168.20663 16.994557,170.67912 16.866613,173.76536 L 16.853976,173.76536 L 16.853976,173.99823 L 16.853976,182.95902 L 15.918803,182.95902 C 15.638756,182.95902 15.413304,183.13965 15.413304,183.36403 L 15.413304,183.59691 C 15.413304,183.82128 15.638756,184.00191 15.918803,184.00191 L 29.996947,184.00191 C 30.276993,184.00191 30.502441,183.82128 30.502445,183.59691 L 30.502445,183.36403 C 30.502445,183.13965 30.276989,182.95902 29.996947,182.95902 L 28.985949,182.95902 L 28.985949,173.99823 L 28.985949,173.76536 L 28.973311,173.76536 C 28.845283,170.67919 26.186779,168.20662 22.919962,168.20663 z "
           id="path28932" />
        <path
           style="fill:#000000;fill-opacity:0.88235294;fill-rule:evenodd;stroke:#00a9ff;stroke-width:2.19996095;stroke-linecap:butt;stroke-linejoin:miter;stroke-miterlimit:4;stroke-dasharray:none;stroke-opacity:1"
           d="M 22.663034,184.0699 L 22.663034,201.16404"
           id="path28934" />
      </g>
    </g>
    <g
       style="display:inline"
       id="g28936"
       transform="translate(0,104.03065)">
      <g
         transform="matrix(0.6686359,0,0,0.748324,108.3217,-36.052754)"
         id="g28938">
        <path
           style="fill:#ff0000"
           d="M 22.919962,168.20663 C 19.653089,168.20663 16.994557,170.67912 16.866613,173.76536 L 16.853976,173.76536 L 16.853976,173.99823 L 16.853976,182.95902 L 15.918803,182.95902 C 15.638756,182.95902 15.413304,183.13965 15.413304,183.36403 L 15.413304,183.59691 C 15.413304,183.82128 15.638756,184.00191 15.918803,184.00191 L 29.996947,184.00191 C 30.276993,184.00191 30.502441,183.82128 30.502445,183.59691 L 30.502445,183.36403 C 30.502445,183.13965 30.276989,182.95902 29.996947,182.95902 L 28.985949,182.95902 L 28.985949,173.99823 L 28.985949,173.76536 L 28.973311,173.76536 C 28.845283,170.67919 26.186779,168.20662 22.919962,168.20663 z "
           id="path28940" />
        <path
           style="fill:#000000;fill-opacity:0.88235294;fill-rule:evenodd;stroke:#00a9ff;stroke-width:2.19996095;stroke-linecap:butt;stroke-linejoin:miter;stroke-miterlimit:4;stroke-dasharray:none;stroke-opacity:1"
           d="M 22.663034,184.0699 L 22.663034,201.16404"
           id="path28942" />
      </g>
      <g
         transform="matrix(0.6686359,0,0,0.748324,160.45017,-36.052754)"
         id="g28944">
        <path
           style="fill:#ff0000"
           d="M 22.919962,168.20663 C 19.653089,168.20663 16.994557,170.67912 16.866613,173.76536 L 16.853976,173.76536 L 16.853976,173.99823 L 16.853976,182.95902 L 15.918803,182.95902 C 15.638756,182.95902 15.413304,183.13965 15.413304,183.36403 L 15.413304,183.59691 C 15.413304,183.82128 15.638756,184.00191 15.918803,184.00191 L 29.996947,184.00191 C 30.276993,184.00191 30.502441,183.82128 30.502445,183.59691 L 30.502445,183.36403 C 30.502445,183.13965 30.276989,182.95902 29.996947,182.95902 L 28.985949,182.95902 L 28.985949,173.99823 L 28.985949,173.76536 L 28.973311,173.76536 C 28.845283,170.67919 26.186779,168.20662 22.919962,168.20663 z "
           id="path28946" />
        <path
           style="fill:#000000;fill-opacity:0.88235294;fill-rule:evenodd;stroke:#00a9ff;stroke-width:2.19996095;stroke-linecap:butt;stroke-linejoin:miter;stroke-miterlimit:4;stroke-dasharray:none;stroke-opacity:1"
           d="M 22.663034,184.0699 L 22.663034,201.16404"
           id="path28948" />
      </g>
      <g
         transform="matrix(0.6686359,0,0,0.748324,212.57865,-36.052754)"
         id="g28950">
        <path
           style="fill:#ff0000"
           d="M 22.919962,168.20663 C 19.653089,168.20663 16.994557,170.67912 16.866613,173.76536 L 16.853976,173.76536 L 16.853976,173.99823 L 16.853976,182.95902 L 15.918803,182.95902 C 15.638756,182.95902 15.413304,183.13965 15.413304,183.36403 L 15.413304,183.59691 C 15.413304,183.82128 15.638756,184.00191 15.918803,184.00191 L 29.996947,184.00191 C 30.276993,184.00191 30.502441,183.82128 30.502445,183.59691 L 30.502445,183.36403 C 30.502445,183.13965 30.276989,182.95902 29.996947,182.95902 L 28.985949,182.95902 L 28.985949,173.99823 L 28.985949,173.76536 L 28.973311,173.76536 C 28.845283,170.67919 26.186779,168.20662 22.919962,168.20663 z "
           id="path28952" />
        <path
           style="fill:#000000;fill-opacity:0.88235294;fill-rule:evenodd;stroke:#00a9ff;stroke-width:2.19996095;stroke-linecap:butt;stroke-linejoin:miter;stroke-miterlimit:4;stroke-dasharray:none;stroke-opacity:1"
           d="M 22.663034,184.0699 L 22.663034,201.16404"
           id="path28954" />
      </g>
      <g
         transform="matrix(0.6686359,0,0,0.748324,264.7071,-36.052754)"
         id="g28956">
        <path
           style="fill:#ff0000"
           d="M 22.919962,168.20663 C 19.653089,168.20663 16.994557,170.67912 16.866613,173.76536 L 16.853976,173.76536 L 16.853976,173.99823 L 16.853976,182.95902 L 15.918803,182.95902 C 15.638756,182.95902 15.413304,183.13965 15.413304,183.36403 L 15.413304,183.59691 C 15.413304,183.82128 15.638756,184.00191 15.918803,184.00191 L 29.996947,184.00191 C 30.276993,184.00191 30.502441,183.82128 30.502445,183.59691 L 30.502445,183.36403 C 30.502445,183.13965 30.276989,182.95902 29.996947,182.95902 L 28.985949,182.95902 L 28.985949,173.99823 L 28.985949,173.76536 L 28.973311,173.76536 C 28.845283,170.67919 26.186779,168.20662 22.919962,168.20663 z "
           id="path28958" />
        <path
           style="fill:#000000;fill-opacity:0.88235294;fill-rule:evenodd;stroke:#00a9ff;stroke-width:2.19996095;stroke-linecap:butt;stroke-linejoin:miter;stroke-miterlimit:4;stroke-dasharray:none;stroke-opacity:1"
           d="M 22.663034,184.0699 L 22.663034,201.16404"
           id="path28960" />
      </g>
      <g
         transform="matrix(0.6686359,0,0,0.748324,316.83559,-36.052754)"
         id="g28962">
        <path
           style="fill:#ff0000"
           d="M 22.919962,168.20663 C 19.653089,168.20663 16.994557,170.67912 16.866613,173.76536 L 16.853976,173.76536 L 16.853976,173.99823 L 16.853976,182.95902 L 15.918803,182.95902 C 15.638756,182.95902 15.413304,183.13965 15.413304,183.36403 L 15.413304,183.59691 C 15.413304,183.82128 15.638756,184.00191 15.918803,184.00191 L 29.996947,184.00191 C 30.276993,184.00191 30.502441,183.82128 30.502445,183.59691 L 30.502445,183.36403 C 30.502445,183.13965 30.276989,182.95902 29.996947,182.95902 L 28.985949,182.95902 L 28.985949,173.99823 L 28.985949,173.76536 L 28.973311,173.76536 C 28.845283,170.67919 26.186779,168.20662 22.919962,168.20663 z "
           id="path28964" />
        <path
           style="fill:#000000;fill-opacity:0.88235294;fill-rule:evenodd;stroke:#00a9ff;stroke-width:2.19996095;stroke-linecap:butt;stroke-linejoin:miter;stroke-miterlimit:4;stroke-dasharray:none;stroke-opacity:1"
           d="M 22.663034,184.0699 L 22.663034,201.16404"
           id="path28966" />
      </g>
      <g
         transform="matrix(0.6686359,0,0,0.748324,368.96405,-36.052754)"
         id="g28968">
        <path
           style="fill:#ff0000"
           d="M 22.919962,168.20663 C 19.653089,168.20663 16.994557,170.67912 16.866613,173.76536 L 16.853976,173.76536 L 16.853976,173.99823 L 16.853976,182.95902 L 15.918803,182.95902 C 15.638756,182.95902 15.413304,183.13965 15.413304,183.36403 L 15.413304,183.59691 C 15.413304,183.82128 15.638756,184.00191 15.918803,184.00191 L 29.996947,184.00191 C 30.276993,184.00191 30.502441,183.82128 30.502445,183.59691 L 30.502445,183.36403 C 30.502445,183.13965 30.276989,182.95902 29.996947,182.95902 L 28.985949,182.95902 L 28.985949,173.99823 L 28.985949,173.76536 L 28.973311,173.76536 C 28.845283,170.67919 26.186779,168.20662 22.919962,168.20663 z "
           id="path28970" />
        <path
           style="fill:#000000;fill-opacity:0.88235294;fill-rule:evenodd;stroke:#00a9ff;stroke-width:2.19996095;stroke-linecap:butt;stroke-linejoin:miter;stroke-miterlimit:4;stroke-dasharray:none;stroke-opacity:1"
           d="M 22.663034,184.0699 L 22.663034,201.16404"
           id="path28972" />
      </g>
      <g
         transform="matrix(0.6686359,0,0,0.748324,421.09253,-36.052754)"
         id="g28974">
        <path
           style="fill:#ff0000"
           d="M 22.919962,168.20663 C 19.653089,168.20663 16.994557,170.67912 16.866613,173.76536 L 16.853976,173.76536 L 16.853976,173.99823 L 16.853976,182.95902 L 15.918803,182.95902 C 15.638756,182.95902 15.413304,183.13965 15.413304,183.36403 L 15.413304,183.59691 C 15.413304,183.82128 15.638756,184.00191 15.918803,184.00191 L 29.996947,184.00191 C 30.276993,184.00191 30.502441,183.82128 30.502445,183.59691 L 30.502445,183.36403 C 30.502445,183.13965 30.276989,182.95902 29.996947,182.95902 L 28.985949,182.95902 L 28.985949,173.99823 L 28.985949,173.76536 L 28.973311,173.76536 C 28.845283,170.67919 26.186779,168.20662 22.919962,168.20663 z "
           id="path28976" />
        <path
           style="fill:#000000;fill-opacity:0.88235294;fill-rule:evenodd;stroke:#00a9ff;stroke-width:2.19996095;stroke-linecap:butt;stroke-linejoin:miter;stroke-miterlimit:4;stroke-dasharray:none;stroke-opacity:1"
           d="M 22.663034,184.0699 L 22.663034,201.16404"
           id="path28978" />
      </g>
      <g
         transform="matrix(0.6686359,0,0,0.748324,473.22099,-36.052754)"
         id="g28980">
        <path
           style="fill:#ff0000"
           d="M 22.919962,168.20663 C 19.653089,168.20663 16.994557,170.67912 16.866613,173.76536 L 16.853976,173.76536 L 16.853976,173.99823 L 16.853976,182.95902 L 15.918803,182.95902 C 15.638756,182.95902 15.413304,183.13965 15.413304,183.36403 L 15.413304,183.59691 C 15.413304,183.82128 15.638756,184.00191 15.918803,184.00191 L 29.996947,184.00191 C 30.276993,184.00191 30.502441,183.82128 30.502445,183.59691 L 30.502445,183.36403 C 30.502445,183.13965 30.276989,182.95902 29.996947,182.95902 L 28.985949,182.95902 L 28.985949,173.99823 L 28.985949,173.76536 L 28.973311,173.76536 C 28.845283,170.67919 26.186779,168.20662 22.919962,168.20663 z "
           id="path28982" />
        <path
           style="fill:#000000;fill-opacity:0.88235294;fill-rule:evenodd;stroke:#00a9ff;stroke-width:2.19996095;stroke-linecap:butt;stroke-linejoin:miter;stroke-miterlimit:4;stroke-dasharray:none;stroke-opacity:1"
           d="M 22.663034,184.0699 L 22.663034,201.16404"
           id="path28984" />
      </g>
    </g>
    <g
       style="display:inline"
       id="g28986"
       transform="translate(0,156.04592)">
      <g
         transform="matrix(0.6686359,0,0,0.748324,108.3217,-36.052754)"
         id="g28988">
        <path
           style="fill:#ff0000"
           d="M 22.919962,168.20663 C 19.653089,168.20663 16.994557,170.67912 16.866613,173.76536 L 16.853976,173.76536 L 16.853976,173.99823 L 16.853976,182.95902 L 15.918803,182.95902 C 15.638756,182.95902 15.413304,183.13965 15.413304,183.36403 L 15.413304,183.59691 C 15.413304,183.82128 15.638756,184.00191 15.918803,184.00191 L 29.996947,184.00191 C 30.276993,184.00191 30.502441,183.82128 30.502445,183.59691 L 30.502445,183.36403 C 30.502445,183.13965 30.276989,182.95902 29.996947,182.95902 L 28.985949,182.95902 L 28.985949,173.99823 L 28.985949,173.76536 L 28.973311,173.76536 C 28.845283,170.67919 26.186779,168.20662 22.919962,168.20663 z "
           id="path28990" />
        <path
           style="fill:#000000;fill-opacity:0.88235294;fill-rule:evenodd;stroke:#00a9ff;stroke-width:2.19996095;stroke-linecap:butt;stroke-linejoin:miter;stroke-miterlimit:4;stroke-dasharray:none;stroke-opacity:1"
           d="M 22.663034,184.0699 L 22.663034,201.16404"
           id="path28992" />
      </g>
      <g
         transform="matrix(0.6686359,0,0,0.748324,160.45017,-36.052754)"
         id="g28994">
        <path
           style="fill:#ff0000"
           d="M 22.919962,168.20663 C 19.653089,168.20663 16.994557,170.67912 16.866613,173.76536 L 16.853976,173.76536 L 16.853976,173.99823 L 16.853976,182.95902 L 15.918803,182.95902 C 15.638756,182.95902 15.413304,183.13965 15.413304,183.36403 L 15.413304,183.59691 C 15.413304,183.82128 15.638756,184.00191 15.918803,184.00191 L 29.996947,184.00191 C 30.276993,184.00191 30.502441,183.82128 30.502445,183.59691 L 30.502445,183.36403 C 30.502445,183.13965 30.276989,182.95902 29.996947,182.95902 L 28.985949,182.95902 L 28.985949,173.99823 L 28.985949,173.76536 L 28.973311,173.76536 C 28.845283,170.67919 26.186779,168.20662 22.919962,168.20663 z "
           id="path28996" />
        <path
           style="fill:#000000;fill-opacity:0.88235294;fill-rule:evenodd;stroke:#00a9ff;stroke-width:2.19996095;stroke-linecap:butt;stroke-linejoin:miter;stroke-miterlimit:4;stroke-dasharray:none;stroke-opacity:1"
           d="M 22.663034,184.0699 L 22.663034,201.16404"
           id="path28998" />
      </g>
      <g
         transform="matrix(0.6686359,0,0,0.748324,212.57865,-36.052754)"
         id="g29000">
        <path
           style="fill:#ff0000"
           d="M 22.919962,168.20663 C 19.653089,168.20663 16.994557,170.67912 16.866613,173.76536 L 16.853976,173.76536 L 16.853976,173.99823 L 16.853976,182.95902 L 15.918803,182.95902 C 15.638756,182.95902 15.413304,183.13965 15.413304,183.36403 L 15.413304,183.59691 C 15.413304,183.82128 15.638756,184.00191 15.918803,184.00191 L 29.996947,184.00191 C 30.276993,184.00191 30.502441,183.82128 30.502445,183.59691 L 30.502445,183.36403 C 30.502445,183.13965 30.276989,182.95902 29.996947,182.95902 L 28.985949,182.95902 L 28.985949,173.99823 L 28.985949,173.76536 L 28.973311,173.76536 C 28.845283,170.67919 26.186779,168.20662 22.919962,168.20663 z "
           id="path29002" />
        <path
           style="fill:#000000;fill-opacity:0.88235294;fill-rule:evenodd;stroke:#00a9ff;stroke-width:2.19996095;stroke-linecap:butt;stroke-linejoin:miter;stroke-miterlimit:4;stroke-dasharray:none;stroke-opacity:1"
           d="M 22.663034,184.0699 L 22.663034,201.16404"
           id="path29004" />
      </g>
      <g
         transform="matrix(0.6686359,0,0,0.748324,264.7071,-36.052754)"
         id="g29006">
        <path
           style="fill:#ff0000"
           d="M 22.919962,168.20663 C 19.653089,168.20663 16.994557,170.67912 16.866613,173.76536 L 16.853976,173.76536 L 16.853976,173.99823 L 16.853976,182.95902 L 15.918803,182.95902 C 15.638756,182.95902 15.413304,183.13965 15.413304,183.36403 L 15.413304,183.59691 C 15.413304,183.82128 15.638756,184.00191 15.918803,184.00191 L 29.996947,184.00191 C 30.276993,184.00191 30.502441,183.82128 30.502445,183.59691 L 30.502445,183.36403 C 30.502445,183.13965 30.276989,182.95902 29.996947,182.95902 L 28.985949,182.95902 L 28.985949,173.99823 L 28.985949,173.76536 L 28.973311,173.76536 C 28.845283,170.67919 26.186779,168.20662 22.919962,168.20663 z "
           id="path29008" />
        <path
           style="fill:#000000;fill-opacity:0.88235294;fill-rule:evenodd;stroke:#00a9ff;stroke-width:2.19996095;stroke-linecap:butt;stroke-linejoin:miter;stroke-miterlimit:4;stroke-dasharray:none;stroke-opacity:1"
           d="M 22.663034,184.0699 L 22.663034,201.16404"
           id="path29010" />
      </g>
      <g
         transform="matrix(0.6686359,0,0,0.748324,316.83559,-36.052754)"
         id="g29012">
        <path
           style="fill:#ff0000"
           d="M 22.919962,168.20663 C 19.653089,168.20663 16.994557,170.67912 16.866613,173.76536 L 16.853976,173.76536 L 16.853976,173.99823 L 16.853976,182.95902 L 15.918803,182.95902 C 15.638756,182.95902 15.413304,183.13965 15.413304,183.36403 L 15.413304,183.59691 C 15.413304,183.82128 15.638756,184.00191 15.918803,184.00191 L 29.996947,184.00191 C 30.276993,184.00191 30.502441,183.82128 30.502445,183.59691 L 30.502445,183.36403 C 30.502445,183.13965 30.276989,182.95902 29.996947,182.95902 L 28.985949,182.95902 L 28.985949,173.99823 L 28.985949,173.76536 L 28.973311,173.76536 C 28.845283,170.67919 26.186779,168.20662 22.919962,168.20663 z "
           id="path29014" />
        <path
           style="fill:#000000;fill-opacity:0.88235294;fill-rule:evenodd;stroke:#00a9ff;stroke-width:2.19996095;stroke-linecap:butt;stroke-linejoin:miter;stroke-miterlimit:4;stroke-dasharray:none;stroke-opacity:1"
           d="M 22.663034,184.0699 L 22.663034,201.16404"
           id="path29016" />
      </g>
      <g
         transform="matrix(0.6686359,0,0,0.748324,368.96405,-36.052754)"
         id="g29018">
        <path
           style="fill:#ff0000"
           d="M 22.919962,168.20663 C 19.653089,168.20663 16.994557,170.67912 16.866613,173.76536 L 16.853976,173.76536 L 16.853976,173.99823 L 16.853976,182.95902 L 15.918803,182.95902 C 15.638756,182.95902 15.413304,183.13965 15.413304,183.36403 L 15.413304,183.59691 C 15.413304,183.82128 15.638756,184.00191 15.918803,184.00191 L 29.996947,184.00191 C 30.276993,184.00191 30.502441,183.82128 30.502445,183.59691 L 30.502445,183.36403 C 30.502445,183.13965 30.276989,182.95902 29.996947,182.95902 L 28.985949,182.95902 L 28.985949,173.99823 L 28.985949,173.76536 L 28.973311,173.76536 C 28.845283,170.67919 26.186779,168.20662 22.919962,168.20663 z "
           id="path29020" />
        <path
           style="fill:#000000;fill-opacity:0.88235294;fill-rule:evenodd;stroke:#00a9ff;stroke-width:2.19996095;stroke-linecap:butt;stroke-linejoin:miter;stroke-miterlimit:4;stroke-dasharray:none;stroke-opacity:1"
           d="M 22.663034,184.0699 L 22.663034,201.16404"
           id="path29022" />
      </g>
      <g
         transform="matrix(0.6686359,0,0,0.748324,421.09253,-36.052754)"
         id="g29024">
        <path
           style="fill:#ff0000"
           d="M 22.919962,168.20663 C 19.653089,168.20663 16.994557,170.67912 16.866613,173.76536 L 16.853976,173.76536 L 16.853976,173.99823 L 16.853976,182.95902 L 15.918803,182.95902 C 15.638756,182.95902 15.413304,183.13965 15.413304,183.36403 L 15.413304,183.59691 C 15.413304,183.82128 15.638756,184.00191 15.918803,184.00191 L 29.996947,184.00191 C 30.276993,184.00191 30.502441,183.82128 30.502445,183.59691 L 30.502445,183.36403 C 30.502445,183.13965 30.276989,182.95902 29.996947,182.95902 L 28.985949,182.95902 L 28.985949,173.99823 L 28.985949,173.76536 L 28.973311,173.76536 C 28.845283,170.67919 26.186779,168.20662 22.919962,168.20663 z "
           id="path29026" />
        <path
           style="fill:#000000;fill-opacity:0.88235294;fill-rule:evenodd;stroke:#00a9ff;stroke-width:2.19996095;stroke-linecap:butt;stroke-linejoin:miter;stroke-miterlimit:4;stroke-dasharray:none;stroke-opacity:1"
           d="M 22.663034,184.0699 L 22.663034,201.16404"
           id="path29028" />
      </g>
      <g
         transform="matrix(0.6686359,0,0,0.748324,473.22099,-36.052754)"
         id="g29030">
        <path
           style="fill:#ff0000"
           d="M 22.919962,168.20663 C 19.653089,168.20663 16.994557,170.67912 16.866613,173.76536 L 16.853976,173.76536 L 16.853976,173.99823 L 16.853976,182.95902 L 15.918803,182.95902 C 15.638756,182.95902 15.413304,183.13965 15.413304,183.36403 L 15.413304,183.59691 C 15.413304,183.82128 15.638756,184.00191 15.918803,184.00191 L 29.996947,184.00191 C 30.276993,184.00191 30.502441,183.82128 30.502445,183.59691 L 30.502445,183.36403 C 30.502445,183.13965 30.276989,182.95902 29.996947,182.95902 L 28.985949,182.95902 L 28.985949,173.99823 L 28.985949,173.76536 L 28.973311,173.76536 C 28.845283,170.67919 26.186779,168.20662 22.919962,168.20663 z "
           id="path29032" />
        <path
           style="fill:#000000;fill-opacity:0.88235294;fill-rule:evenodd;stroke:#00a9ff;stroke-width:2.19996095;stroke-linecap:butt;stroke-linejoin:miter;stroke-miterlimit:4;stroke-dasharray:none;stroke-opacity:1"
           d="M 22.663034,184.0699 L 22.663034,201.16404"
           id="path29034" />
      </g>
    </g>
    <g
       style="display:inline"
       id="g29036"
       transform="translate(0,208.06122)">
      <g
         transform="matrix(0.6686359,0,0,0.748324,108.3217,-36.052754)"
         id="g29038">
        <path
           style="fill:#ff0000"
           d="M 22.919962,168.20663 C 19.653089,168.20663 16.994557,170.67912 16.866613,173.76536 L 16.853976,173.76536 L 16.853976,173.99823 L 16.853976,182.95902 L 15.918803,182.95902 C 15.638756,182.95902 15.413304,183.13965 15.413304,183.36403 L 15.413304,183.59691 C 15.413304,183.82128 15.638756,184.00191 15.918803,184.00191 L 29.996947,184.00191 C 30.276993,184.00191 30.502441,183.82128 30.502445,183.59691 L 30.502445,183.36403 C 30.502445,183.13965 30.276989,182.95902 29.996947,182.95902 L 28.985949,182.95902 L 28.985949,173.99823 L 28.985949,173.76536 L 28.973311,173.76536 C 28.845283,170.67919 26.186779,168.20662 22.919962,168.20663 z "
           id="path29040" />
        <path
           style="fill:#000000;fill-opacity:0.88235294;fill-rule:evenodd;stroke:#00a9ff;stroke-width:2.19996095;stroke-linecap:butt;stroke-linejoin:miter;stroke-miterlimit:4;stroke-dasharray:none;stroke-opacity:1"
           d="M 22.663034,184.0699 L 22.663034,201.16404"
           id="path29042" />
      </g>
      <g
         transform="matrix(0.6686359,0,0,0.748324,160.45017,-36.052754)"
         id="g29044">
        <path
           style="fill:#ff0000"
           d="M 22.919962,168.20663 C 19.653089,168.20663 16.994557,170.67912 16.866613,173.76536 L 16.853976,173.76536 L 16.853976,173.99823 L 16.853976,182.95902 L 15.918803,182.95902 C 15.638756,182.95902 15.413304,183.13965 15.413304,183.36403 L 15.413304,183.59691 C 15.413304,183.82128 15.638756,184.00191 15.918803,184.00191 L 29.996947,184.00191 C 30.276993,184.00191 30.502441,183.82128 30.502445,183.59691 L 30.502445,183.36403 C 30.502445,183.13965 30.276989,182.95902 29.996947,182.95902 L 28.985949,182.95902 L 28.985949,173.99823 L 28.985949,173.76536 L 28.973311,173.76536 C 28.845283,170.67919 26.186779,168.20662 22.919962,168.20663 z "
           id="path29046" />
        <path
           style="fill:#000000;fill-opacity:0.88235294;fill-rule:evenodd;stroke:#00a9ff;stroke-width:2.19996095;stroke-linecap:butt;stroke-linejoin:miter;stroke-miterlimit:4;stroke-dasharray:none;stroke-opacity:1"
           d="M 22.663034,184.0699 L 22.663034,201.16404"
           id="path29048" />
      </g>
      <g
         transform="matrix(0.6686359,0,0,0.748324,212.57865,-36.052754)"
         id="g29050">
        <path
           style="fill:#ff0000"
           d="M 22.919962,168.20663 C 19.653089,168.20663 16.994557,170.67912 16.866613,173.76536 L 16.853976,173.76536 L 16.853976,173.99823 L 16.853976,182.95902 L 15.918803,182.95902 C 15.638756,182.95902 15.413304,183.13965 15.413304,183.36403 L 15.413304,183.59691 C 15.413304,183.82128 15.638756,184.00191 15.918803,184.00191 L 29.996947,184.00191 C 30.276993,184.00191 30.502441,183.82128 30.502445,183.59691 L 30.502445,183.36403 C 30.502445,183.13965 30.276989,182.95902 29.996947,182.95902 L 28.985949,182.95902 L 28.985949,173.99823 L 28.985949,173.76536 L 28.973311,173.76536 C 28.845283,170.67919 26.186779,168.20662 22.919962,168.20663 z "
           id="path29052" />
        <path
           style="fill:#000000;fill-opacity:0.88235294;fill-rule:evenodd;stroke:#00a9ff;stroke-width:2.19996095;stroke-linecap:butt;stroke-linejoin:miter;stroke-miterlimit:4;stroke-dasharray:none;stroke-opacity:1"
           d="M 22.663034,184.0699 L 22.663034,201.16404"
           id="path29054" />
      </g>
      <g
         transform="matrix(0.6686359,0,0,0.748324,264.7071,-36.052754)"
         id="g29056">
        <path
           style="fill:#ff0000"
           d="M 22.919962,168.20663 C 19.653089,168.20663 16.994557,170.67912 16.866613,173.76536 L 16.853976,173.76536 L 16.853976,173.99823 L 16.853976,182.95902 L 15.918803,182.95902 C 15.638756,182.95902 15.413304,183.13965 15.413304,183.36403 L 15.413304,183.59691 C 15.413304,183.82128 15.638756,184.00191 15.918803,184.00191 L 29.996947,184.00191 C 30.276993,184.00191 30.502441,183.82128 30.502445,183.59691 L 30.502445,183.36403 C 30.502445,183.13965 30.276989,182.95902 29.996947,182.95902 L 28.985949,182.95902 L 28.985949,173.99823 L 28.985949,173.76536 L 28.973311,173.76536 C 28.845283,170.67919 26.186779,168.20662 22.919962,168.20663 z "
           id="path29058" />
        <path
           style="fill:#000000;fill-opacity:0.88235294;fill-rule:evenodd;stroke:#00a9ff;stroke-width:2.19996095;stroke-linecap:butt;stroke-linejoin:miter;stroke-miterlimit:4;stroke-dasharray:none;stroke-opacity:1"
           d="M 22.663034,184.0699 L 22.663034,201.16404"
           id="path29060" />
      </g>
      <g
         transform="matrix(0.6686359,0,0,0.748324,316.83559,-36.052754)"
         id="g29062">
        <path
           style="fill:#ff0000"
           d="M 22.919962,168.20663 C 19.653089,168.20663 16.994557,170.67912 16.866613,173.76536 L 16.853976,173.76536 L 16.853976,173.99823 L 16.853976,182.95902 L 15.918803,182.95902 C 15.638756,182.95902 15.413304,183.13965 15.413304,183.36403 L 15.413304,183.59691 C 15.413304,183.82128 15.638756,184.00191 15.918803,184.00191 L 29.996947,184.00191 C 30.276993,184.00191 30.502441,183.82128 30.502445,183.59691 L 30.502445,183.36403 C 30.502445,183.13965 30.276989,182.95902 29.996947,182.95902 L 28.985949,182.95902 L 28.985949,173.99823 L 28.985949,173.76536 L 28.973311,173.76536 C 28.845283,170.67919 26.186779,168.20662 22.919962,168.20663 z "
           id="path29064" />
        <path
           style="fill:#000000;fill-opacity:0.88235294;fill-rule:evenodd;stroke:#00a9ff;stroke-width:2.19996095;stroke-linecap:butt;stroke-linejoin:miter;stroke-miterlimit:4;stroke-dasharray:none;stroke-opacity:1"
           d="M 22.663034,184.0699 L 22.663034,201.16404"
           id="path29066" />
      </g>
      <g
         transform="matrix(0.6686359,0,0,0.748324,368.96405,-36.052754)"
         id="g29068">
        <path
           style="fill:#ff0000"
           d="M 22.919962,168.20663 C 19.653089,168.20663 16.994557,170.67912 16.866613,173.76536 L 16.853976,173.76536 L 16.853976,173.99823 L 16.853976,182.95902 L 15.918803,182.95902 C 15.638756,182.95902 15.413304,183.13965 15.413304,183.36403 L 15.413304,183.59691 C 15.413304,183.82128 15.638756,184.00191 15.918803,184.00191 L 29.996947,184.00191 C 30.276993,184.00191 30.502441,183.82128 30.502445,183.59691 L 30.502445,183.36403 C 30.502445,183.13965 30.276989,182.95902 29.996947,182.95902 L 28.985949,182.95902 L 28.985949,173.99823 L 28.985949,173.76536 L 28.973311,173.76536 C 28.845283,170.67919 26.186779,168.20662 22.919962,168.20663 z "
           id="path29070" />
        <path
           style="fill:#000000;fill-opacity:0.88235294;fill-rule:evenodd;stroke:#00a9ff;stroke-width:2.19996095;stroke-linecap:butt;stroke-linejoin:miter;stroke-miterlimit:4;stroke-dasharray:none;stroke-opacity:1"
           d="M 22.663034,184.0699 L 22.663034,201.16404"
           id="path29072" />
      </g>
      <g
         transform="matrix(0.6686359,0,0,0.748324,421.09253,-36.052754)"
         id="g29074">
        <path
           style="fill:#ff0000"
           d="M 22.919962,168.20663 C 19.653089,168.20663 16.994557,170.67912 16.866613,173.76536 L 16.853976,173.76536 L 16.853976,173.99823 L 16.853976,182.95902 L 15.918803,182.95902 C 15.638756,182.95902 15.413304,183.13965 15.413304,183.36403 L 15.413304,183.59691 C 15.413304,183.82128 15.638756,184.00191 15.918803,184.00191 L 29.996947,184.00191 C 30.276993,184.00191 30.502441,183.82128 30.502445,183.59691 L 30.502445,183.36403 C 30.502445,183.13965 30.276989,182.95902 29.996947,182.95902 L 28.985949,182.95902 L 28.985949,173.99823 L 28.985949,173.76536 L 28.973311,173.76536 C 28.845283,170.67919 26.186779,168.20662 22.919962,168.20663 z "
           id="path29076" />
        <path
           style="fill:#000000;fill-opacity:0.88235294;fill-rule:evenodd;stroke:#00a9ff;stroke-width:2.19996095;stroke-linecap:butt;stroke-linejoin:miter;stroke-miterlimit:4;stroke-dasharray:none;stroke-opacity:1"
           d="M 22.663034,184.0699 L 22.663034,201.16404"
           id="path29078" />
      </g>
      <g
         transform="matrix(0.6686359,0,0,0.748324,473.22099,-36.052754)"
         id="g29080">
        <path
           style="fill:#ff0000"
           d="M 22.919962,168.20663 C 19.653089,168.20663 16.994557,170.67912 16.866613,173.76536 L 16.853976,173.76536 L 16.853976,173.99823 L 16.853976,182.95902 L 15.918803,182.95902 C 15.638756,182.95902 15.413304,183.13965 15.413304,183.36403 L 15.413304,183.59691 C 15.413304,183.82128 15.638756,184.00191 15.918803,184.00191 L 29.996947,184.00191 C 30.276993,184.00191 30.502441,183.82128 30.502445,183.59691 L 30.502445,183.36403 C 30.502445,183.13965 30.276989,182.95902 29.996947,182.95902 L 28.985949,182.95902 L 28.985949,173.99823 L 28.985949,173.76536 L 28.973311,173.76536 C 28.845283,170.67919 26.186779,168.20662 22.919962,168.20663 z "
           id="path29082" />
        <path
           style="fill:#000000;fill-opacity:0.88235294;fill-rule:evenodd;stroke:#00a9ff;stroke-width:2.19996095;stroke-linecap:butt;stroke-linejoin:miter;stroke-miterlimit:4;stroke-dasharray:none;stroke-opacity:1"
           d="M 22.663034,184.0699 L 22.663034,201.16404"
           id="path29084" />
      </g>
    </g>
    <g
       style="display:inline"
       id="g29086"
       transform="translate(0,260.07654)">
      <g
         transform="matrix(0.6686359,0,0,0.748324,108.3217,-36.052754)"
         id="g29088">
        <path
           style="fill:#ff0000"
           d="M 22.919962,168.20663 C 19.653089,168.20663 16.994557,170.67912 16.866613,173.76536 L 16.853976,173.76536 L 16.853976,173.99823 L 16.853976,182.95902 L 15.918803,182.95902 C 15.638756,182.95902 15.413304,183.13965 15.413304,183.36403 L 15.413304,183.59691 C 15.413304,183.82128 15.638756,184.00191 15.918803,184.00191 L 29.996947,184.00191 C 30.276993,184.00191 30.502441,183.82128 30.502445,183.59691 L 30.502445,183.36403 C 30.502445,183.13965 30.276989,182.95902 29.996947,182.95902 L 28.985949,182.95902 L 28.985949,173.99823 L 28.985949,173.76536 L 28.973311,173.76536 C 28.845283,170.67919 26.186779,168.20662 22.919962,168.20663 z "
           id="path29090" />
        <path
           style="fill:#000000;fill-opacity:0.88235294;fill-rule:evenodd;stroke:#00a9ff;stroke-width:2.19996095;stroke-linecap:butt;stroke-linejoin:miter;stroke-miterlimit:4;stroke-dasharray:none;stroke-opacity:1"
           d="M 22.663034,184.0699 L 22.663034,201.16404"
           id="path29092" />
      </g>
      <g
         transform="matrix(0.6686359,0,0,0.748324,160.45017,-36.052754)"
         id="g29094">
        <path
           style="fill:#ff0000"
           d="M 22.919962,168.20663 C 19.653089,168.20663 16.994557,170.67912 16.866613,173.76536 L 16.853976,173.76536 L 16.853976,173.99823 L 16.853976,182.95902 L 15.918803,182.95902 C 15.638756,182.95902 15.413304,183.13965 15.413304,183.36403 L 15.413304,183.59691 C 15.413304,183.82128 15.638756,184.00191 15.918803,184.00191 L 29.996947,184.00191 C 30.276993,184.00191 30.502441,183.82128 30.502445,183.59691 L 30.502445,183.36403 C 30.502445,183.13965 30.276989,182.95902 29.996947,182.95902 L 28.985949,182.95902 L 28.985949,173.99823 L 28.985949,173.76536 L 28.973311,173.76536 C 28.845283,170.67919 26.186779,168.20662 22.919962,168.20663 z "
           id="path29096" />
        <path
           style="fill:#000000;fill-opacity:0.88235294;fill-rule:evenodd;stroke:#00a9ff;stroke-width:2.19996095;stroke-linecap:butt;stroke-linejoin:miter;stroke-miterlimit:4;stroke-dasharray:none;stroke-opacity:1"
           d="M 22.663034,184.0699 L 22.663034,201.16404"
           id="path29098" />
      </g>
      <g
         transform="matrix(0.6686359,0,0,0.748324,212.57865,-36.052754)"
         id="g29100">
        <path
           style="fill:#ff0000"
           d="M 22.919962,168.20663 C 19.653089,168.20663 16.994557,170.67912 16.866613,173.76536 L 16.853976,173.76536 L 16.853976,173.99823 L 16.853976,182.95902 L 15.918803,182.95902 C 15.638756,182.95902 15.413304,183.13965 15.413304,183.36403 L 15.413304,183.59691 C 15.413304,183.82128 15.638756,184.00191 15.918803,184.00191 L 29.996947,184.00191 C 30.276993,184.00191 30.502441,183.82128 30.502445,183.59691 L 30.502445,183.36403 C 30.502445,183.13965 30.276989,182.95902 29.996947,182.95902 L 28.985949,182.95902 L 28.985949,173.99823 L 28.985949,173.76536 L 28.973311,173.76536 C 28.845283,170.67919 26.186779,168.20662 22.919962,168.20663 z "
           id="path29102" />
        <path
           style="fill:#000000;fill-opacity:0.88235294;fill-rule:evenodd;stroke:#00a9ff;stroke-width:2.19996095;stroke-linecap:butt;stroke-linejoin:miter;stroke-miterlimit:4;stroke-dasharray:none;stroke-opacity:1"
           d="M 22.663034,184.0699 L 22.663034,201.16404"
           id="path29104" />
      </g>
      <g
         transform="matrix(0.6686359,0,0,0.748324,264.7071,-36.052754)"
         id="g29106">
        <path
           style="fill:#ff0000"
           d="M 22.919962,168.20663 C 19.653089,168.20663 16.994557,170.67912 16.866613,173.76536 L 16.853976,173.76536 L 16.853976,173.99823 L 16.853976,182.95902 L 15.918803,182.95902 C 15.638756,182.95902 15.413304,183.13965 15.413304,183.36403 L 15.413304,183.59691 C 15.413304,183.82128 15.638756,184.00191 15.918803,184.00191 L 29.996947,184.00191 C 30.276993,184.00191 30.502441,183.82128 30.502445,183.59691 L 30.502445,183.36403 C 30.502445,183.13965 30.276989,182.95902 29.996947,182.95902 L 28.985949,182.95902 L 28.985949,173.99823 L 28.985949,173.76536 L 28.973311,173.76536 C 28.845283,170.67919 26.186779,168.20662 22.919962,168.20663 z "
           id="path29108" />
        <path
           style="fill:#000000;fill-opacity:0.88235294;fill-rule:evenodd;stroke:#00a9ff;stroke-width:2.19996095;stroke-linecap:butt;stroke-linejoin:miter;stroke-miterlimit:4;stroke-dasharray:none;stroke-opacity:1"
           d="M 22.663034,184.0699 L 22.663034,201.16404"
           id="path29110" />
      </g>
      <g
         transform="matrix(0.6686359,0,0,0.748324,316.83559,-36.052754)"
         id="g29112">
        <path
           style="fill:#ff0000"
           d="M 22.919962,168.20663 C 19.653089,168.20663 16.994557,170.67912 16.866613,173.76536 L 16.853976,173.76536 L 16.853976,173.99823 L 16.853976,182.95902 L 15.918803,182.95902 C 15.638756,182.95902 15.413304,183.13965 15.413304,183.36403 L 15.413304,183.59691 C 15.413304,183.82128 15.638756,184.00191 15.918803,184.00191 L 29.996947,184.00191 C 30.276993,184.00191 30.502441,183.82128 30.502445,183.59691 L 30.502445,183.36403 C 30.502445,183.13965 30.276989,182.95902 29.996947,182.95902 L 28.985949,182.95902 L 28.985949,173.99823 L 28.985949,173.76536 L 28.973311,173.76536 C 28.845283,170.67919 26.186779,168.20662 22.919962,168.20663 z "
           id="path29114" />
        <path
           style="fill:#000000;fill-opacity:0.88235294;fill-rule:evenodd;stroke:#00a9ff;stroke-width:2.19996095;stroke-linecap:butt;stroke-linejoin:miter;stroke-miterlimit:4;stroke-dasharray:none;stroke-opacity:1"
           d="M 22.663034,184.0699 L 22.663034,201.16404"
           id="path29116" />
      </g>
      <g
         transform="matrix(0.6686359,0,0,0.748324,368.96405,-36.052754)"
         id="g29118">
        <path
           style="fill:#ff0000"
           d="M 22.919962,168.20663 C 19.653089,168.20663 16.994557,170.67912 16.866613,173.76536 L 16.853976,173.76536 L 16.853976,173.99823 L 16.853976,182.95902 L 15.918803,182.95902 C 15.638756,182.95902 15.413304,183.13965 15.413304,183.36403 L 15.413304,183.59691 C 15.413304,183.82128 15.638756,184.00191 15.918803,184.00191 L 29.996947,184.00191 C 30.276993,184.00191 30.502441,183.82128 30.502445,183.59691 L 30.502445,183.36403 C 30.502445,183.13965 30.276989,182.95902 29.996947,182.95902 L 28.985949,182.95902 L 28.985949,173.99823 L 28.985949,173.76536 L 28.973311,173.76536 C 28.845283,170.67919 26.186779,168.20662 22.919962,168.20663 z "
           id="path29120" />
        <path
           style="fill:#000000;fill-opacity:0.88235294;fill-rule:evenodd;stroke:#00a9ff;stroke-width:2.19996095;stroke-linecap:butt;stroke-linejoin:miter;stroke-miterlimit:4;stroke-dasharray:none;stroke-opacity:1"
           d="M 22.663034,184.0699 L 22.663034,201.16404"
           id="path29122" />
      </g>
      <g
         transform="matrix(0.6686359,0,0,0.748324,421.09253,-36.052754)"
         id="g29124">
        <path
           style="fill:#ff0000"
           d="M 22.919962,168.20663 C 19.653089,168.20663 16.994557,170.67912 16.866613,173.76536 L 16.853976,173.76536 L 16.853976,173.99823 L 16.853976,182.95902 L 15.918803,182.95902 C 15.638756,182.95902 15.413304,183.13965 15.413304,183.36403 L 15.413304,183.59691 C 15.413304,183.82128 15.638756,184.00191 15.918803,184.00191 L 29.996947,184.00191 C 30.276993,184.00191 30.502441,183.82128 30.502445,183.59691 L 30.502445,183.36403 C 30.502445,183.13965 30.276989,182.95902 29.996947,182.95902 L 28.985949,182.95902 L 28.985949,173.99823 L 28.985949,173.76536 L 28.973311,173.76536 C 28.845283,170.67919 26.186779,168.20662 22.919962,168.20663 z "
           id="path29126" />
        <path
           style="fill:#000000;fill-opacity:0.88235294;fill-rule:evenodd;stroke:#00a9ff;stroke-width:2.19996095;stroke-linecap:butt;stroke-linejoin:miter;stroke-miterlimit:4;stroke-dasharray:none;stroke-opacity:1"
           d="M 22.663034,184.0699 L 22.663034,201.16404"
           id="path29128" />
      </g>
      <g
         transform="matrix(0.6686359,0,0,0.748324,473.22099,-36.052754)"
         id="g29130">
        <path
           style="fill:#ff0000"
           d="M 22.919962,168.20663 C 19.653089,168.20663 16.994557,170.67912 16.866613,173.76536 L 16.853976,173.76536 L 16.853976,173.99823 L 16.853976,182.95902 L 15.918803,182.95902 C 15.638756,182.95902 15.413304,183.13965 15.413304,183.36403 L 15.413304,183.59691 C 15.413304,183.82128 15.638756,184.00191 15.918803,184.00191 L 29.996947,184.00191 C 30.276993,184.00191 30.502441,183.82128 30.502445,183.59691 L 30.502445,183.36403 C 30.502445,183.13965 30.276989,182.95902 29.996947,182.95902 L 28.985949,182.95902 L 28.985949,173.99823 L 28.985949,173.76536 L 28.973311,173.76536 C 28.845283,170.67919 26.186779,168.20662 22.919962,168.20663 z "
           id="path29132" />
        <path
           style="fill:#000000;fill-opacity:0.88235294;fill-rule:evenodd;stroke:#00a9ff;stroke-width:2.19996095;stroke-linecap:butt;stroke-linejoin:miter;stroke-miterlimit:4;stroke-dasharray:none;stroke-opacity:1"
           d="M 22.663034,184.0699 L 22.663034,201.16404"
           id="path29134" />
      </g>
    </g>
    <g
       style="display:inline"
       id="g29136"
       transform="translate(0,312.09182)">
      <g
         transform="matrix(0.6686359,0,0,0.748324,108.3217,-36.052754)"
         id="g29138">
        <path
           style="fill:#ff0000"
           d="M 22.919962,168.20663 C 19.653089,168.20663 16.994557,170.67912 16.866613,173.76536 L 16.853976,173.76536 L 16.853976,173.99823 L 16.853976,182.95902 L 15.918803,182.95902 C 15.638756,182.95902 15.413304,183.13965 15.413304,183.36403 L 15.413304,183.59691 C 15.413304,183.82128 15.638756,184.00191 15.918803,184.00191 L 29.996947,184.00191 C 30.276993,184.00191 30.502441,183.82128 30.502445,183.59691 L 30.502445,183.36403 C 30.502445,183.13965 30.276989,182.95902 29.996947,182.95902 L 28.985949,182.95902 L 28.985949,173.99823 L 28.985949,173.76536 L 28.973311,173.76536 C 28.845283,170.67919 26.186779,168.20662 22.919962,168.20663 z "
           id="path29140" />
        <path
           style="fill:#000000;fill-opacity:0.88235294;fill-rule:evenodd;stroke:#00a9ff;stroke-width:2.19996095;stroke-linecap:butt;stroke-linejoin:miter;stroke-miterlimit:4;stroke-dasharray:none;stroke-opacity:1"
           d="M 22.663034,184.0699 L 22.663034,201.16404"
           id="path29142" />
      </g>
      <g
         transform="matrix(0.6686359,0,0,0.748324,160.45017,-36.052754)"
         id="g29144">
        <path
           style="fill:#ff0000"
           d="M 22.919962,168.20663 C 19.653089,168.20663 16.994557,170.67912 16.866613,173.76536 L 16.853976,173.76536 L 16.853976,173.99823 L 16.853976,182.95902 L 15.918803,182.95902 C 15.638756,182.95902 15.413304,183.13965 15.413304,183.36403 L 15.413304,183.59691 C 15.413304,183.82128 15.638756,184.00191 15.918803,184.00191 L 29.996947,184.00191 C 30.276993,184.00191 30.502441,183.82128 30.502445,183.59691 L 30.502445,183.36403 C 30.502445,183.13965 30.276989,182.95902 29.996947,182.95902 L 28.985949,182.95902 L 28.985949,173.99823 L 28.985949,173.76536 L 28.973311,173.76536 C 28.845283,170.67919 26.186779,168.20662 22.919962,168.20663 z "
           id="path29146" />
        <path
           style="fill:#000000;fill-opacity:0.88235294;fill-rule:evenodd;stroke:#00a9ff;stroke-width:2.19996095;stroke-linecap:butt;stroke-linejoin:miter;stroke-miterlimit:4;stroke-dasharray:none;stroke-opacity:1"
           d="M 22.663034,184.0699 L 22.663034,201.16404"
           id="path29148" />
      </g>
      <g
         transform="matrix(0.6686359,0,0,0.748324,212.57865,-36.052754)"
         id="g29150">
        <path
           style="fill:#ff0000"
           d="M 22.919962,168.20663 C 19.653089,168.20663 16.994557,170.67912 16.866613,173.76536 L 16.853976,173.76536 L 16.853976,173.99823 L 16.853976,182.95902 L 15.918803,182.95902 C 15.638756,182.95902 15.413304,183.13965 15.413304,183.36403 L 15.413304,183.59691 C 15.413304,183.82128 15.638756,184.00191 15.918803,184.00191 L 29.996947,184.00191 C 30.276993,184.00191 30.502441,183.82128 30.502445,183.59691 L 30.502445,183.36403 C 30.502445,183.13965 30.276989,182.95902 29.996947,182.95902 L 28.985949,182.95902 L 28.985949,173.99823 L 28.985949,173.76536 L 28.973311,173.76536 C 28.845283,170.67919 26.186779,168.20662 22.919962,168.20663 z "
           id="path29152" />
        <path
           style="fill:#000000;fill-opacity:0.88235294;fill-rule:evenodd;stroke:#00a9ff;stroke-width:2.19996095;stroke-linecap:butt;stroke-linejoin:miter;stroke-miterlimit:4;stroke-dasharray:none;stroke-opacity:1"
           d="M 22.663034,184.0699 L 22.663034,201.16404"
           id="path29154" />
      </g>
      <g
         transform="matrix(0.6686359,0,0,0.748324,264.7071,-36.052754)"
         id="g29156">
        <path
           style="fill:#ff0000"
           d="M 22.919962,168.20663 C 19.653089,168.20663 16.994557,170.67912 16.866613,173.76536 L 16.853976,173.76536 L 16.853976,173.99823 L 16.853976,182.95902 L 15.918803,182.95902 C 15.638756,182.95902 15.413304,183.13965 15.413304,183.36403 L 15.413304,183.59691 C 15.413304,183.82128 15.638756,184.00191 15.918803,184.00191 L 29.996947,184.00191 C 30.276993,184.00191 30.502441,183.82128 30.502445,183.59691 L 30.502445,183.36403 C 30.502445,183.13965 30.276989,182.95902 29.996947,182.95902 L 28.985949,182.95902 L 28.985949,173.99823 L 28.985949,173.76536 L 28.973311,173.76536 C 28.845283,170.67919 26.186779,168.20662 22.919962,168.20663 z "
           id="path29158" />
        <path
           style="fill:#000000;fill-opacity:0.88235294;fill-rule:evenodd;stroke:#00a9ff;stroke-width:2.19996095;stroke-linecap:butt;stroke-linejoin:miter;stroke-miterlimit:4;stroke-dasharray:none;stroke-opacity:1"
           d="M 22.663034,184.0699 L 22.663034,201.16404"
           id="path29160" />
      </g>
      <g
         transform="matrix(0.6686359,0,0,0.748324,316.83559,-36.052754)"
         id="g29162">
        <path
           style="fill:#ff0000"
           d="M 22.919962,168.20663 C 19.653089,168.20663 16.994557,170.67912 16.866613,173.76536 L 16.853976,173.76536 L 16.853976,173.99823 L 16.853976,182.95902 L 15.918803,182.95902 C 15.638756,182.95902 15.413304,183.13965 15.413304,183.36403 L 15.413304,183.59691 C 15.413304,183.82128 15.638756,184.00191 15.918803,184.00191 L 29.996947,184.00191 C 30.276993,184.00191 30.502441,183.82128 30.502445,183.59691 L 30.502445,183.36403 C 30.502445,183.13965 30.276989,182.95902 29.996947,182.95902 L 28.985949,182.95902 L 28.985949,173.99823 L 28.985949,173.76536 L 28.973311,173.76536 C 28.845283,170.67919 26.186779,168.20662 22.919962,168.20663 z "
           id="path29164" />
        <path
           style="fill:#000000;fill-opacity:0.88235294;fill-rule:evenodd;stroke:#00a9ff;stroke-width:2.19996095;stroke-linecap:butt;stroke-linejoin:miter;stroke-miterlimit:4;stroke-dasharray:none;stroke-opacity:1"
           d="M 22.663034,184.0699 L 22.663034,201.16404"
           id="path29166" />
      </g>
      <g
         transform="matrix(0.6686359,0,0,0.748324,368.96405,-36.052754)"
         id="g29168">
        <path
           style="fill:#ff0000"
           d="M 22.919962,168.20663 C 19.653089,168.20663 16.994557,170.67912 16.866613,173.76536 L 16.853976,173.76536 L 16.853976,173.99823 L 16.853976,182.95902 L 15.918803,182.95902 C 15.638756,182.95902 15.413304,183.13965 15.413304,183.36403 L 15.413304,183.59691 C 15.413304,183.82128 15.638756,184.00191 15.918803,184.00191 L 29.996947,184.00191 C 30.276993,184.00191 30.502441,183.82128 30.502445,183.59691 L 30.502445,183.36403 C 30.502445,183.13965 30.276989,182.95902 29.996947,182.95902 L 28.985949,182.95902 L 28.985949,173.99823 L 28.985949,173.76536 L 28.973311,173.76536 C 28.845283,170.67919 26.186779,168.20662 22.919962,168.20663 z "
           id="path29170" />
        <path
           style="fill:#000000;fill-opacity:0.88235294;fill-rule:evenodd;stroke:#00a9ff;stroke-width:2.19996095;stroke-linecap:butt;stroke-linejoin:miter;stroke-miterlimit:4;stroke-dasharray:none;stroke-opacity:1"
           d="M 22.663034,184.0699 L 22.663034,201.16404"
           id="path29172" />
      </g>
      <g
         transform="matrix(0.6686359,0,0,0.748324,421.09253,-36.052754)"
         id="g29174">
        <path
           style="fill:#ff0000"
           d="M 22.919962,168.20663 C 19.653089,168.20663 16.994557,170.67912 16.866613,173.76536 L 16.853976,173.76536 L 16.853976,173.99823 L 16.853976,182.95902 L 15.918803,182.95902 C 15.638756,182.95902 15.413304,183.13965 15.413304,183.36403 L 15.413304,183.59691 C 15.413304,183.82128 15.638756,184.00191 15.918803,184.00191 L 29.996947,184.00191 C 30.276993,184.00191 30.502441,183.82128 30.502445,183.59691 L 30.502445,183.36403 C 30.502445,183.13965 30.276989,182.95902 29.996947,182.95902 L 28.985949,182.95902 L 28.985949,173.99823 L 28.985949,173.76536 L 28.973311,173.76536 C 28.845283,170.67919 26.186779,168.20662 22.919962,168.20663 z "
           id="path29176" />
        <path
           style="fill:#000000;fill-opacity:0.88235294;fill-rule:evenodd;stroke:#00a9ff;stroke-width:2.19996095;stroke-linecap:butt;stroke-linejoin:miter;stroke-miterlimit:4;stroke-dasharray:none;stroke-opacity:1"
           d="M 22.663034,184.0699 L 22.663034,201.16404"
           id="path29178" />
      </g>
      <g
         transform="matrix(0.6686359,0,0,0.748324,473.22099,-36.052754)"
         id="g29180">
        <path
           style="fill:#ff0000"
           d="M 22.919962,168.20663 C 19.653089,168.20663 16.994557,170.67912 16.866613,173.76536 L 16.853976,173.76536 L 16.853976,173.99823 L 16.853976,182.95902 L 15.918803,182.95902 C 15.638756,182.95902 15.413304,183.13965 15.413304,183.36403 L 15.413304,183.59691 C 15.413304,183.82128 15.638756,184.00191 15.918803,184.00191 L 29.996947,184.00191 C 30.276993,184.00191 30.502441,183.82128 30.502445,183.59691 L 30.502445,183.36403 C 30.502445,183.13965 30.276989,182.95902 29.996947,182.95902 L 28.985949,182.95902 L 28.985949,173.99823 L 28.985949,173.76536 L 28.973311,173.76536 C 28.845283,170.67919 26.186779,168.20662 22.919962,168.20663 z "
           id="path29182" />
        <path
           style="fill:#000000;fill-opacity:0.88235294;fill-rule:evenodd;stroke:#00a9ff;stroke-width:2.19996095;stroke-linecap:butt;stroke-linejoin:miter;stroke-miterlimit:4;stroke-dasharray:none;stroke-opacity:1"
           d="M 22.663034,184.0699 L 22.663034,201.16404"
           id="path29184" />
      </g>
    </g>
    <g
       style="display:inline"
       id="g29186"
       transform="translate(0,364.10714)">
      <g
         transform="matrix(0.6686359,0,0,0.748324,108.3217,-36.052754)"
         id="g29188">
        <path
           style="fill:#ff0000"
           d="M 22.919962,168.20663 C 19.653089,168.20663 16.994557,170.67912 16.866613,173.76536 L 16.853976,173.76536 L 16.853976,173.99823 L 16.853976,182.95902 L 15.918803,182.95902 C 15.638756,182.95902 15.413304,183.13965 15.413304,183.36403 L 15.413304,183.59691 C 15.413304,183.82128 15.638756,184.00191 15.918803,184.00191 L 29.996947,184.00191 C 30.276993,184.00191 30.502441,183.82128 30.502445,183.59691 L 30.502445,183.36403 C 30.502445,183.13965 30.276989,182.95902 29.996947,182.95902 L 28.985949,182.95902 L 28.985949,173.99823 L 28.985949,173.76536 L 28.973311,173.76536 C 28.845283,170.67919 26.186779,168.20662 22.919962,168.20663 z "
           id="path29190" />
        <path
           style="fill:#000000;fill-opacity:0.88235294;fill-rule:evenodd;stroke:#00a9ff;stroke-width:2.19996095;stroke-linecap:butt;stroke-linejoin:miter;stroke-miterlimit:4;stroke-dasharray:none;stroke-opacity:1"
           d="M 22.663034,184.0699 L 22.663034,201.16404"
           id="path29192" />
      </g>
      <g
         transform="matrix(0.6686359,0,0,0.748324,160.45017,-36.052754)"
         id="g29194">
        <path
           style="fill:#ff0000"
           d="M 22.919962,168.20663 C 19.653089,168.20663 16.994557,170.67912 16.866613,173.76536 L 16.853976,173.76536 L 16.853976,173.99823 L 16.853976,182.95902 L 15.918803,182.95902 C 15.638756,182.95902 15.413304,183.13965 15.413304,183.36403 L 15.413304,183.59691 C 15.413304,183.82128 15.638756,184.00191 15.918803,184.00191 L 29.996947,184.00191 C 30.276993,184.00191 30.502441,183.82128 30.502445,183.59691 L 30.502445,183.36403 C 30.502445,183.13965 30.276989,182.95902 29.996947,182.95902 L 28.985949,182.95902 L 28.985949,173.99823 L 28.985949,173.76536 L 28.973311,173.76536 C 28.845283,170.67919 26.186779,168.20662 22.919962,168.20663 z "
           id="path29196" />
        <path
           style="fill:#000000;fill-opacity:0.88235294;fill-rule:evenodd;stroke:#00a9ff;stroke-width:2.19996095;stroke-linecap:butt;stroke-linejoin:miter;stroke-miterlimit:4;stroke-dasharray:none;stroke-opacity:1"
           d="M 22.663034,184.0699 L 22.663034,201.16404"
           id="path29198" />
      </g>
      <g
         transform="matrix(0.6686359,0,0,0.748324,212.57865,-36.052754)"
         id="g29200">
        <path
           style="fill:#ff0000"
           d="M 22.919962,168.20663 C 19.653089,168.20663 16.994557,170.67912 16.866613,173.76536 L 16.853976,173.76536 L 16.853976,173.99823 L 16.853976,182.95902 L 15.918803,182.95902 C 15.638756,182.95902 15.413304,183.13965 15.413304,183.36403 L 15.413304,183.59691 C 15.413304,183.82128 15.638756,184.00191 15.918803,184.00191 L 29.996947,184.00191 C 30.276993,184.00191 30.502441,183.82128 30.502445,183.59691 L 30.502445,183.36403 C 30.502445,183.13965 30.276989,182.95902 29.996947,182.95902 L 28.985949,182.95902 L 28.985949,173.99823 L 28.985949,173.76536 L 28.973311,173.76536 C 28.845283,170.67919 26.186779,168.20662 22.919962,168.20663 z "
           id="path29202" />
        <path
           style="fill:#000000;fill-opacity:0.88235294;fill-rule:evenodd;stroke:#00a9ff;stroke-width:2.19996095;stroke-linecap:butt;stroke-linejoin:miter;stroke-miterlimit:4;stroke-dasharray:none;stroke-opacity:1"
           d="M 22.663034,184.0699 L 22.663034,201.16404"
           id="path29204" />
      </g>
      <g
         transform="matrix(0.6686359,0,0,0.748324,264.7071,-36.052754)"
         id="g29206">
        <path
           style="fill:#ff0000"
           d="M 22.919962,168.20663 C 19.653089,168.20663 16.994557,170.67912 16.866613,173.76536 L 16.853976,173.76536 L 16.853976,173.99823 L 16.853976,182.95902 L 15.918803,182.95902 C 15.638756,182.95902 15.413304,183.13965 15.413304,183.36403 L 15.413304,183.59691 C 15.413304,183.82128 15.638756,184.00191 15.918803,184.00191 L 29.996947,184.00191 C 30.276993,184.00191 30.502441,183.82128 30.502445,183.59691 L 30.502445,183.36403 C 30.502445,183.13965 30.276989,182.95902 29.996947,182.95902 L 28.985949,182.95902 L 28.985949,173.99823 L 28.985949,173.76536 L 28.973311,173.76536 C 28.845283,170.67919 26.186779,168.20662 22.919962,168.20663 z "
           id="path29208" />
        <path
           style="fill:#000000;fill-opacity:0.88235294;fill-rule:evenodd;stroke:#00a9ff;stroke-width:2.19996095;stroke-linecap:butt;stroke-linejoin:miter;stroke-miterlimit:4;stroke-dasharray:none;stroke-opacity:1"
           d="M 22.663034,184.0699 L 22.663034,201.16404"
           id="path29210" />
      </g>
      <g
         transform="matrix(0.6686359,0,0,0.748324,316.83559,-36.052754)"
         id="g29212">
        <path
           style="fill:#ff0000"
           d="M 22.919962,168.20663 C 19.653089,168.20663 16.994557,170.67912 16.866613,173.76536 L 16.853976,173.76536 L 16.853976,173.99823 L 16.853976,182.95902 L 15.918803,182.95902 C 15.638756,182.95902 15.413304,183.13965 15.413304,183.36403 L 15.413304,183.59691 C 15.413304,183.82128 15.638756,184.00191 15.918803,184.00191 L 29.996947,184.00191 C 30.276993,184.00191 30.502441,183.82128 30.502445,183.59691 L 30.502445,183.36403 C 30.502445,183.13965 30.276989,182.95902 29.996947,182.95902 L 28.985949,182.95902 L 28.985949,173.99823 L 28.985949,173.76536 L 28.973311,173.76536 C 28.845283,170.67919 26.186779,168.20662 22.919962,168.20663 z "
           id="path29214" />
        <path
           style="fill:#000000;fill-opacity:0.88235294;fill-rule:evenodd;stroke:#00a9ff;stroke-width:2.19996095;stroke-linecap:butt;stroke-linejoin:miter;stroke-miterlimit:4;stroke-dasharray:none;stroke-opacity:1"
           d="M 22.663034,184.0699 L 22.663034,201.16404"
           id="path29216" />
      </g>
      <g
         transform="matrix(0.6686359,0,0,0.748324,368.96405,-36.052754)"
         id="g29218">
        <path
           style="fill:#ff0000"
           d="M 22.919962,168.20663 C 19.653089,168.20663 16.994557,170.67912 16.866613,173.76536 L 16.853976,173.76536 L 16.853976,173.99823 L 16.853976,182.95902 L 15.918803,182.95902 C 15.638756,182.95902 15.413304,183.13965 15.413304,183.36403 L 15.413304,183.59691 C 15.413304,183.82128 15.638756,184.00191 15.918803,184.00191 L 29.996947,184.00191 C 30.276993,184.00191 30.502441,183.82128 30.502445,183.59691 L 30.502445,183.36403 C 30.502445,183.13965 30.276989,182.95902 29.996947,182.95902 L 28.985949,182.95902 L 28.985949,173.99823 L 28.985949,173.76536 L 28.973311,173.76536 C 28.845283,170.67919 26.186779,168.20662 22.919962,168.20663 z "
           id="path29220" />
        <path
           style="fill:#000000;fill-opacity:0.88235294;fill-rule:evenodd;stroke:#00a9ff;stroke-width:2.19996095;stroke-linecap:butt;stroke-linejoin:miter;stroke-miterlimit:4;stroke-dasharray:none;stroke-opacity:1"
           d="M 22.663034,184.0699 L 22.663034,201.16404"
           id="path29222" />
      </g>
      <g
         transform="matrix(0.6686359,0,0,0.748324,421.09253,-36.052754)"
         id="g29224">
        <path
           style="fill:#ff0000"
           d="M 22.919962,168.20663 C 19.653089,168.20663 16.994557,170.67912 16.866613,173.76536 L 16.853976,173.76536 L 16.853976,173.99823 L 16.853976,182.95902 L 15.918803,182.95902 C 15.638756,182.95902 15.413304,183.13965 15.413304,183.36403 L 15.413304,183.59691 C 15.413304,183.82128 15.638756,184.00191 15.918803,184.00191 L 29.996947,184.00191 C 30.276993,184.00191 30.502441,183.82128 30.502445,183.59691 L 30.502445,183.36403 C 30.502445,183.13965 30.276989,182.95902 29.996947,182.95902 L 28.985949,182.95902 L 28.985949,173.99823 L 28.985949,173.76536 L 28.973311,173.76536 C 28.845283,170.67919 26.186779,168.20662 22.919962,168.20663 z "
           id="path29226" />
        <path
           style="fill:#000000;fill-opacity:0.88235294;fill-rule:evenodd;stroke:#00a9ff;stroke-width:2.19996095;stroke-linecap:butt;stroke-linejoin:miter;stroke-miterlimit:4;stroke-dasharray:none;stroke-opacity:1"
           d="M 22.663034,184.0699 L 22.663034,201.16404"
           id="path29228" />
      </g>
      <g
         transform="matrix(0.6686359,0,0,0.748324,473.22099,-36.052754)"
         id="g29230">
        <path
           style="fill:#ff0000"
           d="M 22.919962,168.20663 C 19.653089,168.20663 16.994557,170.67912 16.866613,173.76536 L 16.853976,173.76536 L 16.853976,173.99823 L 16.853976,182.95902 L 15.918803,182.95902 C 15.638756,182.95902 15.413304,183.13965 15.413304,183.36403 L 15.413304,183.59691 C 15.413304,183.82128 15.638756,184.00191 15.918803,184.00191 L 29.996947,184.00191 C 30.276993,184.00191 30.502441,183.82128 30.502445,183.59691 L 30.502445,183.36403 C 30.502445,183.13965 30.276989,182.95902 29.996947,182.95902 L 28.985949,182.95902 L 28.985949,173.99823 L 28.985949,173.76536 L 28.973311,173.76536 C 28.845283,170.67919 26.186779,168.20662 22.919962,168.20663 z "
           id="path29232" />
        <path
           style="fill:#000000;fill-opacity:0.88235294;fill-rule:evenodd;stroke:#00a9ff;stroke-width:2.19996095;stroke-linecap:butt;stroke-linejoin:miter;stroke-miterlimit:4;stroke-dasharray:none;stroke-opacity:1"
           d="M 22.663034,184.0699 L 22.663034,201.16404"
           id="path29234" />
      </g>
    </g>
  </g>
  <g
     inkscape:groupmode="layer"
     id="layer4"
     inkscape:label="Erster Ebenendraht"
     style="display:inline">
    <rect
       style="fill:#0000ff;display:inline"
       id="rect2455"
       width="3.0304577"
       height="507.60168"
       x="107.11196"
       y="-560.63477"
       transform="matrix(0,1,-1,0,0,0)" />
  </g>
  <g
     inkscape:groupmode="layer"
     id="layer3"
     inkscape:label="Draht Ebenen"
     style="display:inline">
    <rect
       style="fill:#0000ff;display:inline"
       id="rect2457"
       width="3.0304577"
       height="507.60168"
       x="158.7041"
       y="-561.65796"
       transform="matrix(0,1,-1,0,0,0)" />
    <rect
       style="fill:#0000ff;display:inline"
       id="rect2459"
       width="3.0304577"
       height="507.60168"
       x="210.84694"
       y="-561.65802"
       transform="matrix(0,1,-1,0,0,0)" />
    <rect
       style="fill:#0000ff;display:inline"
       id="rect2463"
       width="3.0304577"
       height="507.60168"
       x="262.98981"
       y="-561.65802"
       transform="matrix(0,1,-1,0,0,0)" />
    <rect
       style="fill:#0000ff;display:inline"
       id="rect2465"
       width="3.0304577"
       height="507.60168"
       x="315.13266"
       y="-561.65796"
       transform="matrix(0,1,-1,0,0,0)" />
    <rect
       style="fill:#0000ff;display:inline"
       id="rect2467"
       width="3.0304577"
       height="507.60168"
       x="367.27554"
       y="-561.65802"
       transform="matrix(0,1,-1,0,0,0)" />
    <rect
       style="fill:#0000ff;display:inline"
       id="rect2469"
       width="3.0304577"
       height="507.60168"
       x="419.41837"
       y="-561.65796"
       transform="matrix(0,1,-1,0,0,0)" />
    <rect
       style="fill:#0000ff;display:inline"
       id="rect2471"
       width="3.0304577"
       height="507.60168"
       x="471.56125"
       y="-560.94373"
       transform="matrix(0,1,-1,0,0,0)" />
  </g>
</svg>
