<?xml version="1.0" encoding="UTF-8" standalone="no"?>
<!-- Created with Inkscape (http://www.inkscape.org/) -->
<svg
   xmlns:dc="http://purl.org/dc/elements/1.1/"
   xmlns:cc="http://web.resource.org/cc/"
   xmlns:rdf="http://www.w3.org/1999/02/22-rdf-syntax-ns#"
   xmlns:svg="http://www.w3.org/2000/svg"
   xmlns="http://www.w3.org/2000/svg"
   xmlns:sodipodi="http://sodipodi.sourceforge.net/DTD/sodipodi-0.dtd"
   xmlns:inkscape="http://www.inkscape.org/namespaces/inkscape"
   width="210mm"
   height="297mm"
   id="svg29236"
   sodipodi:version="0.32"
   inkscape:version="0.45.1"
   sodipodi:docbase="/home/tixiv"
   sodipodi:docname="Senkrechte_Ebene.svg"
   inkscape:output_extension="org.inkscape.output.svg.inkscape">
  <defs
     id="defs29238" />
  <sodipodi:namedview
     id="base"
     pagecolor="#ffffff"
     bordercolor="#666666"
     borderopacity="1.0"
     inkscape:pageopacity="0.0"
     inkscape:pageshadow="2"
     inkscape:zoom="0.98994949"
     inkscape:cx="309.5939"
     inkscape:cy="702.11046"
     inkscape:document-units="px"
     inkscape:current-layer="layer1"
     inkscape:window-width="975"
     inkscape:window-height="744"
     inkscape:window-x="49"
     inkscape:window-y="0" />
  <metadata
     id="metadata29241">
    <rdf:RDF>
      <cc:Work
         rdf:about="">
        <dc:format>image/svg+xml</dc:format>
        <dc:type
           rdf:resource="http://purl.org/dc/dcmitype/StillImage" />
      </cc:Work>
    </rdf:RDF>
  </metadata>
  <g
     inkscape:label="Ebene 1"
     inkscape:groupmode="layer"
     id="layer1"
     style="display:inline">
    <path
       style="fill:#0000ff;display:inline"
       d="M 181.8125 106.34375 L 181.8125 109.375 L 556.59375 109.375 L 556.59375 106.34375 L 181.8125 106.34375 z M 181.8125 157.9375 L 181.8125 160.96875 L 556.59375 160.96875 L 556.59375 157.9375 L 181.8125 157.9375 z M 181.8125 210.09375 L 181.8125 213.125 L 556.59375 213.125 L 556.59375 210.09375 L 181.8125 210.09375 z M 181.8125 262.21875 L 181.8125 265.25 L 556.59375 265.25 L 556.59375 262.21875 L 181.8125 262.21875 z M 181.8125 314.375 L 181.8125 317.40625 L 556.59375 317.40625 L 556.59375 314.375 L 181.8125 314.375 z M 181.8125 366.53125 L 181.8125 369.5625 L 556.59375 369.5625 L 556.59375 366.53125 L 181.8125 366.53125 z M 181.8125 418.65625 L 181.8125 421.6875 L 556.59375 421.6875 L 556.59375 418.65625 L 181.8125 418.65625 z M 181.8125 470.8125 L 181.8125 473.84375 L 556.59375 473.84375 L 556.59375 470.8125 L 181.8125 470.8125 z "
       id="rect2455" />
    <path
       style="fill:#00ff00;display:inline"
       d="M 186 101.8125 L 186 604.28125 L 189.03125 604.28125 L 189.03125 101.8125 L 186 101.8125 z M 238.125 101.8125 L 238.125 604.28125 L 241.15625 604.28125 L 241.15625 101.8125 L 238.125 101.8125 z M 290.25 101.8125 L 290.25 604.28125 L 293.28125 604.28125 L 293.28125 101.8125 L 290.25 101.8125 z M 342.375 101.8125 L 342.375 604.28125 L 345.40625 604.28125 L 345.40625 101.8125 L 342.375 101.8125 z M 394.5 101.8125 L 394.5 604.28125 L 397.53125 604.28125 L 397.53125 101.8125 L 394.5 101.8125 z M 446.625 101.8125 L 446.625 604.28125 L 449.65625 604.28125 L 449.65625 101.8125 L 446.625 101.8125 z M 498.75 101.8125 L 498.75 604.28125 L 501.78125 604.28125 L 501.78125 101.8125 L 498.75 101.8125 z M 550.875 101.8125 L 550.875 604.28125 L 553.90625 604.28125 L 553.90625 101.8125 L 550.875 101.8125 z "
       id="rect2431" />
  </g>
  <g
     inkscape:groupmode="layer"
     id="layer7"
     inkscape:label="LEDs"
     style="display:inline"
     sodipodi:insensitive="true">
    <g
       style="display:inline"
       id="g28859"
       transform="translate(64.083019,-0.75652)">
      <g
         transform="matrix(0.6686359,0,0,0.748324,108.3217,-36.052754)"
         id="g28813">
        <path
           style="fill:#ff0000"
           d="M 22.919962,168.20663 C 19.653089,168.20663 16.994557,170.67912 16.866613,173.76536 L 16.853976,173.76536 L 16.853976,173.99823 L 16.853976,182.95902 L 15.918803,182.95902 C 15.638756,182.95902 15.413304,183.13965 15.413304,183.36403 L 15.413304,183.59691 C 15.413304,183.82128 15.638756,184.00191 15.918803,184.00191 L 29.996947,184.00191 C 30.276993,184.00191 30.502441,183.82128 30.502445,183.59691 L 30.502445,183.36403 C 30.502445,183.13965 30.276989,182.95902 29.996947,182.95902 L 28.985949,182.95902 L 28.985949,173.99823 L 28.985949,173.76536 L 28.973311,173.76536 C 28.845283,170.67919 26.186779,168.20662 22.919962,168.20663 z "
           id="path2476" />
        <path
           style="fill:#000000;fill-opacity:0.88235294;fill-rule:evenodd;stroke:#00a9ff;stroke-width:2.19996095;stroke-linecap:butt;stroke-linejoin:miter;stroke-miterlimit:4;stroke-dasharray:none;stroke-opacity:1"
           d="M 22.663034,184.0699 L 22.663034,201.16404"
           id="path9013" />
      </g>
      <g
         transform="matrix(0.6686359,0,0,0.748324,160.45017,-36.052754)"
         id="g28817">
        <path
           style="fill:#ff0000"
           d="M 22.919962,168.20663 C 19.653089,168.20663 16.994557,170.67912 16.866613,173.76536 L 16.853976,173.76536 L 16.853976,173.99823 L 16.853976,182.95902 L 15.918803,182.95902 C 15.638756,182.95902 15.413304,183.13965 15.413304,183.36403 L 15.413304,183.59691 C 15.413304,183.82128 15.638756,184.00191 15.918803,184.00191 L 29.996947,184.00191 C 30.276993,184.00191 30.502441,183.82128 30.502445,183.59691 L 30.502445,183.36403 C 30.502445,183.13965 30.276989,182.95902 29.996947,182.95902 L 28.985949,182.95902 L 28.985949,173.99823 L 28.985949,173.76536 L 28.973311,173.76536 C 28.845283,170.67919 26.186779,168.20662 22.919962,168.20663 z "
           id="path28819" />
        <path
           style="fill:#000000;fill-opacity:0.88235294;fill-rule:evenodd;stroke:#00a9ff;stroke-width:2.19996095;stroke-linecap:butt;stroke-linejoin:miter;stroke-miterlimit:4;stroke-dasharray:none;stroke-opacity:1"
           d="M 22.663034,184.0699 L 22.663034,201.16404"
           id="path28821" />
      </g>
      <g
         transform="matrix(0.6686359,0,0,0.748324,212.57865,-36.052754)"
         id="g28823">
        <path
           style="fill:#ff0000"
           d="M 22.919962,168.20663 C 19.653089,168.20663 16.994557,170.67912 16.866613,173.76536 L 16.853976,173.76536 L 16.853976,173.99823 L 16.853976,182.95902 L 15.918803,182.95902 C 15.638756,182.95902 15.413304,183.13965 15.413304,183.36403 L 15.413304,183.59691 C 15.413304,183.82128 15.638756,184.00191 15.918803,184.00191 L 29.996947,184.00191 C 30.276993,184.00191 30.502441,183.82128 30.502445,183.59691 L 30.502445,183.36403 C 30.502445,183.13965 30.276989,182.95902 29.996947,182.95902 L 28.985949,182.95902 L 28.985949,173.99823 L 28.985949,173.76536 L 28.973311,173.76536 C 28.845283,170.67919 26.186779,168.20662 22.919962,168.20663 z "
           id="path28825" />
        <path
           style="fill:#000000;fill-opacity:0.88235294;fill-rule:evenodd;stroke:#00a9ff;stroke-width:2.19996095;stroke-linecap:butt;stroke-linejoin:miter;stroke-miterlimit:4;stroke-dasharray:none;stroke-opacity:1"
           d="M 22.663034,184.0699 L 22.663034,201.16404"
           id="path28827" />
      </g>
      <g
         transform="matrix(0.6686359,0,0,0.748324,264.7071,-36.052754)"
         id="g28829">
        <path
           style="fill:#ff0000"
           d="M 22.919962,168.20663 C 19.653089,168.20663 16.994557,170.67912 16.866613,173.76536 L 16.853976,173.76536 L 16.853976,173.99823 L 16.853976,182.95902 L 15.918803,182.95902 C 15.638756,182.95902 15.413304,183.13965 15.413304,183.36403 L 15.413304,183.59691 C 15.413304,183.82128 15.638756,184.00191 15.918803,184.00191 L 29.996947,184.00191 C 30.276993,184.00191 30.502441,183.82128 30.502445,183.59691 L 30.502445,183.36403 C 30.502445,183.13965 30.276989,182.95902 29.996947,182.95902 L 28.985949,182.95902 L 28.985949,173.99823 L 28.985949,173.76536 L 28.973311,173.76536 C 28.845283,170.67919 26.186779,168.20662 22.919962,168.20663 z "
           id="path28831" />
        <path
           style="fill:#000000;fill-opacity:0.88235294;fill-rule:evenodd;stroke:#00a9ff;stroke-width:2.19996095;stroke-linecap:butt;stroke-linejoin:miter;stroke-miterlimit:4;stroke-dasharray:none;stroke-opacity:1"
           d="M 22.663034,184.0699 L 22.663034,201.16404"
           id="path28833" />
      </g>
      <g
         transform="matrix(0.6686359,0,0,0.748324,316.83559,-36.052754)"
         id="g28835">
        <path
           style="fill:#ff0000"
           d="M 22.919962,168.20663 C 19.653089,168.20663 16.994557,170.67912 16.866613,173.76536 L 16.853976,173.76536 L 16.853976,173.99823 L 16.853976,182.95902 L 15.918803,182.95902 C 15.638756,182.95902 15.413304,183.13965 15.413304,183.36403 L 15.413304,183.59691 C 15.413304,183.82128 15.638756,184.00191 15.918803,184.00191 L 29.996947,184.00191 C 30.276993,184.00191 30.502441,183.82128 30.502445,183.59691 L 30.502445,183.36403 C 30.502445,183.13965 30.276989,182.95902 29.996947,182.95902 L 28.985949,182.95902 L 28.985949,173.99823 L 28.985949,173.76536 L 28.973311,173.76536 C 28.845283,170.67919 26.186779,168.20662 22.919962,168.20663 z "
           id="path28837" />
        <path
           style="fill:#000000;fill-opacity:0.88235294;fill-rule:evenodd;stroke:#00a9ff;stroke-width:2.19996095;stroke-linecap:butt;stroke-linejoin:miter;stroke-miterlimit:4;stroke-dasharray:none;stroke-opacity:1"
           d="M 22.663034,184.0699 L 22.663034,201.16404"
           id="path28839" />
      </g>
      <g
         transform="matrix(0.6686359,0,0,0.748324,368.96405,-36.052754)"
         id="g28841">
        <path
           style="fill:#ff0000"
           d="M 22.919962,168.20663 C 19.653089,168.20663 16.994557,170.67912 16.866613,173.76536 L 16.853976,173.76536 L 16.853976,173.99823 L 16.853976,182.95902 L 15.918803,182.95902 C 15.638756,182.95902 15.413304,183.13965 15.413304,183.36403 L 15.413304,183.59691 C 15.413304,183.82128 15.638756,184.00191 15.918803,184.00191 L 29.996947,184.00191 C 30.276993,184.00191 30.502441,183.82128 30.502445,183.59691 L 30.502445,183.36403 C 30.502445,183.13965 30.276989,182.95902 29.996947,182.95902 L 28.985949,182.95902 L 28.985949,173.99823 L 28.985949,173.76536 L 28.973311,173.76536 C 28.845283,170.67919 26.186779,168.20662 22.919962,168.20663 z "
           id="path28843" />
        <path
           style="fill:#000000;fill-opacity:0.88235294;fill-rule:evenodd;stroke:#00a9ff;stroke-width:2.19996095;stroke-linecap:butt;stroke-linejoin:miter;stroke-miterlimit:4;stroke-dasharray:none;stroke-opacity:1"
           d="M 22.663034,184.0699 L 22.663034,201.16404"
           id="path28845" />
      </g>
      <g
         transform="matrix(0.6686359,0,0,0.748324,421.09253,-36.052754)"
         id="g28847">
        <path
           style="fill:#ff0000"
           d="M 22.919962,168.20663 C 19.653089,168.20663 16.994557,170.67912 16.866613,173.76536 L 16.853976,173.76536 L 16.853976,173.99823 L 16.853976,182.95902 L 15.918803,182.95902 C 15.638756,182.95902 15.413304,183.13965 15.413304,183.36403 L 15.413304,183.59691 C 15.413304,183.82128 15.638756,184.00191 15.918803,184.00191 L 29.996947,184.00191 C 30.276993,184.00191 30.502441,183.82128 30.502445,183.59691 L 30.502445,183.36403 C 30.502445,183.13965 30.276989,182.95902 29.996947,182.95902 L 28.985949,182.95902 L 28.985949,173.99823 L 28.985949,173.76536 L 28.973311,173.76536 C 28.845283,170.67919 26.186779,168.20662 22.919962,168.20663 z "
           id="path28849" />
        <path
           style="fill:#000000;fill-opacity:0.88235294;fill-rule:evenodd;stroke:#00a9ff;stroke-width:2.19996095;stroke-linecap:butt;stroke-linejoin:miter;stroke-miterlimit:4;stroke-dasharray:none;stroke-opacity:1"
           d="M 22.663034,184.0699 L 22.663034,201.16404"
           id="path28851" />
      </g>
      <g
         transform="matrix(0.6686359,0,0,0.748324,473.22099,-36.052754)"
         id="g28853">
        <path
           style="fill:#ff0000"
           d="M 22.919962,168.20663 C 19.653089,168.20663 16.994557,170.67912 16.866613,173.76536 L 16.853976,173.76536 L 16.853976,173.99823 L 16.853976,182.95902 L 15.918803,182.95902 C 15.638756,182.95902 15.413304,183.13965 15.413304,183.36403 L 15.413304,183.59691 C 15.413304,183.82128 15.638756,184.00191 15.918803,184.00191 L 29.996947,184.00191 C 30.276993,184.00191 30.502441,183.82128 30.502445,183.59691 L 30.502445,183.36403 C 30.502445,183.13965 30.276989,182.95902 29.996947,182.95902 L 28.985949,182.95902 L 28.985949,173.99823 L 28.985949,173.76536 L 28.973311,173.76536 C 28.845283,170.67919 26.186779,168.20662 22.919962,168.20663 z "
           id="path28855" />
        <path
           style="fill:#000000;fill-opacity:0.88235294;fill-rule:evenodd;stroke:#00a9ff;stroke-width:2.19996095;stroke-linecap:butt;stroke-linejoin:miter;stroke-miterlimit:4;stroke-dasharray:none;stroke-opacity:1"
           d="M 22.663034,184.0699 L 22.663034,201.16404"
           id="path28857" />
      </g>
    </g>
    <g
       style="display:inline"
       id="g28886"
       transform="translate(64.083019,51.258785)">
      <g
         transform="matrix(0.6686359,0,0,0.748324,108.3217,-36.052754)"
         id="g28888">
        <path
           style="fill:#ff0000"
           d="M 22.919962,168.20663 C 19.653089,168.20663 16.994557,170.67912 16.866613,173.76536 L 16.853976,173.76536 L 16.853976,173.99823 L 16.853976,182.95902 L 15.918803,182.95902 C 15.638756,182.95902 15.413304,183.13965 15.413304,183.36403 L 15.413304,183.59691 C 15.413304,183.82128 15.638756,184.00191 15.918803,184.00191 L 29.996947,184.00191 C 30.276993,184.00191 30.502441,183.82128 30.502445,183.59691 L 30.502445,183.36403 C 30.502445,183.13965 30.276989,182.95902 29.996947,182.95902 L 28.985949,182.95902 L 28.985949,173.99823 L 28.985949,173.76536 L 28.973311,173.76536 C 28.845283,170.67919 26.186779,168.20662 22.919962,168.20663 z "
           id="path28890" />
        <path
           style="fill:#000000;fill-opacity:0.88235294;fill-rule:evenodd;stroke:#00a9ff;stroke-width:2.19996095;stroke-linecap:butt;stroke-linejoin:miter;stroke-miterlimit:4;stroke-dasharray:none;stroke-opacity:1"
           d="M 22.663034,184.0699 L 22.663034,201.16404"
           id="path28892" />
      </g>
      <g
         transform="matrix(0.6686359,0,0,0.748324,160.45017,-36.052754)"
         id="g28894">
        <path
           style="fill:#ff0000"
           d="M 22.919962,168.20663 C 19.653089,168.20663 16.994557,170.67912 16.866613,173.76536 L 16.853976,173.76536 L 16.853976,173.99823 L 16.853976,182.95902 L 15.918803,182.95902 C 15.638756,182.95902 15.413304,183.13965 15.413304,183.36403 L 15.413304,183.59691 C 15.413304,183.82128 15.638756,184.00191 15.918803,184.00191 L 29.996947,184.00191 C 30.276993,184.00191 30.502441,183.82128 30.502445,183.59691 L 30.502445,183.36403 C 30.502445,183.13965 30.276989,182.95902 29.996947,182.95902 L 28.985949,182.95902 L 28.985949,173.99823 L 28.985949,173.76536 L 28.973311,173.76536 C 28.845283,170.67919 26.186779,168.20662 22.919962,168.20663 z "
           id="path28896" />
        <path
           style="fill:#000000;fill-opacity:0.88235294;fill-rule:evenodd;stroke:#00a9ff;stroke-width:2.19996095;stroke-linecap:butt;stroke-linejoin:miter;stroke-miterlimit:4;stroke-dasharray:none;stroke-opacity:1"
           d="M 22.663034,184.0699 L 22.663034,201.16404"
           id="path28898" />
      </g>
      <g
         transform="matrix(0.6686359,0,0,0.748324,212.57865,-36.052754)"
         id="g28900">
        <path
           style="fill:#ff0000"
           d="M 22.919962,168.20663 C 19.653089,168.20663 16.994557,170.67912 16.866613,173.76536 L 16.853976,173.76536 L 16.853976,173.99823 L 16.853976,182.95902 L 15.918803,182.95902 C 15.638756,182.95902 15.413304,183.13965 15.413304,183.36403 L 15.413304,183.59691 C 15.413304,183.82128 15.638756,184.00191 15.918803,184.00191 L 29.996947,184.00191 C 30.276993,184.00191 30.502441,183.82128 30.502445,183.59691 L 30.502445,183.36403 C 30.502445,183.13965 30.276989,182.95902 29.996947,182.95902 L 28.985949,182.95902 L 28.985949,173.99823 L 28.985949,173.76536 L 28.973311,173.76536 C 28.845283,170.67919 26.186779,168.20662 22.919962,168.20663 z "
           id="path28902" />
        <path
           style="fill:#000000;fill-opacity:0.88235294;fill-rule:evenodd;stroke:#00a9ff;stroke-width:2.19996095;stroke-linecap:butt;stroke-linejoin:miter;stroke-miterlimit:4;stroke-dasharray:none;stroke-opacity:1"
           d="M 22.663034,184.0699 L 22.663034,201.16404"
           id="path28904" />
      </g>
      <g
         transform="matrix(0.6686359,0,0,0.748324,264.7071,-36.052754)"
         id="g28906">
        <path
           style="fill:#ff0000"
           d="M 22.919962,168.20663 C 19.653089,168.20663 16.994557,170.67912 16.866613,173.76536 L 16.853976,173.76536 L 16.853976,173.99823 L 16.853976,182.95902 L 15.918803,182.95902 C 15.638756,182.95902 15.413304,183.13965 15.413304,183.36403 L 15.413304,183.59691 C 15.413304,183.82128 15.638756,184.00191 15.918803,184.00191 L 29.996947,184.00191 C 30.276993,184.00191 30.502441,183.82128 30.502445,183.59691 L 30.502445,183.36403 C 30.502445,183.13965 30.276989,182.95902 29.996947,182.95902 L 28.985949,182.95902 L 28.985949,173.99823 L 28.985949,173.76536 L 28.973311,173.76536 C 28.845283,170.67919 26.186779,168.20662 22.919962,168.20663 z "
           id="path28908" />
        <path
           style="fill:#000000;fill-opacity:0.88235294;fill-rule:evenodd;stroke:#00a9ff;stroke-width:2.19996095;stroke-linecap:butt;stroke-linejoin:miter;stroke-miterlimit:4;stroke-dasharray:none;stroke-opacity:1"
           d="M 22.663034,184.0699 L 22.663034,201.16404"
           id="path28910" />
      </g>
      <g
         transform="matrix(0.6686359,0,0,0.748324,316.83559,-36.052754)"
         id="g28912">
        <path
           style="fill:#ff0000"
           d="M 22.919962,168.20663 C 19.653089,168.20663 16.994557,170.67912 16.866613,173.76536 L 16.853976,173.76536 L 16.853976,173.99823 L 16.853976,182.95902 L 15.918803,182.95902 C 15.638756,182.95902 15.413304,183.13965 15.413304,183.36403 L 15.413304,183.59691 C 15.413304,183.82128 15.638756,184.00191 15.918803,184.00191 L 29.996947,184.00191 C 30.276993,184.00191 30.502441,183.82128 30.502445,183.59691 L 30.502445,183.36403 C 30.502445,183.13965 30.276989,182.95902 29.996947,182.95902 L 28.985949,182.95902 L 28.985949,173.99823 L 28.985949,173.76536 L 28.973311,173.76536 C 28.845283,170.67919 26.186779,168.20662 22.919962,168.20663 z "
           id="path28914" />
        <path
           style="fill:#000000;fill-opacity:0.88235294;fill-rule:evenodd;stroke:#00a9ff;stroke-width:2.19996095;stroke-linecap:butt;stroke-linejoin:miter;stroke-miterlimit:4;stroke-dasharray:none;stroke-opacity:1"
           d="M 22.663034,184.0699 L 22.663034,201.16404"
           id="path28916" />
      </g>
      <g
         transform="matrix(0.6686359,0,0,0.748324,368.96405,-36.052754)"
         id="g28918">
        <path
           style="fill:#ff0000"
           d="M 22.919962,168.20663 C 19.653089,168.20663 16.994557,170.67912 16.866613,173.76536 L 16.853976,173.76536 L 16.853976,173.99823 L 16.853976,182.95902 L 15.918803,182.95902 C 15.638756,182.95902 15.413304,183.13965 15.413304,183.36403 L 15.413304,183.59691 C 15.413304,183.82128 15.638756,184.00191 15.918803,184.00191 L 29.996947,184.00191 C 30.276993,184.00191 30.502441,183.82128 30.502445,183.59691 L 30.502445,183.36403 C 30.502445,183.13965 30.276989,182.95902 29.996947,182.95902 L 28.985949,182.95902 L 28.985949,173.99823 L 28.985949,173.76536 L 28.973311,173.76536 C 28.845283,170.67919 26.186779,168.20662 22.919962,168.20663 z "
           id="path28920" />
        <path
           style="fill:#000000;fill-opacity:0.88235294;fill-rule:evenodd;stroke:#00a9ff;stroke-width:2.19996095;stroke-linecap:butt;stroke-linejoin:miter;stroke-miterlimit:4;stroke-dasharray:none;stroke-opacity:1"
           d="M 22.663034,184.0699 L 22.663034,201.16404"
           id="path28922" />
      </g>
      <g
         transform="matrix(0.6686359,0,0,0.748324,421.09253,-36.052754)"
         id="g28924">
        <path
           style="fill:#ff0000"
           d="M 22.919962,168.20663 C 19.653089,168.20663 16.994557,170.67912 16.866613,173.76536 L 16.853976,173.76536 L 16.853976,173.99823 L 16.853976,182.95902 L 15.918803,182.95902 C 15.638756,182.95902 15.413304,183.13965 15.413304,183.36403 L 15.413304,183.59691 C 15.413304,183.82128 15.638756,184.00191 15.918803,184.00191 L 29.996947,184.00191 C 30.276993,184.00191 30.502441,183.82128 30.502445,183.59691 L 30.502445,183.36403 C 30.502445,183.13965 30.276989,182.95902 29.996947,182.95902 L 28.985949,182.95902 L 28.985949,173.99823 L 28.985949,173.76536 L 28.973311,173.76536 C 28.845283,170.67919 26.186779,168.20662 22.919962,168.20663 z "
           id="path28926" />
        <path
           style="fill:#000000;fill-opacity:0.88235294;fill-rule:evenodd;stroke:#00a9ff;stroke-width:2.19996095;stroke-linecap:butt;stroke-linejoin:miter;stroke-miterlimit:4;stroke-dasharray:none;stroke-opacity:1"
           d="M 22.663034,184.0699 L 22.663034,201.16404"
           id="path28928" />
      </g>
      <g
         transform="matrix(0.6686359,0,0,0.748324,473.22099,-36.052754)"
         id="g28930">
        <path
           style="fill:#ff0000"
           d="M 22.919962,168.20663 C 19.653089,168.20663 16.994557,170.67912 16.866613,173.76536 L 16.853976,173.76536 L 16.853976,173.99823 L 16.853976,182.95902 L 15.918803,182.95902 C 15.638756,182.95902 15.413304,183.13965 15.413304,183.36403 L 15.413304,183.59691 C 15.413304,183.82128 15.638756,184.00191 15.918803,184.00191 L 29.996947,184.00191 C 30.276993,184.00191 30.502441,183.82128 30.502445,183.59691 L 30.502445,183.36403 C 30.502445,183.13965 30.276989,182.95902 29.996947,182.95902 L 28.985949,182.95902 L 28.985949,173.99823 L 28.985949,173.76536 L 28.973311,173.76536 C 28.845283,170.67919 26.186779,168.20662 22.919962,168.20663 z "
           id="path28932" />
        <path
           style="fill:#000000;fill-opacity:0.88235294;fill-rule:evenodd;stroke:#00a9ff;stroke-width:2.19996095;stroke-linecap:butt;stroke-linejoin:miter;stroke-miterlimit:4;stroke-dasharray:none;stroke-opacity:1"
           d="M 22.663034,184.0699 L 22.663034,201.16404"
           id="path28934" />
      </g>
    </g>
    <g
       style="display:inline"
       id="g28936"
       transform="translate(64.083019,103.27411)">
      <g
         transform="matrix(0.6686359,0,0,0.748324,108.3217,-36.052754)"
         id="g28938">
        <path
           style="fill:#ff0000"
           d="M 22.919962,168.20663 C 19.653089,168.20663 16.994557,170.67912 16.866613,173.76536 L 16.853976,173.76536 L 16.853976,173.99823 L 16.853976,182.95902 L 15.918803,182.95902 C 15.638756,182.95902 15.413304,183.13965 15.413304,183.36403 L 15.413304,183.59691 C 15.413304,183.82128 15.638756,184.00191 15.918803,184.00191 L 29.996947,184.00191 C 30.276993,184.00191 30.502441,183.82128 30.502445,183.59691 L 30.502445,183.36403 C 30.502445,183.13965 30.276989,182.95902 29.996947,182.95902 L 28.985949,182.95902 L 28.985949,173.99823 L 28.985949,173.76536 L 28.973311,173.76536 C 28.845283,170.67919 26.186779,168.20662 22.919962,168.20663 z "
           id="path28940" />
        <path
           style="fill:#000000;fill-opacity:0.88235294;fill-rule:evenodd;stroke:#00a9ff;stroke-width:2.19996095;stroke-linecap:butt;stroke-linejoin:miter;stroke-miterlimit:4;stroke-dasharray:none;stroke-opacity:1"
           d="M 22.663034,184.0699 L 22.663034,201.16404"
           id="path28942" />
      </g>
      <g
         transform="matrix(0.6686359,0,0,0.748324,160.45017,-36.052754)"
         id="g28944">
        <path
           style="fill:#ff0000"
           d="M 22.919962,168.20663 C 19.653089,168.20663 16.994557,170.67912 16.866613,173.76536 L 16.853976,173.76536 L 16.853976,173.99823 L 16.853976,182.95902 L 15.918803,182.95902 C 15.638756,182.95902 15.413304,183.13965 15.413304,183.36403 L 15.413304,183.59691 C 15.413304,183.82128 15.638756,184.00191 15.918803,184.00191 L 29.996947,184.00191 C 30.276993,184.00191 30.502441,183.82128 30.502445,183.59691 L 30.502445,183.36403 C 30.502445,183.13965 30.276989,182.95902 29.996947,182.95902 L 28.985949,182.95902 L 28.985949,173.99823 L 28.985949,173.76536 L 28.973311,173.76536 C 28.845283,170.67919 26.186779,168.20662 22.919962,168.20663 z "
           id="path28946" />
        <path
           style="fill:#000000;fill-opacity:0.88235294;fill-rule:evenodd;stroke:#00a9ff;stroke-width:2.19996095;stroke-linecap:butt;stroke-linejoin:miter;stroke-miterlimit:4;stroke-dasharray:none;stroke-opacity:1"
           d="M 22.663034,184.0699 L 22.663034,201.16404"
           id="path28948" />
      </g>
      <g
         transform="matrix(0.6686359,0,0,0.748324,212.57865,-36.052754)"
         id="g28950">
        <path
           style="fill:#ff0000"
           d="M 22.919962,168.20663 C 19.653089,168.20663 16.994557,170.67912 16.866613,173.76536 L 16.853976,173.76536 L 16.853976,173.99823 L 16.853976,182.95902 L 15.918803,182.95902 C 15.638756,182.95902 15.413304,183.13965 15.413304,183.36403 L 15.413304,183.59691 C 15.413304,183.82128 15.638756,184.00191 15.918803,184.00191 L 29.996947,184.00191 C 30.276993,184.00191 30.502441,183.82128 30.502445,183.59691 L 30.502445,183.36403 C 30.502445,183.13965 30.276989,182.95902 29.996947,182.95902 L 28.985949,182.95902 L 28.985949,173.99823 L 28.985949,173.76536 L 28.973311,173.76536 C 28.845283,170.67919 26.186779,168.20662 22.919962,168.20663 z "
           id="path28952" />
        <path
           style="fill:#000000;fill-opacity:0.88235294;fill-rule:evenodd;stroke:#00a9ff;stroke-width:2.19996095;stroke-linecap:butt;stroke-linejoin:miter;stroke-miterlimit:4;stroke-dasharray:none;stroke-opacity:1"
           d="M 22.663034,184.0699 L 22.663034,201.16404"
           id="path28954" />
      </g>
      <g
         transform="matrix(0.6686359,0,0,0.748324,264.7071,-36.052754)"
         id="g28956">
        <path
           style="fill:#ff0000"
           d="M 22.919962,168.20663 C 19.653089,168.20663 16.994557,170.67912 16.866613,173.76536 L 16.853976,173.76536 L 16.853976,173.99823 L 16.853976,182.95902 L 15.918803,182.95902 C 15.638756,182.95902 15.413304,183.13965 15.413304,183.36403 L 15.413304,183.59691 C 15.413304,183.82128 15.638756,184.00191 15.918803,184.00191 L 29.996947,184.00191 C 30.276993,184.00191 30.502441,183.82128 30.502445,183.59691 L 30.502445,183.36403 C 30.502445,183.13965 30.276989,182.95902 29.996947,182.95902 L 28.985949,182.95902 L 28.985949,173.99823 L 28.985949,173.76536 L 28.973311,173.76536 C 28.845283,170.67919 26.186779,168.20662 22.919962,168.20663 z "
           id="path28958" />
        <path
           style="fill:#000000;fill-opacity:0.88235294;fill-rule:evenodd;stroke:#00a9ff;stroke-width:2.19996095;stroke-linecap:butt;stroke-linejoin:miter;stroke-miterlimit:4;stroke-dasharray:none;stroke-opacity:1"
           d="M 22.663034,184.0699 L 22.663034,201.16404"
           id="path28960" />
      </g>
      <g
         transform="matrix(0.6686359,0,0,0.748324,316.83559,-36.052754)"
         id="g28962">
        <path
           style="fill:#ff0000"
           d="M 22.919962,168.20663 C 19.653089,168.20663 16.994557,170.67912 16.866613,173.76536 L 16.853976,173.76536 L 16.853976,173.99823 L 16.853976,182.95902 L 15.918803,182.95902 C 15.638756,182.95902 15.413304,183.13965 15.413304,183.36403 L 15.413304,183.59691 C 15.413304,183.82128 15.638756,184.00191 15.918803,184.00191 L 29.996947,184.00191 C 30.276993,184.00191 30.502441,183.82128 30.502445,183.59691 L 30.502445,183.36403 C 30.502445,183.13965 30.276989,182.95902 29.996947,182.95902 L 28.985949,182.95902 L 28.985949,173.99823 L 28.985949,173.76536 L 28.973311,173.76536 C 28.845283,170.67919 26.186779,168.20662 22.919962,168.20663 z "
           id="path28964" />
        <path
           style="fill:#000000;fill-opacity:0.88235294;fill-rule:evenodd;stroke:#00a9ff;stroke-width:2.19996095;stroke-linecap:butt;stroke-linejoin:miter;stroke-miterlimit:4;stroke-dasharray:none;stroke-opacity:1"
           d="M 22.663034,184.0699 L 22.663034,201.16404"
           id="path28966" />
      </g>
      <g
         transform="matrix(0.6686359,0,0,0.748324,368.96405,-36.052754)"
         id="g28968">
        <path
           style="fill:#ff0000"
           d="M 22.919962,168.20663 C 19.653089,168.20663 16.994557,170.67912 16.866613,173.76536 L 16.853976,173.76536 L 16.853976,173.99823 L 16.853976,182.95902 L 15.918803,182.95902 C 15.638756,182.95902 15.413304,183.13965 15.413304,183.36403 L 15.413304,183.59691 C 15.413304,183.82128 15.638756,184.00191 15.918803,184.00191 L 29.996947,184.00191 C 30.276993,184.00191 30.502441,183.82128 30.502445,183.59691 L 30.502445,183.36403 C 30.502445,183.13965 30.276989,182.95902 29.996947,182.95902 L 28.985949,182.95902 L 28.985949,173.99823 L 28.985949,173.76536 L 28.973311,173.76536 C 28.845283,170.67919 26.186779,168.20662 22.919962,168.20663 z "
           id="path28970" />
        <path
           style="fill:#000000;fill-opacity:0.88235294;fill-rule:evenodd;stroke:#00a9ff;stroke-width:2.19996095;stroke-linecap:butt;stroke-linejoin:miter;stroke-miterlimit:4;stroke-dasharray:none;stroke-opacity:1"
           d="M 22.663034,184.0699 L 22.663034,201.16404"
           id="path28972" />
      </g>
      <g
         transform="matrix(0.6686359,0,0,0.748324,421.09253,-36.052754)"
         id="g28974">
        <path
           style="fill:#ff0000"
           d="M 22.919962,168.20663 C 19.653089,168.20663 16.994557,170.67912 16.866613,173.76536 L 16.853976,173.76536 L 16.853976,173.99823 L 16.853976,182.95902 L 15.918803,182.95902 C 15.638756,182.95902 15.413304,183.13965 15.413304,183.36403 L 15.413304,183.59691 C 15.413304,183.82128 15.638756,184.00191 15.918803,184.00191 L 29.996947,184.00191 C 30.276993,184.00191 30.502441,183.82128 30.502445,183.59691 L 30.502445,183.36403 C 30.502445,183.13965 30.276989,182.95902 29.996947,182.95902 L 28.985949,182.95902 L 28.985949,173.99823 L 28.985949,173.76536 L 28.973311,173.76536 C 28.845283,170.67919 26.186779,168.20662 22.919962,168.20663 z "
           id="path28976" />
        <path
           style="fill:#000000;fill-opacity:0.88235294;fill-rule:evenodd;stroke:#00a9ff;stroke-width:2.19996095;stroke-linecap:butt;stroke-linejoin:miter;stroke-miterlimit:4;stroke-dasharray:none;stroke-opacity:1"
           d="M 22.663034,184.0699 L 22.663034,201.16404"
           id="path28978" />
      </g>
      <g
         transform="matrix(0.6686359,0,0,0.748324,473.22099,-36.052754)"
         id="g28980">
        <path
           style="fill:#ff0000"
           d="M 22.919962,168.20663 C 19.653089,168.20663 16.994557,170.67912 16.866613,173.76536 L 16.853976,173.76536 L 16.853976,173.99823 L 16.853976,182.95902 L 15.918803,182.95902 C 15.638756,182.95902 15.413304,183.13965 15.413304,183.36403 L 15.413304,183.59691 C 15.413304,183.82128 15.638756,184.00191 15.918803,184.00191 L 29.996947,184.00191 C 30.276993,184.00191 30.502441,183.82128 30.502445,183.59691 L 30.502445,183.36403 C 30.502445,183.13965 30.276989,182.95902 29.996947,182.95902 L 28.985949,182.95902 L 28.985949,173.99823 L 28.985949,173.76536 L 28.973311,173.76536 C 28.845283,170.67919 26.186779,168.20662 22.919962,168.20663 z "
           id="path28982" />
        <path
           style="fill:#000000;fill-opacity:0.88235294;fill-rule:evenodd;stroke:#00a9ff;stroke-width:2.19996095;stroke-linecap:butt;stroke-linejoin:miter;stroke-miterlimit:4;stroke-dasharray:none;stroke-opacity:1"
           d="M 22.663034,184.0699 L 22.663034,201.16404"
           id="path28984" />
      </g>
    </g>
    <g
       style="display:inline"
       id="g28986"
       transform="translate(64.083019,155.28938)">
      <g
         transform="matrix(0.6686359,0,0,0.748324,108.3217,-36.052754)"
         id="g28988">
        <path
           style="fill:#ff0000"
           d="M 22.919962,168.20663 C 19.653089,168.20663 16.994557,170.67912 16.866613,173.76536 L 16.853976,173.76536 L 16.853976,173.99823 L 16.853976,182.95902 L 15.918803,182.95902 C 15.638756,182.95902 15.413304,183.13965 15.413304,183.36403 L 15.413304,183.59691 C 15.413304,183.82128 15.638756,184.00191 15.918803,184.00191 L 29.996947,184.00191 C 30.276993,184.00191 30.502441,183.82128 30.502445,183.59691 L 30.502445,183.36403 C 30.502445,183.13965 30.276989,182.95902 29.996947,182.95902 L 28.985949,182.95902 L 28.985949,173.99823 L 28.985949,173.76536 L 28.973311,173.76536 C 28.845283,170.67919 26.186779,168.20662 22.919962,168.20663 z "
           id="path28990" />
        <path
           style="fill:#000000;fill-opacity:0.88235294;fill-rule:evenodd;stroke:#00a9ff;stroke-width:2.19996095;stroke-linecap:butt;stroke-linejoin:miter;stroke-miterlimit:4;stroke-dasharray:none;stroke-opacity:1"
           d="M 22.663034,184.0699 L 22.663034,201.16404"
           id="path28992" />
      </g>
      <g
         transform="matrix(0.6686359,0,0,0.748324,160.45017,-36.052754)"
         id="g28994">
        <path
           style="fill:#ff0000"
           d="M 22.919962,168.20663 C 19.653089,168.20663 16.994557,170.67912 16.866613,173.76536 L 16.853976,173.76536 L 16.853976,173.99823 L 16.853976,182.95902 L 15.918803,182.95902 C 15.638756,182.95902 15.413304,183.13965 15.413304,183.36403 L 15.413304,183.59691 C 15.413304,183.82128 15.638756,184.00191 15.918803,184.00191 L 29.996947,184.00191 C 30.276993,184.00191 30.502441,183.82128 30.502445,183.59691 L 30.502445,183.36403 C 30.502445,183.13965 30.276989,182.95902 29.996947,182.95902 L 28.985949,182.95902 L 28.985949,173.99823 L 28.985949,173.76536 L 28.973311,173.76536 C 28.845283,170.67919 26.186779,168.20662 22.919962,168.20663 z "
           id="path28996" />
        <path
           style="fill:#000000;fill-opacity:0.88235294;fill-rule:evenodd;stroke:#00a9ff;stroke-width:2.19996095;stroke-linecap:butt;stroke-linejoin:miter;stroke-miterlimit:4;stroke-dasharray:none;stroke-opacity:1"
           d="M 22.663034,184.0699 L 22.663034,201.16404"
           id="path28998" />
      </g>
      <g
         transform="matrix(0.6686359,0,0,0.748324,212.57865,-36.052754)"
         id="g29000">
        <path
           style="fill:#ff0000"
           d="M 22.919962,168.20663 C 19.653089,168.20663 16.994557,170.67912 16.866613,173.76536 L 16.853976,173.76536 L 16.853976,173.99823 L 16.853976,182.95902 L 15.918803,182.95902 C 15.638756,182.95902 15.413304,183.13965 15.413304,183.36403 L 15.413304,183.59691 C 15.413304,183.82128 15.638756,184.00191 15.918803,184.00191 L 29.996947,184.00191 C 30.276993,184.00191 30.502441,183.82128 30.502445,183.59691 L 30.502445,183.36403 C 30.502445,183.13965 30.276989,182.95902 29.996947,182.95902 L 28.985949,182.95902 L 28.985949,173.99823 L 28.985949,173.76536 L 28.973311,173.76536 C 28.845283,170.67919 26.186779,168.20662 22.919962,168.20663 z "
           id="path29002" />
        <path
           style="fill:#000000;fill-opacity:0.88235294;fill-rule:evenodd;stroke:#00a9ff;stroke-width:2.19996095;stroke-linecap:butt;stroke-linejoin:miter;stroke-miterlimit:4;stroke-dasharray:none;stroke-opacity:1"
           d="M 22.663034,184.0699 L 22.663034,201.16404"
           id="path29004" />
      </g>
      <g
         transform="matrix(0.6686359,0,0,0.748324,264.7071,-36.052754)"
         id="g29006">
        <path
           style="fill:#ff0000"
           d="M 22.919962,168.20663 C 19.653089,168.20663 16.994557,170.67912 16.866613,173.76536 L 16.853976,173.76536 L 16.853976,173.99823 L 16.853976,182.95902 L 15.918803,182.95902 C 15.638756,182.95902 15.413304,183.13965 15.413304,183.36403 L 15.413304,183.59691 C 15.413304,183.82128 15.638756,184.00191 15.918803,184.00191 L 29.996947,184.00191 C 30.276993,184.00191 30.502441,183.82128 30.502445,183.59691 L 30.502445,183.36403 C 30.502445,183.13965 30.276989,182.95902 29.996947,182.95902 L 28.985949,182.95902 L 28.985949,173.99823 L 28.985949,173.76536 L 28.973311,173.76536 C 28.845283,170.67919 26.186779,168.20662 22.919962,168.20663 z "
           id="path29008" />
        <path
           style="fill:#000000;fill-opacity:0.88235294;fill-rule:evenodd;stroke:#00a9ff;stroke-width:2.19996095;stroke-linecap:butt;stroke-linejoin:miter;stroke-miterlimit:4;stroke-dasharray:none;stroke-opacity:1"
           d="M 22.663034,184.0699 L 22.663034,201.16404"
           id="path29010" />
      </g>
      <g
         transform="matrix(0.6686359,0,0,0.748324,316.83559,-36.052754)"
         id="g29012">
        <path
           style="fill:#ff0000"
           d="M 22.919962,168.20663 C 19.653089,168.20663 16.994557,170.67912 16.866613,173.76536 L 16.853976,173.76536 L 16.853976,173.99823 L 16.853976,182.95902 L 15.918803,182.95902 C 15.638756,182.95902 15.413304,183.13965 15.413304,183.36403 L 15.413304,183.59691 C 15.413304,183.82128 15.638756,184.00191 15.918803,184.00191 L 29.996947,184.00191 C 30.276993,184.00191 30.502441,183.82128 30.502445,183.59691 L 30.502445,183.36403 C 30.502445,183.13965 30.276989,182.95902 29.996947,182.95902 L 28.985949,182.95902 L 28.985949,173.99823 L 28.985949,173.76536 L 28.973311,173.76536 C 28.845283,170.67919 26.186779,168.20662 22.919962,168.20663 z "
           id="path29014" />
        <path
           style="fill:#000000;fill-opacity:0.88235294;fill-rule:evenodd;stroke:#00a9ff;stroke-width:2.19996095;stroke-linecap:butt;stroke-linejoin:miter;stroke-miterlimit:4;stroke-dasharray:none;stroke-opacity:1"
           d="M 22.663034,184.0699 L 22.663034,201.16404"
           id="path29016" />
      </g>
      <g
         transform="matrix(0.6686359,0,0,0.748324,368.96405,-36.052754)"
         id="g29018">
        <path
           style="fill:#ff0000"
           d="M 22.919962,168.20663 C 19.653089,168.20663 16.994557,170.67912 16.866613,173.76536 L 16.853976,173.76536 L 16.853976,173.99823 L 16.853976,182.95902 L 15.918803,182.95902 C 15.638756,182.95902 15.413304,183.13965 15.413304,183.36403 L 15.413304,183.59691 C 15.413304,183.82128 15.638756,184.00191 15.918803,184.00191 L 29.996947,184.00191 C 30.276993,184.00191 30.502441,183.82128 30.502445,183.59691 L 30.502445,183.36403 C 30.502445,183.13965 30.276989,182.95902 29.996947,182.95902 L 28.985949,182.95902 L 28.985949,173.99823 L 28.985949,173.76536 L 28.973311,173.76536 C 28.845283,170.67919 26.186779,168.20662 22.919962,168.20663 z "
           id="path29020" />
        <path
           style="fill:#000000;fill-opacity:0.88235294;fill-rule:evenodd;stroke:#00a9ff;stroke-width:2.19996095;stroke-linecap:butt;stroke-linejoin:miter;stroke-miterlimit:4;stroke-dasharray:none;stroke-opacity:1"
           d="M 22.663034,184.0699 L 22.663034,201.16404"
           id="path29022" />
      </g>
      <g
         transform="matrix(0.6686359,0,0,0.748324,421.09253,-36.052754)"
         id="g29024">
        <path
           style="fill:#ff0000"
           d="M 22.919962,168.20663 C 19.653089,168.20663 16.994557,170.67912 16.866613,173.76536 L 16.853976,173.76536 L 16.853976,173.99823 L 16.853976,182.95902 L 15.918803,182.95902 C 15.638756,182.95902 15.413304,183.13965 15.413304,183.36403 L 15.413304,183.59691 C 15.413304,183.82128 15.638756,184.00191 15.918803,184.00191 L 29.996947,184.00191 C 30.276993,184.00191 30.502441,183.82128 30.502445,183.59691 L 30.502445,183.36403 C 30.502445,183.13965 30.276989,182.95902 29.996947,182.95902 L 28.985949,182.95902 L 28.985949,173.99823 L 28.985949,173.76536 L 28.973311,173.76536 C 28.845283,170.67919 26.186779,168.20662 22.919962,168.20663 z "
           id="path29026" />
        <path
           style="fill:#000000;fill-opacity:0.88235294;fill-rule:evenodd;stroke:#00a9ff;stroke-width:2.19996095;stroke-linecap:butt;stroke-linejoin:miter;stroke-miterlimit:4;stroke-dasharray:none;stroke-opacity:1"
           d="M 22.663034,184.0699 L 22.663034,201.16404"
           id="path29028" />
      </g>
      <g
         transform="matrix(0.6686359,0,0,0.748324,473.22099,-36.052754)"
         id="g29030">
        <path
           style="fill:#ff0000"
           d="M 22.919962,168.20663 C 19.653089,168.20663 16.994557,170.67912 16.866613,173.76536 L 16.853976,173.76536 L 16.853976,173.99823 L 16.853976,182.95902 L 15.918803,182.95902 C 15.638756,182.95902 15.413304,183.13965 15.413304,183.36403 L 15.413304,183.59691 C 15.413304,183.82128 15.638756,184.00191 15.918803,184.00191 L 29.996947,184.00191 C 30.276993,184.00191 30.502441,183.82128 30.502445,183.59691 L 30.502445,183.36403 C 30.502445,183.13965 30.276989,182.95902 29.996947,182.95902 L 28.985949,182.95902 L 28.985949,173.99823 L 28.985949,173.76536 L 28.973311,173.76536 C 28.845283,170.67919 26.186779,168.20662 22.919962,168.20663 z "
           id="path29032" />
        <path
           style="fill:#000000;fill-opacity:0.88235294;fill-rule:evenodd;stroke:#00a9ff;stroke-width:2.19996095;stroke-linecap:butt;stroke-linejoin:miter;stroke-miterlimit:4;stroke-dasharray:none;stroke-opacity:1"
           d="M 22.663034,184.0699 L 22.663034,201.16404"
           id="path29034" />
      </g>
    </g>
    <g
       style="display:inline"
       id="g29036"
       transform="translate(64.083019,207.30468)">
      <g
         transform="matrix(0.6686359,0,0,0.748324,108.3217,-36.052754)"
         id="g29038">
        <path
           style="fill:#ff0000"
           d="M 22.919962,168.20663 C 19.653089,168.20663 16.994557,170.67912 16.866613,173.76536 L 16.853976,173.76536 L 16.853976,173.99823 L 16.853976,182.95902 L 15.918803,182.95902 C 15.638756,182.95902 15.413304,183.13965 15.413304,183.36403 L 15.413304,183.59691 C 15.413304,183.82128 15.638756,184.00191 15.918803,184.00191 L 29.996947,184.00191 C 30.276993,184.00191 30.502441,183.82128 30.502445,183.59691 L 30.502445,183.36403 C 30.502445,183.13965 30.276989,182.95902 29.996947,182.95902 L 28.985949,182.95902 L 28.985949,173.99823 L 28.985949,173.76536 L 28.973311,173.76536 C 28.845283,170.67919 26.186779,168.20662 22.919962,168.20663 z "
           id="path29040" />
        <path
           style="fill:#000000;fill-opacity:0.88235294;fill-rule:evenodd;stroke:#00a9ff;stroke-width:2.19996095;stroke-linecap:butt;stroke-linejoin:miter;stroke-miterlimit:4;stroke-dasharray:none;stroke-opacity:1"
           d="M 22.663034,184.0699 L 22.663034,201.16404"
           id="path29042" />
      </g>
      <g
         transform="matrix(0.6686359,0,0,0.748324,160.45017,-36.052754)"
         id="g29044">
        <path
           style="fill:#ff0000"
           d="M 22.919962,168.20663 C 19.653089,168.20663 16.994557,170.67912 16.866613,173.76536 L 16.853976,173.76536 L 16.853976,173.99823 L 16.853976,182.95902 L 15.918803,182.95902 C 15.638756,182.95902 15.413304,183.13965 15.413304,183.36403 L 15.413304,183.59691 C 15.413304,183.82128 15.638756,184.00191 15.918803,184.00191 L 29.996947,184.00191 C 30.276993,184.00191 30.502441,183.82128 30.502445,183.59691 L 30.502445,183.36403 C 30.502445,183.13965 30.276989,182.95902 29.996947,182.95902 L 28.985949,182.95902 L 28.985949,173.99823 L 28.985949,173.76536 L 28.973311,173.76536 C 28.845283,170.67919 26.186779,168.20662 22.919962,168.20663 z "
           id="path29046" />
        <path
           style="fill:#000000;fill-opacity:0.88235294;fill-rule:evenodd;stroke:#00a9ff;stroke-width:2.19996095;stroke-linecap:butt;stroke-linejoin:miter;stroke-miterlimit:4;stroke-dasharray:none;stroke-opacity:1"
           d="M 22.663034,184.0699 L 22.663034,201.16404"
           id="path29048" />
      </g>
      <g
         transform="matrix(0.6686359,0,0,0.748324,212.57865,-36.052754)"
         id="g29050">
        <path
           style="fill:#ff0000"
           d="M 22.919962,168.20663 C 19.653089,168.20663 16.994557,170.67912 16.866613,173.76536 L 16.853976,173.76536 L 16.853976,173.99823 L 16.853976,182.95902 L 15.918803,182.95902 C 15.638756,182.95902 15.413304,183.13965 15.413304,183.36403 L 15.413304,183.59691 C 15.413304,183.82128 15.638756,184.00191 15.918803,184.00191 L 29.996947,184.00191 C 30.276993,184.00191 30.502441,183.82128 30.502445,183.59691 L 30.502445,183.36403 C 30.502445,183.13965 30.276989,182.95902 29.996947,182.95902 L 28.985949,182.95902 L 28.985949,173.99823 L 28.985949,173.76536 L 28.973311,173.76536 C 28.845283,170.67919 26.186779,168.20662 22.919962,168.20663 z "
           id="path29052" />
        <path
           style="fill:#000000;fill-opacity:0.88235294;fill-rule:evenodd;stroke:#00a9ff;stroke-width:2.19996095;stroke-linecap:butt;stroke-linejoin:miter;stroke-miterlimit:4;stroke-dasharray:none;stroke-opacity:1"
           d="M 22.663034,184.0699 L 22.663034,201.16404"
           id="path29054" />
      </g>
      <g
         transform="matrix(0.6686359,0,0,0.748324,264.7071,-36.052754)"
         id="g29056">
        <path
           style="fill:#ff0000"
           d="M 22.919962,168.20663 C 19.653089,168.20663 16.994557,170.67912 16.866613,173.76536 L 16.853976,173.76536 L 16.853976,173.99823 L 16.853976,182.95902 L 15.918803,182.95902 C 15.638756,182.95902 15.413304,183.13965 15.413304,183.36403 L 15.413304,183.59691 C 15.413304,183.82128 15.638756,184.00191 15.918803,184.00191 L 29.996947,184.00191 C 30.276993,184.00191 30.502441,183.82128 30.502445,183.59691 L 30.502445,183.36403 C 30.502445,183.13965 30.276989,182.95902 29.996947,182.95902 L 28.985949,182.95902 L 28.985949,173.99823 L 28.985949,173.76536 L 28.973311,173.76536 C 28.845283,170.67919 26.186779,168.20662 22.919962,168.20663 z "
           id="path29058" />
        <path
           style="fill:#000000;fill-opacity:0.88235294;fill-rule:evenodd;stroke:#00a9ff;stroke-width:2.19996095;stroke-linecap:butt;stroke-linejoin:miter;stroke-miterlimit:4;stroke-dasharray:none;stroke-opacity:1"
           d="M 22.663034,184.0699 L 22.663034,201.16404"
           id="path29060" />
      </g>
      <g
         transform="matrix(0.6686359,0,0,0.748324,316.83559,-36.052754)"
         id="g29062">
        <path
           style="fill:#ff0000"
           d="M 22.919962,168.20663 C 19.653089,168.20663 16.994557,170.67912 16.866613,173.76536 L 16.853976,173.76536 L 16.853976,173.99823 L 16.853976,182.95902 L 15.918803,182.95902 C 15.638756,182.95902 15.413304,183.13965 15.413304,183.36403 L 15.413304,183.59691 C 15.413304,183.82128 15.638756,184.00191 15.918803,184.00191 L 29.996947,184.00191 C 30.276993,184.00191 30.502441,183.82128 30.502445,183.59691 L 30.502445,183.36403 C 30.502445,183.13965 30.276989,182.95902 29.996947,182.95902 L 28.985949,182.95902 L 28.985949,173.99823 L 28.985949,173.76536 L 28.973311,173.76536 C 28.845283,170.67919 26.186779,168.20662 22.919962,168.20663 z "
           id="path29064" />
        <path
           style="fill:#000000;fill-opacity:0.88235294;fill-rule:evenodd;stroke:#00a9ff;stroke-width:2.19996095;stroke-linecap:butt;stroke-linejoin:miter;stroke-miterlimit:4;stroke-dasharray:none;stroke-opacity:1"
           d="M 22.663034,184.0699 L 22.663034,201.16404"
           id="path29066" />
      </g>
      <g
         transform="matrix(0.6686359,0,0,0.748324,368.96405,-36.052754)"
         id="g29068">
        <path
           style="fill:#ff0000"
           d="M 22.919962,168.20663 C 19.653089,168.20663 16.994557,170.67912 16.866613,173.76536 L 16.853976,173.76536 L 16.853976,173.99823 L 16.853976,182.95902 L 15.918803,182.95902 C 15.638756,182.95902 15.413304,183.13965 15.413304,183.36403 L 15.413304,183.59691 C 15.413304,183.82128 15.638756,184.00191 15.918803,184.00191 L 29.996947,184.00191 C 30.276993,184.00191 30.502441,183.82128 30.502445,183.59691 L 30.502445,183.36403 C 30.502445,183.13965 30.276989,182.95902 29.996947,182.95902 L 28.985949,182.95902 L 28.985949,173.99823 L 28.985949,173.76536 L 28.973311,173.76536 C 28.845283,170.67919 26.186779,168.20662 22.919962,168.20663 z "
           id="path29070" />
        <path
           style="fill:#000000;fill-opacity:0.88235294;fill-rule:evenodd;stroke:#00a9ff;stroke-width:2.19996095;stroke-linecap:butt;stroke-linejoin:miter;stroke-miterlimit:4;stroke-dasharray:none;stroke-opacity:1"
           d="M 22.663034,184.0699 L 22.663034,201.16404"
           id="path29072" />
      </g>
      <g
         transform="matrix(0.6686359,0,0,0.748324,421.09253,-36.052754)"
         id="g29074">
        <path
           style="fill:#ff0000"
           d="M 22.919962,168.20663 C 19.653089,168.20663 16.994557,170.67912 16.866613,173.76536 L 16.853976,173.76536 L 16.853976,173.99823 L 16.853976,182.95902 L 15.918803,182.95902 C 15.638756,182.95902 15.413304,183.13965 15.413304,183.36403 L 15.413304,183.59691 C 15.413304,183.82128 15.638756,184.00191 15.918803,184.00191 L 29.996947,184.00191 C 30.276993,184.00191 30.502441,183.82128 30.502445,183.59691 L 30.502445,183.36403 C 30.502445,183.13965 30.276989,182.95902 29.996947,182.95902 L 28.985949,182.95902 L 28.985949,173.99823 L 28.985949,173.76536 L 28.973311,173.76536 C 28.845283,170.67919 26.186779,168.20662 22.919962,168.20663 z "
           id="path29076" />
        <path
           style="fill:#000000;fill-opacity:0.88235294;fill-rule:evenodd;stroke:#00a9ff;stroke-width:2.19996095;stroke-linecap:butt;stroke-linejoin:miter;stroke-miterlimit:4;stroke-dasharray:none;stroke-opacity:1"
           d="M 22.663034,184.0699 L 22.663034,201.16404"
           id="path29078" />
      </g>
      <g
         transform="matrix(0.6686359,0,0,0.748324,473.22099,-36.052754)"
         id="g29080">
        <path
           style="fill:#ff0000"
           d="M 22.919962,168.20663 C 19.653089,168.20663 16.994557,170.67912 16.866613,173.76536 L 16.853976,173.76536 L 16.853976,173.99823 L 16.853976,182.95902 L 15.918803,182.95902 C 15.638756,182.95902 15.413304,183.13965 15.413304,183.36403 L 15.413304,183.59691 C 15.413304,183.82128 15.638756,184.00191 15.918803,184.00191 L 29.996947,184.00191 C 30.276993,184.00191 30.502441,183.82128 30.502445,183.59691 L 30.502445,183.36403 C 30.502445,183.13965 30.276989,182.95902 29.996947,182.95902 L 28.985949,182.95902 L 28.985949,173.99823 L 28.985949,173.76536 L 28.973311,173.76536 C 28.845283,170.67919 26.186779,168.20662 22.919962,168.20663 z "
           id="path29082" />
        <path
           style="fill:#000000;fill-opacity:0.88235294;fill-rule:evenodd;stroke:#00a9ff;stroke-width:2.19996095;stroke-linecap:butt;stroke-linejoin:miter;stroke-miterlimit:4;stroke-dasharray:none;stroke-opacity:1"
           d="M 22.663034,184.0699 L 22.663034,201.16404"
           id="path29084" />
      </g>
    </g>
    <g
       style="display:inline"
       id="g29086"
       transform="translate(64.083019,259.32)">
      <g
         transform="matrix(0.6686359,0,0,0.748324,108.3217,-36.052754)"
         id="g29088">
        <path
           style="fill:#ff0000"
           d="M 22.919962,168.20663 C 19.653089,168.20663 16.994557,170.67912 16.866613,173.76536 L 16.853976,173.76536 L 16.853976,173.99823 L 16.853976,182.95902 L 15.918803,182.95902 C 15.638756,182.95902 15.413304,183.13965 15.413304,183.36403 L 15.413304,183.59691 C 15.413304,183.82128 15.638756,184.00191 15.918803,184.00191 L 29.996947,184.00191 C 30.276993,184.00191 30.502441,183.82128 30.502445,183.59691 L 30.502445,183.36403 C 30.502445,183.13965 30.276989,182.95902 29.996947,182.95902 L 28.985949,182.95902 L 28.985949,173.99823 L 28.985949,173.76536 L 28.973311,173.76536 C 28.845283,170.67919 26.186779,168.20662 22.919962,168.20663 z "
           id="path29090" />
        <path
           style="fill:#000000;fill-opacity:0.88235294;fill-rule:evenodd;stroke:#00a9ff;stroke-width:2.19996095;stroke-linecap:butt;stroke-linejoin:miter;stroke-miterlimit:4;stroke-dasharray:none;stroke-opacity:1"
           d="M 22.663034,184.0699 L 22.663034,201.16404"
           id="path29092" />
      </g>
      <g
         transform="matrix(0.6686359,0,0,0.748324,160.45017,-36.052754)"
         id="g29094">
        <path
           style="fill:#ff0000"
           d="M 22.919962,168.20663 C 19.653089,168.20663 16.994557,170.67912 16.866613,173.76536 L 16.853976,173.76536 L 16.853976,173.99823 L 16.853976,182.95902 L 15.918803,182.95902 C 15.638756,182.95902 15.413304,183.13965 15.413304,183.36403 L 15.413304,183.59691 C 15.413304,183.82128 15.638756,184.00191 15.918803,184.00191 L 29.996947,184.00191 C 30.276993,184.00191 30.502441,183.82128 30.502445,183.59691 L 30.502445,183.36403 C 30.502445,183.13965 30.276989,182.95902 29.996947,182.95902 L 28.985949,182.95902 L 28.985949,173.99823 L 28.985949,173.76536 L 28.973311,173.76536 C 28.845283,170.67919 26.186779,168.20662 22.919962,168.20663 z "
           id="path29096" />
        <path
           style="fill:#000000;fill-opacity:0.88235294;fill-rule:evenodd;stroke:#00a9ff;stroke-width:2.19996095;stroke-linecap:butt;stroke-linejoin:miter;stroke-miterlimit:4;stroke-dasharray:none;stroke-opacity:1"
           d="M 22.663034,184.0699 L 22.663034,201.16404"
           id="path29098" />
      </g>
      <g
         transform="matrix(0.6686359,0,0,0.748324,212.57865,-36.052754)"
         id="g29100">
        <path
           style="fill:#ff0000"
           d="M 22.919962,168.20663 C 19.653089,168.20663 16.994557,170.67912 16.866613,173.76536 L 16.853976,173.76536 L 16.853976,173.99823 L 16.853976,182.95902 L 15.918803,182.95902 C 15.638756,182.95902 15.413304,183.13965 15.413304,183.36403 L 15.413304,183.59691 C 15.413304,183.82128 15.638756,184.00191 15.918803,184.00191 L 29.996947,184.00191 C 30.276993,184.00191 30.502441,183.82128 30.502445,183.59691 L 30.502445,183.36403 C 30.502445,183.13965 30.276989,182.95902 29.996947,182.95902 L 28.985949,182.95902 L 28.985949,173.99823 L 28.985949,173.76536 L 28.973311,173.76536 C 28.845283,170.67919 26.186779,168.20662 22.919962,168.20663 z "
           id="path29102" />
        <path
           style="fill:#000000;fill-opacity:0.88235294;fill-rule:evenodd;stroke:#00a9ff;stroke-width:2.19996095;stroke-linecap:butt;stroke-linejoin:miter;stroke-miterlimit:4;stroke-dasharray:none;stroke-opacity:1"
           d="M 22.663034,184.0699 L 22.663034,201.16404"
           id="path29104" />
      </g>
      <g
         transform="matrix(0.6686359,0,0,0.748324,264.7071,-36.052754)"
         id="g29106">
        <path
           style="fill:#ff0000"
           d="M 22.919962,168.20663 C 19.653089,168.20663 16.994557,170.67912 16.866613,173.76536 L 16.853976,173.76536 L 16.853976,173.99823 L 16.853976,182.95902 L 15.918803,182.95902 C 15.638756,182.95902 15.413304,183.13965 15.413304,183.36403 L 15.413304,183.59691 C 15.413304,183.82128 15.638756,184.00191 15.918803,184.00191 L 29.996947,184.00191 C 30.276993,184.00191 30.502441,183.82128 30.502445,183.59691 L 30.502445,183.36403 C 30.502445,183.13965 30.276989,182.95902 29.996947,182.95902 L 28.985949,182.95902 L 28.985949,173.99823 L 28.985949,173.76536 L 28.973311,173.76536 C 28.845283,170.67919 26.186779,168.20662 22.919962,168.20663 z "
           id="path29108" />
        <path
           style="fill:#000000;fill-opacity:0.88235294;fill-rule:evenodd;stroke:#00a9ff;stroke-width:2.19996095;stroke-linecap:butt;stroke-linejoin:miter;stroke-miterlimit:4;stroke-dasharray:none;stroke-opacity:1"
           d="M 22.663034,184.0699 L 22.663034,201.16404"
           id="path29110" />
      </g>
      <g
         transform="matrix(0.6686359,0,0,0.748324,316.83559,-36.052754)"
         id="g29112">
        <path
           style="fill:#ff0000"
           d="M 22.919962,168.20663 C 19.653089,168.20663 16.994557,170.67912 16.866613,173.76536 L 16.853976,173.76536 L 16.853976,173.99823 L 16.853976,182.95902 L 15.918803,182.95902 C 15.638756,182.95902 15.413304,183.13965 15.413304,183.36403 L 15.413304,183.59691 C 15.413304,183.82128 15.638756,184.00191 15.918803,184.00191 L 29.996947,184.00191 C 30.276993,184.00191 30.502441,183.82128 30.502445,183.59691 L 30.502445,183.36403 C 30.502445,183.13965 30.276989,182.95902 29.996947,182.95902 L 28.985949,182.95902 L 28.985949,173.99823 L 28.985949,173.76536 L 28.973311,173.76536 C 28.845283,170.67919 26.186779,168.20662 22.919962,168.20663 z "
           id="path29114" />
        <path
           style="fill:#000000;fill-opacity:0.88235294;fill-rule:evenodd;stroke:#00a9ff;stroke-width:2.19996095;stroke-linecap:butt;stroke-linejoin:miter;stroke-miterlimit:4;stroke-dasharray:none;stroke-opacity:1"
           d="M 22.663034,184.0699 L 22.663034,201.16404"
           id="path29116" />
      </g>
      <g
         transform="matrix(0.6686359,0,0,0.748324,368.96405,-36.052754)"
         id="g29118">
        <path
           style="fill:#ff0000"
           d="M 22.919962,168.20663 C 19.653089,168.20663 16.994557,170.67912 16.866613,173.76536 L 16.853976,173.76536 L 16.853976,173.99823 L 16.853976,182.95902 L 15.918803,182.95902 C 15.638756,182.95902 15.413304,183.13965 15.413304,183.36403 L 15.413304,183.59691 C 15.413304,183.82128 15.638756,184.00191 15.918803,184.00191 L 29.996947,184.00191 C 30.276993,184.00191 30.502441,183.82128 30.502445,183.59691 L 30.502445,183.36403 C 30.502445,183.13965 30.276989,182.95902 29.996947,182.95902 L 28.985949,182.95902 L 28.985949,173.99823 L 28.985949,173.76536 L 28.973311,173.76536 C 28.845283,170.67919 26.186779,168.20662 22.919962,168.20663 z "
           id="path29120" />
        <path
           style="fill:#000000;fill-opacity:0.88235294;fill-rule:evenodd;stroke:#00a9ff;stroke-width:2.19996095;stroke-linecap:butt;stroke-linejoin:miter;stroke-miterlimit:4;stroke-dasharray:none;stroke-opacity:1"
           d="M 22.663034,184.0699 L 22.663034,201.16404"
           id="path29122" />
      </g>
      <g
         transform="matrix(0.6686359,0,0,0.748324,421.09253,-36.052754)"
         id="g29124">
        <path
           style="fill:#ff0000"
           d="M 22.919962,168.20663 C 19.653089,168.20663 16.994557,170.67912 16.866613,173.76536 L 16.853976,173.76536 L 16.853976,173.99823 L 16.853976,182.95902 L 15.918803,182.95902 C 15.638756,182.95902 15.413304,183.13965 15.413304,183.36403 L 15.413304,183.59691 C 15.413304,183.82128 15.638756,184.00191 15.918803,184.00191 L 29.996947,184.00191 C 30.276993,184.00191 30.502441,183.82128 30.502445,183.59691 L 30.502445,183.36403 C 30.502445,183.13965 30.276989,182.95902 29.996947,182.95902 L 28.985949,182.95902 L 28.985949,173.99823 L 28.985949,173.76536 L 28.973311,173.76536 C 28.845283,170.67919 26.186779,168.20662 22.919962,168.20663 z "
           id="path29126" />
        <path
           style="fill:#000000;fill-opacity:0.88235294;fill-rule:evenodd;stroke:#00a9ff;stroke-width:2.19996095;stroke-linecap:butt;stroke-linejoin:miter;stroke-miterlimit:4;stroke-dasharray:none;stroke-opacity:1"
           d="M 22.663034,184.0699 L 22.663034,201.16404"
           id="path29128" />
      </g>
      <g
         transform="matrix(0.6686359,0,0,0.748324,473.22099,-36.052754)"
         id="g29130">
        <path
           style="fill:#ff0000"
           d="M 22.919962,168.20663 C 19.653089,168.20663 16.994557,170.67912 16.866613,173.76536 L 16.853976,173.76536 L 16.853976,173.99823 L 16.853976,182.95902 L 15.918803,182.95902 C 15.638756,182.95902 15.413304,183.13965 15.413304,183.36403 L 15.413304,183.59691 C 15.413304,183.82128 15.638756,184.00191 15.918803,184.00191 L 29.996947,184.00191 C 30.276993,184.00191 30.502441,183.82128 30.502445,183.59691 L 30.502445,183.36403 C 30.502445,183.13965 30.276989,182.95902 29.996947,182.95902 L 28.985949,182.95902 L 28.985949,173.99823 L 28.985949,173.76536 L 28.973311,173.76536 C 28.845283,170.67919 26.186779,168.20662 22.919962,168.20663 z "
           id="path29132" />
        <path
           style="fill:#000000;fill-opacity:0.88235294;fill-rule:evenodd;stroke:#00a9ff;stroke-width:2.19996095;stroke-linecap:butt;stroke-linejoin:miter;stroke-miterlimit:4;stroke-dasharray:none;stroke-opacity:1"
           d="M 22.663034,184.0699 L 22.663034,201.16404"
           id="path29134" />
      </g>
    </g>
    <g
       style="display:inline"
       id="g29136"
       transform="translate(64.083019,311.33528)">
      <g
         transform="matrix(0.6686359,0,0,0.748324,108.3217,-36.052754)"
         id="g29138">
        <path
           style="fill:#ff0000"
           d="M 22.919962,168.20663 C 19.653089,168.20663 16.994557,170.67912 16.866613,173.76536 L 16.853976,173.76536 L 16.853976,173.99823 L 16.853976,182.95902 L 15.918803,182.95902 C 15.638756,182.95902 15.413304,183.13965 15.413304,183.36403 L 15.413304,183.59691 C 15.413304,183.82128 15.638756,184.00191 15.918803,184.00191 L 29.996947,184.00191 C 30.276993,184.00191 30.502441,183.82128 30.502445,183.59691 L 30.502445,183.36403 C 30.502445,183.13965 30.276989,182.95902 29.996947,182.95902 L 28.985949,182.95902 L 28.985949,173.99823 L 28.985949,173.76536 L 28.973311,173.76536 C 28.845283,170.67919 26.186779,168.20662 22.919962,168.20663 z "
           id="path29140" />
        <path
           style="fill:#000000;fill-opacity:0.88235294;fill-rule:evenodd;stroke:#00a9ff;stroke-width:2.19996095;stroke-linecap:butt;stroke-linejoin:miter;stroke-miterlimit:4;stroke-dasharray:none;stroke-opacity:1"
           d="M 22.663034,184.0699 L 22.663034,201.16404"
           id="path29142" />
      </g>
      <g
         transform="matrix(0.6686359,0,0,0.748324,160.45017,-36.052754)"
         id="g29144">
        <path
           style="fill:#ff0000"
           d="M 22.919962,168.20663 C 19.653089,168.20663 16.994557,170.67912 16.866613,173.76536 L 16.853976,173.76536 L 16.853976,173.99823 L 16.853976,182.95902 L 15.918803,182.95902 C 15.638756,182.95902 15.413304,183.13965 15.413304,183.36403 L 15.413304,183.59691 C 15.413304,183.82128 15.638756,184.00191 15.918803,184.00191 L 29.996947,184.00191 C 30.276993,184.00191 30.502441,183.82128 30.502445,183.59691 L 30.502445,183.36403 C 30.502445,183.13965 30.276989,182.95902 29.996947,182.95902 L 28.985949,182.95902 L 28.985949,173.99823 L 28.985949,173.76536 L 28.973311,173.76536 C 28.845283,170.67919 26.186779,168.20662 22.919962,168.20663 z "
           id="path29146" />
        <path
           style="fill:#000000;fill-opacity:0.88235294;fill-rule:evenodd;stroke:#00a9ff;stroke-width:2.19996095;stroke-linecap:butt;stroke-linejoin:miter;stroke-miterlimit:4;stroke-dasharray:none;stroke-opacity:1"
           d="M 22.663034,184.0699 L 22.663034,201.16404"
           id="path29148" />
      </g>
      <g
         transform="matrix(0.6686359,0,0,0.748324,212.57865,-36.052754)"
         id="g29150">
        <path
           style="fill:#ff0000"
           d="M 22.919962,168.20663 C 19.653089,168.20663 16.994557,170.67912 16.866613,173.76536 L 16.853976,173.76536 L 16.853976,173.99823 L 16.853976,182.95902 L 15.918803,182.95902 C 15.638756,182.95902 15.413304,183.13965 15.413304,183.36403 L 15.413304,183.59691 C 15.413304,183.82128 15.638756,184.00191 15.918803,184.00191 L 29.996947,184.00191 C 30.276993,184.00191 30.502441,183.82128 30.502445,183.59691 L 30.502445,183.36403 C 30.502445,183.13965 30.276989,182.95902 29.996947,182.95902 L 28.985949,182.95902 L 28.985949,173.99823 L 28.985949,173.76536 L 28.973311,173.76536 C 28.845283,170.67919 26.186779,168.20662 22.919962,168.20663 z "
           id="path29152" />
        <path
           style="fill:#000000;fill-opacity:0.88235294;fill-rule:evenodd;stroke:#00a9ff;stroke-width:2.19996095;stroke-linecap:butt;stroke-linejoin:miter;stroke-miterlimit:4;stroke-dasharray:none;stroke-opacity:1"
           d="M 22.663034,184.0699 L 22.663034,201.16404"
           id="path29154" />
      </g>
      <g
         transform="matrix(0.6686359,0,0,0.748324,264.7071,-36.052754)"
         id="g29156">
        <path
           style="fill:#ff0000"
           d="M 22.919962,168.20663 C 19.653089,168.20663 16.994557,170.67912 16.866613,173.76536 L 16.853976,173.76536 L 16.853976,173.99823 L 16.853976,182.95902 L 15.918803,182.95902 C 15.638756,182.95902 15.413304,183.13965 15.413304,183.36403 L 15.413304,183.59691 C 15.413304,183.82128 15.638756,184.00191 15.918803,184.00191 L 29.996947,184.00191 C 30.276993,184.00191 30.502441,183.82128 30.502445,183.59691 L 30.502445,183.36403 C 30.502445,183.13965 30.276989,182.95902 29.996947,182.95902 L 28.985949,182.95902 L 28.985949,173.99823 L 28.985949,173.76536 L 28.973311,173.76536 C 28.845283,170.67919 26.186779,168.20662 22.919962,168.20663 z "
           id="path29158" />
        <path
           style="fill:#000000;fill-opacity:0.88235294;fill-rule:evenodd;stroke:#00a9ff;stroke-width:2.19996095;stroke-linecap:butt;stroke-linejoin:miter;stroke-miterlimit:4;stroke-dasharray:none;stroke-opacity:1"
           d="M 22.663034,184.0699 L 22.663034,201.16404"
           id="path29160" />
      </g>
      <g
         transform="matrix(0.6686359,0,0,0.748324,316.83559,-36.052754)"
         id="g29162">
        <path
           style="fill:#ff0000"
           d="M 22.919962,168.20663 C 19.653089,168.20663 16.994557,170.67912 16.866613,173.76536 L 16.853976,173.76536 L 16.853976,173.99823 L 16.853976,182.95902 L 15.918803,182.95902 C 15.638756,182.95902 15.413304,183.13965 15.413304,183.36403 L 15.413304,183.59691 C 15.413304,183.82128 15.638756,184.00191 15.918803,184.00191 L 29.996947,184.00191 C 30.276993,184.00191 30.502441,183.82128 30.502445,183.59691 L 30.502445,183.36403 C 30.502445,183.13965 30.276989,182.95902 29.996947,182.95902 L 28.985949,182.95902 L 28.985949,173.99823 L 28.985949,173.76536 L 28.973311,173.76536 C 28.845283,170.67919 26.186779,168.20662 22.919962,168.20663 z "
           id="path29164" />
        <path
           style="fill:#000000;fill-opacity:0.88235294;fill-rule:evenodd;stroke:#00a9ff;stroke-width:2.19996095;stroke-linecap:butt;stroke-linejoin:miter;stroke-miterlimit:4;stroke-dasharray:none;stroke-opacity:1"
           d="M 22.663034,184.0699 L 22.663034,201.16404"
           id="path29166" />
      </g>
      <g
         transform="matrix(0.6686359,0,0,0.748324,368.96405,-36.052754)"
         id="g29168">
        <path
           style="fill:#ff0000"
           d="M 22.919962,168.20663 C 19.653089,168.20663 16.994557,170.67912 16.866613,173.76536 L 16.853976,173.76536 L 16.853976,173.99823 L 16.853976,182.95902 L 15.918803,182.95902 C 15.638756,182.95902 15.413304,183.13965 15.413304,183.36403 L 15.413304,183.59691 C 15.413304,183.82128 15.638756,184.00191 15.918803,184.00191 L 29.996947,184.00191 C 30.276993,184.00191 30.502441,183.82128 30.502445,183.59691 L 30.502445,183.36403 C 30.502445,183.13965 30.276989,182.95902 29.996947,182.95902 L 28.985949,182.95902 L 28.985949,173.99823 L 28.985949,173.76536 L 28.973311,173.76536 C 28.845283,170.67919 26.186779,168.20662 22.919962,168.20663 z "
           id="path29170" />
        <path
           style="fill:#000000;fill-opacity:0.88235294;fill-rule:evenodd;stroke:#00a9ff;stroke-width:2.19996095;stroke-linecap:butt;stroke-linejoin:miter;stroke-miterlimit:4;stroke-dasharray:none;stroke-opacity:1"
           d="M 22.663034,184.0699 L 22.663034,201.16404"
           id="path29172" />
      </g>
      <g
         transform="matrix(0.6686359,0,0,0.748324,421.09253,-36.052754)"
         id="g29174">
        <path
           style="fill:#ff0000"
           d="M 22.919962,168.20663 C 19.653089,168.20663 16.994557,170.67912 16.866613,173.76536 L 16.853976,173.76536 L 16.853976,173.99823 L 16.853976,182.95902 L 15.918803,182.95902 C 15.638756,182.95902 15.413304,183.13965 15.413304,183.36403 L 15.413304,183.59691 C 15.413304,183.82128 15.638756,184.00191 15.918803,184.00191 L 29.996947,184.00191 C 30.276993,184.00191 30.502441,183.82128 30.502445,183.59691 L 30.502445,183.36403 C 30.502445,183.13965 30.276989,182.95902 29.996947,182.95902 L 28.985949,182.95902 L 28.985949,173.99823 L 28.985949,173.76536 L 28.973311,173.76536 C 28.845283,170.67919 26.186779,168.20662 22.919962,168.20663 z "
           id="path29176" />
        <path
           style="fill:#000000;fill-opacity:0.88235294;fill-rule:evenodd;stroke:#00a9ff;stroke-width:2.19996095;stroke-linecap:butt;stroke-linejoin:miter;stroke-miterlimit:4;stroke-dasharray:none;stroke-opacity:1"
           d="M 22.663034,184.0699 L 22.663034,201.16404"
           id="path29178" />
      </g>
      <g
         transform="matrix(0.6686359,0,0,0.748324,473.22099,-36.052754)"
         id="g29180">
        <path
           style="fill:#ff0000"
           d="M 22.919962,168.20663 C 19.653089,168.20663 16.994557,170.67912 16.866613,173.76536 L 16.853976,173.76536 L 16.853976,173.99823 L 16.853976,182.95902 L 15.918803,182.95902 C 15.638756,182.95902 15.413304,183.13965 15.413304,183.36403 L 15.413304,183.59691 C 15.413304,183.82128 15.638756,184.00191 15.918803,184.00191 L 29.996947,184.00191 C 30.276993,184.00191 30.502441,183.82128 30.502445,183.59691 L 30.502445,183.36403 C 30.502445,183.13965 30.276989,182.95902 29.996947,182.95902 L 28.985949,182.95902 L 28.985949,173.99823 L 28.985949,173.76536 L 28.973311,173.76536 C 28.845283,170.67919 26.186779,168.20662 22.919962,168.20663 z "
           id="path29182" />
        <path
           style="fill:#000000;fill-opacity:0.88235294;fill-rule:evenodd;stroke:#00a9ff;stroke-width:2.19996095;stroke-linecap:butt;stroke-linejoin:miter;stroke-miterlimit:4;stroke-dasharray:none;stroke-opacity:1"
           d="M 22.663034,184.0699 L 22.663034,201.16404"
           id="path29184" />
      </g>
    </g>
    <g
       style="display:inline"
       id="g29186"
       transform="translate(64.083019,363.3506)">
      <g
         transform="matrix(0.6686359,0,0,0.748324,108.3217,-36.052754)"
         id="g29188">
        <path
           style="fill:#ff0000"
           d="M 22.919962,168.20663 C 19.653089,168.20663 16.994557,170.67912 16.866613,173.76536 L 16.853976,173.76536 L 16.853976,173.99823 L 16.853976,182.95902 L 15.918803,182.95902 C 15.638756,182.95902 15.413304,183.13965 15.413304,183.36403 L 15.413304,183.59691 C 15.413304,183.82128 15.638756,184.00191 15.918803,184.00191 L 29.996947,184.00191 C 30.276993,184.00191 30.502441,183.82128 30.502445,183.59691 L 30.502445,183.36403 C 30.502445,183.13965 30.276989,182.95902 29.996947,182.95902 L 28.985949,182.95902 L 28.985949,173.99823 L 28.985949,173.76536 L 28.973311,173.76536 C 28.845283,170.67919 26.186779,168.20662 22.919962,168.20663 z "
           id="path29190" />
        <path
           style="fill:#000000;fill-opacity:0.88235294;fill-rule:evenodd;stroke:#00a9ff;stroke-width:2.19996095;stroke-linecap:butt;stroke-linejoin:miter;stroke-miterlimit:4;stroke-dasharray:none;stroke-opacity:1"
           d="M 22.663034,184.0699 L 22.663034,201.16404"
           id="path29192" />
      </g>
      <g
         transform="matrix(0.6686359,0,0,0.748324,160.45017,-36.052754)"
         id="g29194">
        <path
           style="fill:#ff0000"
           d="M 22.919962,168.20663 C 19.653089,168.20663 16.994557,170.67912 16.866613,173.76536 L 16.853976,173.76536 L 16.853976,173.99823 L 16.853976,182.95902 L 15.918803,182.95902 C 15.638756,182.95902 15.413304,183.13965 15.413304,183.36403 L 15.413304,183.59691 C 15.413304,183.82128 15.638756,184.00191 15.918803,184.00191 L 29.996947,184.00191 C 30.276993,184.00191 30.502441,183.82128 30.502445,183.59691 L 30.502445,183.36403 C 30.502445,183.13965 30.276989,182.95902 29.996947,182.95902 L 28.985949,182.95902 L 28.985949,173.99823 L 28.985949,173.76536 L 28.973311,173.76536 C 28.845283,170.67919 26.186779,168.20662 22.919962,168.20663 z "
           id="path29196" />
        <path
           style="fill:#000000;fill-opacity:0.88235294;fill-rule:evenodd;stroke:#00a9ff;stroke-width:2.19996095;stroke-linecap:butt;stroke-linejoin:miter;stroke-miterlimit:4;stroke-dasharray:none;stroke-opacity:1"
           d="M 22.663034,184.0699 L 22.663034,201.16404"
           id="path29198" />
      </g>
      <g
         transform="matrix(0.6686359,0,0,0.748324,212.57865,-36.052754)"
         id="g29200">
        <path
           style="fill:#ff0000"
           d="M 22.919962,168.20663 C 19.653089,168.20663 16.994557,170.67912 16.866613,173.76536 L 16.853976,173.76536 L 16.853976,173.99823 L 16.853976,182.95902 L 15.918803,182.95902 C 15.638756,182.95902 15.413304,183.13965 15.413304,183.36403 L 15.413304,183.59691 C 15.413304,183.82128 15.638756,184.00191 15.918803,184.00191 L 29.996947,184.00191 C 30.276993,184.00191 30.502441,183.82128 30.502445,183.59691 L 30.502445,183.36403 C 30.502445,183.13965 30.276989,182.95902 29.996947,182.95902 L 28.985949,182.95902 L 28.985949,173.99823 L 28.985949,173.76536 L 28.973311,173.76536 C 28.845283,170.67919 26.186779,168.20662 22.919962,168.20663 z "
           id="path29202" />
        <path
           style="fill:#000000;fill-opacity:0.88235294;fill-rule:evenodd;stroke:#00a9ff;stroke-width:2.19996095;stroke-linecap:butt;stroke-linejoin:miter;stroke-miterlimit:4;stroke-dasharray:none;stroke-opacity:1"
           d="M 22.663034,184.0699 L 22.663034,201.16404"
           id="path29204" />
      </g>
      <g
         transform="matrix(0.6686359,0,0,0.748324,264.7071,-36.052754)"
         id="g29206">
        <path
           style="fill:#ff0000"
           d="M 22.919962,168.20663 C 19.653089,168.20663 16.994557,170.67912 16.866613,173.76536 L 16.853976,173.76536 L 16.853976,173.99823 L 16.853976,182.95902 L 15.918803,182.95902 C 15.638756,182.95902 15.413304,183.13965 15.413304,183.36403 L 15.413304,183.59691 C 15.413304,183.82128 15.638756,184.00191 15.918803,184.00191 L 29.996947,184.00191 C 30.276993,184.00191 30.502441,183.82128 30.502445,183.59691 L 30.502445,183.36403 C 30.502445,183.13965 30.276989,182.95902 29.996947,182.95902 L 28.985949,182.95902 L 28.985949,173.99823 L 28.985949,173.76536 L 28.973311,173.76536 C 28.845283,170.67919 26.186779,168.20662 22.919962,168.20663 z "
           id="path29208" />
        <path
           style="fill:#000000;fill-opacity:0.88235294;fill-rule:evenodd;stroke:#00a9ff;stroke-width:2.19996095;stroke-linecap:butt;stroke-linejoin:miter;stroke-miterlimit:4;stroke-dasharray:none;stroke-opacity:1"
           d="M 22.663034,184.0699 L 22.663034,201.16404"
           id="path29210" />
      </g>
      <g
         transform="matrix(0.6686359,0,0,0.748324,316.83559,-36.052754)"
         id="g29212">
        <path
           style="fill:#ff0000"
           d="M 22.919962,168.20663 C 19.653089,168.20663 16.994557,170.67912 16.866613,173.76536 L 16.853976,173.76536 L 16.853976,173.99823 L 16.853976,182.95902 L 15.918803,182.95902 C 15.638756,182.95902 15.413304,183.13965 15.413304,183.36403 L 15.413304,183.59691 C 15.413304,183.82128 15.638756,184.00191 15.918803,184.00191 L 29.996947,184.00191 C 30.276993,184.00191 30.502441,183.82128 30.502445,183.59691 L 30.502445,183.36403 C 30.502445,183.13965 30.276989,182.95902 29.996947,182.95902 L 28.985949,182.95902 L 28.985949,173.99823 L 28.985949,173.76536 L 28.973311,173.76536 C 28.845283,170.67919 26.186779,168.20662 22.919962,168.20663 z "
           id="path29214" />
        <path
           style="fill:#000000;fill-opacity:0.88235294;fill-rule:evenodd;stroke:#00a9ff;stroke-width:2.19996095;stroke-linecap:butt;stroke-linejoin:miter;stroke-miterlimit:4;stroke-dasharray:none;stroke-opacity:1"
           d="M 22.663034,184.0699 L 22.663034,201.16404"
           id="path29216" />
      </g>
      <g
         transform="matrix(0.6686359,0,0,0.748324,368.96405,-36.052754)"
         id="g29218">
        <path
           style="fill:#ff0000"
           d="M 22.919962,168.20663 C 19.653089,168.20663 16.994557,170.67912 16.866613,173.76536 L 16.853976,173.76536 L 16.853976,173.99823 L 16.853976,182.95902 L 15.918803,182.95902 C 15.638756,182.95902 15.413304,183.13965 15.413304,183.36403 L 15.413304,183.59691 C 15.413304,183.82128 15.638756,184.00191 15.918803,184.00191 L 29.996947,184.00191 C 30.276993,184.00191 30.502441,183.82128 30.502445,183.59691 L 30.502445,183.36403 C 30.502445,183.13965 30.276989,182.95902 29.996947,182.95902 L 28.985949,182.95902 L 28.985949,173.99823 L 28.985949,173.76536 L 28.973311,173.76536 C 28.845283,170.67919 26.186779,168.20662 22.919962,168.20663 z "
           id="path29220" />
        <path
           style="fill:#000000;fill-opacity:0.88235294;fill-rule:evenodd;stroke:#00a9ff;stroke-width:2.19996095;stroke-linecap:butt;stroke-linejoin:miter;stroke-miterlimit:4;stroke-dasharray:none;stroke-opacity:1"
           d="M 22.663034,184.0699 L 22.663034,201.16404"
           id="path29222" />
      </g>
      <g
         transform="matrix(0.6686359,0,0,0.748324,421.09253,-36.052754)"
         id="g29224">
        <path
           style="fill:#ff0000"
           d="M 22.919962,168.20663 C 19.653089,168.20663 16.994557,170.67912 16.866613,173.76536 L 16.853976,173.76536 L 16.853976,173.99823 L 16.853976,182.95902 L 15.918803,182.95902 C 15.638756,182.95902 15.413304,183.13965 15.413304,183.36403 L 15.413304,183.59691 C 15.413304,183.82128 15.638756,184.00191 15.918803,184.00191 L 29.996947,184.00191 C 30.276993,184.00191 30.502441,183.82128 30.502445,183.59691 L 30.502445,183.36403 C 30.502445,183.13965 30.276989,182.95902 29.996947,182.95902 L 28.985949,182.95902 L 28.985949,173.99823 L 28.985949,173.76536 L 28.973311,173.76536 C 28.845283,170.67919 26.186779,168.20662 22.919962,168.20663 z "
           id="path29226" />
        <path
           style="fill:#000000;fill-opacity:0.88235294;fill-rule:evenodd;stroke:#00a9ff;stroke-width:2.19996095;stroke-linecap:butt;stroke-linejoin:miter;stroke-miterlimit:4;stroke-dasharray:none;stroke-opacity:1"
           d="M 22.663034,184.0699 L 22.663034,201.16404"
           id="path29228" />
      </g>
      <g
         transform="matrix(0.6686359,0,0,0.748324,473.22099,-36.052754)"
         id="g29230">
        <path
           style="fill:#ff0000"
           d="M 22.919962,168.20663 C 19.653089,168.20663 16.994557,170.67912 16.866613,173.76536 L 16.853976,173.76536 L 16.853976,173.99823 L 16.853976,182.95902 L 15.918803,182.95902 C 15.638756,182.95902 15.413304,183.13965 15.413304,183.36403 L 15.413304,183.59691 C 15.413304,183.82128 15.638756,184.00191 15.918803,184.00191 L 29.996947,184.00191 C 30.276993,184.00191 30.502441,183.82128 30.502445,183.59691 L 30.502445,183.36403 C 30.502445,183.13965 30.276989,182.95902 29.996947,182.95902 L 28.985949,182.95902 L 28.985949,173.99823 L 28.985949,173.76536 L 28.973311,173.76536 C 28.845283,170.67919 26.186779,168.20662 22.919962,168.20663 z "
           id="path29232" />
        <path
           style="fill:#000000;fill-opacity:0.88235294;fill-rule:evenodd;stroke:#00a9ff;stroke-width:2.19996095;stroke-linecap:butt;stroke-linejoin:miter;stroke-miterlimit:4;stroke-dasharray:none;stroke-opacity:1"
           d="M 22.663034,184.0699 L 22.663034,201.16404"
           id="path29234" />
      </g>
    </g>
  </g>
</svg>
