<?xml version="1.0" encoding="UTF-8" standalone="no"?>
<!DOCTYPE svg PUBLIC "-//W3C//DTD SVG 1.0//EN" "http://www.w3.org/TR/2001/PR-SVG-20010719/DTD/svg10.dtd">
<svg width="24cm" height="13cm" viewBox="8 1 24 13">
  <ellipse style="fill: #ffffff" cx="15.9709" cy="5.98543" rx="1.97086" ry="0.985428"/>
  <ellipse style="fill: none; fill-opacity:0; stroke-width: 0.1; stroke: #000000" cx="15.9709" cy="5.98543" rx="1.97086" ry="0.985428"/>
  <text style="fill: #000000; text-anchor:middle; font-size: 0.8; font-family: sans; font-style: normal; font-weight: normal" x="15.9709" y="6.13543">XTEA</text>
  <rect style="fill: #ffffff" x="14" y="2" width="4" height="1.9"/>
  <rect style="fill: none; fill-opacity:0; stroke-width: 0.1; stroke: #000000" x="14" y="2" width="4" height="1.9"/>
  <text style="fill: #000000; text-anchor:middle; font-size: 0.8; font-family: sans; font-style: normal; font-weight: normal" x="16" y="3.1">State_a</text>
  <rect style="fill: #ffffff" x="14" y="8" width="4" height="1.9"/>
  <rect style="fill: none; fill-opacity:0; stroke-width: 0.1; stroke: #000000" x="14" y="8" width="4" height="1.9"/>
  <text style="fill: #000000; text-anchor:middle; font-size: 0.8; font-family: sans; font-style: normal; font-weight: normal" x="16" y="9.1">Output</text>
  <ellipse style="fill: #ffffff" cx="16" cy="13" rx="1" ry="1"/>
  <ellipse style="fill: none; fill-opacity:0; stroke-width: 0.1; stroke: #000000" cx="16" cy="13" rx="1" ry="1"/>
  <line style="fill: none; fill-opacity:0; stroke-width: 0.1; stroke: #000000" x1="16" y1="12" x2="16" y2="14"/>
  <line style="fill: none; fill-opacity:0; stroke-width: 0.1; stroke: #000000" x1="15" y1="13" x2="17" y2="13"/>
  <rect style="fill: #ffffff" x="9" y="12" width="3.8" height="1.9"/>
  <rect style="fill: none; fill-opacity:0; stroke-width: 0.1; stroke: #000000" x="9" y="12" width="3.8" height="1.9"/>
  <text style="fill: #000000; text-anchor:middle; font-size: 0.8; font-family: sans; font-style: normal; font-weight: normal" x="10.9" y="13.1">Plaintext</text>
  <line style="fill: none; fill-opacity:0; stroke-width: 0.1; stroke: #000000" x1="12.8" y1="12.95" x2="14.7765" y2="12.9949"/>
  <polyline style="fill: none; fill-opacity:0; stroke-width: 0.1; stroke: #000000" points="14.3827,13.236 14.8882,12.9975 14.394,12.7362 "/>
  <line style="fill: none; fill-opacity:0; stroke-width: 0.1; stroke: #000000" x1="17" y1="13" x2="23.7764" y2="13"/>
  <polyline style="fill: none; fill-opacity:0; stroke-width: 0.1; stroke: #000000" points="23.3882,13.25 23.8882,13 23.3882,12.75 "/>
  <line style="fill: none; fill-opacity:0; stroke-width: 0.1; stroke: #000000" x1="16" y1="9.9" x2="16" y2="11.7764"/>
  <polyline style="fill: none; fill-opacity:0; stroke-width: 0.1; stroke: #000000" points="15.75,11.3882 16,11.8882 16.25,11.3882 "/>
  <line style="fill: none; fill-opacity:0; stroke-width: 0.1; stroke: #000000" x1="16" y1="3.9" x2="15.9768" y2="4.77647"/>
  <polyline style="fill: none; fill-opacity:0; stroke-width: 0.1; stroke: #000000" points="15.7372,4.3818 15.9739,4.88824 16.237,4.39502 "/>
  <line style="fill: none; fill-opacity:0; stroke-width: 0.1; stroke: #000000" x1="15.9709" y1="6.97086" x2="15.9937" y2="7.77648"/>
  <polyline style="fill: none; fill-opacity:0; stroke-width: 0.1; stroke: #000000" points="15.7328,7.39551 15.9968,7.88824 16.2326,7.38137 "/>
  <rect style="fill: #ffffff" x="10" y="5" width="2.15" height="1.9"/>
  <rect style="fill: none; fill-opacity:0; stroke-width: 0.1; stroke: #000000" x="10" y="5" width="2.15" height="1.9"/>
  <text style="fill: #000000; text-anchor:middle; font-size: 0.8; font-family: sans; font-style: normal; font-weight: normal" x="11.075" y="6.1">k_a</text>
  <line style="fill: none; fill-opacity:0; stroke-width: 0.1; stroke: #000000" x1="12.15" y1="5.95" x2="13.7764" y2="5.98115"/>
  <polyline style="fill: none; fill-opacity:0; stroke-width: 0.1; stroke: #000000" points="13.3835,6.22367 13.8882,5.98329 13.3931,5.72376 "/>
  <path style="fill: none; fill-opacity:0; stroke-width: 0.1; stroke: #000000" d="M 20.5,13 A 15.6566,15.6566 0 0 0 17.0466,4.11897"/>
  <polyline style="fill: none; fill-opacity:0; stroke-width: 0.1; stroke: #000000" points="17.4883,4.25631 16.9763,4.03205 17.1041,4.57626 "/>
  <ellipse style="fill: #ffffff" cx="24.9709" cy="5.98543" rx="1.97086" ry="0.985428"/>
  <ellipse style="fill: none; fill-opacity:0; stroke-width: 0.1; stroke: #000000" cx="24.9709" cy="5.98543" rx="1.97086" ry="0.985428"/>
  <text style="fill: #000000; text-anchor:middle; font-size: 0.8; font-family: sans; font-style: normal; font-weight: normal" x="24.9709" y="6.13543">XTEA</text>
  <rect style="fill: #ffffff" x="23" y="2" width="4" height="1.9"/>
  <rect style="fill: none; fill-opacity:0; stroke-width: 0.1; stroke: #000000" x="23" y="2" width="4" height="1.9"/>
  <text style="fill: #000000; text-anchor:middle; font-size: 0.8; font-family: sans; font-style: normal; font-weight: normal" x="25" y="3.1">State_b</text>
  <rect style="fill: #ffffff" x="23" y="8" width="4" height="1.9"/>
  <rect style="fill: none; fill-opacity:0; stroke-width: 0.1; stroke: #000000" x="23" y="8" width="4" height="1.9"/>
  <text style="fill: #000000; text-anchor:middle; font-size: 0.8; font-family: sans; font-style: normal; font-weight: normal" x="25" y="9.1">Output</text>
  <rect style="fill: #ffffff" x="30" y="5" width="2.15" height="1.9"/>
  <rect style="fill: none; fill-opacity:0; stroke-width: 0.1; stroke: #000000" x="30" y="5" width="2.15" height="1.9"/>
  <text style="fill: #000000; text-anchor:middle; font-size: 0.8; font-family: sans; font-style: normal; font-weight: normal" x="31.075" y="6.1">k_b</text>
  <ellipse style="fill: #ffffff" cx="25" cy="13" rx="1" ry="1"/>
  <ellipse style="fill: none; fill-opacity:0; stroke-width: 0.1; stroke: #000000" cx="25" cy="13" rx="1" ry="1"/>
  <line style="fill: none; fill-opacity:0; stroke-width: 0.1; stroke: #000000" x1="25" y1="12" x2="25" y2="14"/>
  <line style="fill: none; fill-opacity:0; stroke-width: 0.1; stroke: #000000" x1="24" y1="13" x2="26" y2="13"/>
  <rect style="fill: #ffffff" x="28" y="12" width="4.3" height="1.9"/>
  <rect style="fill: none; fill-opacity:0; stroke-width: 0.1; stroke: #000000" x="28" y="12" width="4.3" height="1.9"/>
  <text style="fill: #000000; text-anchor:middle; font-size: 0.8; font-family: sans; font-style: normal; font-weight: normal" x="30.15" y="13.1">Ciphertext</text>
  <line style="fill: none; fill-opacity:0; stroke-width: 0.1; stroke: #000000" x1="26" y1="13" x2="27.7765" y2="12.9556"/>
  <polyline style="fill: none; fill-opacity:0; stroke-width: 0.1; stroke: #000000" points="27.3946,13.2152 27.8882,12.9528 27.3821,12.7154 "/>
  <line style="fill: none; fill-opacity:0; stroke-width: 0.1; stroke: #000000" x1="25" y1="9.9" x2="25" y2="11.7764"/>
  <polyline style="fill: none; fill-opacity:0; stroke-width: 0.1; stroke: #000000" points="24.75,11.3882 25,11.8882 25.25,11.3882 "/>
  <line style="fill: none; fill-opacity:0; stroke-width: 0.1; stroke: #000000" x1="30" y1="5.95" x2="27.1653" y2="5.98284"/>
  <polyline style="fill: none; fill-opacity:0; stroke-width: 0.1; stroke: #000000" points="27.5506,5.72836 27.0535,5.98413 27.5564,6.22833 "/>
  <line style="fill: none; fill-opacity:0; stroke-width: 0.1; stroke: #000000" x1="25" y1="3.9" x2="24.9768" y2="4.77647"/>
  <polyline style="fill: none; fill-opacity:0; stroke-width: 0.1; stroke: #000000" points="24.7372,4.3818 24.9739,4.88824 25.237,4.39502 "/>
  <line style="fill: none; fill-opacity:0; stroke-width: 0.1; stroke: #000000" x1="24.9709" y1="6.97086" x2="24.9937" y2="7.77648"/>
  <polyline style="fill: none; fill-opacity:0; stroke-width: 0.1; stroke: #000000" points="24.7328,7.39551 24.9968,7.88824 25.2326,7.38137 "/>
  <polyline style="fill: none; fill-opacity:0; stroke-width: 0.1; stroke: #000000" points="25,10.95 22,10.95 22,2.95 22.7764,2.95 "/>
  <polyline style="fill: none; fill-opacity:0; stroke-width: 0.1; stroke: #000000" points="22.3882,3.2 22.8882,2.95 22.3882,2.7 "/>
</svg>
