<?xml version="1.0" encoding="UTF-8" standalone="no"?>
<!DOCTYPE svg PUBLIC "-//W3C//DTD SVG 20010904//EN"
"http://www.w3.org/TR/2001/REC-SVG-20010904/DTD/svg10.dtd">
<!-- Created with Inkscape (http://www.inkscape.org/) -->
<svg
   width="210mm"
   height="297mm"
   xmlns="http://www.w3.org/2000/svg"
   xmlns:cc="http://web.resource.org/cc/"
   xmlns:inkscape="http://www.inkscape.org/namespaces/inkscape"
   xmlns:sodipodi="http://sodipodi.sourceforge.net/DTD/sodipodi-0.dtd"
   xmlns:rdf="http://www.w3.org/1999/02/22-rdf-syntax-ns#"
   xmlns:dc="http://purl.org/dc/elements/1.1/"
   xmlns:xlink="http://www.w3.org/1999/xlink"
   id="svg1"
   sodipodi:version="0.32"
   inkscape:version="0.40"
   sodipodi:docbase="/home/joerg"
   sodipodi:docname="keyboard.svg">
  <defs
     id="defs3" />
  <sodipodi:namedview
     id="base"
     pagecolor="#ffffff"
     bordercolor="#666666"
     borderopacity="1.0"
     inkscape:pageopacity="0.0"
     inkscape:pageshadow="2"
     inkscape:zoom="0.43415836"
     inkscape:cx="305.25953"
     inkscape:cy="203.89476"
     inkscape:current-layer="svg1"
     inkscape:window-width="1024"
     inkscape:window-height="724"
     inkscape:window-x="0"
     inkscape:window-y="25" />
  <metadata
     id="metadata4">
    <rdf:RDF
       id="RDF5">
      <cc:Work
         rdf:about=""
         id="Work6">
        <dc:format
           id="format7">image/svg+xml</dc:format>
        <dc:type
           id="type9"
           rdf:resource="http://purl.org/dc/dcmitype/StillImage" />
      </cc:Work>
    </rdf:RDF>
  </metadata>
  <g
     inkscape:label="Layer 1"
     inkscape:groupmode="layer"
     id="layer1" />
  <path
     d="M 246.42480,509.77675 C 244.77480,508.50175 240.49980,505.43115 236.92480,502.95305 C 226.23356,495.54225 207.66010,482.16755 204.07509,479.29805 C 202.23275,477.82345 198.84241,475.49195 196.54099,474.11695 C 192.68101,471.81075 178.72078,461.93261 151.69052,442.38119 C 145.78666,438.11084 135.53568,430.79192 128.91057,426.11691 C 115.49647,416.65127 107.27321,410.70105 104.74079,408.62802 C 103.81459,407.86984 101.78959,406.44297 100.24079,405.45722 C 98.691996,404.47145 97.064936,403.09163 96.625107,402.39092 C 96.185277,401.69022 95.210277,401.11691 94.458440,401.11691 C 93.706603,401.11691 92.941464,400.72127 92.758130,400.23770 C 92.574797,399.75414 91.057750,398.51663 89.386914,397.48770 C 87.716079,396.45877 81.078579,391.80009 74.636914,387.13508 L 62.924797,378.65325 L 62.924797,365.38508 C 62.924797,358.08758 63.179822,352.11691 63.491519,352.11691 C 63.803216,352.11691 65.623973,353.31115 67.537647,354.77078 C 73.074843,358.99421 73.330727,356.92660 68.984368,343.08083 C 66.832447,336.22568 64.926212,329.82790 64.748291,328.86352 C 64.514178,327.59460 66.126460,326.21310 70.583554,323.86352 C 75.416335,321.31590 79.172711,317.92568 88.030771,308.11691 C 94.239424,301.24191 103.66103,290.89191 108.96768,285.11691 C 114.27434,279.34191 121.36995,271.60758 124.73571,267.92950 C 128.10148,264.25143 131.13351,259.97642 131.47357,258.42950 C 131.81362,256.88258 132.27197,255.03663 132.49211,254.32738 C 133.10885,252.34044 130.78687,249.22523 126.92480,246.85820 C 124.99980,245.67836 116.94261,240.49244 109.01991,235.33392 C 89.545539,222.65399 88.265900,222.00437 85.365689,223.32580 C 83.151471,224.33466 83.100468,224.55594 84.471191,227.20663 C 86.782333,231.67588 86.313100,235.85408 83.174797,238.75013 C 81.662297,240.14589 79.749797,242.71190 78.924797,244.45238 C 76.946645,248.62567 71.050264,251.55063 66.381312,250.67473 L 62.924797,250.02629 L 62.924797,234.63970 L 62.924797,219.25310 L 65.971623,217.08357 C 67.647377,215.89033 70.832863,214.67068 73.050481,214.37324 C 75.757433,214.01015 76.645799,213.55556 75.753655,212.98999 C 73.951952,211.84778 68.623354,211.90082 65.489897,213.09217 L 62.924797,214.06741 L 62.924797,202.53314 C 62.924797,193.57061 63.203503,191.16685 64.174797,191.75222 C 74.931422,198.23502 89.332485,208.46299 96.452112,214.67633 C 103.90383,221.17948 105.47417,222.17134 105.71607,220.52764 C 105.87628,219.43907 104.44981,212.03883 102.54615,204.08267 C 97.605274,183.43276 97.495499,185.23610 103.91249,181.63675 C 108.14992,179.25995 114.70546,172.75561 132.68620,153.08778 C 145.49351,139.07880 157.42405,125.71833 159.19851,123.39784 C 160.97297,121.07734 162.90626,119.16484 163.49469,119.14784 C 164.08313,119.13083 166.07668,120.46691 167.92480,122.11691 C 171.07339,124.92797 172.92480,125.83619 172.92480,124.56969 C 172.92480,124.26871 170.79821,121.90621 168.19905,119.31969 C 165.59989,116.73316 163.01239,113.75759 162.44905,112.70731 C 161.55355,111.03775 151.74596,104.43978 132.92480,92.845143 C 129.89980,90.981613 124.89327,87.827383 121.79916,85.835733 C 116.92540,82.698533 115.93352,82.390063 114.37775,83.527663 C 112.70274,84.752463 112.82791,85.086693 116.23913,88.497903 C 120.41050,92.669283 121.59269,96.000433 119.97465,99.023773 C 118.00244,102.70889 116.80490,101.89407 115.52105,95.993503 C 115.15929,94.330863 113.87756,92.925773 112.02124,92.156863 C 106.23071,89.758353 99.168955,95.746603 100.09280,102.27197 C 100.36388,104.18662 101.11292,104.67387 104.17480,104.92728 C 108.37534,105.27493 108.88303,104.38187 105.92480,101.84894 C 103.39157,99.679933 103.39006,98.421413 105.91973,97.618523 C 107.27890,97.187143 109.35034,98.016393 112.41973,100.22066 C 114.89752,102.00007 116.92481,103.73409 116.92481,104.07403 C 116.92481,105.21789 107.36876,114.11691 106.14045,114.11691 C 105.47184,114.11691 104.92480,113.45049 104.92480,112.63597 C 104.92480,111.82145 103.68730,110.87777 102.17480,110.53892 C 100.66230,110.20006 97.997805,109.56256 96.253704,109.12226 C 93.377343,108.39611 92.972053,108.58862 91.893082,111.19348 L 90.703553,114.06526 L 88.737987,111.84109 C 87.656926,110.61779 87.058264,110.17941 87.407626,110.86691 C 87.782194,111.60402 87.403137,112.11691 86.483814,112.11691 C 85.418240,112.11691 84.924797,113.06644 84.924797,115.11691 C 84.924797,116.76692 84.474797,118.11691 83.924797,118.11691 C 83.374797,118.11691 82.924797,117.64036 82.924797,117.05790 C 82.924797,116.47544 82.474797,116.27700 81.924797,116.61691 C 81.374797,116.95683 80.924797,118.01470 80.924797,118.96772 C 80.924797,119.92075 78.919144,122.66890 76.467789,125.07472 C 74.016435,127.48054 71.730680,130.72424 71.388334,132.28292 C 71.045988,133.84163 70.174786,135.11691 69.452330,135.11691 C 68.729875,135.11691 67.879753,135.79192 67.563171,136.61691 C 67.246588,137.44191 66.312567,138.11691 65.487567,138.11691 C 64.499355,138.11691 64.205436,138.68468 64.626121,139.78095 C 65.055478,140.89984 64.881390,141.20812 64.094736,140.72194 C 63.318952,140.24248 62.924797,136.37941 62.924797,129.25551 L 62.924797,118.51213 L 68.209161,113.06452 C 71.115561,110.06834 77.966391,102.66692 83.433229,96.616913 C 97.919307,80.585573 100.47127,78.288163 104.19177,77.929013 C 108.32373,77.530143 108.39905,75.711703 104.30013,75.312903 C 98.545645,74.753033 95.289249,77.320273 79.222868,95.083093 L 63.424797,112.54926 L 63.163186,72.678033 C 63.019300,50.748863 63.069188,32.639193 63.274049,32.434333 C 63.478910,32.229473 70.183761,32.186753 78.173717,32.339393 L 92.700910,32.616923 L 88.706390,41.485543 C 84.022026,51.885763 84.311842,53.760553 91.134801,57.194723 C 99.057010,61.182173 116.75350,72.132163 121.10942,75.742023 C 123.48288,77.708963 127.97014,81.748313 131.08111,84.718363 C 141.44846,94.616103 144.72615,96.869393 152.61392,99.521433 C 163.53531,103.19343 163.83509,102.75038 160.39941,88.015093 C 154.66118,63.404463 154.65177,64.893013 160.56440,61.940103 C 165.36825,59.540943 171.64157,53.168543 182.25469,39.907253 L 188.42480,32.197583 L 215.67480,32.157253 C 230.66230,32.135073 242.92480,32.351383 242.92480,32.637943 C 242.92480,32.924503 237.38643,39.787003 230.61732,47.887943 C 223.84820,55.988873 215.03878,66.666913 211.04081,71.616913 C 199.74432,85.603453 184.96572,110.27546 184.93887,115.19260 C 184.92243,118.20313 187.73277,121.04190 193.68985,124.03206 C 200.20922,127.30448 219.92765,139.88187 224.42480,143.63634 C 226.62480,145.47302 232.57760,151.00833 237.65323,155.93701 C 245.76333,163.81232 247.78133,165.22640 254.30565,167.60595 C 261.72872,170.31329 265.24283,170.33647 266.26037,167.68482 C 266.54655,166.93904 265.57967,159.01515 264.11174,150.07620 C 261.51402,134.25738 261.49311,133.79410 263.32828,132.72023 C 268.49447,129.69719 273.87893,124.94803 278.23596,119.57149 C 280.88996,116.29647 290.11817,104.93658 298.74311,94.327293 C 319.21443,69.146073 320.87179,66.942463 320.90055,64.866913 C 320.93729,62.215463 322.62603,62.773653 323.16955,65.616913 C 323.43240,66.991913 323.22953,68.116913 322.71874,68.116913 C 322.20795,68.116913 322.09356,69.073273 322.46455,70.242143 C 322.98022,71.866873 322.81946,72.174923 321.78193,71.550193 C 320.65798,70.873413 320.66061,71.023713 321.79724,72.424963 C 322.55209,73.355533 324.29584,74.116913 325.67224,74.116913 C 327.89290,74.116913 328.11030,73.794423 327.60222,71.254013 C 327.28730,69.679423 325.44115,65.754153 323.49967,62.531203 C 320.57365,57.673863 320.22195,56.530133 321.44404,55.846213 C 323.87560,54.485443 329.06741,56.535923 338.49685,62.581143 C 351.66548,71.023553 357.03265,74.335583 371.42480,82.900703 C 378.57480,87.155843 387.51820,93.017453 391.29902,95.926513 C 397.81438,100.93959 401.84958,102.23238 401.07194,99.057523 C 400.87787,98.265193 400.55871,95.366913 400.36271,92.616913 C 400.16670,89.866913 399.22912,82.197523 398.27918,75.573823 C 397.32925,68.950123 396.84937,62.755873 397.21279,61.808813 C 397.57621,60.861763 399.00688,59.656003 400.39207,59.129363 C 403.76482,57.847043 412.09821,49.363073 419.31263,39.866913 C 425.25246,32.048473 428.22261,30.323723 429.21455,34.116923 C 429.50221,35.216923 430.34219,36.081393 431.08118,36.037973 C 432.09165,35.978603 432.11486,35.833963 431.17480,35.454643 C 430.48730,35.177233 429.92480,34.312753 429.92480,33.533593 C 429.92480,32.348973 434.03862,32.116923 455.03981,32.116923 L 480.15482,32.116923 L 478.41630,34.770233 C 477.46012,36.229553 468.72856,48.042053 459.01283,61.020233 C 431.87881,97.265613 422.31599,111.05935 421.38572,115.29486 C 421.04481,116.84699 420.60075,118.11691 420.39892,118.11691 C 419.05916,118.11691 379.74738,93.835203 375.64536,90.473993 C 371.53196,87.103433 366.94955,86.570033 361.77417,88.859353 C 357.99410,90.531453 354.44875,94.605563 334.93492,119.70143 C 301.88593,162.20426 288.92480,179.92967 288.92480,182.62406 C 288.92480,185.07281 293.34910,191.11691 295.14158,191.11691 C 296.48968,191.11691 325.21223,208.51080 330.42480,212.48383 C 332.62480,214.16067 338.24980,219.20744 342.92480,223.69888 C 352.90296,233.28522 356.87115,235.86504 366.69337,239.15134 C 375.78626,242.19362 377.51225,241.50752 377.07490,235.02450 C 376.91136,232.60033 376.35439,228.68482 375.83718,226.32336 C 375.31998,223.96190 374.63671,218.11190 374.31882,213.32336 L 373.74083,204.61691 L 379.77962,200.94326 C 383.53056,198.66142 387.20012,195.34638 389.46542,192.19326 C 391.47126,189.40127 393.30675,187.11691 393.54429,187.11691 C 394.46174,187.11691 390.73845,193.25956 387.77554,196.63414 L 384.66367,200.17835 L 385.27270,214.39764 C 385.87630,228.49038 386.55780,235.22293 387.67369,238.11691 C 387.99180,238.94191 388.29093,239.91692 388.33843,240.28359 C 388.64913,242.68187 389.94869,241.72083 390.79373,238.46785 C 392.24699,232.87353 392.32761,231.81759 391.45453,229.81218 C 390.95931,228.67471 391.31285,226.81155 392.41072,224.77292 C 393.36876,222.99393 393.97248,220.65607 393.75231,219.57767 C 393.53214,218.49925 394.04338,217.06872 394.88840,216.39872 C 396.09530,215.44178 396.13046,215.17371 395.05236,215.14872 C 393.94601,215.12308 393.92128,214.82609 394.92480,213.61691 C 395.60949,212.79192 395.85745,212.11691 395.47582,212.11691 C 395.09419,212.11691 395.37659,211.52165 396.10337,210.79409 C 396.83016,210.06655 397.42480,207.47905 397.42480,205.04409 C 397.42480,202.23289 398.06358,199.90931 399.17480,198.67835 C 400.13730,197.61214 400.92480,195.74779 400.92480,194.53534 C 400.92480,193.32290 401.59980,192.07187 402.42480,191.75529 C 404.80537,190.84178 404.16438,189.24241 401.67480,189.88395 C 399.63161,190.41046 399.55708,190.30254 400.86398,188.70991 C 401.74699,187.63385 403.19618,187.12681 404.61398,187.39784 C 407.04019,187.86162 407.82182,186.65710 405.67480,185.76307 C 404.77832,185.38977 404.94928,184.81848 406.27926,183.74312 C 407.29921,182.91841 407.93805,181.65666 407.69890,180.93922 C 407.23192,179.53828 409.16245,177.11691 410.74638,177.11691 C 411.27682,177.11691 411.96984,176.44191 412.28643,175.61691 C 412.60301,174.79192 413.57771,174.11691 414.45243,174.11691 C 415.32715,174.11691 415.74891,173.64133 415.38967,173.06008 C 414.18695,171.11403 415.86509,167.11691 417.88484,167.11691 C 418.94190,167.11691 420.08488,166.66692 420.42480,166.11691 C 420.76472,165.56691 420.36783,165.11691 419.54283,165.11691 C 417.69967,165.11691 416.58054,163.48296 417.45481,162.06835 C 417.89652,161.35365 418.55980,161.39903 419.53799,162.21085 C 421.53316,163.86669 422.31738,162.71840 420.82422,160.32747 C 419.79118,158.67331 419.91589,157.82078 421.57399,155.20200 L 423.56291,152.06072 L 427.16814,154.50730 C 430.16749,156.54271 430.87014,156.70175 431.34909,155.45362 C 432.16893,153.31713 432.15871,153.30106 429.67480,152.82265 L 427.42480,152.38927 L 429.67480,152.25309 C 430.91230,152.17820 431.92480,151.70904 431.92480,151.21053 C 431.92480,150.71203 432.89111,150.55684 434.07215,150.86570 C 435.96466,151.36061 436.14224,151.11940 435.56848,148.83337 C 435.20229,147.37434 435.37782,145.95497 435.96969,145.58918 C 436.68905,145.14458 436.64312,144.48243 435.82448,143.49603 C 434.80379,142.26618 435.01804,142.20186 437.27592,143.06031 C 439.56270,143.92975 439.92480,143.80874 439.92480,142.17507 C 439.92480,139.51562 436.41414,131.63204 432.93271,126.47352 C 430.36937,122.67538 430.22538,122.11691 431.80941,122.11691 C 435.64912,122.11691 440.89115,124.71540 453.92480,133.07957 C 466.71155,141.28530 472.01269,144.48568 488.42480,153.90777 C 492.27480,156.11802 498.57480,160.22888 502.42480,163.04299 C 506.27480,165.85710 510.09980,168.03308 510.92480,167.87851 C 512.84335,167.51907 513.26493,160.35712 512.20577,146.11691 C 511.04843,130.55663 511.38353,129.30900 517.57872,126.11297 C 520.41337,124.65061 522.57301,123.94075 522.37791,124.53552 C 522.18281,125.13029 521.79104,130.56691 521.50730,136.61691 C 521.22357,142.66692 520.69439,151.69023 520.33136,156.66874 C 519.78526,164.15789 519.94105,165.99030 521.23377,167.28302 C 522.38622,168.43547 522.50258,169.13913 521.67718,169.96454 C 520.33033,171.31138 521.31217,172.56599 523.15856,171.85746 C 523.88457,171.57885 525.23671,168.26076 526.16332,164.48391 C 527.08993,160.70706 528.72412,154.01692 529.79485,149.61691 C 530.86558,145.21691 532.22171,140.37941 532.80847,138.86691 C 533.39522,137.35442 533.60634,136.11691 533.27760,136.11691 C 532.94887,136.11691 533.24011,135.44191 533.92480,134.61691 C 534.60949,133.79192 534.88044,133.11691 534.52692,133.11691 C 534.17340,133.11691 534.79330,131.33484 535.90448,129.15675 C 537.01565,126.97866 537.92480,124.65864 537.92480,124.00114 C 537.92480,123.34365 538.95413,121.41322 540.21220,119.71131 C 541.47027,118.00939 543.60777,114.40080 544.96220,111.69222 C 546.31663,108.98365 548.21230,105.94614 549.17480,104.94222 C 550.13730,103.93830 550.92480,102.47942 550.92480,101.70025 C 550.92480,100.92108 551.26230,100.13358 551.67480,99.950253 C 553.16332,99.288683 557.83238,92.333323 558.45605,89.848423 C 558.80693,88.450403 560.20428,86.263533 561.56127,84.988703 C 565.16961,81.598843 569.15085,72.041573 566.60047,72.891693 C 566.14709,73.042823 566.06115,72.705323 566.40949,72.141693 C 566.75783,71.578063 567.72878,71.116913 568.56715,71.116913 C 569.40552,71.116913 569.90197,70.554413 569.67036,69.866913 C 569.43876,69.179413 569.86912,68.159893 570.62674,67.601293 C 571.75143,66.772053 571.79550,65.612443 570.86685,61.282293 C 570.24129,58.365433 569.88592,55.838563 570.07714,55.667033 C 570.26835,55.495503 576.83313,57.686883 584.66554,60.536763 C 595.64190,64.530603 601.10913,67.196723 608.51618,72.167643 C 618.76995,79.049013 621.44786,80.665533 632.42480,86.600023 C 636.27480,88.681463 641.56906,91.674263 644.18982,93.250683 C 646.81059,94.827113 649.20451,96.116913 649.50965,96.116913 C 651.17180,96.116913 658.68150,102.34658 660.23134,105.01109 C 663.36979,110.40676 661.06004,109.41350 639.92480,96.278683 C 634.14980,92.689723 627.44759,88.260113 625.03100,86.435113 C 621.27911,83.601693 619.82444,83.116913 615.07401,83.116913 C 609.56338,83.116913 609.45355,83.175953 603.44644,89.366913 C 600.11103,92.804413 590.67710,105.06691 582.48215,116.61691 C 566.05384,139.77107 556.71428,152.02720 547.42874,162.61691 C 536.64596,174.91415 531.82497,181.36606 531.24236,184.27910 C 530.93020,185.83990 530.44040,187.11691 530.15390,187.11691 C 529.29344,187.11691 510.21525,175.24835 497.92194,167.06538 C 485.05268,158.49903 483.14972,157.66453 478.48161,158.54027 C 472.00271,159.75573 466.54670,164.67102 455.92147,178.86457 C 426.96836,217.54115 421.59145,224.48136 411.60496,236.06579 C 405.65405,242.96892 400.12789,249.85847 399.32461,251.37594 C 396.66513,256.39994 399.08962,258.71776 418.86029,270.05214 C 436.77063,280.31998 440.58531,283.13868 454.74925,296.57065 C 463.25021,304.63229 467.61343,307.98993 472.24925,310.03749 C 481.33359,314.04991 486.43021,315.45787 489.28057,314.74248 C 491.61940,314.15546 491.78553,313.74189 491.44206,309.36176 C 491.23741,306.75209 490.74473,298.91348 490.34720,291.94263 L 489.62443,279.26836 L 494.02918,277.19787 C 496.45179,276.05912 499.64974,274.00004 501.13572,272.62216 C 504.49618,269.50616 505.99438,269.32348 503.22897,272.36691 C 502.10451,273.60442 501.16949,275.29192 501.15113,276.11691 C 501.13278,276.94191 500.82902,285.12770 500.47612,294.30756 C 499.86380,310.23561 499.92446,311.04636 501.80386,312.05219 C 503.52027,312.97078 503.89987,312.68939 504.75903,309.86154 C 505.76097,306.56378 505.83403,305.85467 505.93956,298.40292 C 505.97239,296.08524 506.41284,293.93333 506.91835,293.62090 C 507.42385,293.30849 507.61637,292.47674 507.34616,291.77258 C 507.07595,291.06842 507.98025,289.89001 509.35571,289.15390 C 510.73117,288.41777 511.63816,287.46213 511.37124,287.03025 C 511.10433,286.59838 511.29744,284.41355 511.80039,282.17511 C 512.39256,279.53957 512.36178,277.88698 511.71306,277.48605 C 511.06737,277.08699 511.11292,276.61869 511.84118,276.16859 C 512.86745,275.53432 514.42598,268.11691 513.53298,268.11691 C 513.32422,268.11691 511.86448,268.78915 510.28911,269.61076 C 507.79867,270.90960 507.74880,271.61838 510.17480,271.23533 C 510.58730,271.17020 510.92480,271.56691 510.92480,272.11691 C 510.92480,272.66692 510.44448,273.11691 509.85741,273.11691 C 509.27035,273.11691 509.05551,273.95339 509.37999,274.97573 C 509.71956,276.04561 509.32840,277.36699 508.45839,278.08903 C 507.62703,278.77900 507.11963,279.63004 507.33085,279.98023 C 507.54207,280.33041 507.13962,281.14810 506.43652,281.79734 C 505.41981,282.73617 505.02500,282.14497 504.50751,278.90881 C 503.98377,275.63350 504.29603,274.19889 506.10845,271.55385 C 507.34682,269.74657 508.78858,268.53273 509.31236,268.85644 C 509.83613,269.18015 510.00413,268.76603 509.68568,267.93618 C 509.35895,267.08472 509.91511,265.84465 510.96218,265.08997 C 511.98271,264.35442 512.54296,263.30811 512.20719,262.76482 C 511.84854,262.18449 512.28313,262.04044 513.26076,262.41559 C 516.14789,263.52348 517.91540,262.22239 516.95496,259.69623 C 516.26588,257.88382 516.66715,256.90976 519.01624,254.69259 C 520.62055,253.17839 521.67777,251.52622 521.36560,251.02114 C 521.05344,250.51605 521.50156,249.83283 522.36142,249.50287 C 523.22128,249.17291 523.92480,248.38288 523.92480,247.74727 C 523.92480,247.11167 525.04980,245.74678 526.42480,244.71420 C 527.79980,243.68160 528.92480,242.19477 528.92480,241.41012 C 528.92480,239.97982 533.76674,232.90939 535.17480,232.28359 C 536.17148,231.84062 536.14190,229.11691 535.14041,229.11691 C 534.70899,229.11691 533.54015,230.49807 532.54297,232.18614 C 531.54580,233.87423 530.50333,235.02878 530.22638,234.75182 C 529.94942,234.47487 530.95171,232.63712 532.45368,230.66793 C 534.46170,228.03529 535.51373,227.36079 536.42820,228.11974 C 537.33483,228.87217 538.11264,228.47919 539.29833,226.66958 C 540.19289,225.30431 540.92515,223.83394 540.92558,223.40210 C 540.92601,222.97024 542.53065,220.81691 544.49144,218.61691 C 547.13259,215.65355 547.93374,213.97068 547.58277,212.12333 L 547.10902,209.62977 L 549.51691,212.42910 C 551.03644,214.19567 551.92480,214.68520 551.92480,213.75602 C 551.92480,212.94618 551.36230,212.08268 550.67480,211.83715 C 549.98730,211.59162 549.75143,211.03999 550.15063,210.61131 C 550.54984,210.18264 551.55643,210.39624 552.38750,211.08596 C 553.71680,212.18917 553.76260,211.95008 552.76837,209.09803 C 550.79089,203.42543 546.86629,197.21821 543.59484,194.58902 C 540.57850,192.16486 540.54602,192.06691 542.92480,192.56871 C 544.29980,192.85877 546.66883,193.29716 548.18931,193.54291 C 549.70979,193.78866 553.53479,195.60866 556.68931,197.58735 C 581.07355,212.88247 591.63020,219.38030 599.42480,223.89192 C 604.37480,226.75704 610.44980,230.67790 612.92480,232.60496 C 622.02441,239.68995 624.97926,241.46245 625.99590,240.44582 C 626.90396,239.53775 627.88582,223.87533 627.91345,209.85741 C 627.92453,204.23410 628.02156,204.03310 632.01687,201.35741 C 634.26751,199.85014 637.97654,197.04192 640.25916,195.11691 L 644.40938,191.61691 L 641.71225,195.24098 C 638.96686,198.92991 638.58036,200.74118 637.36438,215.61691 C 637.00472,220.01692 636.58924,224.29192 636.44111,225.11691 C 635.26589,231.66190 634.91981,241.99580 635.85644,242.57466 C 636.45181,242.94263 637.19360,242.42766 637.50486,241.43029 C 637.81613,240.43294 638.50319,238.81111 639.03168,237.82623 C 639.56016,236.84136 639.73361,235.61658 639.41712,235.10448 C 639.10063,234.59239 639.64666,232.94484 640.63053,231.44327 C 642.17429,229.08721 642.20026,228.79723 640.82007,229.32686 C 639.56863,229.80709 639.24295,229.30770 639.32278,227.03102 C 639.37889,225.43078 639.76230,224.12045 640.17480,224.11919 C 640.58730,224.11794 640.92480,223.21691 640.92480,222.11691 C 640.92480,221.01692 641.37480,220.11691 641.92480,220.11691 C 642.47480,220.11691 642.92480,219.64035 642.92480,219.05790 C 642.92480,218.47543 642.39833,218.32425 641.75486,218.72194 C 640.95721,219.21492 640.79811,218.88945 641.25486,217.69917 C 641.62333,216.73896 641.93169,215.42764 641.94011,214.78512 C 641.94890,214.11489 642.36864,214.25632 642.92480,215.11691 C 643.78647,216.45024 643.90904,216.45024 644.02797,215.11691 C 644.10156,214.29192 644.09651,213.08834 644.01676,212.44232 C 643.93701,211.79629 644.33369,210.98223 644.89828,210.63330 C 645.46287,210.28438 645.92480,209.33460 645.92480,208.52271 C 645.92480,207.36992 645.49837,207.27476 643.97819,208.08834 C 642.47019,208.89539 641.82790,208.76617 641.12760,207.51482 C 639.77106,205.09082 641.60493,197.10464 644.18037,194.22056 C 645.41481,192.83820 646.95861,191.12090 647.61104,190.40438 C 648.36346,189.57801 649.02504,189.47009 649.42006,190.10925 C 649.76259,190.66346 649.56628,191.11691 648.98382,191.11691 C 647.84432,191.11691 647.48012,200.33890 648.57633,201.43511 C 649.45798,202.31677 651.70158,197.82371 652.49706,193.58342 C 652.85293,191.68646 653.54476,190.38203 654.03445,190.68468 C 654.52414,190.98732 654.92480,190.10994 654.92480,188.73494 C 654.92480,187.35994 654.42449,185.92573 653.81300,185.54782 C 652.36605,184.65356 650.93871,186.98959 651.70767,188.99348 C 652.23490,190.36740 652.11893,190.37810 650.72582,189.08415 C 649.85699,188.27717 649.48568,187.39192 649.90068,187.11691 C 650.31569,186.84191 650.97404,185.59550 651.36369,184.34711 L 652.07215,182.07731 L 653.93582,184.34711 C 655.44843,186.18933 656.14096,186.40800 657.61215,185.50792 C 658.60911,184.89798 659.42480,183.54799 659.42480,182.50792 C 659.42480,181.04612 658.77496,180.66316 656.56166,180.82067 C 653.94123,181.00716 653.82525,180.87999 655.19338,179.32067 C 657.22397,177.00632 658.56522,172.60308 656.93217,173.61236 C 656.00254,174.18690 655.98601,173.87107 656.86022,172.23759 C 658.16132,169.80645 659.14553,169.37814 658.28643,171.61691 C 657.96984,172.44191 658.20897,173.11691 658.81781,173.11691 C 659.42666,173.11691 659.92480,174.46691 659.92480,176.11691 C 659.92480,177.76692 660.43105,179.11691 661.04980,179.11691 C 661.76669,179.11691 661.97262,177.93792 661.61747,175.86691 C 661.31093,174.07942 661.29218,173.17941 661.57580,173.86691 C 662.16821,175.30294 664.92480,175.57731 664.92480,174.20024 C 664.92480,173.69608 664.39513,173.10702 663.74775,172.89123 C 662.07313,172.33302 663.69953,170.11691 665.78382,170.11691 C 668.17019,170.11691 669.89218,168.19548 669.17672,166.33101 C 668.78253,165.30378 668.98385,165.03538 669.77964,165.52719 C 670.43673,165.93331 670.89054,165.89463 670.78810,165.44124 C 670.38580,163.66080 672.95836,159.11691 674.36866,159.11691 C 675.28526,159.11691 675.63972,158.53758 675.28643,157.61691 C 674.94474,156.72649 675.27626,156.11691 676.10220,156.11691 C 677.85386,156.11691 681.26638,150.47863 680.38140,149.04669 C 680.01900,148.46033 679.09302,148.22212 678.32365,148.51735 C 677.46961,148.84509 676.92480,148.40428 676.92480,147.38553 C 676.92480,146.17880 676.62235,146.01936 675.83216,146.80955 C 675.04197,147.59975 675.05171,148.48554 675.86734,150.00955 C 676.61285,151.40255 676.64426,152.11691 675.95998,152.11691 C 675.39063,152.11691 674.92480,151.44191 674.92480,150.61691 C 674.92480,149.79192 674.47908,149.11691 673.93430,149.11691 C 673.38953,149.11691 674.17703,147.37354 675.68430,145.24275 C 677.43375,142.76961 678.69602,141.77512 679.17480,142.49275 C 679.70200,143.28296 680.21732,143.17131 680.90949,142.11691 C 682.18884,140.16804 682.19703,138.83063 680.92480,139.61691 C 679.48027,140.50968 679.75357,138.92716 681.42535,136.71853 C 682.53104,135.25776 683.17686,135.08121 684.22688,135.95265 C 685.76336,137.22782 685.96029,136.49446 685.97029,129.46028 L 685.97620,125.30365 L 694.20050,128.09352 L 702.42480,130.88340 L 702.69152,157.05932 L 702.95824,183.23525 L 696.29760,192.92608 C 692.63425,198.25604 687.03458,206.44191 683.85388,211.11691 C 680.67319,215.79192 671.06425,227.18340 662.50068,236.43134 C 653.34854,246.31490 646.68722,254.35276 646.34021,255.93134 C 646.01552,257.40841 645.67672,258.95231 645.58733,259.36225 C 645.39921,260.22496 620.62984,244.91019 610.37705,237.59191 C 603.89291,232.96366 603.01901,232.62909 597.39811,232.62322 C 588.58616,232.61401 582.91657,235.82839 577.12527,244.11691 C 541.88037,294.55955 542.98761,293.10223 527.59070,309.31281 C 511.05307,326.72437 511.23685,326.45105 513.24129,330.65440 C 514.22016,332.70711 516.65573,335.01807 519.62445,336.71098 C 533.44959,344.59471 552.02644,355.92653 556.50925,359.21060 C 559.30570,361.25925 566.11488,367.21490 571.64076,372.44540 C 582.13273,382.37650 585.32949,384.44234 595.67878,387.97946 C 602.78475,390.40810 606.44231,390.68002 607.61578,388.86691 C 608.06074,388.17941 608.46768,381.22192 608.52009,373.40580 C 608.58372,363.91494 609.01582,358.71217 609.82099,357.74200 C 610.48408,356.94301 612.96574,355.37781 615.33578,354.26376 C 617.70582,353.14972 620.80386,350.86092 622.22031,349.17757 C 624.98569,345.89110 626.49600,345.18599 625.56317,347.61691 C 625.24659,348.44191 625.47223,349.11691 626.06459,349.11691 C 626.69677,349.11691 626.89718,348.14301 626.54981,346.75900 C 626.11159,345.01299 627.03630,342.87198 630.11302,338.50900 C 636.77879,329.05649 655.64947,301.29901 661.14237,292.86691 C 663.91909,288.60442 666.63616,285.11691 667.18032,285.11691 C 667.79976,285.11691 667.82293,285.58429 667.24230,286.36691 C 666.73223,287.05441 663.72184,291.44191 660.55254,296.11691 C 652.24255,308.37488 650.09910,311.45258 648.84124,312.93270 C 648.22623,313.65638 647.96350,314.48894 648.25739,314.78284 C 649.11470,315.64015 650.92480,314.13031 650.92480,312.55790 C 650.92480,311.76535 651.34448,311.11691 651.85741,311.11691 C 652.37035,311.11691 653.05821,310.27195 653.38599,309.23919 C 653.71377,308.20645 655.09471,306.06896 656.45475,304.48919 C 657.81478,302.90944 659.57223,300.26691 660.36019,298.61691 C 661.14815,296.96692 662.72253,294.62324 663.85882,293.40872 C 664.99511,292.19423 665.92480,290.91521 665.92480,290.56646 C 665.92480,290.21771 666.82480,288.78820 667.92480,287.38979 C 671.97757,282.23752 668.88984,274.16683 660.77517,268.70208 L 655.45150,265.11691 L 658.93815,265.13887 C 663.64923,265.16855 668.76436,267.63492 681.05596,275.80347 C 686.75882,279.59336 694.01230,284.23439 697.17480,286.11685 L 702.92480,289.53949 L 702.92480,300.26918 C 702.92480,306.68133 702.50247,311.25990 701.87525,311.64753 C 700.88398,312.26017 690.21954,327.79036 681.42480,341.42869 C 665.91592,365.47888 660.83795,371.94099 648.17738,383.73854 C 631.27817,399.48579 629.92480,400.95251 629.92480,403.51972 C 629.92480,406.45150 636.14172,412.26927 642.85927,415.62378 C 649.79707,419.08827 673.18769,433.40751 678.42480,437.39623 C 688.59122,445.13927 705.33938,463.11691 702.38644,463.11691 C 702.09034,463.11691 697.82688,460.41311 692.91209,457.10841 C 687.99729,453.80371 683.42251,451.21621 682.74590,451.35841 C 682.06930,451.50061 681.49409,450.94191 681.46767,450.11691 C 681.44125,449.29191 680.52079,448.59591 679.42221,448.57021 C 678.32364,448.54451 677.54060,447.97211 677.68212,447.29821 C 678.05405,445.52728 674.07916,444.29746 665.73333,443.60127 C 656.16957,442.80349 653.82482,444.27722 646.78722,455.50921 C 634.04111,475.85205 619.05217,498.73845 614.42115,504.92865 L 609.41751,511.61695 L 584.19450,511.88405 L 558.97150,512.15125 L 558.39474,509.85325 C 558.07753,508.58935 557.95452,504.64415 558.12139,501.08615 L 558.42480,494.61695 L 564.02337,491.61695 C 571.51658,487.60175 572.84460,486.46205 576.84353,480.61535 C 582.15434,472.85055 601.77799,444.81535 608.23858,435.76299 C 611.43616,431.28264 615.41811,425.46989 617.08737,422.84577 C 618.96318,419.89691 620.73920,418.17817 621.73734,418.34577 C 624.58138,418.82328 624.11578,415.52278 620.70901,411.05621 C 618.73399,408.46679 614.31428,404.86624 609.74552,402.12475 C 605.53553,399.59852 593.04856,391.47580 581.99670,384.07427 C 550.27667,362.83105 553.64431,364.60777 545.23422,364.67885 C 534.56721,364.76898 535.39255,363.99896 516.36102,391.61691 C 510.67594,399.86691 503.20262,410.66692 499.75364,415.61691 C 495.68188,421.46073 487.59861,430.41404 476.70378,441.14772 C 460.35233,457.25731 459.92480,457.78421 459.92480,461.82631 C 459.92480,466.45931 461.64853,468.79595 465.74473,469.71575 C 474.18644,471.61125 476.63035,472.69085 483.67318,477.63545 C 493.22635,484.34245 518.30320,501.04765 527.92931,507.11695 L 535.06640,511.61695 L 518.06010,511.89035 C 508.70664,512.04065 493.09220,512.04065 483.36134,511.89035 L 465.66887,511.61695 L 469.63914,506.59585 C 474.18691,500.84445 475.79212,498.06635 476.99884,493.85875 C 478.64103,488.13285 476.44265,486.08235 449.62015,468.32205 C 435.76271,459.14641 423.78666,451.63221 423.00672,451.62381 C 422.22678,451.61531 421.41020,451.07311 421.19211,450.41881 C 420.97402,449.76461 420.14966,449.47711 419.36019,449.78011 C 418.57073,450.08301 417.92480,449.83271 417.92480,449.22391 C 417.92480,447.57061 414.95009,447.88741 414.28863,449.61121 C 413.97326,450.43301 413.31238,450.85641 412.82002,450.55221 C 412.32765,450.24791 411.92480,450.50761 411.92480,451.12931 C 411.92480,452.65431 409.31867,455.17741 408.54385,454.40261 C 408.20337,454.06221 407.92480,454.53361 407.92480,455.45021 C 407.92480,456.36691 407.47480,457.11691 406.92480,457.11691 C 406.37480,457.11691 405.92480,457.58271 405.92480,458.15211 C 405.92480,458.85391 406.56881,458.84261 407.92480,458.11691 C 409.61551,457.21211 409.92480,457.35641 409.92480,459.05031 C 409.92480,460.42061 410.39901,460.87221 411.42480,460.47851 C 412.24980,460.16201 412.92480,460.34861 412.92480,460.89331 C 412.92480,461.83931 415.16699,462.83111 419.36408,463.74151 C 421.94701,464.30171 422.28352,464.73971 421.56656,466.60811 C 421.09221,467.84425 419.57989,468.14755 414.57627,468.00985 C 406.27597,467.78155 405.67650,468.22735 407.95176,472.93665 C 410.92074,479.08175 411.38707,482.00235 409.51403,482.72105 C 408.48320,483.11665 407.20587,482.48165 406.01285,480.98045 C 401.35089,475.11425 400.12094,474.02955 399.60079,475.32585 C 399.30202,476.07035 399.03640,475.77025 398.97334,474.61695 C 398.87260,472.77465 398.78364,472.75495 397.84470,474.36695 C 397.28410,475.32945 396.17278,476.11695 395.37511,476.11695 C 393.86075,476.11695 393.45338,477.31225 394.58279,478.44165 C 394.94469,478.80355 395.80462,478.63165 396.49376,478.05975 C 397.32074,477.37335 397.95653,477.35925 398.36378,478.01825 C 399.12322,479.24705 395.24586,481.45415 393.50278,480.78525 C 392.63003,480.45035 392.38001,481.04735 392.69750,482.70825 C 392.98108,484.19165 392.68793,485.11695 391.93439,485.11695 C 391.21076,485.11695 390.96818,485.78765 391.34070,486.75835 C 391.88894,488.18705 391.75450,488.22055 390.30345,487.01625 C 388.80563,485.77315 388.71346,485.87575 389.39595,488.02605 C 390.01666,489.98175 389.86013,490.30615 388.54020,489.79965 C 387.65173,489.45865 386.92480,489.61565 386.92480,490.14835 C 386.92480,490.68105 386.24980,491.11695 385.42480,491.11695 C 383.86803,491.11695 383.43996,492.29875 384.58279,493.44165 C 384.94469,493.80355 385.84469,493.59845 386.58279,492.98585 C 387.61169,492.13195 387.92480,492.25065 387.92480,493.49455 C 387.92480,494.38685 387.47480,495.11695 386.92480,495.11695 C 386.37480,495.11695 385.92480,495.81855 385.92480,496.67595 C 385.92480,497.53345 385.48799,497.96505 384.95412,497.63505 C 384.42024,497.30515 383.69646,498.17855 383.34571,499.57605 C 382.99496,500.97355 382.14417,502.11695 381.45506,502.11695 C 380.64833,502.11695 380.35870,503.09625 380.64176,504.86695 C 380.99591,507.08235 380.86128,507.32535 379.94933,506.11695 C 378.99551,504.85315 378.86964,504.93185 379.14986,506.61695 C 379.33277,507.71695 378.74718,509.41935 377.84855,510.39995 C 376.42728,511.95095 374.68669,512.14615 364.47213,511.89995 L 352.72958,511.61695 L 357.05263,506.11695 C 359.43030,503.09195 361.63584,500.39195 361.95382,500.11695 C 362.27181,499.84195 367.84777,492.64195 374.34484,484.11695 C 380.84192,475.59195 387.00086,467.71695 388.03137,466.61691 C 389.06188,465.51691 392.57864,461.17501 395.84640,456.96831 C 403.08744,447.64651 403.32601,447.48141 410.42480,446.88125 C 411.52480,446.78825 413.01866,446.12900 413.74449,445.41627 C 414.83274,444.34766 414.56970,443.92635 412.24449,443.01382 C 410.69366,442.40519 406.72480,441.70078 403.42480,441.44846 C 395.14358,440.81529 393.20421,442.28382 381.92971,457.72521 C 361.56492,485.61645 346.90412,504.78945 343.19083,508.38695 L 339.29946,512.15705 L 317.45937,511.88695 L 295.61928,511.61695 L 293.86839,503.11695 C 290.61047,487.30085 290.42080,488.13745 298.17567,484.11695 C 304.75813,480.70425 305.55460,479.83115 330.10302,449.11691 C 343.95009,431.79192 355.75752,416.35512 356.34176,414.81295 C 357.07531,412.87664 357.93983,412.14909 359.13556,412.46177 C 360.74361,412.88229 360.75946,412.65697 359.35781,409.30234 C 357.38086,404.57083 355.71899,402.82695 349.00704,398.44072 C 345.93681,396.43434 335.48448,389.49351 325.77964,383.01666 C 316.07480,376.53982 307.79015,371.55025 307.36931,371.92874 C 306.94847,372.30723 306.92785,372.05441 307.32349,371.36691 C 307.98063,370.22500 306.79812,369.64150 304.60047,370.02328 C 304.14709,370.10203 304.03073,369.75454 304.34188,369.25108 C 304.65304,368.74761 303.73109,367.56479 302.29309,366.62257 C 300.85509,365.68036 299.98552,365.40613 300.36069,366.01319 C 300.73587,366.62023 300.61876,367.11691 300.10045,367.11691 C 299.58214,367.11691 298.92222,368.01877 298.63397,369.12104 C 298.28435,370.45799 297.57973,370.92172 296.51734,370.51405 C 294.64301,369.79480 294.51987,370.49178 296.02457,373.30333 C 296.72173,374.60599 296.74703,375.12507 296.09367,374.72129 C 295.52680,374.37094 294.78034,374.54163 294.43488,375.10061 C 294.08942,375.65958 294.23518,376.11691 294.75879,376.11691 C 297.39105,376.11691 295.98798,383.42799 291.83476,391.35334 C 290.78432,393.35784 290.61590,397.11691 291.57654,397.11691 C 291.93499,397.11691 295.78038,395.06806 300.12184,392.56391 C 307.95568,388.04536 310.44592,387.63004 312.78758,390.45157 C 313.55989,391.38214 311.87680,394.16498 306.30927,401.16284 C 296.17522,413.90041 296.36315,413.72561 294.48181,412.16424 C 293.12860,411.04116 293.56865,410.09136 298.05343,404.45526 C 300.86666,400.91982 302.93237,397.79115 302.64388,397.50266 C 302.35540,397.21418 298.73207,399.03436 294.59205,401.54752 C 290.45203,404.06069 286.41335,406.11691 285.61721,406.11691 C 283.50012,406.11691 281.67125,403.49113 282.33398,401.40305 C 282.64991,400.40764 283.07885,398.12928 283.28718,396.34003 C 283.60610,393.60095 283.43838,393.27573 282.22586,394.28203 C 281.43380,394.93937 281.00921,396.33168 281.28231,397.37605 C 281.62283,398.67816 281.35642,399.11279 280.43460,398.75905 C 279.69524,398.47534 278.82428,398.93648 278.49913,399.78381 C 278.17398,400.63114 277.27398,401.08114 276.49913,400.78381 C 275.72428,400.48647 274.84220,400.88979 274.53894,401.68005 C 274.23569,402.47032 273.41095,403.12157 272.70618,403.12725 C 272.00142,403.13294 270.52480,404.27510 269.42480,405.66539 C 268.32480,407.05570 266.29980,409.34958 264.92480,410.76294 C 263.21813,412.51720 262.82147,413.48354 263.67480,413.80813 C 264.36230,414.06963 264.92480,414.72264 264.92480,415.25927 C 264.92480,415.79590 264.55737,416.00786 264.10828,415.73032 C 263.65920,415.45276 262.49529,416.57402 261.52181,418.22197 C 260.06706,420.68468 259.49111,421.00187 258.28771,420.00315 C 257.09165,419.01051 256.72325,419.17165 256.27564,420.88328 C 255.97428,422.03570 255.13949,423.20429 254.42055,423.48018 C 253.70162,423.75605 252.82356,425.30137 252.46932,426.91422 C 252.11508,428.52706 250.92836,430.80934 249.83215,431.98599 C 248.73595,433.16262 247.96780,434.68594 248.12514,435.37112 C 248.28249,436.05630 247.96428,436.61691 247.41801,436.61691 C 246.87175,436.61691 246.48993,436.03863 246.56954,435.33184 C 246.68135,434.33909 246.39397,434.31257 245.30633,435.21523 C 244.53197,435.85791 243.95765,436.88619 244.03008,437.50031 C 244.32796,440.02616 243.84382,441.11691 242.42480,441.11691 C 241.59980,441.11691 240.92480,441.56691 240.92480,442.11691 C 240.92480,444.06970 237.79301,443.07617 235.40844,440.36691 C 232.53398,437.10107 232.29882,433.49747 234.63980,428.58837 C 236.07812,425.57220 236.47011,425.28438 237.06952,426.80444 C 237.69124,428.38110 237.79337,428.32832 237.85451,426.39886 C 237.91386,424.52620 249.17155,410.19410 252.39912,407.88222 C 252.96324,407.47814 253.01845,407.14064 252.52179,407.13222 C 252.02513,407.12380 252.49140,406.32941 253.55793,405.36691 C 254.62446,404.40442 256.38082,402.42559 257.46094,400.96953 C 260.85908,396.38868 279.09365,375.02546 283.05500,370.98408 C 285.13983,368.85714 287.53842,367.11691 288.38520,367.11691 C 289.23198,367.11691 289.92480,366.63250 289.92480,366.04045 C 289.92480,365.41505 291.49619,365.07743 293.67480,365.23473 C 298.60875,365.59098 299.34668,363.93130 294.92480,362.42336 C 290.04698,360.75995 283.36017,360.84041 279.95062,362.60356 C 278.36944,363.42122 273.12520,369.15872 268.29674,375.35356 C 263.46828,381.54840 254.33651,393.14191 248.00392,401.11691 C 233.92325,418.84953 235.38807,417.02735 232.32826,420.61691 C 226.14421,427.87167 213.18818,443.55667 210.67480,446.83132 C 206.04627,452.86181 207.51108,458.33461 214.74088,462.02321 C 216.76704,463.05691 222.47480,466.79081 227.42480,470.32085 C 232.37480,473.85095 247.33730,484.51725 260.67480,494.02385 C 274.01230,503.53035 284.92480,511.49035 284.92480,511.71275 C 284.92480,511.93505 276.93730,512.11195 267.17480,512.10585 C 250.15097,512.09525 249.30207,511.99995 246.42480,509.77675 z M 571.52897,508.38775 C 571.19668,508.05545 570.96033,508.64615 571.00375,509.70025 C 571.05173,510.86525 571.28869,511.10215 571.60791,510.30445 C 571.89678,509.58255 571.86126,508.72005 571.52897,508.38775 z M 438.58135,438.86691 C 438.23741,434.32941 437.66419,426.73784 437.30754,421.99673 L 436.65908,413.37655 L 442.54194,410.39328 C 447.15506,408.05390 449.76723,405.70562 454.64442,399.51346 C 458.06521,395.17036 462.11521,389.70521 463.64442,387.36871 C 465.17363,385.03219 466.85230,383.11968 467.37480,383.11871 C 467.89730,383.11772 467.78480,383.65692 467.12480,384.31691 C 466.46480,384.97692 465.92480,385.90028 465.92480,386.36883 C 465.92480,387.45157 474.41942,377.25560 479.24257,370.38373 C 481.26272,367.50549 483.56496,364.35548 484.35866,363.38373 C 485.15236,362.41199 487.41920,359.64418 489.39607,357.23304 C 491.37295,354.82191 492.75064,352.60942 492.45760,352.31637 C 492.16456,352.02334 491.75758,351.97109 491.55321,352.20024 C 491.02748,352.78976 476.02985,372.96742 472.42480,377.93543 C 470.77480,380.20924 469.06074,382.08028 468.61578,382.09327 C 467.54187,382.12466 468.21527,381.10248 475.84692,371.11691 C 479.41987,366.44191 485.64148,358.24520 489.67272,352.90201 C 497.21536,342.90461 499.81433,340.22419 498.59229,343.70287 C 497.97974,345.44657 498.03649,345.46757 499.22991,343.93896 C 500.12695,342.78996 500.99463,342.54870 501.98236,343.17365 C 502.77570,343.67561 503.98730,344.09318 504.67480,344.10160 C 507.20119,344.13256 505.80342,340.36844 501.17480,334.67628 C 497.53814,330.20400 493.37776,326.92646 483.42480,320.69285 C 476.27480,316.21476 463.77309,308.06572 455.64321,302.58388 C 432.64936,287.07952 434.38676,287.93339 427.06258,288.53768 C 423.51094,288.83073 419.45342,289.85212 417.87772,290.84978 C 416.32527,291.83272 412.47765,296.23244 409.32746,300.62693 C 388.84606,329.19826 370.86757,351.99365 359.15994,364.23565 C 345.30759,378.72026 343.92480,380.55768 343.92480,384.47974 C 343.92480,388.15348 346.25830,389.88515 352.99471,391.21046 C 357.51256,392.09928 360.68329,393.61424 365.71844,397.28982 C 372.42390,402.18468 398.33924,419.49133 412.11747,428.27577 C 416.13650,430.83814 423.02480,436.10868 427.42480,439.98809 C 431.82480,443.86748 436.27573,447.05849 437.31576,447.07922 C 439.06998,447.11419 439.16150,446.52037 438.58135,438.86691 z M 381.92480,352.72390 C 381.92480,352.50774 382.62317,352.06290 383.47674,351.73536 C 384.36666,351.39386 384.76806,351.56150 384.41772,352.12837 C 383.83046,353.07857 381.92480,353.53381 381.92480,352.72390 z M 387.92480,351.17593 C 387.92480,350.59348 388.37480,350.11691 388.92480,350.11691 C 390.20618,350.11691 390.20618,350.82497 388.92480,351.61691 C 388.37480,351.95684 387.92480,351.75839 387.92480,351.17593 z M 387.31346,347.54647 C 387.64970,346.67025 387.92480,345.73858 387.92480,345.47611 C 387.92480,345.21363 388.37480,345.27699 388.92480,345.61691 C 390.40899,346.53419 390.13811,347.82108 388.31346,348.52127 C 387.13409,348.97383 386.86601,348.71251 387.31346,347.54647 z M 396.35168,343.44686 C 396.70415,342.52834 396.41480,341.36088 395.70867,340.85253 C 394.79612,340.19558 394.94188,340.09526 396.21265,340.50572 C 397.29163,340.85424 398.22617,340.49514 398.56964,339.60005 C 398.88267,338.78433 399.74415,338.11691 400.48404,338.11691 C 401.33476,338.11691 400.93470,339.08220 399.39579,340.74272 C 398.05735,342.18691 397.20540,343.76191 397.50255,344.24272 C 397.79971,344.72352 397.51813,345.11691 396.87683,345.11691 C 396.19845,345.11691 395.97883,344.41849 396.35168,343.44686 z M 392.92480,339.61691 C 392.92480,338.79192 393.36068,338.11691 393.89342,338.11691 C 394.42615,338.11691 394.60301,338.79192 394.28643,339.61691 C 393.54940,341.53758 392.92480,341.53758 392.92480,339.61691 z M 432.17480,333.45463 C 431.32254,333.11074 430.92480,330.43124 430.92480,325.03359 C 430.92480,317.63947 430.78516,317.11691 428.80928,317.11691 C 427.61580,317.11691 425.09367,318.86737 423.02258,321.13312 C 419.77731,324.68340 419.14143,324.99581 417.54158,323.82596 C 415.83688,322.57945 415.95950,322.14242 419.65292,316.30106 C 421.80955,312.89020 423.82254,310.34798 424.12622,310.65168 C 424.42991,310.95535 425.26161,309.22857 425.97444,306.81436 C 427.43771,301.85858 431.55088,299.31124 435.05853,301.18849 C 437.33544,302.40706 437.41521,303.46501 435.35886,305.17163 C 434.49760,305.88643 433.10374,307.80399 432.26140,309.43290 L 430.72987,312.39454 L 438.07734,311.61604 C 446.23105,310.75211 448.88130,310.74009 449.70450,311.56328 C 450.76774,312.62653 448.94485,313.39244 442.70779,314.50308 L 436.42480,315.62187 L 435.53776,324.86939 C 435.04989,329.95553 434.37489,334.08139 434.03776,334.03796 C 433.70063,333.99455 432.86230,333.73205 432.17480,333.45463 z M 413.92480,319.14454 C 413.92480,317.78899 415.70190,316.94723 416.34996,317.99581 C 416.65980,318.49716 416.24090,319.16537 415.41906,319.48075 C 414.59722,319.79611 413.92480,319.64483 413.92480,319.14454 z M 414.92480,312.17593 C 414.92480,311.59348 415.37480,311.11691 415.92480,311.11691 C 417.20618,311.11691 417.20618,311.82497 415.92480,312.61691 C 415.37480,312.95684 414.92480,312.75839 414.92480,312.17593 z M 422.92480,301.74052 C 422.92480,300.81301 423.61921,299.78767 424.46793,299.46199 C 426.89446,298.53084 427.12945,299.62173 424.93093,301.61136 C 423.10022,303.26814 422.92480,303.27942 422.92480,301.74052 z M 452.39227,438.60264 C 452.45540,434.72489 452.08106,432.11714 451.46133,432.11745 C 450.49454,432.11797 450.33275,434.61455 450.75389,443.03359 C 451.04323,448.81791 452.28043,445.47192 452.39227,438.60264 z M 181.26870,431.82814 C 180.94387,430.06196 179.61272,424.34192 178.31057,419.11691 C 174.92458,405.53021 174.93760,405.45823 181.30842,402.54156 C 185.92173,400.42953 188.74765,397.68889 201.05842,383.38767 C 208.95993,374.20861 217.26806,364.65512 219.52093,362.15769 C 229.21019,351.41660 240.34259,337.35922 241.66488,334.19549 C 242.76391,331.56597 243.30311,331.10307 243.99453,332.19549 C 244.73580,333.36669 244.89687,333.32234 244.90949,331.94364 C 244.91791,331.02334 243.72548,328.84505 242.25964,327.10300 C 239.22565,323.49732 199.83794,297.05988 195.72403,295.86782 C 194.23861,295.43741 192.70658,294.57285 192.31952,293.94657 C 191.85735,293.19876 192.06513,293.08560 192.92480,293.61691 C 193.79206,294.15291 193.99246,294.03541 193.51862,293.26871 C 193.01836,292.45929 192.24036,292.41284 190.92985,293.11421 C 188.55284,294.38634 187.63706,294.39150 188.41772,293.12837 C 188.77480,292.55061 188.34893,292.40066 187.39289,292.76753 C 186.07866,293.27186 186.01930,293.56819 187.09095,294.27508 C 188.18198,294.99475 188.14454,295.37903 186.88531,296.38592 C 186.03859,297.06297 184.75461,299.64191 184.03203,302.11691 C 183.30945,304.59192 182.33446,307.08924 181.86539,307.66652 C 181.39631,308.24381 180.72412,310.71881 180.37163,313.16652 L 179.73073,317.61691 L 185.83449,311.15935 C 191.51163,305.15312 192.05380,304.81734 193.59157,306.35512 C 195.12935,307.89289 195.06691,308.23939 192.69823,311.31268 C 191.29756,313.13002 189.31304,315.57463 188.28818,316.74516 C 187.26332,317.91570 184.62480,321.16016 182.42480,323.95506 C 180.22480,326.74997 177.65313,329.05475 176.70998,329.07680 C 173.98740,329.14049 172.48491,325.15906 172.76267,318.61691 C 172.93485,314.56173 172.70826,313.07373 172.06363,314.02623 C 171.53905,314.80135 171.34135,316.03886 171.62431,316.77623 C 171.90727,317.51360 171.61407,318.11691 170.97277,318.11691 C 170.33147,318.11691 170.08170,318.56176 170.41772,319.10546 C 170.76806,319.67232 170.36666,319.83996 169.47674,319.49847 C 168.08037,318.96264 167.44196,320.05894 167.80638,322.36691 C 167.91478,323.05344 166.41467,323.49131 164.74784,323.25968 C 164.37551,323.20794 163.48984,324.47827 162.77968,326.08265 C 161.80329,328.28847 161.17594,328.74030 160.20664,327.93585 C 159.23255,327.12743 158.92480,327.38247 158.92480,328.99809 C 158.92480,330.16744 158.02480,332.80336 156.92480,334.85573 C 155.72113,337.10154 154.92480,337.87291 154.92480,336.79309 C 154.92480,335.80628 154.51705,335.25088 154.01868,335.55889 C 153.52032,335.86691 153.34780,337.01846 153.63531,338.11791 C 153.99878,339.50781 153.66547,340.11691 152.54144,340.11691 C 151.65229,340.11691 150.92480,340.56691 150.92480,341.11691 C 150.92480,341.66692 150.24980,342.11691 149.42480,342.11691 C 148.42480,342.11691 147.92480,343.11691 147.92480,345.11691 C 147.92480,347.11691 147.42480,348.11691 146.42480,348.11691 C 145.59980,348.11691 144.92480,348.74378 144.92480,349.50992 C 144.92480,350.27609 144.24980,351.16195 143.42480,351.47854 C 142.59980,351.79512 141.92480,352.69513 141.92480,353.47854 C 141.92480,354.26195 141.24980,355.16195 140.42480,355.47854 C 139.59980,355.79512 138.87260,357.08076 138.80880,358.33553 C 138.72298,360.02343 138.57402,360.16262 138.23619,358.87059 C 137.87322,357.48244 137.38427,357.33584 135.85219,358.15577 C 134.79213,358.72311 133.92480,359.76801 133.92480,360.47778 C 133.92480,362.49540 128.94664,366.76659 128.12213,365.45639 C 127.73860,364.84694 126.54063,364.18061 125.45997,363.97568 C 122.27080,363.37090 118.67201,357.18097 119.28306,353.35136 C 119.86546,349.70134 120.75966,348.43891 130.54805,337.44767 C 143.97354,322.37236 157.21837,307.58877 159.06569,305.61691 C 160.09622,304.51691 163.51359,300.76296 166.65986,297.27481 C 173.22707,289.99397 176.21144,288.16966 181.92084,287.94594 C 187.38710,287.73175 185.53874,285.97840 179.20512,285.36982 C 170.92830,284.57453 168.66103,286.23216 152.69608,304.75079 C 144.69891,314.02717 133.55205,326.79192 127.92528,333.11691 C 117.90856,344.37662 101.81871,367.25418 99.757025,373.16834 C 98.492732,376.79509 100.47001,380.41482 105.10718,382.96267 C 108.72471,384.95028 122.85323,394.95328 155.46624,418.61691 C 175.70927,433.30504 180.02531,436.17284 180.99035,435.57641 C 181.46827,435.28104 181.59352,433.59431 181.26870,431.82814 z M 451.85451,425.86691 C 451.81586,424.07941 451.39749,421.71692 450.92480,420.61691 C 450.29362,419.14807 450.04670,420.01119 449.99509,423.86691 C 449.95643,426.75441 450.37480,429.11691 450.92480,429.11691 C 451.47480,429.11691 451.89317,427.65442 451.85451,425.86691 z M 462.40710,392.55124 C 463.90292,390.59012 464.92218,388.78096 464.67213,388.53091 C 464.42207,388.28086 463.02024,389.88540 461.55695,392.09658 C 458.26166,397.07610 458.75470,397.33978 462.40710,392.55124 z M 621.85451,380.36691 C 621.89317,378.57941 622.30430,377.11691 622.76813,377.11691 C 623.23196,377.11691 623.49758,373.17941 623.35840,368.36691 C 623.21922,363.55441 623.06472,357.67786 623.01507,355.30790 C 622.87041,348.40274 621.19458,351.39915 620.46846,359.86129 C 619.13586,375.39114 619.05423,378.49023 619.93444,380.13492 C 620.49861,381.18909 620.42844,382.21327 619.74521,382.89650 C 619.14423,383.49748 618.98977,384.79404 619.39935,385.79969 C 620.09669,387.51186 620.18701,387.50130 620.96185,385.61691 C 621.41416,384.51691 621.81586,382.15442 621.85451,380.36691 z M 293.42480,371.11691 C 292.62512,369.82301 290.92480,369.82301 290.92480,371.11691 C 290.92480,371.66692 291.62636,372.11691 292.48382,372.11691 C 293.34128,372.11691 293.76472,371.66692 293.42480,371.11691 z M 326.89584,369.43831 C 327.15491,369.20173 326.84975,368.68856 326.21770,368.29793 C 325.05164,367.57727 322.03343,349.57699 321.24091,338.61691 L 320.80705,332.61691 L 324.75942,330.83544 C 326.93322,329.85563 330.37108,327.48905 332.39911,325.57637 C 334.42714,323.66370 336.49491,322.35124 336.99416,322.65978 C 337.49341,322.96834 337.61647,322.47701 337.26763,321.56792 C 336.45309,319.44526 338.90466,317.85532 340.69769,319.34339 C 341.70077,320.17588 341.96061,320.13943 341.73122,319.19839 C 341.56269,318.50700 342.99278,317.08082 344.90920,316.02911 C 346.82562,314.97741 347.83812,314.11691 347.15920,314.11691 C 345.21787,314.11691 345.69662,312.65595 348.67480,309.49196 C 350.18730,307.88509 352.53467,305.15197 353.89117,303.41836 C 355.24767,301.68475 356.72132,300.49115 357.16595,300.76596 C 357.61057,301.04075 357.85420,300.89463 357.70734,300.44124 C 357.56049,299.98786 358.22434,298.50428 359.18257,297.14440 C 360.14080,295.78453 360.93481,295.10953 360.94704,295.64440 C 360.98726,297.40359 364.87980,291.66003 364.90256,289.80790 C 364.91479,288.81293 365.32033,288.24333 365.80375,288.54210 C 366.28717,288.84087 368.30191,286.50493 370.28095,283.35111 C 372.25999,280.19731 374.78947,277.05061 375.90200,276.35845 C 377.01454,275.66629 377.92480,274.17723 377.92480,273.04943 C 377.92480,271.67514 377.51256,271.24654 376.67480,271.74986 C 375.90560,272.21197 375.98152,271.81530 376.87219,270.71857 C 378.17687,269.11203 378.43311,269.09158 379.47106,270.51107 C 380.10438,271.37718 380.89413,271.81425 381.22606,271.48232 C 381.55799,271.15039 381.17185,270.22111 380.36799,269.41724 C 379.56413,268.61338 379.21794,267.45161 379.59869,266.83555 C 380.09341,266.03507 380.40916,266.06999 380.70513,266.95790 C 381.03151,267.93705 381.45628,267.92661 382.70928,266.90865 C 384.07889,265.79595 384.20084,265.87907 383.58914,267.50835 C 382.98618,269.11437 383.10883,269.20907 384.40191,268.13592 C 385.44391,267.27112 385.92480,267.22647 385.92480,267.99447 C 385.92480,269.24410 390.53655,269.55413 391.27805,268.35437 C 393.01633,265.54176 380.59643,252.44198 370.20785,246.13072 C 365.37717,243.19601 352.19980,234.69029 340.92480,227.22911 C 322.29850,214.90327 320.01350,213.66124 315.92480,213.64015 C 309.93917,213.60924 304.75182,216.24337 300.65970,221.39170 C 298.81259,223.71556 293.06869,231.01692 287.89548,237.61691 C 273.01707,256.59883 252.68192,281.81074 244.34072,291.61691 C 235.01685,302.57837 232.93338,305.81247 232.92854,309.33173 C 232.92430,312.40859 234.60850,313.60318 240.44321,314.66181 C 245.86446,315.64542 247.80459,316.73588 259.92480,325.61162 C 265.69980,329.84069 277.57879,337.87196 286.32257,343.45888 C 295.06634,349.04581 306.76634,357.53417 312.32257,362.32191 C 321.94671,370.61495 324.33189,371.77967 326.89584,369.43831 z M 304.92480,314.89022 C 304.92480,313.06727 306.69762,311.55640 307.68181,312.54059 C 308.02498,312.88375 307.54504,313.92525 306.61528,314.85501 C 305.05633,316.41395 304.92480,316.41669 304.92480,314.89022 z M 343.92480,311.61691 C 344.60949,310.79192 345.39469,310.11691 345.66969,310.11691 C 345.94469,310.11691 345.60949,310.79192 344.92480,311.61691 C 344.24011,312.44191 343.45491,313.11691 343.17991,313.11691 C 342.90491,313.11691 343.24011,312.44191 343.92480,311.61691 z M 357.02519,295.41239 C 357.75334,294.19990 358.56434,293.42313 358.82742,293.68621 C 359.09050,293.94929 358.49475,294.94132 357.50352,295.89073 C 355.78158,297.54001 355.76027,297.51871 357.02519,295.41239 z M 264.18763,278.95592 C 264.06638,277.34629 264.31028,277.10239 265.17572,277.96784 C 265.93254,278.72465 265.98750,279.45421 265.33671,280.10500 C 264.68592,280.75580 264.29366,280.36354 264.18763,278.95592 z M 274.97064,274.03127 C 275.58455,272.88416 276.28597,272.14476 276.52936,272.38814 C 277.22926,273.08803 275.81039,276.11691 274.78263,276.11691 C 274.27180,276.11691 274.35634,275.17910 274.97064,274.03127 z M 269.92480,274.11691 C 269.92480,272.83553 270.63286,272.83553 271.42480,274.11691 C 271.76472,274.66692 271.56628,275.11691 270.98382,275.11691 C 270.40136,275.11691 269.92480,274.66692 269.92480,274.11691 z M 272.27213,271.57966 C 271.59129,269.80542 274.72894,265.87783 276.13365,266.74599 C 276.65151,267.06605 276.13725,268.32632 274.99086,269.54660 C 273.84447,270.76688 273.21062,272.06941 273.58232,272.44110 C 273.95402,272.81279 273.94401,273.11691 273.56008,273.11691 C 273.17615,273.11691 272.59658,272.42516 272.27213,271.57966 z M 278.65397,267.51274 C 278.25292,267.11171 277.92480,266.09359 277.92480,265.25024 C 277.92480,264.12466 278.22063,264.01274 279.03730,264.82942 C 279.64918,265.44129 279.97730,266.45942 279.76647,267.09191 C 279.55563,267.72442 279.05501,267.91379 278.65397,267.51274 z M 280.81411,263.36691 C 280.55054,261.58107 281.15390,257.55686 281.78475,256.89297 C 282.16311,256.49481 282.30214,257.95731 282.09371,260.14297 C 281.75306,263.71500 281.10606,265.34510 280.81411,263.36691 z M 285.06312,254.45024 C 286.46033,252.76671 286.92480,252.76671 286.92480,254.45024 C 286.92480,255.18358 286.25694,255.78359 285.44068,255.78359 C 284.31729,255.78359 284.22552,255.45949 285.06312,254.45024 z M 289.42480,250.11691 C 289.08488,249.56691 289.28332,249.11691 289.86578,249.11691 C 290.44824,249.11691 290.92480,249.56691 290.92480,250.11691 C 290.92480,251.39830 290.21674,251.39830 289.42480,250.11691 z M 305.74727,249.73736 C 302.44922,248.12385 299.33462,241.53296 300.95024,239.58627 C 301.91465,238.42421 301.90253,238.11691 300.89226,238.11691 C 299.99332,238.11691 300.10519,237.57507 301.26981,236.28818 C 302.18006,235.28237 302.93848,233.59487 302.95521,232.53818 C 302.98020,230.95906 303.14222,230.88404 303.86499,232.11691 C 304.34865,232.94191 304.67246,233.90717 304.58458,234.26193 C 304.49670,234.61669 305.25286,235.82193 306.26493,236.94026 C 307.39135,238.18494 307.86738,239.72245 307.49226,240.90438 C 306.64033,243.58854 307.80206,246.11691 309.88730,246.11691 C 310.88292,246.11691 314.35719,242.65516 317.95586,238.07740 C 321.63871,233.39257 324.89831,230.15869 325.76749,230.32740 C 329.26866,231.00698 328.55197,232.28850 315.35054,248.95435 C 314.38521,250.17302 307.74449,250.71447 305.74727,249.73736 z M 307.65813,224.99283 C 308.33647,224.30940 309.14337,224.00216 309.45126,224.31004 C 309.75915,224.61793 309.20415,225.17709 308.21793,225.55263 C 306.79273,226.09530 306.67787,225.98045 307.65813,224.99283 z M 311.43488,222.13323 C 311.08942,221.57425 311.50832,221.11691 312.36578,221.11691 C 314.12231,221.11691 314.38094,221.71698 312.99390,222.57420 C 312.48190,222.89064 311.78034,222.69219 311.43488,222.13323 z M 337.51197,365.07366 C 337.60399,362.34744 337.36134,360.11691 336.97274,360.11691 C 336.58414,360.11691 336.21160,357.07941 336.14487,353.36691 C 336.00243,345.44245 333.93031,333.99547 332.76827,334.71366 C 331.39120,335.56473 333.53599,362.80480 335.13899,364.82312 C 335.66588,365.48651 335.83178,366.45841 335.50765,366.98286 C 334.79303,368.13913 335.93057,371.44448 336.75826,370.61678 C 337.08077,370.29428 337.41994,367.79986 337.51197,365.07366 z M 295.92480,368.05790 C 295.92480,367.47543 295.47480,367.27699 294.92480,367.61691 C 293.64342,368.40886 293.64342,369.11691 294.92480,369.11691 C 295.47480,369.11691 295.92480,368.64035 295.92480,368.05790 z M 496.89300,346.67579 C 496.91049,346.15816 496.26411,346.60816 495.45660,347.67579 C 494.64910,348.74340 493.97410,350.04043 493.95660,350.55804 C 493.93911,351.07567 494.58549,350.62567 495.39300,349.55804 C 496.20050,348.49043 496.87550,347.19340 496.89300,346.67579 z M 631.75470,339.61349 C 631.44726,339.30604 630.40551,340.30604 629.43970,341.83571 L 627.68369,344.61691 L 629.99869,342.39470 C 631.27194,341.17248 632.06215,339.92092 631.75470,339.61349 z M 635.02866,335.83172 C 635.91079,335.15985 637.56540,332.78156 638.70557,330.54663 C 639.84575,328.31171 641.48651,325.89562 642.35171,325.17757 C 643.21691,324.45952 643.92480,323.39362 643.92480,322.80892 C 643.92480,322.22422 644.87302,320.73649 646.03196,319.50284 C 647.19090,318.26922 647.96937,316.75061 647.76189,316.12817 C 647.55441,315.50574 645.36869,318.05205 642.90473,321.78665 C 640.44077,325.52123 636.96527,330.49833 635.18141,332.84686 C 631.97466,337.06865 631.91667,338.20197 635.02866,335.83172 z M 213.11300,291.67858 C 212.94021,290.08967 213.38605,288.44044 214.11300,287.97943 C 215.12500,287.33767 215.05659,287.14404 213.81365,287.13222 C 212.54781,287.12019 211.74208,284.59856 210.05430,275.36691 C 206.85346,257.85926 206.72793,259.07667 212.03533,256.15498 C 218.70466,252.48356 218.26892,252.93777 241.81115,225.11691 C 253.67922,211.09191 264.66234,198.20371 266.21810,196.47649 C 269.23750,193.12428 271.20866,193.01596 275.76014,195.95220 C 277.76775,197.24734 278.22157,197.25936 278.99389,196.03784 C 280.24741,194.05525 279.92802,193.43850 274.35692,187.08392 C 271.19997,183.48300 265.28572,178.80269 257.92480,174.08020 C 251.59980,170.02231 240.66333,162.95878 233.62153,158.38347 C 226.57973,153.80816 220.47420,150.27736 220.05368,150.53726 C 219.63317,150.79715 218.67517,150.15799 217.92480,149.11691 C 217.17443,148.07584 216.22486,147.43146 215.81464,147.68500 C 215.40442,147.93853 214.78603,147.25506 214.44043,146.16617 C 213.62810,143.60674 208.17668,142.54865 203.59423,144.06099 C 199.76933,145.32332 195.57956,149.58925 179.92480,168.16066 C 174.14980,175.01159 164.90041,185.79192 159.37059,192.11691 C 153.84078,198.44191 144.48128,210.34109 138.57171,218.55953 C 129.12150,231.70195 127.86305,233.92856 128.12592,237.04162 C 128.41140,240.42237 128.65449,240.63185 133.54710,241.71309 C 136.36436,242.33571 140.63936,244.25326 143.04710,245.97435 C 157.55637,256.34581 167.71647,263.27188 177.42480,269.40944 C 189.60624,277.11047 195.37377,281.48357 204.19225,289.70524 C 210.69790,295.77060 213.62849,296.41888 213.11300,291.67858 z M 155.13363,215.86691 C 153.91923,213.44700 153.61988,211.79840 153.80632,208.55714 C 153.92189,206.54805 157.56438,201.81950 168.39631,189.61691 C 171.32563,186.31691 175.61891,181.36691 177.93693,178.61691 C 180.25494,175.86691 183.90049,171.85930 186.03815,169.71111 C 188.17581,167.56292 189.92480,165.46214 189.92480,165.04272 C 189.92480,164.62328 191.65151,162.48295 193.76193,160.28642 C 195.87235,158.08990 198.71315,154.96873 200.07480,153.35050 C 202.86290,150.03702 206.28523,147.66640 209.80003,146.61390 C 211.53269,146.09506 211.97238,146.23090 211.42534,147.11604 C 211.01288,147.78341 210.71713,150.40759 210.76811,152.94754 C 210.81910,155.48748 210.27417,158.47717 209.55717,159.59127 C 206.77891,163.90823 206.94154,165.98507 210.26131,168.58318 L 213.41093,171.04811 L 217.09732,167.44845 C 219.43670,165.16410 221.35758,164.06901 222.35425,164.45147 C 224.59939,165.31300 224.32469,166.39938 220.89276,170.23140 C 219.22514,172.09343 215.54657,176.42941 212.71816,179.86691 C 209.88974,183.30441 206.96504,186.11691 206.21881,186.11691 C 203.45712,186.11691 203.75849,183.07036 206.87084,179.52559 C 210.49864,175.39375 210.42320,174.31182 206.35761,172.16533 C 201.80278,169.76054 199.83868,169.73022 199.23067,172.05528 C 198.93415,173.18917 198.06902,174.11691 197.30817,174.11691 C 196.54732,174.11691 195.92480,174.79192 195.92480,175.61691 C 195.92480,176.44191 195.25109,177.11691 194.42767,177.11691 C 193.60425,177.11691 192.25250,178.57942 191.42379,180.36691 C 189.97250,183.49731 189.93048,183.51570 190.28225,180.86691 C 190.48311,179.35442 190.25986,178.11691 189.78613,178.11691 C 189.31240,178.11691 188.92480,178.71587 188.92480,179.44793 C 188.92480,180.18000 187.85420,181.35192 186.54569,182.05222 C 184.86545,182.95145 184.29975,183.95579 184.61991,185.47119 C 185.07077,187.60523 185.06402,187.60603 183.37905,185.61691 C 181.73948,183.68139 181.70196,183.73251 182.21532,187.20274 C 182.79897,191.14819 181.76581,193.75472 180.04086,192.68864 C 179.40433,192.29524 178.41959,193.13161 177.72537,194.65527 C 176.64615,197.02391 176.44008,197.10983 175.79140,195.46165 C 175.16596,193.87251 175.05563,193.94191 174.99509,195.96254 C 174.95643,197.25265 173.91620,199.72462 172.68346,201.45584 L 170.44212,204.60352 L 169.80178,201.61022 L 169.16143,198.61691 L 169.04311,201.36691 C 168.97337,202.98809 168.41169,204.01429 167.67480,203.86691 C 166.95344,203.72264 166.39829,204.67421 166.36211,206.11691 C 166.32754,207.49535 165.76676,208.50476 165.11211,208.36691 C 164.45909,208.22942 163.92480,208.56691 163.92480,209.11691 C 163.92480,209.66692 162.97168,211.07004 161.80677,212.23495 C 160.09688,213.94484 159.52173,214.08937 158.82208,212.98495 C 158.22932,212.04926 157.95059,212.64401 157.94012,214.86691 C 157.92229,218.64967 156.74130,219.07049 155.13363,215.86691 z M 172.92480,198.11691 C 172.92480,197.56691 172.47480,197.11691 171.92480,197.11691 C 171.37480,197.11691 170.92480,197.56691 170.92480,198.11691 C 170.92480,198.66692 171.37480,199.11691 171.92480,199.11691 C 172.47480,199.11691 172.92480,198.66692 172.92480,198.11691 z M 187.41772,176.12836 C 187.76806,175.56150 187.36666,175.39386 186.47674,175.73535 C 184.74432,176.40014 184.42735,177.11691 185.86578,177.11691 C 186.38332,177.11691 187.08170,176.67206 187.41772,176.12836 z M 226.17480,284.70024 C 226.31230,284.19609 225.86230,283.59609 225.17480,283.36691 C 224.48730,283.13774 223.92480,283.70024 223.92480,284.61691 C 223.92480,286.31027 225.71759,286.37666 226.17480,284.70024 z M 225.31216,275.82871 C 224.42639,272.05953 224.29044,271.28476 224.04671,268.61691 C 223.89125,266.91532 223.72730,266.85051 222.94789,268.18252 C 222.37837,269.15584 222.47465,272.07835 223.20240,275.90778 C 224.01908,280.20511 224.62907,281.60984 225.21996,280.55398 C 225.68580,279.72158 225.72728,277.59521 225.31216,275.82871 z M 516.92480,265.50992 C 516.92480,265.29377 515.99824,265.11691 514.86578,265.11691 C 513.73332,265.11691 513.07273,265.54727 513.39781,266.07325 C 513.93142,266.93664 516.92480,266.45856 516.92480,265.50992 z M 522.02860,256.82071 C 520.74511,255.53723 519.44355,256.52922 520.39376,258.06669 C 520.76184,258.66226 521.52111,258.86640 522.08103,258.52035 C 522.76403,258.09824 522.74678,257.53890 522.02860,256.82071 z M 68.124797,239.91692 C 67.483130,239.27525 66.626163,239.08222 66.220424,239.48795 C 65.814685,239.89369 66.131653,240.62672 66.924797,241.11691 C 68.792388,242.27115 69.635710,241.42782 68.124797,239.91692 z M 238.30636,233.56497 C 238.64785,232.67506 238.48021,232.27366 237.91335,232.62400 C 237.36965,232.96001 236.92480,233.65840 236.92480,234.17593 C 236.92480,235.61437 237.64157,235.29739 238.30636,233.56497 z M 544.92480,221.99721 C 544.92480,221.28859 544.28064,221.58631 543.45660,222.67579 C 541.53008,225.22289 541.50789,226.67669 543.42480,224.75977 C 544.24980,223.93477 544.92480,222.69163 544.92480,221.99721 z M 248.42480,222.11691 C 247.63286,220.83553 246.92480,220.83553 246.92480,222.11691 C 246.92480,222.66692 247.40136,223.11691 247.98382,223.11691 C 248.56628,223.11691 248.76472,222.66692 248.42480,222.11691 z M 643.92480,205.05790 C 643.92480,204.54035 643.47480,204.11691 642.92480,204.11691 C 642.37480,204.11691 641.92480,204.81848 641.92480,205.67593 C 641.92480,206.53340 642.37480,206.95684 642.92480,206.61691 C 643.47480,206.27699 643.92480,205.57543 643.92480,205.05790 z M 646.36004,198.22169 C 646.66434,197.72933 646.26381,197.07724 645.46998,196.77262 C 644.50721,196.40318 644.21180,196.70123 644.58272,197.66784 C 645.22732,199.34766 645.59361,199.46181 646.36004,198.22169 z M 280.34731,162.45991 C 280.49865,159.79626 280.05836,155.14192 279.36887,152.11691 C 278.67938,149.09191 277.57957,143.98224 276.92485,140.76209 C 275.01373,131.36250 273.71496,135.28404 274.96129,146.69094 C 276.66157,162.25251 276.71049,162.55244 278.01522,165.41601 C 279.60403,168.90308 280.01048,168.38789 280.34731,162.45991 z M 678.92480,144.55789 C 678.92480,143.70043 678.47480,143.27699 677.92480,143.61691 C 676.63089,144.41659 676.63089,146.11691 677.92480,146.11691 C 678.47480,146.11691 678.92480,145.41535 678.92480,144.55789 z M 283.14306,137.36691 C 283.88315,136.46580 283.74938,136.11691 282.66382,136.11691 C 281.05704,136.11691 279.65556,140.91159 280.76554,142.61122 C 281.12677,143.16435 281.57850,142.49191 281.76938,141.11691 C 281.96026,139.74191 282.57842,138.05441 283.14306,137.36691 z M 275.59147,131.11691 C 275.59147,129.46691 275.21647,128.11691 274.75813,128.11691 C 274.29980,128.11691 273.92480,129.46691 273.92480,131.11691 C 273.92480,132.76692 274.29980,134.11691 274.75813,134.11691 C 275.21647,134.11691 275.59147,132.76692 275.59147,131.11691 z M 285.42480,133.11691 C 285.76472,132.56691 285.34128,132.11691 284.48382,132.11691 C 283.62636,132.11691 282.92480,132.56691 282.92480,133.11691 C 282.92480,134.41082 284.62512,134.41082 285.42480,133.11691 z M 285.77558,129.01909 C 289.25990,127.80445 289.53718,126.81214 287.42480,123.11691 C 285.29460,119.39052 285.60975,118.12097 288.67480,118.08148 L 291.42480,118.04604 L 289.03970,116.72399 C 286.29567,115.20299 287.73459,113.60438 290.93375,114.61975 C 293.72971,115.50716 297.18487,114.23704 296.54080,112.55860 C 296.25004,111.80090 296.44249,110.91500 296.96847,110.58992 C 298.72688,109.50317 297.95034,107.87697 295.92580,108.40640 C 294.82634,108.69392 293.71669,108.58921 293.45990,108.17371 C 292.89938,107.26677 297.47819,103.11691 299.03939,103.11691 C 299.64406,103.11691 299.87269,102.42350 299.54747,101.57600 C 299.09276,100.39104 299.33185,100.24533 300.58252,100.94524 C 302.24279,101.87437 305.92537,101.39526 305.92409,100.25028 C 305.92371,99.901933 304.73992,99.548363 303.29346,99.464573 C 301.84701,99.380783 300.30957,98.739493 299.87694,98.039483 C 299.00091,96.622033 298.64762,96.997823 287.11264,111.61691 C 283.20691,116.56691 279.26944,121.37468 278.36270,122.30083 C 277.45596,123.22699 276.95096,124.57699 277.24049,125.30083 C 277.54593,126.06445 277.80005,126.14202 277.84585,125.48560 C 277.88927,124.86338 279.49226,123.15873 281.40804,121.69750 C 283.32382,120.23626 284.64796,119.67478 284.35057,120.44977 C 284.04695,121.24098 284.60241,122.17858 285.61733,122.58803 C 287.25019,123.24679 287.20123,123.40335 285.11056,124.20862 C 283.83772,124.69888 283.07874,125.55698 283.42394,126.11552 C 283.76913,126.67406 283.35063,127.40002 282.49393,127.72876 C 281.63722,128.05751 281.18526,128.72933 281.48956,129.22170 C 282.17506,130.33086 281.98716,130.33974 285.77558,129.01909 z M 292.44861,112.49787 C 290.56191,110.61117 290.93747,109.80081 293.28167,110.70036 C 294.18539,111.04715 294.92480,111.95775 294.92480,112.72390 C 294.92480,114.52510 294.43075,114.48000 292.44861,112.49787 z M 291.45126,119.31004 C 291.14337,119.00216 290.33647,119.30941 289.65813,119.99283 C 288.67787,120.98044 288.79273,121.09531 290.21793,120.55262 C 291.20415,120.17709 291.75915,119.61793 291.45126,119.31004 z M 308.23632,94.486333 C 307.92304,93.669933 307.04978,93.238713 306.29576,93.528063 C 304.19940,94.332513 304.66029,92.659183 307.26660,90.003283 C 308.55459,88.690783 309.88286,86.491913 310.21831,85.116913 C 310.77691,82.827243 310.57132,82.911363 307.77451,86.116913 C 306.09497,88.041923 303.60355,90.854423 302.23803,92.366913 C 300.87251,93.879413 300.24341,95.116913 300.84003,95.116913 C 302.67121,95.116913 303.37253,95.421793 304.78075,96.830003 C 306.46975,98.519003 309.09940,96.735493 308.23632,94.486333 z M 412.66534,94.366913 C 412.67263,92.304413 412.97217,87.614113 413.33096,83.944023 C 413.74182,79.741433 413.60229,77.035633 412.95406,76.635003 C 411.31514,75.622093 411.76318,73.840923 413.49019,74.503633 C 414.66868,74.955863 414.90847,74.640843 414.46039,73.229053 C 414.06358,71.978803 414.45841,71.125233 415.64500,70.668093 C 417.31427,70.025003 417.30390,69.914573 415.47806,68.889883 C 414.04485,68.085533 413.42935,68.103273 413.14473,68.957133 C 412.44855,71.045663 411.42776,70.174023 411.28239,67.366913 C 411.20407,65.854413 410.91420,62.622173 410.63824,60.184143 C 410.19973,56.310053 410.49035,55.397523 412.94411,52.943763 C 414.48830,51.399573 415.91175,49.656073 416.10734,49.069303 C 416.49433,47.908323 419.92480,48.841073 419.92480,50.107273 C 419.92480,50.534283 418.95080,51.138363 417.76035,51.449673 C 415.93216,51.927753 415.79583,52.256593 416.88279,53.566303 C 417.98262,54.891513 417.82482,55.127133 415.79724,55.187203 C 413.57893,55.252923 413.55474,55.313323 415.42480,56.116913 C 416.77211,56.695883 416.93529,57.004283 415.92480,57.061943 C 414.59147,57.138033 414.59147,57.258983 415.92480,58.150523 C 417.23305,59.025293 417.20109,59.285353 415.67480,60.184903 C 414.71230,60.752173 413.92480,61.670493 413.92480,62.225623 C 413.92480,62.780753 414.37480,62.956833 414.92480,62.616913 C 415.47480,62.277003 415.92480,62.437943 415.92480,62.974573 C 415.92480,63.511193 415.36230,64.156503 414.67480,64.408583 C 413.68118,64.772913 413.68683,65.144323 414.70232,66.219443 C 416.63714,68.267843 418.90923,66.290953 420.58863,61.097913 C 421.38566,58.633363 422.30879,55.941913 422.64004,55.116913 C 422.97129,54.291913 423.14712,53.208153 423.03077,52.708563 C 422.91442,52.208963 423.40548,51.421463 424.12201,50.958563 C 425.16858,50.282443 425.12979,49.923253 423.92480,49.132233 C 422.62903,48.281613 422.65405,48.145463 424.10858,48.132233 C 425.35639,48.120883 425.67498,47.469613 425.33902,45.616913 C 424.84989,42.919523 425.80627,42.398393 427.72480,44.316913 C 428.65813,45.250253 428.92480,45.055133 428.92480,43.438893 C 428.92480,42.295973 427.91230,40.673883 426.67480,39.834243 C 424.83379,38.585123 424.65797,38.066213 425.70755,36.979523 C 426.76673,35.882893 427.09207,36.040573 427.57418,37.884173 C 427.89532,39.112183 428.55558,40.116913 429.04143,40.116913 C 430.41621,40.116913 430.08233,38.492543 428.42480,37.116923 C 427.59980,36.432233 426.92480,35.171083 426.92480,34.314373 C 426.92480,33.307743 425.85414,33.955923 423.89831,36.146593 C 422.23374,38.011033 421.10359,40.140443 421.38686,40.878633 C 421.67013,41.616823 421.47682,41.958083 420.95728,41.636993 C 420.43774,41.315903 419.22145,42.305023 418.25441,43.835053 C 417.28738,45.365083 414.61137,48.866913 412.30774,51.616913 L 408.11932,56.616913 L 408.65644,75.116913 C 409.17423,92.951053 409.87212,98.116913 411.76369,98.116913 C 412.25230,98.116913 412.65804,96.429413 412.66534,94.366913 z M 312.96053,87.756633 C 312.10386,86.902963 311.33399,87.244363 309.89304,89.116913 C 307.57305,92.131813 307.39245,93.535183 309.42480,92.755293 C 310.24980,92.438713 310.94282,92.728063 310.96484,93.398303 C 310.98686,94.068543 311.70223,93.329793 312.55456,91.756633 C 313.71720,89.610713 313.81859,88.611713 312.96053,87.756633 z M 311.00375,89.700253 C 310.96033,88.646083 311.19667,88.055463 311.52897,88.387753 C 311.86126,88.720043 311.89678,89.582543 311.60791,90.304413 C 311.28869,91.102153 311.05173,90.865193 311.00375,89.700253 z M 316.21455,84.116913 C 315.84841,82.716813 316.18387,82.116913 317.33292,82.116913 C 319.41250,82.116913 321.43351,77.225633 319.96196,75.754083 C 319.24575,75.037863 318.92480,75.220523 318.92480,76.344333 C 318.92480,77.239423 317.79980,78.856683 316.42480,79.938253 C 313.99005,81.853433 313.24242,84.101203 314.59147,85.450253 C 315.90247,86.761253 316.72859,86.082613 316.21455,84.116913 z M 628.58346,508.36695 C 630.10170,506.30445 631.49907,504.40495 631.68872,504.14595 C 631.87838,503.88685 632.43461,504.32385 632.92480,505.11695 C 634.19688,507.17525 635.31159,505.63055 634.10723,503.47845 C 633.33145,502.09225 633.68442,501.00695 635.67656,498.65345 C 637.09020,496.98335 638.57162,495.71185 638.96861,495.82785 C 639.36561,495.94395 639.95691,494.70645 640.28261,493.07785 C 640.60832,491.44935 641.36261,490.11695 641.95882,490.11695 C 642.55503,490.11695 642.76472,490.56695 642.42480,491.11695 C 642.08488,491.66695 642.33147,492.11695 642.97277,492.11695 C 643.61407,492.11695 643.87771,491.43665 643.55863,490.60515 C 642.79886,488.62515 644.92514,483.99915 646.22554,484.80285 C 646.78009,485.14555 646.94171,484.95335 646.58470,484.37565 C 646.22768,483.79805 647.94020,480.46595 650.39030,476.97115 C 652.84039,473.47635 656.17970,468.36695 657.81098,465.61691 C 659.44226,462.86691 661.82271,459.38781 663.10087,457.88561 C 664.37903,456.38331 666.23331,454.02081 667.22148,452.63561 C 669.69072,449.17411 670.98440,449.47991 670.31561,453.36691 C 669.93905,455.55541 670.06506,456.18131 670.70144,455.28311 C 671.46925,454.19931 671.76045,454.24621 672.25425,455.53311 C 672.58853,456.40421 673.93141,457.11691 675.23843,457.11691 C 678.64372,457.11691 681.31813,460.41361 680.51352,463.61941 C 680.15695,465.04021 679.20261,466.45681 678.39276,466.76761 C 675.64639,467.82155 671.87836,466.12301 670.78645,463.33901 L 669.71883,460.61691 L 668.82349,462.94951 C 667.67162,465.95041 668.64968,470.02455 671.19542,472.82975 C 673.09539,474.92335 673.11401,475.17925 671.54112,477.57975 C 670.62679,478.97525 669.42461,480.11695 668.86963,480.11695 C 666.53158,480.11695 660.92480,477.11215 660.92480,475.85915 C 660.92480,475.11115 660.32015,473.67235 659.58113,472.66165 C 658.30409,470.91515 658.24523,470.92945 658.39409,472.95015 C 658.48024,474.11945 658.86087,475.38635 659.23994,475.76545 C 660.09424,476.61975 656.94322,480.24635 655.90446,479.60435 C 655.49028,479.34845 654.56686,479.84335 653.85241,480.70415 C 652.77999,481.99635 652.80383,482.42785 653.98910,483.17785 C 655.09817,483.87965 654.91291,484.08985 653.17480,484.10165 C 651.69109,484.11175 650.92480,484.72235 650.92480,485.89445 C 650.92480,486.87205 650.22428,488.67205 649.36810,489.89445 C 648.51191,491.11685 648.11701,492.11695 648.49054,492.11695 C 648.86407,492.11695 648.68552,492.70035 648.09376,493.41335 C 646.44699,495.39765 647.37829,500.25605 649.77788,502.19905 C 653.89646,505.53415 651.31574,510.61695 645.50387,510.61695 C 643.53570,510.61695 641.92526,510.27945 641.92509,509.86695 C 641.92493,509.45445 641.42666,509.11695 640.81781,509.11695 C 640.20897,509.11695 639.96777,509.78655 640.28182,510.60495 C 640.90945,512.24055 638.88981,512.24985 637.69011,510.61695 C 637.23512,509.99765 636.94960,510.09285 636.94011,510.86695 C 636.92972,511.71495 635.13979,512.11695 631.37391,512.11695 L 625.82302,512.11695 L 628.58346,508.36695 z M 641.92480,505.05795 C 641.92480,504.47545 641.47480,504.27705 640.92480,504.61695 C 639.64342,505.40895 639.64342,506.11695 640.92480,506.11695 C 641.47480,506.11695 641.92480,505.64035 641.92480,505.05795 z M 642.92480,499.55795 C 642.92480,499.31535 642.47480,499.11695 641.92480,499.11695 C 641.37480,499.11695 640.92480,499.59355 640.92480,500.17595 C 640.92480,500.75845 641.37480,500.95685 641.92480,500.61695 C 642.47480,500.27705 642.92480,499.80045 642.92480,499.55795 z M 662.52897,471.38775 C 662.19668,471.05545 661.96033,471.64615 662.00375,472.70025 C 662.05173,473.86525 662.28869,474.10215 662.60791,473.30445 C 662.89678,472.58255 662.86126,471.72005 662.52897,471.38775 z M 666.52897,466.38771 C 665.51245,465.37121 664.67372,466.90161 665.50775,468.25115 C 666.13778,469.27055 666.37333,469.27135 666.71205,468.25525 C 666.94365,467.56045 666.86126,466.72001 666.52897,466.38771 z M 667.92480,459.05791 C 667.92480,458.47541 667.47480,458.27701 666.92480,458.61691 C 665.64342,459.40891 665.64342,460.11691 666.92480,460.11691 C 667.47480,460.11691 667.92480,459.64031 667.92480,459.05791 z M 647.92480,496.17595 C 647.92480,495.59355 648.37480,495.11695 648.92480,495.11695 C 650.20618,495.11695 650.20618,495.82505 648.92480,496.61695 C 648.37480,496.95685 647.92480,496.75845 647.92480,496.17595 z M 655.92480,481.11695 C 657.88317,479.85135 659.20698,479.85135 658.42480,481.11695 C 658.08488,481.66695 657.04582,482.11005 656.11578,482.10165 C 654.65851,482.08845 654.63211,481.95235 655.92480,481.11695 z M 242.92480,443.17593 C 242.92480,442.59348 243.37480,442.11691 243.92480,442.11691 C 245.20618,442.11691 245.20618,442.82497 243.92480,443.61691 C 243.37480,443.95684 242.92480,443.75839 242.92480,443.17593 z M 499.82712,440.15465 C 499.52801,439.35041 499.48305,437.64746 499.72719,436.37034 C 500.13817,434.22043 500.33484,434.15557 502.37984,435.49549 C 503.92472,436.50774 505.01483,436.63999 506.00670,435.93549 C 507.15714,435.11836 507.11012,435.02850 505.75756,435.45945 C 504.80095,435.76422 503.84193,435.34334 503.50756,434.47199 C 502.66647,432.28015 502.79140,429.11691 503.71904,429.11691 C 504.98805,429.11691 512.46429,421.79491 513.21692,419.81497 C 513.62942,418.72982 513.50867,418.25606 512.91335,418.62399 C 512.36965,418.96001 511.92480,418.81087 511.92480,418.29257 C 511.92480,417.77425 512.86035,417.10552 514.00379,416.80651 C 515.64575,416.37712 515.94318,416.61538 515.41871,417.93988 C 515.05348,418.86225 514.51050,421.07047 514.21210,422.84706 C 513.91370,424.62363 513.25728,425.82240 512.75338,425.51096 C 511.26485,424.59102 509.09094,427.03622 509.61515,429.04082 C 509.88129,430.05853 509.60983,431.19355 509.01192,431.56308 C 508.36354,431.96379 507.92480,431.40397 507.92480,430.17593 C 507.92480,427.29564 506.06953,427.60606 504.90005,430.68201 C 503.51181,434.33337 503.58325,434.43522 507.04674,433.74252 C 509.45940,433.25999 509.94511,433.40199 509.18462,434.36752 C 508.64340,435.05469 507.85804,436.96692 507.43939,438.61691 C 507.02074,440.26691 506.47962,441.07970 506.23690,440.42309 C 505.99418,439.76648 505.14966,439.47714 504.36019,439.78008 C 503.47997,440.11786 502.92480,439.70934 502.92480,438.72390 C 502.92480,436.27845 501.11169,436.80662 500.71742,439.36691 C 500.47946,440.91217 500.20060,441.15890 499.82712,440.15465 z M 510.94011,433.92593 C 510.93169,432.99590 511.37480,431.95684 511.92480,431.61691 C 513.19040,430.83474 513.19040,432.15854 511.92480,434.11691 C 511.08940,435.40960 510.95331,435.38321 510.94011,433.92593 z M 253.67523,427.36401 C 253.90718,425.78357 254.95823,423.95261 256.01089,423.29523 C 258.74373,421.58853 258.49522,423.83193 255.55318,427.42723 L 253.25348,430.23755 L 253.67523,427.36401 z M 515.42480,425.44304 C 516.87429,424.24558 517.10358,417.03726 515.74429,415.39940 C 514.84149,414.31160 514.89906,414.07161 516.00553,414.31049 C 516.78613,414.47902 517.43211,413.90517 517.44104,413.03528 C 517.44997,412.16537 518.13164,410.43799 518.95586,409.19666 L 520.45443,406.93968 L 522.43534,409.12856 C 523.93509,410.78577 524.05294,411.26431 522.92053,411.09870 C 520.33762,410.72095 518.92480,411.08098 518.92480,412.11691 C 518.92480,412.66692 519.26230,413.06362 519.67480,412.99849 C 521.81516,412.66055 522.03697,413.29518 520.32781,414.86691 C 519.28115,415.82941 518.36412,417.51691 518.28995,418.61691 C 517.98764,423.10039 517.16647,425.53152 515.83321,425.89024 C 514.97925,426.12000 514.81847,425.94396 515.42480,425.44304 z M 548.37480,409.20879 C 547.02915,407.92246 540.74479,404.20017 538.74397,403.50436 C 536.48489,402.71873 535.70967,400.38742 536.94189,398.08499 C 537.49734,397.04710 537.83323,395.61721 537.68830,394.90742 C 537.54338,394.19765 537.98730,393.72942 538.67480,393.86691 C 539.36230,394.00441 539.92480,393.21692 539.92480,392.11691 C 539.92480,391.01691 540.40136,390.11691 540.98382,390.11691 C 541.56628,390.11691 541.81538,389.74889 541.53738,389.29906 C 541.25938,388.84926 541.91949,387.84150 543.00429,387.05961 C 544.08910,386.27773 545.43091,383.95107 545.98610,381.88925 C 546.54129,379.82743 547.31712,378.20663 547.71017,378.28746 C 548.10322,378.36829 549.27347,378.06637 550.31072,377.61653 C 552.27461,376.76481 555.02698,377.92345 555.67778,379.87585 C 555.88239,380.48968 555.12167,381.92005 553.98730,383.05441 C 552.85293,384.18878 551.92480,385.58591 551.92480,386.15913 C 551.92480,386.73233 551.46943,387.74484 550.91286,388.40913 C 546.64626,393.50150 543.92480,397.65044 543.92480,399.06259 C 543.92480,399.98145 545.71416,402.05709 547.90116,403.67509 C 550.08816,405.29309 551.88816,407.40442 551.90116,408.36691 C 551.92640,410.23529 549.94378,410.70861 548.37480,409.20879 z M 524.23376,408.28253 C 523.62504,407.89143 523.52493,406.79207 523.99101,405.61691 C 524.78423,403.61691 524.78423,403.61691 524.86983,405.61691 C 524.93939,407.24234 525.12913,407.34226 525.88291,406.15046 C 526.47087,405.22082 526.42044,404.21413 525.74515,403.40046 C 524.93502,402.42430 525.18820,402.11691 526.80236,402.11691 C 527.96970,402.11691 528.92480,402.60843 528.92480,403.20918 C 528.92480,405.08557 525.32215,408.98180 524.23376,408.28253 z M 525.92480,400.08553 C 525.92480,399.55279 526.59980,399.11691 527.42480,399.11691 C 529.34547,399.11691 529.34547,399.74151 527.42480,400.47854 C 526.59980,400.79512 525.92480,400.61826 525.92480,400.08553 z M 533.72287,398.58164 C 532.62044,397.47922 534.03108,395.11592 535.78179,395.13222 C 536.81537,395.14186 537.01676,395.42005 536.32474,395.88222 C 535.71971,396.28631 535.03534,397.20753 534.80391,397.92941 C 534.57248,398.65129 534.08601,398.94479 533.72287,398.58164 z M 533.38941,392.00540 C 532.96152,390.65724 533.29868,389.31446 534.32202,388.29113 C 535.79239,386.82076 535.92480,386.99518 535.92480,390.40262 C 535.92480,394.45015 534.45936,395.37653 533.38941,392.00540 z M 541.92480,378.58553 C 541.92480,377.74326 542.59722,376.79611 543.41906,376.48075 C 544.24090,376.16537 544.62137,375.43497 544.26455,374.85762 C 543.89352,374.25729 544.09389,374.10338 544.73258,374.49811 C 545.55450,375.00608 545.55291,375.83902 544.72658,377.65262 C 543.47011,380.41028 541.92480,380.92480 541.92480,378.58553 z M 300.92480,368.11691 C 300.92480,366.83553 301.63286,366.83553 302.42480,368.11691 C 302.76472,368.66692 302.56628,369.11691 301.98382,369.11691 C 301.40136,369.11691 300.92480,368.66692 300.92480,368.11691 z M 509.03712,282.84440 C 510.69547,279.65607 510.92480,279.53445 510.92480,281.84325 C 510.92480,282.97609 510.23939,284.16595 509.40166,284.48743 C 508.12148,284.97867 508.06333,284.71659 509.03712,282.84440 z M 595.33999,269.72902 C 590.37169,267.51184 587.92480,263.59672 587.92480,257.86441 C 587.92480,253.42419 588.34048,252.46593 591.74230,249.06412 C 598.16121,242.64521 605.42020,242.50029 610.84841,248.68269 C 619.73652,258.80570 607.64202,275.21902 595.33999,269.72902 z M 606.77456,264.58988 C 612.49585,259.77573 611.77065,251.21123 605.46552,249.13035 C 600.27095,247.41599 595.33371,250.31771 593.33447,256.26001 C 590.46195,264.79796 599.71316,270.53165 606.77456,264.58988 z M 513.92480,260.67593 C 513.92480,260.43340 514.37480,259.95684 514.92480,259.61691 C 515.47480,259.27699 515.92480,259.47543 515.92480,260.05790 C 515.92480,260.64035 515.47480,261.11691 514.92480,261.11691 C 514.37480,261.11691 513.92480,260.91847 513.92480,260.67593 z M 517.43608,251.74004 C 518.38139,250.29732 519.34390,249.11691 519.57499,249.11691 C 520.29837,249.11691 517.97009,252.97088 516.81570,253.68434 C 516.21160,254.05769 516.49078,253.18276 517.43608,251.74004 z M 697.63409,233.34030 C 696.09919,232.39244 694.58301,230.58490 694.26479,229.32354 C 693.45423,226.11063 696.39763,218.99616 699.94255,215.59991 L 702.92480,212.74274 L 702.92480,216.02210 C 702.92480,217.82574 702.02480,220.44562 700.92480,221.84404 C 698.25430,225.23903 698.25430,230.12882 700.92480,230.82717 C 703.08424,231.39188 703.74264,235.13432 701.67480,235.09030 C 700.98730,235.07568 699.16898,234.28818 697.63409,233.34030 z M 642.00375,211.70024 C 641.96033,210.64608 642.19668,210.05545 642.52897,210.38774 C 642.86126,210.72005 642.89678,211.58253 642.60791,212.30441 C 642.28869,213.10214 642.05173,212.86519 642.00375,211.70024 z M 388.92480,211.11691 C 388.92480,210.56691 389.37480,210.11691 389.92480,210.11691 C 390.47480,210.11691 390.92480,210.56691 390.92480,211.11691 C 390.92480,211.66692 390.47480,212.11691 389.92480,212.11691 C 389.37480,212.11691 388.92480,211.66692 388.92480,211.11691 z M 387.92480,201.19871 C 387.92480,199.24585 389.17644,197.15440 390.02958,197.68168 C 390.52195,197.98597 390.92535,197.87090 390.92602,197.42593 C 390.92669,196.98097 392.02336,195.34239 393.36307,193.78465 C 394.70277,192.22690 395.57154,190.35990 395.29367,189.63579 C 395.01580,188.91167 395.17384,188.08104 395.64488,187.78991 C 397.12093,186.87766 396.44089,192.88156 394.85140,194.79537 C 394.01933,195.79721 392.71941,197.85442 391.96269,199.36691 C 390.66656,201.95757 387.92480,203.20136 387.92480,201.19871 z M 467.33596,190.74599 C 466.76406,189.25566 467.65598,187.84364 479.57705,171.36691 C 481.21954,169.09674 484.34068,168.36276 485.35725,170.00763 C 486.15389,171.29660 471.04958,192.11691 469.31783,192.11691 C 468.51714,192.11691 467.62530,191.50000 467.33596,190.74599 z M 398.21271,187.93152 C 398.54256,187.00455 398.40244,186.10455 397.90131,185.93152 C 397.40019,185.75848 398.10047,185.09675 399.45749,184.46100 C 402.49730,183.03687 402.61140,184.04560 399.76889,187.21390 C 398.38498,188.75642 397.82773,189.01339 398.21271,187.93152 z M 662.91566,167.62792 C 663.59533,166.80898 664.51199,166.36178 664.95270,166.63415 C 665.39340,166.90653 665.90491,166.72091 666.08939,166.22166 C 666.27387,165.72243 667.01856,165.95910 667.74426,166.74759 C 668.86788,167.96843 668.68235,168.11206 666.49426,167.71528 C 665.08106,167.45902 663.92480,167.66955 663.92480,168.18313 C 663.92480,168.69672 663.41970,169.11691 662.80236,169.11691 C 662.02316,169.11691 662.05781,168.66157 662.91566,167.62792 z M 666.43188,163.12836 C 666.08154,162.56150 666.48294,162.39386 667.37286,162.73535 C 669.10528,163.40014 669.42225,164.11691 667.98382,164.11691 C 667.46628,164.11691 666.76790,163.67206 666.43188,163.12836 z M 576.37935,157.66237 C 574.08298,155.36600 573.12607,151.24897 574.55628,149.81876 C 575.64591,148.72915 579.10679,151.20027 578.54425,152.66624 C 577.70724,154.84744 581.80670,157.25049 584.18936,155.97532 C 586.04421,154.98264 585.99772,154.83923 583.28475,153.18494 C 577.54764,149.68662 576.46877,146.59949 579.42480,142.13992 C 581.10480,139.60543 582.07691,139.12220 585.50049,139.11979 C 592.33782,139.11497 595.97606,145.24794 592.80481,151.43265 C 588.57891,159.67417 581.19257,162.47559 576.37935,157.66237 z M 589.34952,149.20010 C 591.64602,146.66249 589.93195,143.11691 586.40867,143.11691 C 583.10146,143.11691 581.74236,147.77913 584.46847,149.77251 C 586.86879,151.52767 587.28754,151.47855 589.34952,149.20010 z M 670.92480,156.17593 C 670.92480,155.59348 671.37480,155.11691 671.92480,155.11691 C 673.20618,155.11691 673.20618,155.82497 671.92480,156.61691 C 671.37480,156.95684 670.92480,156.75839 670.92480,156.17593 z M 424.92480,151.11691 C 424.92480,149.83553 425.63286,149.83553 426.42480,151.11691 C 426.76472,151.66692 426.56628,152.11691 425.98382,152.11691 C 425.40136,152.11691 424.92480,151.66692 424.92480,151.11691 z M 323.92480,150.17593 C 323.92480,149.59348 324.37480,149.11691 324.92480,149.11691 C 326.20618,149.11691 326.20618,149.82497 324.92480,150.61691 C 324.37480,150.95684 323.92480,150.75839 323.92480,150.17593 z M 426.92480,143.61691 C 427.60949,142.79192 428.39469,142.11691 428.66969,142.11691 C 428.94469,142.11691 428.60949,142.79192 427.92480,143.61691 C 427.24011,144.44191 426.45491,145.11691 426.17991,145.11691 C 425.90491,145.11691 426.24011,144.44191 426.92480,143.61691 z M 327.92480,141.55789 C 327.92480,140.70043 328.37480,140.27699 328.92480,140.61691 C 330.21871,141.41659 330.21871,143.11691 328.92480,143.11691 C 328.37480,143.11691 327.92480,142.41535 327.92480,141.55789 z M 331.35180,137.59545 C 332.41165,136.79361 333.52362,136.38239 333.82284,136.68162 C 334.45053,137.30932 331.91074,139.09431 330.42480,139.06979 C 329.87480,139.06072 330.29195,138.39726 331.35180,137.59545 z M 333.92480,134.23494 C 333.92480,133.68494 334.37480,132.95684 334.92480,132.61691 C 335.47480,132.27699 335.92480,132.44889 335.92480,132.99888 C 335.92480,133.54889 335.47480,134.27699 334.92480,134.61691 C 334.37480,134.95684 333.92480,134.78494 333.92480,134.23494 z M 684.00375,131.70025 C 683.96033,130.64608 684.19668,130.05546 684.52897,130.38775 C 684.86126,130.72004 684.89678,131.58254 684.60791,132.30441 C 684.28869,133.10214 684.05173,132.86519 684.00375,131.70025 z M 336.62354,131.48232 C 336.29161,131.15040 336.69504,130.20382 337.52004,129.37882 C 339.46171,127.43715 340.13437,128.10982 338.49416,130.35294 C 337.79725,131.30603 336.95547,131.81425 336.62354,131.48232 z M 364.52912,127.07771 C 360.15250,125.76919 355.92480,121.24211 355.92480,117.86408 C 355.92480,115.03592 357.47824,111.11040 358.99433,110.10745 C 359.41789,109.82725 359.91302,109.00886 360.09462,108.28882 C 360.68666,105.94139 368.20360,99.023963 369.82345,99.335913 C 372.83023,99.914963 371.91872,102.64877 366.43451,109.50005 C 363.40417,113.28578 360.92480,117.19062 360.92480,118.17747 C 360.92480,120.47345 365.52374,124.11691 368.42183,124.11691 C 370.00473,124.11691 372.34883,121.94699 376.52387,116.61691 C 382.05623,109.55401 384.11338,107.99500 385.32144,109.94968 C 386.05869,111.14256 373.20146,127.11691 371.50410,127.11691 C 370.72545,127.11691 369.48907,127.30289 368.75659,127.53019 C 368.02410,127.75749 366.12175,127.55387 364.52912,127.07771 z M 339.92480,125.36180 C 339.92480,124.81180 340.59980,123.80160 341.42480,123.11691 C 342.26154,122.42248 342.92480,122.31420 342.92480,122.87203 C 342.92480,123.42203 342.24980,124.43223 341.42480,125.11691 C 340.58806,125.81135 339.92480,125.91963 339.92480,125.36180 z M 605.35876,121.01006 C 603.23643,117.57606 607.94223,101.11691 611.04637,101.11691 C 611.63100,101.11691 613.25351,100.21691 614.65193,99.116913 C 617.48300,96.889993 621.41635,96.485213 622.54108,98.305053 C 622.96569,98.992093 622.50374,99.941033 621.44576,100.55505 C 614.50952,104.58066 610.29957,110.31066 609.09535,117.36474 C 608.38155,121.54600 606.70241,123.18413 605.35876,121.01006 z M 347.36246,117.01605 C 346.98826,116.41057 347.65971,114.94807 348.85459,113.76605 C 350.59045,112.04886 350.89481,111.96864 350.36896,113.36691 C 350.00698,114.32942 349.32309,115.11691 348.84920,115.11691 C 348.37530,115.11691 348.24659,115.79192 348.56317,116.61691 C 349.22965,118.35374 348.36652,118.64065 347.36246,117.01605 z M 351.92480,109.61691 C 353.35664,107.89166 355.92480,107.60853 355.92480,109.17593 C 355.92480,109.75839 355.50589,109.97605 354.99390,109.65962 C 354.48190,109.34319 353.78034,109.54163 353.43488,110.10060 C 353.08942,110.65958 352.32822,111.11691 351.74334,111.11691 C 351.07275,111.11691 351.13978,110.56280 351.92480,109.61691 z M 357.49320,103.36691 C 358.48232,101.85442 359.88408,100.02227 360.60820,99.295493 C 363.19278,96.701423 362.05456,100.49741 359.38433,103.37713 C 356.12163,106.89581 355.18870,106.89077 357.49320,103.36691 z M 462.00153,86.528023 C 459.93633,84.790273 458.92480,83.033013 458.92480,81.183013 C 458.92480,78.522423 461.53434,75.116913 463.57307,75.116913 C 464.11801,75.116913 465.20758,73.654413 465.99433,71.866913 C 467.49756,68.451613 470.09418,67.440643 474.51386,68.549913 C 479.75560,69.865513 481.55775,78.146473 476.92248,79.617653 C 475.71942,79.999493 474.92480,81.130813 474.92480,82.461803 C 474.92480,89.039923 467.69151,91.315833 462.00153,86.528023 z M 469.34301,85.509933 C 472.94044,84.129463 470.64107,79.116913 466.41040,79.116913 C 464.51034,79.116913 463.51861,82.922563 464.96463,84.664903 C 466.29702,86.270333 467.00523,86.407023 469.34301,85.509933 z M 475.42480,74.616913 C 475.42480,72.407733 472.30537,71.336353 470.66096,72.980753 C 469.92576,73.715953 470.00524,74.508913 470.92522,75.617423 C 472.66576,77.714653 475.42480,77.101163 475.42480,74.616913 z M 680.85181,79.791323 C 676.13667,76.945403 671.00773,73.674053 669.45418,72.521653 C 666.64921,70.440993 666.64624,70.427053 669.02716,70.521653 C 671.16873,70.606743 671.49458,70.082913 672.07814,65.616913 C 672.43748,62.866913 672.82438,54.204423 672.93792,46.366913 L 673.14436,32.116923 L 688.03458,32.116923 L 702.92480,32.116923 L 702.92480,44.976123 L 702.92480,57.835333 L 699.08800,62.226123 C 689.46276,73.241153 687.29858,78.209783 689.95998,83.182663 C 691.44232,85.952423 690.44320,85.580413 680.85181,79.791323 z M 683.37652,58.866913 C 684.22134,54.986233 684.55804,39.116923 683.79556,39.116923 C 683.39579,39.116923 682.80238,41.704423 682.47687,44.866913 C 682.15136,48.029413 681.48236,52.634493 680.99021,55.100423 C 680.49806,57.566353 680.30857,59.928853 680.56911,60.350423 C 681.48645,61.834703 682.89214,61.091893 683.37652,58.866913 z M 253.59147,55.450253 C 252.22870,54.087483 253.00966,51.784303 255.98264,48.398263 C 258.75891,45.236263 259.00301,44.409403 258.63354,39.418523 C 258.39373,36.179213 257.65122,33.557183 256.82570,33.034513 C 255.91458,32.457653 257.41694,32.142193 261.12278,32.132233 L 266.82076,32.116923 L 265.79955,35.046373 C 265.23788,36.657563 264.92379,39.102033 265.10157,40.478523 L 265.42480,42.981233 L 270.79843,41.080063 C 274.74996,39.682023 276.67605,39.448613 278.07644,40.198073 C 280.94761,41.734683 279.66590,42.705863 270.92507,45.616833 C 264.54633,47.741143 262.27297,49.060503 259.58954,52.195483 C 256.29906,56.039673 254.92598,56.784763 253.59147,55.450253 z M 301.39829,46.261513 C 294.81287,42.471763 286.76846,37.767913 283.52183,35.808513 L 277.61885,32.245963 L 300.27183,32.178823 C 312.73096,32.141903 322.92480,32.410963 322.92480,32.776753 C 322.92480,33.142543 321.49445,35.670833 319.74624,38.395183 C 317.99803,41.119533 315.84860,45.554313 314.96973,48.250263 L 313.37178,53.151983 L 301.39829,46.261513 z M 500.28643,38.616923 C 499.96984,37.791923 498.94897,37.116923 498.01781,37.116923 C 496.00533,37.116923 493.92480,35.236163 493.92480,33.416923 C 493.92480,32.458593 496.02736,32.116923 501.92480,32.116923 C 509.25813,32.116923 509.92480,32.283593 509.92480,34.116923 C 509.92480,35.480063 509.25813,36.116923 507.83118,36.116923 C 506.57856,36.116923 505.52747,36.920323 505.21455,38.116923 C 504.60208,40.458993 501.12853,40.811413 500.28643,38.616923 z M 539.42480,35.338223 C 534.54238,32.715793 534.49329,32.644413 537.33716,32.302693 C 540.71672,31.896603 544.00514,33.414663 545.73048,36.177363 C 547.43742,38.910623 545.62743,38.669753 539.42480,35.338223 z "
     id="path1520" />
</svg>
