<?xml version="1.0" encoding="UTF-8" standalone="no"?>
<!-- Created with Inkscape (http://www.inkscape.org/) -->
<svg
   xmlns:dc="http://purl.org/dc/elements/1.1/"
   xmlns:cc="http://web.resource.org/cc/"
   xmlns:rdf="http://www.w3.org/1999/02/22-rdf-syntax-ns#"
   xmlns:svg="http://www.w3.org/2000/svg"
   xmlns="http://www.w3.org/2000/svg"
   xmlns:sodipodi="http://sodipodi.sourceforge.net/DTD/sodipodi-0.dtd"
   xmlns:inkscape="http://www.inkscape.org/namespaces/inkscape"
   width="210mm"
   height="297mm"
   id="svg2216"
   sodipodi:version="0.32"
   inkscape:version="0.45.1"
   sodipodi:docbase="/home/bg/workspace/svn/labor-artwork"
   sodipodi:docname="microcontroller-labor.svg"
   inkscape:output_extension="org.inkscape.output.svg.inkscape">
  <defs
     id="defs2218" />
  <sodipodi:namedview
     id="base"
     pagecolor="#ffffff"
     bordercolor="#666666"
     borderopacity="1.0"
     inkscape:pageopacity="0.0"
     inkscape:pageshadow="2"
     inkscape:zoom="5.6"
     inkscape:cx="350"
     inkscape:cy="923.96137"
     inkscape:document-units="px"
     inkscape:current-layer="layer1"
     showgrid="true"
     inkscape:window-width="1022"
     inkscape:window-height="580"
     inkscape:window-x="0"
     inkscape:window-y="0" />
  <metadata
     id="metadata2221">
    <rdf:RDF>
      <cc:Work
         rdf:about="">
        <dc:format>image/svg+xml</dc:format>
        <dc:type
           rdf:resource="http://purl.org/dc/dcmitype/StillImage" />
      </cc:Work>
    </rdf:RDF>
  </metadata>
  <g
     inkscape:label="Ebene 1"
     inkscape:groupmode="layer"
     id="layer1">
    <rect
       height="9.0316601"
       width="3.9603722"
       id="rect4208"
       rx="0"
       style="fill:#000000;fill-opacity:1;stroke:#000000;stroke-width:0.96841776;stroke-opacity:1"
       ry="0"
       y="90.34642"
       x="315.9126"
       inkscape:export-filename="/home/bg/workspace/svn/labor-artwork/microcontroller-labor.png"
       inkscape:export-xdpi="300"
       inkscape:export-ydpi="300" />
    <rect
       height="9.0316601"
       width="3.9603722"
       id="rect4210"
       rx="0"
       style="fill:#000000;fill-opacity:1;stroke:#000000;stroke-width:0.96841776;stroke-opacity:1"
       ry="0"
       y="90.346298"
       x="325.87695"
       inkscape:export-filename="/home/bg/workspace/svn/labor-artwork/microcontroller-labor.png"
       inkscape:export-xdpi="300"
       inkscape:export-ydpi="300" />
    <rect
       height="9.0316601"
       width="3.9603722"
       id="rect4212"
       rx="0"
       style="fill:#000000;fill-opacity:1;stroke:#000000;stroke-width:0.96841776;stroke-opacity:1"
       ry="0"
       y="90.34642"
       x="335.9126"
       inkscape:export-filename="/home/bg/workspace/svn/labor-artwork/microcontroller-labor.png"
       inkscape:export-xdpi="300"
       inkscape:export-ydpi="300" />
    <rect
       height="9.0316601"
       width="3.9603722"
       id="rect4214"
       rx="0"
       style="fill:#000000;fill-opacity:1;stroke:#000000;stroke-width:0.96841776;stroke-opacity:1"
       ry="0"
       y="90.34642"
       x="345.9126"
       inkscape:export-filename="/home/bg/workspace/svn/labor-artwork/microcontroller-labor.png"
       inkscape:export-xdpi="300"
       inkscape:export-ydpi="300" />
    <rect
       height="9.0316601"
       width="3.9603722"
       id="rect4216"
       rx="0"
       style="fill:#000000;fill-opacity:1;stroke:#000000;stroke-width:0.96841776;stroke-opacity:1"
       ry="0"
       y="90.703476"
       x="355.87701"
       inkscape:export-filename="/home/bg/workspace/svn/labor-artwork/microcontroller-labor.png"
       inkscape:export-xdpi="300"
       inkscape:export-ydpi="300" />
    <rect
       height="64.503471"
       transform="scale(1,-1)"
       width="64.770935"
       id="rect4218"
       rx="2.3120697"
       style="fill:#c0c0c0;fill-opacity:0;stroke:#000000;stroke-width:1.01535797;stroke-opacity:1"
       ry="1.9348898"
       y="-164.35442"
       x="310.07855"
       inkscape:export-filename="/home/bg/workspace/svn/labor-artwork/microcontroller-labor.png"
       inkscape:export-xdpi="300"
       inkscape:export-ydpi="300" />
    <rect
       height="9.0316601"
       width="3.9603722"
       id="rect4220"
       rx="0"
       style="fill:#000000;fill-opacity:1;stroke:#000000;stroke-width:0.96841776;stroke-opacity:1"
       ry="0"
       y="90.346298"
       x="365.84137"
       inkscape:export-filename="/home/bg/workspace/svn/labor-artwork/microcontroller-labor.png"
       inkscape:export-xdpi="300"
       inkscape:export-ydpi="300" />
    <rect
       height="9.0316601"
       transform="matrix(0,-1,1,0,0,0)"
       width="3.9603722"
       id="rect4222"
       rx="0"
       style="fill:#000000;fill-opacity:1;stroke:#000000;stroke-width:0.96841776;stroke-opacity:1"
       ry="0"
       y="300.84137"
       x="-149.37791"
       inkscape:export-filename="/home/bg/workspace/svn/labor-artwork/microcontroller-labor.png"
       inkscape:export-xdpi="300"
       inkscape:export-ydpi="300" />
    <rect
       height="9.0316601"
       transform="matrix(0,-1,1,0,0,0)"
       width="3.9603722"
       id="rect4224"
       rx="0"
       style="fill:#000000;fill-opacity:1;stroke:#000000;stroke-width:0.96841776;stroke-opacity:1"
       ry="0"
       y="300.84131"
       x="-109.30675"
       inkscape:export-filename="/home/bg/workspace/svn/labor-artwork/microcontroller-labor.png"
       inkscape:export-xdpi="300"
       inkscape:export-ydpi="300" />
    <rect
       height="9.0316601"
       transform="matrix(0,-1,1,0,0,0)"
       width="3.9603722"
       id="rect4226"
       rx="0"
       style="fill:#000000;fill-opacity:1;stroke:#000000;stroke-width:0.96841776;stroke-opacity:1"
       ry="0"
       y="300.84131"
       x="-119.30675"
       inkscape:export-filename="/home/bg/workspace/svn/labor-artwork/microcontroller-labor.png"
       inkscape:export-xdpi="300"
       inkscape:export-ydpi="300" />
    <rect
       height="9.0316601"
       transform="matrix(0,-1,1,0,0,0)"
       width="3.9603722"
       id="rect4228"
       rx="0"
       style="fill:#000000;fill-opacity:1;stroke:#000000;stroke-width:0.96841776;stroke-opacity:1"
       ry="0"
       y="300.84131"
       x="-129.30675"
       inkscape:export-filename="/home/bg/workspace/svn/labor-artwork/microcontroller-labor.png"
       inkscape:export-xdpi="300"
       inkscape:export-ydpi="300" />
    <rect
       height="9.0316601"
       transform="matrix(0,-1,1,0,0,0)"
       width="3.9603722"
       id="rect4230"
       rx="0"
       style="fill:#000000;fill-opacity:1;stroke:#000000;stroke-width:0.96841776;stroke-opacity:1"
       ry="0"
       y="300.84131"
       x="-139.30675"
       inkscape:export-filename="/home/bg/workspace/svn/labor-artwork/microcontroller-labor.png"
       inkscape:export-xdpi="300"
       inkscape:export-ydpi="300" />
    <rect
       height="9.0316601"
       transform="matrix(0,-1,1,0,0,0)"
       width="3.9603722"
       id="rect4232"
       rx="0"
       style="fill:#000000;fill-opacity:1;stroke:#000000;stroke-width:0.96841776;stroke-opacity:1"
       ry="0"
       y="300.84131"
       x="-159.30669"
       inkscape:export-filename="/home/bg/workspace/svn/labor-artwork/microcontroller-labor.png"
       inkscape:export-xdpi="300"
       inkscape:export-ydpi="300" />
    <rect
       height="9.0316601"
       width="3.9603722"
       id="rect4234"
       rx="0"
       style="fill:#000000;fill-opacity:1;stroke:#000000;stroke-width:0.96841776;stroke-opacity:1"
       ry="0"
       y="165.34641"
       x="315.98383"
       inkscape:export-filename="/home/bg/workspace/svn/labor-artwork/microcontroller-labor.png"
       inkscape:export-xdpi="300"
       inkscape:export-ydpi="300" />
    <rect
       height="9.0316601"
       width="3.9603722"
       id="rect4236"
       rx="0"
       style="fill:#000000;fill-opacity:1;stroke:#000000;stroke-width:0.96841776;stroke-opacity:1"
       ry="0"
       y="165.3463"
       x="325.94818"
       inkscape:export-filename="/home/bg/workspace/svn/labor-artwork/microcontroller-labor.png"
       inkscape:export-xdpi="300"
       inkscape:export-ydpi="300" />
    <rect
       height="9.0316601"
       width="3.9603722"
       id="rect4238"
       rx="0"
       style="fill:#000000;fill-opacity:1;stroke:#000000;stroke-width:0.96841776;stroke-opacity:1"
       ry="0"
       y="165.34641"
       x="335.98383"
       inkscape:export-filename="/home/bg/workspace/svn/labor-artwork/microcontroller-labor.png"
       inkscape:export-xdpi="300"
       inkscape:export-ydpi="300" />
    <rect
       height="9.0316601"
       width="3.9603722"
       id="rect4240"
       rx="0"
       style="fill:#000000;fill-opacity:1;stroke:#000000;stroke-width:0.96841776;stroke-opacity:1"
       ry="0"
       y="165.34641"
       x="345.98383"
       inkscape:export-filename="/home/bg/workspace/svn/labor-artwork/microcontroller-labor.png"
       inkscape:export-xdpi="300"
       inkscape:export-ydpi="300" />
    <rect
       height="9.0316601"
       width="3.9603722"
       id="rect4242"
       rx="0"
       style="fill:#000000;fill-opacity:1;stroke:#000000;stroke-width:0.96841776;stroke-opacity:1"
       ry="0"
       y="165.3463"
       x="355.9126"
       inkscape:export-filename="/home/bg/workspace/svn/labor-artwork/microcontroller-labor.png"
       inkscape:export-xdpi="300"
       inkscape:export-ydpi="300" />
    <rect
       height="9.0316601"
       width="3.9603722"
       id="rect4244"
       rx="0"
       style="fill:#000000;fill-opacity:1;stroke:#000000;stroke-width:0.96841776;stroke-opacity:1"
       ry="0"
       y="165.3463"
       x="365.9126"
       inkscape:export-filename="/home/bg/workspace/svn/labor-artwork/microcontroller-labor.png"
       inkscape:export-xdpi="300"
       inkscape:export-ydpi="300" />
    <rect
       height="9.0316601"
       transform="matrix(0,-1,1,0,0,0)"
       width="3.9603722"
       id="rect4246"
       rx="0"
       style="fill:#000000;fill-opacity:1;stroke:#000000;stroke-width:0.96841776;stroke-opacity:1"
       ry="0"
       y="375.84131"
       x="-149.37791"
       inkscape:export-filename="/home/bg/workspace/svn/labor-artwork/microcontroller-labor.png"
       inkscape:export-xdpi="300"
       inkscape:export-ydpi="300" />
    <rect
       height="9.0316601"
       transform="matrix(0,-1,1,0,0,0)"
       width="3.9603722"
       id="rect4248"
       rx="0"
       style="fill:#000000;fill-opacity:1;stroke:#000000;stroke-width:0.96841776;stroke-opacity:1"
       ry="0"
       y="375.84125"
       x="-109.30675"
       inkscape:export-filename="/home/bg/workspace/svn/labor-artwork/microcontroller-labor.png"
       inkscape:export-xdpi="300"
       inkscape:export-ydpi="300" />
    <rect
       height="9.0316601"
       transform="matrix(0,-1,1,0,0,0)"
       width="3.9603722"
       id="rect4250"
       rx="0"
       style="fill:#000000;fill-opacity:1;stroke:#000000;stroke-width:0.96841776;stroke-opacity:1"
       ry="0"
       y="375.84125"
       x="-119.30675"
       inkscape:export-filename="/home/bg/workspace/svn/labor-artwork/microcontroller-labor.png"
       inkscape:export-xdpi="300"
       inkscape:export-ydpi="300" />
    <rect
       height="9.0316601"
       transform="matrix(0,-1,1,0,0,0)"
       width="3.9603722"
       id="rect4252"
       rx="0"
       style="fill:#000000;fill-opacity:1;stroke:#000000;stroke-width:0.96841776;stroke-opacity:1"
       ry="0"
       y="375.84125"
       x="-129.30675"
       inkscape:export-filename="/home/bg/workspace/svn/labor-artwork/microcontroller-labor.png"
       inkscape:export-xdpi="300"
       inkscape:export-ydpi="300" />
    <rect
       height="9.0316601"
       transform="matrix(0,-1,1,0,0,0)"
       width="3.9603722"
       id="rect4254"
       rx="0"
       style="fill:#000000;fill-opacity:1;stroke:#000000;stroke-width:0.96841776;stroke-opacity:1"
       ry="0"
       y="375.84125"
       x="-139.30675"
       inkscape:export-filename="/home/bg/workspace/svn/labor-artwork/microcontroller-labor.png"
       inkscape:export-xdpi="300"
       inkscape:export-ydpi="300" />
    <rect
       height="9.0316601"
       transform="matrix(0,-1,1,0,0,0)"
       width="3.9603722"
       id="rect4256"
       rx="0"
       style="fill:#000000;fill-opacity:1;stroke:#000000;stroke-width:0.96841776;stroke-opacity:1"
       ry="0"
       y="375.84125"
       x="-159.30669"
       inkscape:export-filename="/home/bg/workspace/svn/labor-artwork/microcontroller-labor.png"
       inkscape:export-xdpi="300"
       inkscape:export-ydpi="300" />
    <path
       style="fill:#000000;fill-opacity:1;fill-rule:evenodd;stroke:none;stroke-width:1.25;stroke-linecap:butt;stroke-linejoin:miter;stroke-miterlimit:4;stroke-dashoffset:0;stroke-opacity:1"
       d="M 342.56048,102.36218 C 340.56412,102.37298 338.61479,102.59269 336.73161,102.99168 C 336.36575,103.0692 336.01506,103.18221 335.65434,103.27353 C 323.37562,106.32112 314.10547,117.14711 313.27655,130.31071 L 319.3372,130.31071 L 319.3372,123.93135 L 320.45399,123.93135 L 323.8017,123.93135 L 323.8017,120.33604 C 323.16138,120.1348 322.69018,119.55108 322.69018,118.83473 C 322.69018,117.95424 323.38806,117.24383 324.25472,117.24383 C 325.12141,117.24383 325.82718,117.95424 325.82718,118.83473 C 325.82718,119.47249 325.45132,120.0124 324.91848,120.26757 L 324.91848,123.93135 L 327.81843,123.93135 C 328.03678,123.31706 328.60589,122.87252 329.28551,122.87252 C 330.15219,122.87252 330.85006,123.58293 330.85006,124.4634 C 330.85006,125.34389 330.15219,126.05956 329.28551,126.05956 C 328.60434,126.05956 328.03563,125.6119 327.81843,124.99545 L 320.45399,124.99545 L 320.45399,130.31071 L 323.24856,130.31071 L 324.12829,130.31071 L 324.36008,130.31071 L 324.36008,138.82352 L 327.81843,138.82352 C 328.03563,138.20709 328.60434,137.7568 329.28551,137.7568 C 330.15219,137.7568 330.85006,138.4751 330.85006,139.35558 C 330.85006,140.23608 330.15219,140.94648 329.28551,140.94648 C 328.60409,140.94648 328.03544,140.49918 327.81843,139.88238 L 318.46273,139.88238 C 318.24568,140.49911 317.68228,140.94648 317.00092,140.94648 C 316.13424,140.94648 315.4311,140.23608 315.4311,139.35558 C 315.4311,138.4751 316.13424,137.7568 317.00092,137.7568 C 317.68202,137.7568 318.24549,138.20717 318.46273,138.82352 L 323.24856,138.82352 L 323.24856,131.37743 L 320.45399,131.37743 L 319.3372,131.37743 L 313.22651,131.37743 C 313.21855,131.66205 313.20807,131.94691 313.20807,132.23347 C 313.20807,147.07716 323.93277,159.36393 337.94585,161.65964 C 339.45257,161.9122 340.98583,162.0857 342.56048,162.09423 L 342.56048,162.07314 C 342.59567,162.07327 342.62798,162.07842 342.66318,162.07842 C 358.92307,162.07842 372.12097,148.70901 372.12097,132.23347 C 372.12097,115.75792 358.92307,102.38326 342.66318,102.38326 C 342.62798,102.38326 342.59567,102.38841 342.56048,102.38851 L 342.56048,102.36218 z M 342.66318,103.34201 C 358.44746,103.34201 371.25968,116.29777 371.25968,132.26509 C 371.25966,148.23238 358.44746,161.18814 342.66318,161.18814 C 342.62796,161.18817 342.59568,161.18301 342.56048,161.1829 L 342.56048,153.20211 L 336.75795,153.20211 L 336.75795,126.23341 L 342.56048,126.23341 L 342.56048,123.19912 C 339.37198,123.1355 336.80009,120.50161 336.80009,117.24909 C 336.80009,113.99659 339.37198,111.35475 342.56048,111.29117 L 342.56048,103.34727 C 342.59568,103.34714 342.62796,103.34201 342.66318,103.34201 z M 342.56048,111.29117 L 342.56048,112.12612 C 342.60839,112.12474 342.65182,112.11032 342.70006,112.11032 C 345.45697,112.11032 347.69398,114.3914 347.69398,117.20168 C 347.69398,120.01196 345.45697,122.29568 342.70006,122.29568 C 342.65182,122.29568 342.60839,122.28128 342.56048,122.27989 L 342.56048,123.19912 C 342.59953,123.1999 342.63451,123.20967 342.67373,123.20967 C 345.91635,123.20967 348.55001,120.54146 348.55001,117.24909 C 348.55001,113.95674 345.91635,111.28062 342.67373,111.28062 C 342.63451,111.28062 342.59953,111.29039 342.56048,111.29117 z M 342.56048,122.27989 L 342.56048,112.12612 C 339.87018,112.20399 337.70616,114.44059 337.70616,117.20168 C 337.70616,119.96277 339.87019,122.20195 342.56048,122.27989 z M 342.56048,126.23341 L 342.56048,127.19477 L 347.51225,127.19477 L 347.51225,152.24073 L 342.56048,152.24073 L 342.56048,153.20211 L 348.58424,153.20211 L 348.58424,126.23341 L 342.56048,126.23341 z M 342.56048,152.24073 L 342.56048,127.19477 L 337.83785,127.19477 L 337.83785,152.24073 L 342.56048,152.24073 z "
       id="path4853"
       inkscape:export-filename="/home/bg/workspace/svn/labor-artwork/microcontroller-labor.png"
       inkscape:export-xdpi="300"
       inkscape:export-ydpi="300" />
  </g>
</svg>
