<?xml version="1.0" encoding="UTF-8" standalone="no"?>
<!DOCTYPE svg PUBLIC "-//W3C//DTD SVG 1.0//EN"
 "http://www.w3.org/TR/2001/REC-SVG-20010904/DTD/svg10.dtd" [
 <!ATTLIST svg xmlns:xlink CDATA #FIXED "http://www.w3.org/1999/xlink">
]>
<!-- Generated by Graphviz version 2.12 (Wed Aug 22 04:39:33 UTC 2007)
     For user: (bg)  -->
<!-- Title: G Pages: 1 -->
<svg width="6.27in" height="3.60in"
 xmlns="http://www.w3.org/2000/svg" xmlns:xlink="http://www.w3.org/1999/xlink">
<g id="graph0" class="graph" transform="scale(1.33333 1.33333) rotate(0) translate(4 256)">
<title>G</title>
<polygon style="fill:white;stroke:white;" points="-4,4 -4,-256 448,-256 448,4 -4,4"/>
<!-- crypt_algos -->
<g id="node1" class="node"><title>crypt_algos</title>
<ellipse style="fill:none;stroke:black;" cx="285" cy="-234" rx="83.1992" ry="18"/>
<text text-anchor="middle" x="285" y="-228" style="font-family:Nimbus Roman No9 L;font-weight:regular;font-size:11.34pt;">cryptographic algorithms</text>
</g>
<!-- ciphers -->
<g id="node3" class="node"><title>ciphers</title>
<ellipse style="fill:none;stroke:black;" cx="161" cy="-162" rx="32.851" ry="18"/>
<text text-anchor="middle" x="161" y="-156" style="font-family:Nimbus Roman No9 L;font-weight:regular;font-size:11.34pt;">ciphers</text>
</g>
<!-- crypt_algos&#45;&gt;ciphers -->
<g id="edge2" class="edge"><title>crypt_algos&#45;&gt;ciphers</title>
<path style="fill:none;stroke:black;" d="M256,-217C237,-206 212,-192 193,-180"/>
<polygon style="fill:black;stroke:black;" points="194.441,-176.797 184,-175 191.042,-182.916 194.441,-176.797"/>
</g>
<!-- hashes -->
<g id="node5" class="node"><title>hashes</title>
<ellipse style="fill:none;stroke:black;" cx="244" cy="-162" rx="31.7954" ry="18"/>
<text text-anchor="middle" x="244" y="-156" style="font-family:Nimbus Roman No9 L;font-weight:regular;font-size:11.34pt;">hashes</text>
</g>
<!-- crypt_algos&#45;&gt;hashes -->
<g id="edge4" class="edge"><title>crypt_algos&#45;&gt;hashes</title>
<path style="fill:none;stroke:black;" d="M275,-216C271,-208 265,-198 259,-189"/>
<polygon style="fill:black;stroke:black;" points="261.916,-187.042 254,-180 255.797,-190.441 261.916,-187.042"/>
</g>
<!-- MACs -->
<g id="node7" class="node"><title>MACs</title>
<ellipse style="fill:none;stroke:black;" cx="326" cy="-162" rx="31.8024" ry="18"/>
<text text-anchor="middle" x="326" y="-156" style="font-family:Nimbus Roman No9 L;font-weight:regular;font-size:11.34pt;">MACs</text>
</g>
<!-- crypt_algos&#45;&gt;MACs -->
<g id="edge6" class="edge"><title>crypt_algos&#45;&gt;MACs</title>
<path style="fill:none;stroke:black;" d="M295,-216C300,-208 305,-198 311,-189"/>
<polygon style="fill:black;stroke:black;" points="314.203,-190.441 316,-180 308.084,-187.042 314.203,-190.441"/>
</g>
<!-- PRNGs -->
<g id="node9" class="node"><title>PRNGs</title>
<ellipse style="fill:none;stroke:black;" cx="410" cy="-162" rx="34.0244" ry="18"/>
<text text-anchor="middle" x="410" y="-156" style="font-family:Nimbus Roman No9 L;font-weight:regular;font-size:11.34pt;">PRNGs</text>
</g>
<!-- crypt_algos&#45;&gt;PRNGs -->
<g id="edge8" class="edge"><title>crypt_algos&#45;&gt;PRNGs</title>
<path style="fill:none;stroke:black;" d="M314,-217C333,-206 358,-191 378,-180"/>
<polygon style="fill:black;stroke:black;" points="379.958,-182.916 387,-175 376.559,-176.797 379.958,-182.916"/>
</g>
<!-- symmetric -->
<g id="node11" class="node"><title>symmetric</title>
<ellipse style="fill:none;stroke:black;" cx="111" cy="-90" rx="42.1825" ry="18"/>
<text text-anchor="middle" x="111" y="-84" style="font-family:Nimbus Roman No9 L;font-weight:regular;font-size:11.34pt;">symmetric</text>
</g>
<!-- ciphers&#45;&gt;symmetric -->
<g id="edge10" class="edge"><title>ciphers&#45;&gt;symmetric</title>
<path style="fill:none;stroke:black;" d="M149,-145C143,-137 136,-126 129,-116"/>
<polygon style="fill:black;stroke:black;" points="131.8,-113.9 123,-108 126.2,-118.1 131.8,-113.9"/>
</g>
<!-- asymetric -->
<g id="node13" class="node"><title>asymetric</title>
<ellipse style="fill:none;stroke:black;" cx="211" cy="-90" rx="39.8485" ry="18"/>
<text text-anchor="middle" x="211" y="-84" style="font-family:Nimbus Roman No9 L;font-weight:regular;font-size:11.34pt;">asymetric</text>
</g>
<!-- ciphers&#45;&gt;asymetric -->
<g id="edge12" class="edge"><title>ciphers&#45;&gt;asymetric</title>
<path style="fill:none;stroke:black;" d="M173,-145C179,-137 186,-126 193,-116"/>
<polygon style="fill:black;stroke:black;" points="195.8,-118.1 199,-108 190.2,-113.9 195.8,-118.1"/>
</g>
<!-- block ciphers -->
<g id="node15" class="node"><title>block ciphers</title>
<ellipse style="fill:none;stroke:black;" cx="50" cy="-18" rx="50.1498" ry="18"/>
<text text-anchor="middle" x="50" y="-12" style="font-family:Nimbus Roman No9 L;font-weight:regular;font-size:11.34pt;">block ciphers</text>
</g>
<!-- symmetric&#45;&gt;block ciphers -->
<g id="edge14" class="edge"><title>symmetric&#45;&gt;block ciphers</title>
<path style="fill:none;stroke:black;" d="M97,-73C89,-64 80,-53 72,-44"/>
<polygon style="fill:black;stroke:black;" points="74.2191,-41.221 65,-36 68.9511,-45.8306 74.2191,-41.221"/>
</g>
<!-- stream ciphers -->
<g id="node17" class="node"><title>stream ciphers</title>
<ellipse style="fill:none;stroke:black;" cx="172" cy="-18" rx="53.7565" ry="18"/>
<text text-anchor="middle" x="172" y="-12" style="font-family:Nimbus Roman No9 L;font-weight:regular;font-size:11.34pt;">stream ciphers</text>
</g>
<!-- symmetric&#45;&gt;stream ciphers -->
<g id="edge16" class="edge"><title>symmetric&#45;&gt;stream ciphers</title>
<path style="fill:none;stroke:black;" d="M125,-73C133,-64 142,-53 150,-44"/>
<polygon style="fill:black;stroke:black;" points="153.049,-45.8306 157,-36 147.781,-41.221 153.049,-45.8306"/>
</g>
</g>
</svg>
