<?xml version="1.0" encoding="UTF-8" standalone="no"?>
<!-- Created with Inkscape (http://www.inkscape.org/) -->
<svg
   xmlns:dc="http://purl.org/dc/elements/1.1/"
   xmlns:cc="http://web.resource.org/cc/"
   xmlns:rdf="http://www.w3.org/1999/02/22-rdf-syntax-ns#"
   xmlns:svg="http://www.w3.org/2000/svg"
   xmlns="http://www.w3.org/2000/svg"
   xmlns:sodipodi="http://sodipodi.sourceforge.net/DTD/sodipodi-0.dtd"
   xmlns:inkscape="http://www.inkscape.org/namespaces/inkscape"
   width="210mm"
   height="297mm"
   id="svg2266"
   sodipodi:version="0.32"
   inkscape:version="0.45.1"
   sodipodi:docbase="/home/bg/workspace/AnonAccess/Doc/CCC07-Vortrag"
   sodipodi:docname="ansatz3ablauf.svg"
   inkscape:output_extension="org.inkscape.output.svg.inkscape">
  <sodipodi:namedview
     id="base"
     pagecolor="#ffffff"
     bordercolor="#666666"
     borderopacity="1.0"
     inkscape:pageopacity="0.0"
     inkscape:pageshadow="2"
     inkscape:zoom="1.4"
     inkscape:cx="285.70327"
     inkscape:cy="933.25146"
     inkscape:document-units="px"
     inkscape:current-layer="layer1"
     showgrid="true"
     inkscape:window-width="1022"
     inkscape:window-height="580"
     inkscape:window-x="0"
     inkscape:window-y="0" />
  <defs
     id="defs2268" />
  <metadata
     id="metadata2271">
    <rdf:RDF>
      <cc:Work
         rdf:about="">
        <dc:format>image/svg+xml</dc:format>
        <dc:type
           rdf:resource="http://purl.org/dc/dcmitype/StillImage" />
      </cc:Work>
    </rdf:RDF>
  </metadata>
  <g
     inkscape:label="Ebene 1"
     id="layer1"
     inkscape:groupmode="layer">
    <path
       style="fill:#1e1e1e;fill-opacity:1;stroke:#000000;stroke-width:1;stroke-linecap:butt;stroke-miterlimit:4;stroke-dasharray:none;stroke-dashoffset:10;stroke-opacity:1;display:inline"
       d="M 190.30011 112.73652 A 12.59534 4.4194174 0 1 1  165.10943,112.73652 A 12.59534 4.4194174 0 1 1  190.30011 112.73652 z"
       inkscape:export-xdpi="300"
       sodipodi:cy="112.73652"
       sodipodi:type="arc"
       sodipodi:cx="177.70477"
       id="path8007"
       inkscape:export-filename="/home/bg/workspace/AnonAccess/Doc/CCC07-Vortrag/ansatz1ablauf.png"
       inkscape:export-ydpi="300"
       sodipodi:rx="12.59534"
       transform="matrix(1.3874568,0,0,1.157761,-16.13526,-54.898799)"
       sodipodi:ry="4.4194174" />
    <rect
       height="44.141769"
       id="rect9236"
       width="71.107704"
       inkscape:export-xdpi="300"
       inkscape:export-filename="/home/bg/workspace/AnonAccess/Doc/CCC07-Vortrag/ansatz1ablauf.png"
       inkscape:export-ydpi="300"
       style="fill:#ffffff;fill-opacity:1;fill-rule:evenodd;stroke:#000000;stroke-width:1.92060256;stroke-linejoin:round;stroke-miterlimit:4;stroke-dasharray:none;stroke-opacity:1;display:inline"
       ry="5.8281012"
       y="39.504208"
       x="12.881953" />
    <path
       d="M 141.08456,4.6410314 L 141.08456,236.80159 L 141.08456,236.80159"
       id="path2179"
       inkscape:export-xdpi="300"
       inkscape:export-filename="/home/bg/workspace/AnonAccess/Doc/CCC07-Vortrag/ansatz1ablauf.png"
       inkscape:export-ydpi="300"
       style="fill:none;fill-rule:evenodd;stroke:#000000;stroke-width:1.57658815;stroke-linecap:butt;stroke-linejoin:miter;stroke-miterlimit:4;stroke-dasharray:4.72976433, 1.5765881;stroke-dashoffset:15.76588109;stroke-opacity:1;display:inline" />
    <rect
       height="41.914001"
       id="rect4125"
       width="35.580051"
       inkscape:export-xdpi="300"
       inkscape:export-filename="/home/bg/workspace/AnonAccess/Doc/CCC07-Vortrag/ansatz1ablauf.png"
       inkscape:export-ydpi="300"
       style="fill:#1e1e1e;fill-opacity:1;stroke:#000000;stroke-width:0.75856698;stroke-linecap:butt;stroke-miterlimit:4;stroke-dasharray:none;stroke-dashoffset:10;stroke-opacity:1;display:inline"
       ry="0.072463147"
       y="33.516506"
       x="212.6925" />
    <path
       style="fill:#1e1e1e;fill-opacity:1;stroke:#000000;stroke-width:1;stroke-linecap:butt;stroke-miterlimit:4;stroke-dasharray:none;stroke-dashoffset:10;stroke-opacity:1;display:inline"
       d="M 189.30654 57.6572 A 12.099798 5.1616864 0 1 1  165.10694,57.6572 A 12.099798 5.1616864 0 1 1  189.30654 57.6572 z"
       inkscape:export-xdpi="300"
       sodipodi:cy="57.6572"
       sodipodi:type="arc"
       sodipodi:cx="177.20674"
       id="path8003"
       inkscape:export-filename="/home/bg/workspace/AnonAccess/Doc/CCC07-Vortrag/ansatz1ablauf.png"
       inkscape:export-ydpi="300"
       sodipodi:rx="12.099798"
       transform="matrix(1.4519087,0,0,0.8314254,-26.857617,-14.1401)"
       sodipodi:ry="5.1616864" />
    <path
       style="fill:#000000;fill-opacity:1;stroke:#191919;stroke-width:1;stroke-linecap:butt;stroke-miterlimit:4;stroke-dasharray:none;stroke-dashoffset:10;stroke-opacity:1;display:inline"
       d="M 189.30654 57.6572 A 12.099798 5.1616864 0 1 1  165.10694,57.6572 A 12.099798 5.1616864 0 1 1  189.30654 57.6572 z"
       inkscape:export-xdpi="300"
       sodipodi:cy="57.6572"
       sodipodi:type="arc"
       sodipodi:cx="177.20674"
       id="path9951"
       inkscape:export-filename="/home/bg/workspace/AnonAccess/Doc/CCC07-Vortrag/ansatz1ablauf.png"
       inkscape:export-ydpi="300"
       sodipodi:rx="12.099798"
       transform="matrix(1.4519087,0,0,0.8314254,-26.857617,8.5194814)"
       sodipodi:ry="5.1616864" />
    <path
       d="M 215.59519,100.6798 C 224.35599,82.402531 256.31991,115.1295 271.62595,100.6798 L 271.62595,100.6798"
       sodipodi:nodetypes="ccc"
       id="path2177"
       inkscape:export-xdpi="300"
       inkscape:export-filename="/home/bg/workspace/AnonAccess/Doc/CCC07-Vortrag/ansatz1ablauf.png"
       inkscape:export-ydpi="300"
       style="fill:none;fill-rule:evenodd;stroke:#000000;stroke-width:1.29748249px;stroke-linecap:butt;stroke-linejoin:miter;stroke-opacity:1;display:inline" />
    <path
       d="M 215.59473,143.84323 C 229.32913,128.12612 261.84302,158.36279 271.66602,143.84323"
       sodipodi:nodetypes="cc"
       id="path2180"
       inkscape:export-xdpi="300"
       inkscape:export-filename="/home/bg/workspace/AnonAccess/Doc/CCC07-Vortrag/ansatz1ablauf.png"
       inkscape:export-ydpi="300"
       style="fill:none;fill-rule:evenodd;stroke:#000000;stroke-width:1.29657042px;stroke-linecap:butt;stroke-linejoin:miter;stroke-opacity:1;display:inline" />
    <path
       d="M 215.47265,100.20891 L 215.47265,143.8516"
       id="path2182"
       inkscape:export-xdpi="300"
       inkscape:export-filename="/home/bg/workspace/AnonAccess/Doc/CCC07-Vortrag/ansatz1ablauf.png"
       inkscape:export-ydpi="300"
       style="fill:none;fill-rule:evenodd;stroke:#000000;stroke-width:1.05240035px;stroke-linecap:butt;stroke-linejoin:miter;stroke-opacity:1;display:inline" />
    <path
       d="M 271.40929,100.70442 L 271.40929,143.8516"
       id="path2184"
       inkscape:export-xdpi="300"
       inkscape:export-filename="/home/bg/workspace/AnonAccess/Doc/CCC07-Vortrag/ansatz1ablauf.png"
       inkscape:export-ydpi="300"
       style="fill:none;fill-rule:evenodd;stroke:#000000;stroke-width:1.05240035px;stroke-linecap:butt;stroke-linejoin:miter;stroke-opacity:1;display:inline" />
    <rect
       height="4.8694677"
       id="rect11176"
       width="7.377254"
       inkscape:export-xdpi="300"
       inkscape:export-filename="/home/bg/workspace/AnonAccess/Doc/CCC07-Vortrag/ansatz1ablauf.png"
       inkscape:export-ydpi="300"
       style="fill:none;fill-opacity:1;fill-rule:evenodd;stroke:#000000;stroke-width:0.62933022;stroke-linejoin:round;stroke-miterlimit:4;stroke-dasharray:none;stroke-opacity:1;display:inline"
       y="57.56039"
       x="19.707226" />
    <rect
       height="1.5827465"
       id="rect12179"
       width="1.9726925"
       inkscape:export-xdpi="300"
       inkscape:export-filename="/home/bg/workspace/AnonAccess/Doc/CCC07-Vortrag/ansatz1ablauf.png"
       inkscape:export-ydpi="300"
       style="fill:none;fill-opacity:1;fill-rule:evenodd;stroke:#000000;stroke-width:0.62933022;stroke-linejoin:round;stroke-miterlimit:4;stroke-dasharray:none;stroke-opacity:1;display:inline"
       y="59.066006"
       x="22.409542" />
    <path
       d="M 19.67396,59.046731 C 20.70095,59.034491 22.72743,59.073701 23.13572,59.016011 C 23.73857,58.930801 22.36939,57.578701 22.39791,57.559551"
       sodipodi:nodetypes="csc"
       id="path12183"
       inkscape:export-xdpi="300"
       inkscape:export-filename="/home/bg/workspace/AnonAccess/Doc/CCC07-Vortrag/ansatz1ablauf.png"
       inkscape:export-ydpi="300"
       style="fill:none;fill-opacity:1;fill-rule:evenodd;stroke:#000000;stroke-width:0.62933022;stroke-linecap:butt;stroke-linejoin:round;stroke-miterlimit:4;stroke-dasharray:none;stroke-opacity:1;display:inline" />
    <path
       d="M 27.08769,59.043241 C 26.41576,59.043891 24.26994,59.037101 24.21291,59.031261 C 22.69192,58.875621 24.07133,57.796211 24.08745,57.778021"
       sodipodi:nodetypes="csc"
       id="path12194"
       inkscape:export-xdpi="300"
       inkscape:export-filename="/home/bg/workspace/AnonAccess/Doc/CCC07-Vortrag/ansatz1ablauf.png"
       inkscape:export-ydpi="300"
       style="fill:none;fill-opacity:1;fill-rule:evenodd;stroke:#000000;stroke-width:0.62933022;stroke-linecap:round;stroke-linejoin:round;stroke-miterlimit:4;stroke-dasharray:none;stroke-opacity:1;display:inline" />
    <path
       d="M 19.67396,59.046731 C 20.70095,59.034491 22.72743,59.073701 23.13572,59.016011 C 23.73857,58.930801 22.36939,57.578701 22.39791,57.559551"
       sodipodi:nodetypes="csc"
       id="path12210"
       inkscape:export-xdpi="300"
       inkscape:export-filename="/home/bg/workspace/AnonAccess/Doc/CCC07-Vortrag/ansatz1ablauf.png"
       inkscape:export-ydpi="300"
       style="fill:none;fill-opacity:1;fill-rule:evenodd;stroke:#000000;stroke-width:0.62933022;stroke-linecap:butt;stroke-linejoin:round;stroke-miterlimit:4;stroke-dasharray:none;stroke-opacity:1;display:inline" />
    <path
       d="M 19.67396,59.046731 C 20.70095,59.034491 22.72743,59.073701 23.13572,59.016011 C 23.73857,58.930801 22.36939,57.578701 22.39791,57.559551"
       sodipodi:nodetypes="csc"
       id="path12220"
       inkscape:export-xdpi="300"
       inkscape:export-filename="/home/bg/workspace/AnonAccess/Doc/CCC07-Vortrag/ansatz1ablauf.png"
       inkscape:export-ydpi="300"
       style="fill:none;fill-opacity:1;fill-rule:evenodd;stroke:#000000;stroke-width:0.62933022;stroke-linecap:butt;stroke-linejoin:round;stroke-miterlimit:4;stroke-dasharray:none;stroke-opacity:1;display:inline" />
    <path
       d="M 19.68606,60.647441 C 20.71014,60.662121 22.73097,60.615181 23.13811,60.684231 C 23.73926,60.786211 22.37393,62.404511 22.40236,62.427411"
       sodipodi:nodetypes="csc"
       id="path12217"
       inkscape:export-xdpi="300"
       inkscape:export-filename="/home/bg/workspace/AnonAccess/Doc/CCC07-Vortrag/ansatz1ablauf.png"
       inkscape:export-ydpi="300"
       style="fill:none;fill-opacity:1;fill-rule:evenodd;stroke:#000000;stroke-width:0.62933022;stroke-linecap:butt;stroke-linejoin:round;stroke-miterlimit:4;stroke-dasharray:none;stroke-opacity:1;display:inline" />
    <path
       d="M 27.12138,60.690141 C 26.09282,60.704801 24.06324,60.657851 23.65435,60.726901 C 23.05056,60.828861 24.42183,62.447041 24.39328,62.469941"
       sodipodi:nodetypes="csc"
       id="path12223"
       inkscape:export-xdpi="300"
       inkscape:export-filename="/home/bg/workspace/AnonAccess/Doc/CCC07-Vortrag/ansatz1ablauf.png"
       inkscape:export-ydpi="300"
       style="fill:none;fill-opacity:1;fill-rule:evenodd;stroke:#000000;stroke-width:0.62933022;stroke-linecap:butt;stroke-linejoin:round;stroke-miterlimit:4;stroke-dasharray:none;stroke-opacity:1;display:inline" />
    <path
       d="M 271.19088,114.50504 L 215.67552,114.50504"
       id="path2299"
       inkscape:export-xdpi="300"
       inkscape:export-filename="/home/bg/workspace/AnonAccess/Doc/CCC07-Vortrag/ansatz1ablauf.png"
       inkscape:export-ydpi="300"
       style="fill:none;fill-rule:evenodd;stroke:#000000;stroke-width:1.24422514;stroke-linecap:butt;stroke-linejoin:miter;stroke-miterlimit:4;stroke-dasharray:1.24422514, 1.24422514;stroke-dashoffset:0;stroke-opacity:1" />
    <path
       d="M 271.17293,128.60201 L 215.65757,128.60201"
       id="path3272"
       inkscape:export-xdpi="300"
       inkscape:export-filename="/home/bg/workspace/AnonAccess/Doc/CCC07-Vortrag/ansatz1ablauf.png"
       inkscape:export-ydpi="300"
       style="fill:none;fill-rule:evenodd;stroke:#000000;stroke-width:1.24422514;stroke-linecap:butt;stroke-linejoin:miter;stroke-miterlimit:4;stroke-dasharray:1.24422514, 1.24422514;stroke-dashoffset:0;stroke-opacity:1" />
    <text
       id="text3274"
       inkscape:export-xdpi="300"
       y="125.48981"
       inkscape:export-filename="/home/bg/workspace/AnonAccess/Doc/CCC07-Vortrag/ansatz1ablauf.png"
       inkscape:export-ydpi="300"
       style="font-size:12px;font-style:normal;font-weight:normal;fill:#000000;fill-opacity:1;stroke:none;stroke-width:1px;stroke-linecap:butt;stroke-linejoin:miter;stroke-opacity:1;font-family:Bitstream Vera Sans"
       xml:space="preserve"
       x="216.17096"><tspan
         sodipodi:role="line"
         id="tspan3276"
         y="125.48981"
         x="216.17096">h(Ticket)</tspan></text>
    <path
       d="M 201.21429,133.79075 L 10.5,133.79075"
       id="path2258"
       inkscape:export-xdpi="300"
       inkscape:export-filename="/home/bg/workspace/AnonAccess/Doc/CCC07-Vortrag/ansatz1ablauf.png"
       inkscape:export-ydpi="300"
       style="fill:none;fill-rule:evenodd;stroke:#000000;stroke-width:1px;stroke-linecap:butt;stroke-linejoin:miter;stroke-opacity:1" />
    <path
       d="M 191.21429,123.79075 C 201.21429,134.40603 201.21429,134.40603 201.21429,134.40603 L 191.21429,144.25501"
       id="path2260"
       inkscape:export-xdpi="300"
       inkscape:export-filename="/home/bg/workspace/AnonAccess/Doc/CCC07-Vortrag/ansatz1ablauf.png"
       inkscape:export-ydpi="300"
       style="fill:none;fill-rule:evenodd;stroke:#000000;stroke-width:1px;stroke-linecap:butt;stroke-linejoin:miter;stroke-opacity:1" />
    <path
       d="M 11.75359,200.70148 L 203.16821,200.70148"
       id="path2262"
       inkscape:export-xdpi="300"
       inkscape:export-filename="/home/bg/workspace/AnonAccess/Doc/CCC07-Vortrag/ansatz1ablauf.png"
       inkscape:export-ydpi="300"
       style="fill:none;fill-rule:evenodd;stroke:#000000;stroke-width:1.00183439px;stroke-linecap:butt;stroke-linejoin:miter;stroke-opacity:1" />
    <path
       d="M 21.74661,190.70148 C 11.74661,201.31676 11.74661,201.31676 11.74661,201.31676 L 21.74661,211.16574"
       id="path2264"
       inkscape:export-xdpi="300"
       inkscape:export-filename="/home/bg/workspace/AnonAccess/Doc/CCC07-Vortrag/ansatz1ablauf.png"
       inkscape:export-ydpi="300"
       style="fill:none;fill-rule:evenodd;stroke:#000000;stroke-width:1px;stroke-linecap:butt;stroke-linejoin:miter;stroke-opacity:1" />
    <text
       id="text2266"
       inkscape:export-xdpi="300"
       y="128.07648"
       inkscape:export-filename="/home/bg/workspace/AnonAccess/Doc/CCC07-Vortrag/ansatz1ablauf.png"
       inkscape:export-ydpi="300"
       style="font-size:12px;font-style:normal;font-weight:normal;fill:#000000;fill-opacity:1;stroke:none;stroke-width:1px;stroke-linecap:butt;stroke-linejoin:miter;stroke-opacity:1;font-family:Bitstream Vera Sans"
       xml:space="preserve"
       x="59.785717"><tspan
         sodipodi:role="line"
         id="tspan2270"
         y="128.07648"
         x="59.785717">AuthBlock a</tspan></text>
    <text
       id="text2274"
       inkscape:export-xdpi="300"
       y="195.21931"
       inkscape:export-filename="/home/bg/workspace/AnonAccess/Doc/CCC07-Vortrag/ansatz1ablauf.png"
       inkscape:export-ydpi="300"
       style="font-size:12px;font-style:normal;font-weight:normal;fill:#000000;fill-opacity:1;stroke:none;stroke-width:1px;stroke-linecap:butt;stroke-linejoin:miter;stroke-opacity:1;font-family:Bitstream Vera Sans"
       xml:space="preserve"
       x="61.120541"><tspan
         sodipodi:role="line"
         id="tspan2276"
         y="195.21931"
         x="61.120541">AuthBlock b</tspan></text>
    <text
       xml:space="preserve"
       style="font-size:12px;font-style:normal;font-weight:normal;fill:#000000;fill-opacity:1;stroke:none;stroke-width:1px;stroke-linecap:butt;stroke-linejoin:miter;stroke-opacity:1;font-family:Bitstream Vera Sans"
       id="text2345"
       y="284.50504"
       x="331.42856"><tspan
         sodipodi:role="line"
         id="tspan2349"
         y="284.50504"
         x="331.42856" /></text>
    <g
       id="g3529"
       transform="matrix(0.258027,0,0,0.258027,72.54491,79.506571)">
      <g
         id="g3531"
         transform="matrix(1.0629921,0,0,-1.0629921,-186.02362,789.27165)"
         style="font-style:normal;font-variant:normal;font-weight:normal;font-stretch:normal;letter-spacing:normal;word-spacing:normal;text-anchor:start;fill:none;fill-opacity:1;stroke:#000000;stroke-linecap:butt;stroke-linejoin:miter;stroke-miterlimit:10.43299961;stroke-dasharray:none;stroke-dashoffset:0;stroke-opacity:1"
         xml:space="preserve"><path
           id="path3533"
           d="M 467.91,440.02 L 467.91,440.03 L 467.91,440.03 L 467.91,440.04 L 467.91,440.05 L 467.9,440.06 L 467.9,440.07 L 467.9,440.09 L 467.9,440.11 L 467.9,440.13 L 467.89,440.15 L 467.89,440.17 L 467.88,440.19 L 467.87,440.22 L 467.86,440.24 L 467.85,440.27 L 467.84,440.29 L 467.83,440.31 L 467.81,440.34 L 467.79,440.36 L 467.77,440.39 L 467.75,440.41 L 467.74,440.42 L 467.72,440.43 L 467.71,440.44 L 467.7,440.45 L 467.68,440.46 L 467.67,440.47 L 467.65,440.48 L 467.63,440.49 L 467.62,440.5 L 467.6,440.51 L 467.58,440.52 L 467.56,440.52 L 467.54,440.53 L 467.52,440.54 L 467.49,440.54 L 467.47,440.55 L 467.45,440.55 L 467.42,440.56 L 467.4,440.56 L 467.37,440.56 L 467.34,440.57 L 467.32,440.57 L 467.29,440.57 L 467.26,440.57 C 466.11,440.57 462.48,440.17 461.18,440.07 C 460.78,440.02 460.23,439.97 460.23,439.07 C 460.23,438.48 460.68,438.48 461.43,438.48 C 463.82,438.48 463.92,438.13 463.92,437.63 C 463.92,437.28 463.47,435.59 463.22,434.54 L 459.14,418.3 C 458.54,415.81 458.34,415.02 458.34,413.27 C 458.34,408.54 460.98,405.45 464.67,405.45 L 464.67,406.55 C 462.97,406.55 461.33,407.89 461.33,411.58 C 461.33,412.53 461.33,413.47 462.13,416.61 L 463.22,421.19 C 463.52,422.29 463.52,422.39 463.97,422.94 C 466.41,426.18 468.65,426.92 469.95,426.92 C 471.74,426.92 473.09,425.43 473.09,422.24 C 473.09,419.3 471.44,413.57 470.55,411.68 C 468.9,408.34 466.61,406.55 464.67,406.55 L 464.67,405.45 C 470.55,405.45 476.67,412.88 476.67,420.05 C 476.67,424.58 474.03,428.02 470.05,428.02 C 467.76,428.02 465.71,426.57 464.22,425.03 L 467.91,440.02 z "
           style="fill:#000000;stroke-width:0" /><path
           id="path3535"
           d="M 536.33,417.46 L 536.47,417.46 L 536.61,417.46 L 536.76,417.46 L 536.83,417.47 L 536.9,417.47 L 536.97,417.48 L 537.04,417.49 L 537.11,417.5 L 537.18,417.51 L 537.24,417.52 L 537.31,417.54 L 537.37,417.56 L 537.43,417.58 L 537.49,417.61 L 537.55,417.63 L 537.6,417.67 L 537.65,417.7 L 537.7,417.74 L 537.74,417.78 L 537.78,417.83 L 537.82,417.88 L 537.84,417.9 L 537.86,417.93 L 537.87,417.96 L 537.89,417.99 L 537.9,418.02 L 537.91,418.06 L 537.92,418.09 L 537.93,418.12 L 537.94,418.16 L 537.95,418.2 L 537.96,418.24 L 537.96,418.28 L 537.97,418.32 L 537.97,418.36 L 537.97,418.41 L 537.97,418.45 C 537.97,419.45 537.08,419.45 536.33,419.45 L 498.02,419.45 C 501.76,422.19 503.4,426.32 503.4,426.72 C 503.4,427.17 503,427.32 502.66,427.32 C 502.06,427.32 501.96,427.02 501.86,426.82 C 501.11,425.08 499.52,421.49 494.54,419.15 C 493.99,418.85 493.84,418.8 493.84,418.45 C 493.84,418.11 494.09,418 494.44,417.8 C 498.57,415.86 500.46,413.17 501.81,410.29 C 502.01,409.84 502.11,409.59 502.66,409.59 C 503,409.59 503.4,409.73 503.4,410.18 C 503.4,410.58 501.76,414.72 498.02,417.46 L 536.33,417.46 z "
           style="fill:#000000;stroke-width:0" /><path
           id="path3537"
           d="M 577.46,424.78 L 577.47,424.84 L 577.48,424.89 L 577.49,424.94 L 577.51,425 L 577.53,425.1 L 577.54,425.16 L 577.56,425.21 L 577.57,425.26 L 577.58,425.32 L 577.59,425.37 L 577.6,425.43 L 577.6,425.49 L 577.61,425.55 L 577.61,425.58 L 577.61,425.61 L 577.61,425.64 L 577.61,425.68 C 577.61,426.52 577.02,427.02 576.17,427.02 C 575.67,427.02 574.32,426.67 574.12,424.88 C 573.23,426.72 571.48,428.02 569.49,428.02 L 569.54,426.92 C 572.83,426.92 573.53,422.89 573.53,422.64 C 573.53,422.39 573.43,422.09 573.38,421.89 L 570.98,412.38 C 570.69,411.08 569.54,409.84 568.45,408.89 C 567.4,407.99 565.85,407.1 564.41,407.1 C 561.92,407.1 561.17,409.69 561.17,411.68 C 561.17,414.07 562.62,419.95 563.96,422.49 C 565.31,424.93 567.45,426.92 569.54,426.92 L 569.49,428.02 C 563.81,428.02 557.64,421.04 557.64,413.87 C 557.64,408.94 560.68,406 564.26,406 C 567.2,406 569.54,408.34 570.04,408.89 L 570.09,408.84 C 569.04,404.41 568.45,402.36 568.45,402.27 C 568.25,401.82 566.55,396.88 561.27,396.88 C 560.33,396.88 558.68,396.93 557.29,397.38 C 558.78,397.83 559.33,399.12 559.33,399.97 C 559.33,400.77 558.78,401.71 557.44,401.71 C 556.34,401.71 554.75,400.82 554.75,398.83 C 554.75,396.79 556.59,395.79 561.37,395.79 C 567.6,395.79 571.18,399.67 571.93,402.66 L 577.46,424.78 z "
           style="fill:#000000;stroke-width:0" /><path
           id="path3539"
           d="M 589.32,417.51 L 589.46,417.51 L 589.61,417.51 L 589.78,417.51 L 589.96,417.51 L 590.14,417.52 L 590.34,417.52 L 590.55,417.53 L 590.76,417.54 L 590.99,417.55 L 591.22,417.56 L 591.46,417.58 L 591.7,417.59 L 591.95,417.61 L 592.21,417.64 L 592.73,417.69 L 593.27,417.75 L 593.81,417.83 L 594.36,417.92 L 594.9,418.03 L 595.43,418.16 L 595.7,418.23 L 595.95,418.3 L 596.21,418.38 L 596.46,418.47 L 596.7,418.56 L 596.94,418.65 C 600.42,420.15 600.67,423.09 600.67,423.79 C 600.67,425.98 598.78,428.02 595.34,428.02 L 595.34,426.92 C 597.68,426.92 599.03,425.48 599.03,423.79 C 599.03,418.6 591.06,418.6 589.02,418.6 L 586.97,418.6 C 588.92,426.18 594.05,426.92 595.34,426.92 L 595.34,428.02 C 589.81,428.02 582.29,423.18 582.29,414.47 C 582.29,409.39 585.23,405.45 590.11,405.45 C 597.23,405.45 601.42,410.73 601.42,411.33 C 601.42,411.63 601.12,411.98 600.82,411.98 C 600.57,411.98 600.47,411.88 600.18,411.48 C 596.24,406.55 590.81,406.55 590.21,406.55 C 586.33,406.55 585.88,410.73 585.88,412.33 C 585.88,412.93 585.93,414.47 586.68,417.51 L 589.32,417.51 z "
           style="fill:#000000;stroke-width:0" /><path
           id="path3541"
           d="M 607.38,408.94 L 607.37,408.87 L 607.35,408.79 L 607.34,408.72 L 607.32,408.64 L 607.29,408.48 L 607.25,408.32 L 607.21,408.16 L 607.18,408 L 607.14,407.84 L 607.1,407.68 L 607.09,407.6 L 607.07,407.53 L 607.05,407.46 L 607.04,407.39 L 607.02,407.32 L 607.01,407.25 L 607,407.19 L 606.98,407.13 L 606.97,407.08 L 606.96,407.02 L 606.95,406.97 L 606.95,406.93 L 606.94,406.89 L 606.94,406.85 L 606.93,406.82 L 606.93,406.8 C 606.93,405.9 607.63,405.45 608.38,405.45 C 608.98,405.45 609.88,405.85 610.22,406.85 C 610.27,406.95 610.87,409.29 611.17,410.53 C 611.52,412.03 611.92,413.52 612.27,415.02 C 612.56,416.11 612.86,417.21 613.11,418.36 C 613.31,419.2 613.71,420.64 613.76,420.84 C 614.51,422.39 617.15,426.92 621.88,426.92 C 624.12,426.92 624.57,425.08 624.57,423.43 C 624.57,420.35 622.13,413.97 621.33,411.83 C 620.88,410.68 620.83,410.09 620.83,409.54 C 620.83,407.2 622.58,405.45 624.92,405.45 C 629.6,405.45 631.44,412.73 631.44,413.12 C 631.44,413.62 631,413.62 630.84,413.62 C 630.35,413.62 630.35,413.47 630.1,412.73 C 629.1,409.34 627.46,406.55 625.02,406.55 C 624.17,406.55 623.82,407.05 623.82,408.19 C 623.82,409.44 624.27,410.63 624.72,411.73 C 625.66,414.37 627.76,419.85 627.76,422.69 C 627.76,426.02 625.61,428.02 622.03,428.02 C 617.55,428.02 615.1,424.83 614.26,423.68 C 614.01,426.47 611.97,428.02 609.68,428.02 C 607.38,428.02 606.44,426.07 605.94,425.18 C 605.14,423.48 604.45,420.55 604.45,420.35 C 604.45,419.85 604.94,419.85 605.04,419.85 C 605.54,419.85 605.59,419.9 605.89,420.99 C 606.73,424.53 607.73,426.92 609.53,426.92 C 610.52,426.92 611.07,426.27 611.07,424.63 C 611.07,423.59 610.92,423.04 610.27,420.45 L 607.38,408.94 z "
           style="fill:#000000;stroke-width:0" /><path
           id="path3543"
           d="M 641.92,411.73 L 641.73,411.42 L 641.54,411.13 L 641.36,410.86 L 641.17,410.6 L 640.99,410.35 L 640.8,410.12 L 640.61,409.89 L 640.43,409.69 L 640.24,409.49 L 640.06,409.31 L 639.87,409.14 L 639.68,408.98 L 639.49,408.83 L 639.31,408.69 L 639.12,408.56 L 638.93,408.44 L 638.74,408.33 L 638.55,408.23 L 638.36,408.14 L 638.17,408.05 L 637.97,407.98 L 637.78,407.91 L 637.59,407.85 L 637.39,407.79 L 637.19,407.74 L 637,407.7 L 636.8,407.66 L 636.6,407.63 L 636.2,407.58 L 635.79,407.54 C 635.19,407.5 634.74,407.5 634.74,406.55 C 634.74,406.25 634.99,406 635.39,406 C 636.73,406 638.28,406.15 639.68,406.15 C 641.32,406.15 643.06,406 644.66,406 C 644.96,406 645.6,406 645.6,406.95 C 645.6,407.5 645.16,407.54 644.8,407.54 C 643.66,407.64 642.47,408.04 642.47,409.29 C 642.47,409.89 642.76,410.43 643.16,411.13 C 643.51,411.73 643.56,411.73 646.95,417.51 L 659.45,417.51 L 659.3,419.05 L 647.9,419.05 L 657.71,435.49 L 659.3,419.05 L 659.45,417.51 C 659.55,416.46 660.25,409.69 660.25,409.19 C 660.25,407.7 657.66,407.54 656.66,407.54 C 655.97,407.54 655.47,407.54 655.47,406.55 C 655.47,406 656.06,406 656.16,406 C 658.21,406 660.35,406.15 662.39,406.15 C 663.64,406.15 666.77,406 668.02,406 C 668.32,406 668.91,406 668.91,407 C 668.91,407.54 668.42,407.54 667.77,407.54 C 664.68,407.54 664.68,407.89 664.53,409.34 L 661.49,440.47 C 661.4,441.47 661.4,441.67 660.55,441.67 C 659.75,441.67 659.55,441.32 659.25,440.82 L 641.92,411.73 z "
           style="fill:#000000;stroke-width:0" /><path
           id="path3545"
           d="M 687.43,408.79 L 687.49,408.6 L 687.55,408.41 L 687.62,408.23 L 687.69,408.06 L 687.78,407.89 L 687.86,407.72 L 687.96,407.56 L 688.06,407.41 L 688.16,407.26 L 688.27,407.11 L 688.39,406.97 L 688.51,406.84 L 688.64,406.71 L 688.77,406.58 L 688.91,406.47 L 689.05,406.35 L 689.2,406.25 L 689.35,406.15 L 689.51,406.06 L 689.67,405.97 L 689.83,405.89 L 690,405.82 L 690.17,405.75 L 690.35,405.69 L 690.53,405.63 L 690.71,405.59 L 690.9,405.55 L 691.08,405.51 L 691.28,405.49 L 691.47,405.47 L 691.67,405.46 L 691.87,405.45 C 693.61,405.45 694.76,406.6 695.55,408.19 C 696.4,409.98 697.05,413.02 697.05,413.12 C 697.05,413.62 696.6,413.62 696.45,413.62 C 695.95,413.62 695.9,413.42 695.75,412.73 C 695.05,409.93 694.11,406.55 692.02,406.55 C 690.97,406.55 690.47,407.2 690.47,408.84 C 690.47,409.93 691.07,412.28 691.47,414.02 C 691.92,415.81 692.41,417.61 692.86,419.4 C 693.02,420.15 693.51,422.04 693.71,422.79 C 693.96,423.93 694.46,425.82 694.46,426.12 C 694.46,427.02 693.76,427.47 693.02,427.47 C 692.77,427.47 691.47,427.42 691.07,425.73 C 690.12,422.09 687.93,413.37 687.34,410.73 C 687.28,410.53 685.29,406.55 681.66,406.55 C 679.07,406.55 678.57,408.79 678.57,410.63 C 678.57,413.42 679.96,417.36 681.26,420.79 C 681.85,422.29 682.1,422.98 682.1,423.93 C 682.1,426.18 680.51,428.02 678.02,428.02 C 673.29,428.02 671.45,420.79 671.45,420.35 C 671.45,419.85 671.94,419.85 672.04,419.85 C 672.54,419.85 672.59,419.95 672.84,420.75 C 674.09,425.08 675.98,426.92 677.87,426.92 C 678.32,426.92 679.12,426.87 679.12,425.28 C 679.12,424.08 678.57,422.64 678.27,421.89 C 676.43,416.96 675.38,413.87 675.38,411.43 C 675.38,406.7 678.82,405.45 681.51,405.45 C 684.79,405.45 686.59,407.7 687.43,408.79 z "
           style="fill:#000000;stroke-width:0" /><path
           id="path3547"
           d="M 709.26,425.93 L 713.95,425.93 C 714.94,425.93 715.44,425.93 715.44,426.92 C 715.44,427.47 714.94,427.47 714.04,427.47 L 709.66,427.47 C 711.45,434.54 711.7,435.54 711.7,435.84 C 711.7,436.68 711.1,437.18 710.26,437.18 C 710.11,437.18 708.72,437.13 708.27,435.39 L 706.32,427.47 L 701.64,427.47 C 700.65,427.47 700.15,427.47 700.15,426.52 C 700.15,425.93 700.54,425.93 701.54,425.93 L 705.93,425.93 C 702.34,411.78 702.14,410.93 702.14,410.04 C 702.14,407.34 704.03,405.45 706.72,405.45 C 711.8,405.45 714.64,412.73 714.64,413.12 C 714.64,413.62 714.24,413.62 714.04,413.62 C 713.59,413.62 713.55,413.47 713.3,412.93 C 711.16,407.74 708.52,406.55 706.82,406.55 C 705.77,406.55 705.28,407.2 705.28,408.84 C 705.28,410.04 705.38,410.38 705.57,411.23 L 709.26,425.93 z "
           style="fill:#000000;stroke-width:0" /><path
           id="path3549"
           d="M 731.3,440.02 L 731.3,440.03 L 731.3,440.03 L 731.3,440.04 L 731.3,440.05 L 731.3,440.06 L 731.29,440.07 L 731.29,440.09 L 731.29,440.11 L 731.29,440.13 L 731.28,440.15 L 731.28,440.17 L 731.27,440.19 L 731.26,440.22 L 731.25,440.24 L 731.24,440.27 L 731.23,440.29 L 731.22,440.31 L 731.2,440.34 L 731.18,440.36 L 731.16,440.39 L 731.14,440.41 L 731.13,440.42 L 731.11,440.43 L 731.1,440.44 L 731.09,440.45 L 731.07,440.46 L 731.06,440.47 L 731.04,440.48 L 731.02,440.49 L 731.01,440.5 L 730.99,440.51 L 730.97,440.52 L 730.95,440.52 L 730.93,440.53 L 730.91,440.54 L 730.89,440.54 L 730.86,440.55 L 730.84,440.55 L 730.81,440.56 L 730.79,440.56 L 730.76,440.56 L 730.74,440.57 L 730.71,440.57 L 730.68,440.57 L 730.65,440.57 C 729.5,440.57 725.87,440.17 724.57,440.07 C 724.17,440.02 723.62,439.97 723.62,439.07 C 723.62,438.48 724.07,438.48 724.82,438.48 C 727.21,438.48 727.31,438.13 727.31,437.63 L 727.16,436.64 L 719.94,407.94 C 719.74,407.25 719.74,407.14 719.74,406.85 C 719.74,405.7 720.73,405.45 721.18,405.45 C 721.98,405.45 722.78,406.05 723.03,406.75 L 723.97,410.53 C 724.32,412.03 724.72,413.52 725.07,415.02 C 725.37,416.11 725.67,417.21 725.92,418.36 C 726.02,418.65 726.41,420.3 726.47,420.59 C 726.61,421.04 728.16,423.83 729.85,425.18 C 730.95,425.98 732.49,426.92 734.63,426.92 C 736.78,426.92 737.32,425.23 737.32,423.43 C 737.32,420.75 735.43,415.32 734.23,412.28 C 733.84,411.13 733.59,410.53 733.59,409.54 C 733.59,407.2 735.33,405.45 737.67,405.45 C 742.35,405.45 744.2,412.73 744.2,413.12 C 744.2,413.62 743.75,413.62 743.6,413.62 C 743.1,413.62 743.1,413.47 742.85,412.73 C 742.1,410.09 740.51,406.55 737.77,406.55 C 736.93,406.55 736.58,407.05 736.58,408.19 C 736.58,409.44 737.02,410.63 737.47,411.73 C 738.27,413.87 740.51,419.8 740.51,422.69 C 740.51,425.93 738.52,428.02 734.78,428.02 C 731.65,428.02 729.25,426.47 727.41,424.18 L 731.3,440.02 z "
           style="fill:#000000;stroke-width:0" /><path
           id="path3551"
           d="M 753.97,409.89 L 753.92,409.71 L 753.88,409.54 L 753.84,409.38 L 753.79,409.23 L 753.75,409.08 L 753.7,408.95 L 753.66,408.82 L 753.6,408.7 L 753.55,408.59 L 753.49,408.48 L 753.43,408.38 L 753.35,408.29 L 753.28,408.2 L 753.19,408.13 L 753.1,408.05 L 752.99,407.99 L 752.88,407.92 L 752.75,407.87 L 752.62,407.82 L 752.47,407.77 L 752.31,407.73 L 752.22,407.71 L 752.13,407.69 L 752.04,407.68 L 751.94,407.66 L 751.84,407.65 L 751.74,407.64 L 751.63,407.62 L 751.51,407.61 L 751.4,407.6 L 751.27,407.59 L 751.15,407.58 L 751.02,407.58 L 750.88,407.57 L 750.74,407.56 L 750.6,407.56 L 750.45,407.55 L 750.29,407.55 L 750.13,407.55 L 749.97,407.55 L 749.8,407.54 L 749.62,407.54 L 749.44,407.54 C 748.59,407.54 748.09,407.54 748.09,406.55 C 748.09,406 748.54,406 749.44,406 L 767.22,406 C 775.09,406 780.97,411.88 780.97,416.76 C 780.97,420.35 778.08,423.23 773.25,423.79 C 778.43,424.73 783.66,428.41 783.66,433.15 C 783.66,436.84 780.37,440.02 774.4,440.02 L 773.7,438.48 C 778.08,438.48 779.12,435.54 779.12,433.35 C 779.12,428.96 774.84,424.23 768.77,424.23 L 761.49,424.23 L 761.19,423.14 L 770.61,423.14 C 775.39,423.14 776.34,419.45 776.34,417.31 C 776.34,412.38 771.9,407.54 766.02,407.54 L 759.25,407.54 C 758.55,407.54 758.45,407.54 758.16,407.59 C 757.66,407.64 757.51,407.7 757.51,408.09 C 757.51,408.24 757.51,408.34 757.76,409.24 L 761.19,423.14 L 761.49,424.23 L 764.58,436.59 C 765.03,438.33 765.13,438.48 767.27,438.48 L 773.7,438.48 L 774.4,440.02 L 757.66,440.02 C 756.71,440.02 756.21,440.02 756.21,439.03 C 756.21,438.48 756.66,438.48 757.6,438.48 C 757.71,438.48 758.65,438.48 759.5,438.38 C 760.4,438.28 760.84,438.23 760.84,437.58 C 760.84,437.38 760.79,437.23 760.65,436.64 L 753.97,409.89 z "
           style="fill:#000000;stroke-width:0" /><path
           id="path3553"
           d="M 798.85,440.02 L 798.85,440.03 L 798.85,440.03 L 798.85,440.04 L 798.85,440.05 L 798.85,440.06 L 798.85,440.07 L 798.85,440.09 L 798.85,440.11 L 798.84,440.13 L 798.84,440.15 L 798.83,440.17 L 798.83,440.19 L 798.82,440.22 L 798.81,440.24 L 798.8,440.27 L 798.79,440.29 L 798.77,440.31 L 798.75,440.34 L 798.74,440.36 L 798.72,440.39 L 798.69,440.41 L 798.68,440.42 L 798.67,440.43 L 798.66,440.44 L 798.64,440.45 L 798.63,440.46 L 798.61,440.47 L 798.59,440.48 L 798.58,440.49 L 798.56,440.5 L 798.54,440.51 L 798.52,440.52 L 798.5,440.52 L 798.48,440.53 L 798.46,440.54 L 798.44,440.54 L 798.42,440.55 L 798.39,440.55 L 798.37,440.56 L 798.34,440.56 L 798.32,440.56 L 798.29,440.57 L 798.26,440.57 L 798.23,440.57 L 798.2,440.57 C 797.06,440.57 793.42,440.17 792.13,440.07 C 791.73,440.02 791.18,439.97 791.18,439.03 C 791.18,438.48 791.68,438.48 792.43,438.48 C 794.82,438.48 794.87,438.03 794.87,437.63 L 794.72,436.64 L 788.44,411.73 C 788.29,411.18 788.19,410.83 788.19,410.04 C 788.19,407.2 790.38,405.45 792.73,405.45 C 794.37,405.45 795.61,406.45 796.46,408.24 C 797.35,410.13 797.96,413.02 797.96,413.12 C 797.96,413.62 797.51,413.62 797.35,413.62 C 796.86,413.62 796.81,413.42 796.66,412.73 C 795.81,409.49 794.87,406.55 792.88,406.55 C 791.38,406.55 791.38,408.14 791.38,408.84 C 791.38,410.04 791.43,410.29 791.68,411.23 L 798.85,440.02 z "
           style="fill:#000000;stroke-width:0" /><path
           id="path3555"
           d="M 825.36,419.6 L 825.35,420.08 L 825.32,420.55 L 825.27,421 L 825.2,421.45 L 825.12,421.88 L 825.01,422.3 L 824.89,422.71 L 824.75,423.1 L 824.59,423.48 L 824.42,423.85 L 824.23,424.2 L 824.02,424.54 L 823.8,424.86 L 823.57,425.17 L 823.32,425.47 L 823.06,425.75 L 822.78,426.02 L 822.5,426.27 L 822.2,426.5 L 821.88,426.72 L 821.56,426.92 L 821.23,427.11 L 820.88,427.28 L 820.53,427.43 L 820.16,427.57 L 819.79,427.68 L 819.41,427.78 L 819.02,427.87 L 818.62,427.93 L 818.22,427.98 L 817.81,428.01 L 817.39,428.02 L 817.34,426.92 C 820.23,426.92 821.73,424.53 821.73,421.54 C 821.73,419.6 820.73,414.37 818.84,411.13 C 817.09,408.24 814.35,406.55 812.06,406.55 L 812.06,406.55 C 809.92,406.55 807.73,408.09 807.73,411.98 C 807.73,414.42 809.02,419.8 810.62,422.34 C 813.11,426.18 815.95,426.92 817.34,426.92 L 817.39,428.02 C 810.72,428.02 804.04,420.95 804.04,413.87 C 804.04,408.94 807.38,405.45 812.01,405.45 C 818.64,405.45 825.36,412.33 825.36,419.6 z "
           style="fill:#000000;stroke-width:0" /><path
           id="path3557"
           d="M 845.73,424.93 L 845.58,424.93 L 845.43,424.93 L 845.29,424.93 L 845.15,424.92 L 845.01,424.91 L 844.87,424.89 L 844.8,424.88 L 844.73,424.87 L 844.66,424.86 L 844.59,424.84 L 844.53,424.83 L 844.46,424.81 L 844.39,424.78 L 844.32,424.76 L 844.26,424.73 L 844.19,424.7 L 844.12,424.67 L 844.06,424.63 L 843.99,424.6 L 843.93,424.55 L 843.86,424.51 L 843.8,424.46 L 843.73,424.41 L 843.67,424.35 L 843.6,424.29 L 843.53,424.23 C 842.74,423.48 842.64,422.64 842.64,422.29 C 842.64,421.09 843.53,420.55 844.48,420.55 C 845.93,420.55 847.27,421.74 847.27,423.73 C 847.27,426.18 844.93,428.02 841.39,428.02 C 834.67,428.02 828.04,420.89 828.04,413.87 C 828.04,409.39 830.93,405.45 836.11,405.45 C 843.23,405.45 847.42,410.73 847.42,411.33 C 847.42,411.63 847.12,411.98 846.82,411.98 C 846.57,411.98 846.47,411.88 846.18,411.48 C 842.24,406.55 836.81,406.55 836.21,406.55 C 833.07,406.55 831.73,408.99 831.73,411.98 C 831.73,414.02 832.73,418.85 834.42,421.94 C 835.96,424.78 838.7,426.92 841.44,426.92 C 843.14,426.92 845.03,426.27 845.73,424.93 z "
           style="fill:#000000;stroke-width:0" /><path
           id="path3559"
           d="M 861.3,440.02 L 861.3,440.03 L 861.3,440.03 L 861.3,440.04 L 861.3,440.05 L 861.3,440.06 L 861.29,440.07 L 861.29,440.09 L 861.29,440.11 L 861.29,440.13 L 861.28,440.15 L 861.28,440.17 L 861.27,440.19 L 861.26,440.22 L 861.25,440.24 L 861.24,440.27 L 861.23,440.29 L 861.22,440.31 L 861.2,440.34 L 861.18,440.36 L 861.16,440.39 L 861.14,440.41 L 861.13,440.42 L 861.11,440.43 L 861.1,440.44 L 861.09,440.45 L 861.07,440.46 L 861.06,440.47 L 861.04,440.48 L 861.02,440.49 L 861.01,440.5 L 860.99,440.51 L 860.97,440.52 L 860.95,440.52 L 860.93,440.53 L 860.91,440.54 L 860.89,440.54 L 860.86,440.55 L 860.84,440.55 L 860.81,440.56 L 860.79,440.56 L 860.76,440.56 L 860.74,440.57 L 860.71,440.57 L 860.68,440.57 L 860.65,440.57 C 859.5,440.57 855.87,440.17 854.57,440.07 C 854.17,440.02 853.62,439.97 853.62,439.07 C 853.62,438.48 854.07,438.48 854.82,438.48 C 857.21,438.48 857.31,438.13 857.31,437.63 L 857.16,436.64 L 849.94,407.94 C 849.74,407.25 849.74,407.14 849.74,406.85 C 849.74,405.7 850.73,405.45 851.18,405.45 C 851.83,405.45 852.58,405.9 852.88,406.5 C 853.13,406.95 855.37,416.16 855.67,417.41 C 857.36,417.26 861.45,416.46 861.45,413.17 C 861.45,412.82 861.45,412.62 861.3,412.13 C 861.2,411.53 861.1,410.93 861.1,410.38 C 861.1,407.45 863.09,405.45 865.68,405.45 C 867.18,405.45 868.52,406.25 869.61,408.09 C 870.86,410.29 871.41,413.02 871.41,413.12 C 871.41,413.62 870.96,413.62 870.81,413.62 C 870.31,413.62 870.26,413.42 870.11,412.73 C 869.12,409.09 867.97,406.55 865.78,406.55 C 864.83,406.55 864.18,407.1 864.18,408.89 C 864.18,409.73 864.39,410.88 864.59,411.68 C 864.78,412.53 864.78,412.73 864.78,413.22 C 864.78,416.46 861.65,417.91 857.41,418.45 C 858.96,419.35 860.55,420.95 861.7,422.14 C 864.09,424.78 866.38,426.92 868.82,426.92 C 869.12,426.92 869.17,426.92 869.27,426.87 C 869.86,426.77 869.91,426.77 870.31,426.47 C 870.41,426.42 870.41,426.38 870.51,426.27 C 868.12,426.12 867.67,424.18 867.67,423.59 C 867.67,422.79 868.22,421.84 869.57,421.84 C 870.86,421.84 872.3,422.94 872.3,424.88 C 872.3,426.38 871.16,428.02 868.92,428.02 C 867.52,428.02 865.23,427.62 861.65,423.63 C 859.95,421.74 858.01,419.75 856.12,419 L 861.3,440.02 z "
           style="fill:#000000;stroke-width:0" /><path
           id="path3561"
           d="M 899.49,394.04 L 899.49,394.07 L 899.49,394.1 L 899.48,394.11 L 899.48,394.13 L 899.48,394.14 L 899.47,394.16 L 899.47,394.18 L 899.46,394.19 L 899.45,394.21 L 899.44,394.23 L 899.43,394.26 L 899.42,394.28 L 899.4,394.3 L 899.38,394.33 L 899.36,394.36 L 899.34,394.39 L 899.31,394.42 L 899.28,394.46 L 899.27,394.48 L 899.25,394.5 L 899.23,394.52 L 899.21,394.54 L 899.19,394.56 L 899.17,394.59 L 899.15,394.61 L 899.13,394.63 L 899.11,394.66 L 899.08,394.68 L 899.06,394.71 L 899.03,394.74 L 899.01,394.77 L 898.98,394.8 L 898.95,394.83 L 898.92,394.86 L 898.89,394.89 L 898.86,394.92 L 898.82,394.96 L 898.79,394.99 L 898.75,395.03 L 898.72,395.06 L 898.68,395.1 L 898.64,395.14 C 892.41,401.42 890.82,410.83 890.82,418.45 C 890.82,427.12 892.72,435.79 898.84,442.02 C 899.49,442.61 899.49,442.71 899.49,442.86 C 899.49,443.21 899.29,443.36 898.99,443.36 C 898.49,443.36 894.01,439.97 891.07,433.64 C 888.53,428.17 887.93,422.64 887.93,418.45 C 887.93,414.57 888.48,408.54 891.22,402.91 C 894.21,396.79 898.49,393.55 898.99,393.55 C 899.29,393.55 899.49,393.7 899.49,394.04 z "
           style="fill:#000000;stroke-width:0" /><path
           id="path3563"
           d="M 917.4,418.45 L 917.39,418.82 L 917.39,419.21 L 917.38,419.6 L 917.37,420.01 L 917.33,420.85 L 917.27,421.73 L 917.18,422.65 L 917.08,423.59 L 916.94,424.57 L 916.78,425.57 L 916.58,426.59 L 916.35,427.63 L 916.08,428.68 L 915.78,429.74 L 915.43,430.8 L 915.04,431.87 L 914.82,432.4 L 914.6,432.94 L 914.36,433.47 L 914.11,434 C 911.12,440.12 906.84,443.36 906.34,443.36 C 906.04,443.36 905.84,443.16 905.84,442.86 C 905.84,442.71 905.84,442.61 906.78,441.71 C 911.67,436.79 914.51,428.86 914.51,418.45 C 914.51,409.93 912.66,401.17 906.49,394.89 C 905.84,394.29 905.84,394.2 905.84,394.04 C 905.84,393.75 906.04,393.55 906.34,393.55 C 906.84,393.55 911.32,396.93 914.26,403.26 C 916.8,408.74 917.4,414.27 917.4,418.45 z "
           style="fill:#000000;stroke-width:0" /></g>    </g>
  </g>
</svg>
