<?xml version="1.0" encoding="UTF-8" standalone="no"?>
<!-- Created with Inkscape (http://www.inkscape.org/) -->
<svg
   xmlns:dc="http://purl.org/dc/elements/1.1/"
   xmlns:cc="http://web.resource.org/cc/"
   xmlns:rdf="http://www.w3.org/1999/02/22-rdf-syntax-ns#"
   xmlns:svg="http://www.w3.org/2000/svg"
   xmlns="http://www.w3.org/2000/svg"
   xmlns:sodipodi="http://sodipodi.sourceforge.net/DTD/sodipodi-0.dtd"
   xmlns:inkscape="http://www.inkscape.org/namespaces/inkscape"
   width="210mm"
   height="297mm"
   id="svg2266"
   sodipodi:version="0.32"
   inkscape:version="0.45.1"
   sodipodi:docbase="/home/bg/workspace/AnonAccess/Doc/CCC07-Vortrag"
   sodipodi:docname="ansatz2ablauf.svg"
   inkscape:output_extension="org.inkscape.output.svg.inkscape">
  <sodipodi:namedview
     id="base"
     pagecolor="#ffffff"
     bordercolor="#666666"
     borderopacity="1.0"
     inkscape:pageopacity="0.0"
     inkscape:pageshadow="2"
     inkscape:zoom="1.4"
     inkscape:cx="285.70327"
     inkscape:cy="777.35217"
     inkscape:document-units="px"
     inkscape:current-layer="layer1"
     showgrid="true"
     inkscape:window-width="1022"
     inkscape:window-height="580"
     inkscape:window-x="0"
     inkscape:window-y="0" />
  <defs
     id="defs2268" />
  <metadata
     id="metadata2271">
    <rdf:RDF>
      <cc:Work
         rdf:about="">
        <dc:format>image/svg+xml</dc:format>
        <dc:type
           rdf:resource="http://purl.org/dc/dcmitype/StillImage" />
      </cc:Work>
    </rdf:RDF>
  </metadata>
  <g
     inkscape:label="Ebene 1"
     id="layer1"
     inkscape:groupmode="layer">
    <path
       style="fill:#1e1e1e;fill-opacity:1;stroke:#000000;stroke-width:1;stroke-linecap:butt;stroke-miterlimit:4;stroke-dasharray:none;stroke-dashoffset:10;stroke-opacity:1;display:inline"
       d="M 190.30011 112.73652 A 12.59534 4.4194174 0 1 1  165.10943,112.73652 A 12.59534 4.4194174 0 1 1  190.30011 112.73652 z"
       id="path8007"
       sodipodi:cy="112.73652"
       sodipodi:type="arc"
       sodipodi:cx="177.70477"
       sodipodi:rx="12.59534"
       transform="matrix(1.3874568,0,0,1.157761,102.65045,53.67263)"
       sodipodi:ry="4.4194174" />
    <rect
       height="44.141769"
       id="rect9236"
       width="71.107704"
       inkscape:export-xdpi="90"
       inkscape:export-filename="/home/bg/workspace/AnonAccess/Doc/AnonAccessLogo/AnonAccessLogo.png"
       inkscape:export-ydpi="90"
       style="fill:#ffffff;fill-opacity:1;fill-rule:evenodd;stroke:#000000;stroke-width:1.92060256;stroke-linejoin:round;stroke-miterlimit:4;stroke-dasharray:none;stroke-opacity:1;display:inline"
       ry="5.8281012"
       y="148.07564"
       x="131.66766" />
    <path
       style="fill:none;fill-rule:evenodd;stroke:#000000;stroke-width:1.57658815;stroke-linecap:butt;stroke-linejoin:miter;stroke-miterlimit:4;stroke-dasharray:4.72976433, 1.5765881;stroke-dashoffset:15.76588109;stroke-opacity:1;display:inline"
       d="M 259.87027,113.21246 L 259.87027,345.37302 L 259.87027,345.37302"
       id="path2179" />
    <rect
       height="41.914001"
       width="35.580051"
       id="rect4125"
       style="fill:#1e1e1e;fill-opacity:1;stroke:#000000;stroke-width:0.75856698;stroke-linecap:butt;stroke-miterlimit:4;stroke-dasharray:none;stroke-dashoffset:10;stroke-opacity:1;display:inline"
       ry="0.072463147"
       y="142.08794"
       x="331.47821" />
    <path
       style="fill:#1e1e1e;fill-opacity:1;stroke:#000000;stroke-width:1;stroke-linecap:butt;stroke-miterlimit:4;stroke-dasharray:none;stroke-dashoffset:10;stroke-opacity:1;display:inline"
       d="M 189.30654 57.6572 A 12.099798 5.1616864 0 1 1  165.10694,57.6572 A 12.099798 5.1616864 0 1 1  189.30654 57.6572 z"
       id="path8003"
       sodipodi:cy="57.6572"
       sodipodi:type="arc"
       sodipodi:cx="177.20674"
       sodipodi:rx="12.099798"
       transform="matrix(1.4519087,0,0,0.8314254,91.928093,94.431329)"
       sodipodi:ry="5.1616864" />
    <path
       style="fill:#000000;fill-opacity:1;stroke:#191919;stroke-width:1;stroke-linecap:butt;stroke-miterlimit:4;stroke-dasharray:none;stroke-dashoffset:10;stroke-opacity:1;display:inline"
       d="M 189.30654 57.6572 A 12.099798 5.1616864 0 1 1  165.10694,57.6572 A 12.099798 5.1616864 0 1 1  189.30654 57.6572 z"
       id="path9951"
       sodipodi:cy="57.6572"
       sodipodi:type="arc"
       sodipodi:cx="177.20674"
       sodipodi:rx="12.099798"
       transform="matrix(1.4519087,0,0,0.8314254,91.928093,117.09091)"
       sodipodi:ry="5.1616864" />
    <path
       style="fill:none;fill-rule:evenodd;stroke:#000000;stroke-width:1.29748249px;stroke-linecap:butt;stroke-linejoin:miter;stroke-opacity:1;display:inline"
       d="M 334.3809,209.25123 C 343.1417,190.97396 375.10562,223.70093 390.41166,209.25123 L 390.41166,209.25123"
       sodipodi:nodetypes="ccc"
       id="path2177" />
    <path
       style="fill:none;fill-rule:evenodd;stroke:#000000;stroke-width:1.29657042px;stroke-linecap:butt;stroke-linejoin:miter;stroke-opacity:1;display:inline"
       d="M 334.38044,252.41466 C 348.11484,236.69755 380.62873,266.93422 390.45173,252.41466"
       sodipodi:nodetypes="cc"
       id="path2180" />
    <path
       style="fill:none;fill-rule:evenodd;stroke:#000000;stroke-width:1.05240035px;stroke-linecap:butt;stroke-linejoin:miter;stroke-opacity:1;display:inline"
       d="M 334.25836,208.78034 L 334.25836,252.42303"
       id="path2182" />
    <path
       style="fill:none;fill-rule:evenodd;stroke:#000000;stroke-width:1.05240035px;stroke-linecap:butt;stroke-linejoin:miter;stroke-opacity:1;display:inline"
       d="M 390.195,209.27585 L 390.195,252.42303"
       id="path2184" />
    <rect
       height="4.8694677"
       id="rect11176"
       width="7.377254"
       inkscape:export-xdpi="90"
       inkscape:export-filename="/home/anzgar/path8144.png"
       inkscape:export-ydpi="90"
       style="fill:none;fill-opacity:1;fill-rule:evenodd;stroke:#000000;stroke-width:0.62933022;stroke-linejoin:round;stroke-miterlimit:4;stroke-dasharray:none;stroke-opacity:1;display:inline"
       y="166.13182"
       x="138.49294" />
    <rect
       height="1.5827465"
       id="rect12179"
       width="1.9726925"
       inkscape:export-xdpi="90"
       inkscape:export-filename="/home/anzgar/path8144.png"
       inkscape:export-ydpi="90"
       style="fill:none;fill-opacity:1;fill-rule:evenodd;stroke:#000000;stroke-width:0.62933022;stroke-linejoin:round;stroke-miterlimit:4;stroke-dasharray:none;stroke-opacity:1;display:inline"
       y="167.63744"
       x="141.19525" />
    <path
       d="M 138.45967,167.61816 C 139.48666,167.60592 141.51314,167.64513 141.92143,167.58744 C 142.52428,167.50223 141.1551,166.15013 141.18362,166.13098"
       sodipodi:nodetypes="csc"
       id="path12183"
       inkscape:export-xdpi="90"
       inkscape:export-filename="/home/anzgar/path8144.png"
       inkscape:export-ydpi="90"
       style="fill:none;fill-opacity:1;fill-rule:evenodd;stroke:#000000;stroke-width:0.62933022;stroke-linecap:butt;stroke-linejoin:round;stroke-miterlimit:4;stroke-dasharray:none;stroke-opacity:1;display:inline" />
    <path
       d="M 145.8734,167.61467 C 145.20147,167.61532 143.05565,167.60853 142.99862,167.60269 C 141.47763,167.44705 142.85704,166.36764 142.87316,166.34945"
       sodipodi:nodetypes="csc"
       id="path12194"
       inkscape:export-xdpi="90"
       inkscape:export-filename="/home/anzgar/path8144.png"
       inkscape:export-ydpi="90"
       style="fill:none;fill-opacity:1;fill-rule:evenodd;stroke:#000000;stroke-width:0.62933022;stroke-linecap:round;stroke-linejoin:round;stroke-miterlimit:4;stroke-dasharray:none;stroke-opacity:1;display:inline" />
    <path
       d="M 138.45967,167.61816 C 139.48666,167.60592 141.51314,167.64513 141.92143,167.58744 C 142.52428,167.50223 141.1551,166.15013 141.18362,166.13098"
       sodipodi:nodetypes="csc"
       id="path12210"
       inkscape:export-xdpi="90"
       inkscape:export-filename="/home/anzgar/path8144.png"
       inkscape:export-ydpi="90"
       style="fill:none;fill-opacity:1;fill-rule:evenodd;stroke:#000000;stroke-width:0.62933022;stroke-linecap:butt;stroke-linejoin:round;stroke-miterlimit:4;stroke-dasharray:none;stroke-opacity:1;display:inline" />
    <path
       d="M 138.45967,167.61816 C 139.48666,167.60592 141.51314,167.64513 141.92143,167.58744 C 142.52428,167.50223 141.1551,166.15013 141.18362,166.13098"
       sodipodi:nodetypes="csc"
       id="path12220"
       inkscape:export-xdpi="90"
       inkscape:export-filename="/home/anzgar/path8144.png"
       inkscape:export-ydpi="90"
       style="fill:none;fill-opacity:1;fill-rule:evenodd;stroke:#000000;stroke-width:0.62933022;stroke-linecap:butt;stroke-linejoin:round;stroke-miterlimit:4;stroke-dasharray:none;stroke-opacity:1;display:inline" />
    <path
       d="M 138.47177,169.21887 C 139.49585,169.23355 141.51668,169.18661 141.92382,169.25566 C 142.52497,169.35764 141.15964,170.97594 141.18807,170.99884"
       sodipodi:nodetypes="csc"
       id="path12217"
       inkscape:export-xdpi="90"
       inkscape:export-filename="/home/anzgar/path8144.png"
       inkscape:export-ydpi="90"
       style="fill:none;fill-opacity:1;fill-rule:evenodd;stroke:#000000;stroke-width:0.62933022;stroke-linecap:butt;stroke-linejoin:round;stroke-miterlimit:4;stroke-dasharray:none;stroke-opacity:1;display:inline" />
    <path
       d="M 145.90709,169.26157 C 144.87853,169.27623 142.84895,169.22928 142.44006,169.29833 C 141.83627,169.40029 143.20754,171.01847 143.17899,171.04137"
       sodipodi:nodetypes="csc"
       id="path12223"
       inkscape:export-xdpi="90"
       inkscape:export-filename="/home/anzgar/path8144.png"
       inkscape:export-ydpi="90"
       style="fill:none;fill-opacity:1;fill-rule:evenodd;stroke:#000000;stroke-width:0.62933022;stroke-linecap:butt;stroke-linejoin:round;stroke-miterlimit:4;stroke-dasharray:none;stroke-opacity:1;display:inline" />
    <path
       style="fill:none;fill-rule:evenodd;stroke:#000000;stroke-width:1.24422514;stroke-linecap:butt;stroke-linejoin:miter;stroke-miterlimit:4;stroke-dasharray:1.24422514, 1.24422514;stroke-dashoffset:0;stroke-opacity:1"
       d="M 389.97659,223.07647 L 334.46123,223.07647"
       id="path2299" />
    <path
       style="fill:none;fill-rule:evenodd;stroke:#000000;stroke-width:1.24422514;stroke-linecap:butt;stroke-linejoin:miter;stroke-miterlimit:4;stroke-dasharray:1.24422514, 1.24422514;stroke-dashoffset:0;stroke-opacity:1"
       d="M 389.95864,237.17344 L 334.44328,237.17344"
       id="path3272" />
    <text
       xml:space="preserve"
       style="font-size:12px;font-style:normal;font-weight:normal;fill:#000000;fill-opacity:1;stroke:none;stroke-width:1px;stroke-linecap:butt;stroke-linejoin:miter;stroke-opacity:1;font-family:Bitstream Vera Sans"
       id="text3274"
       y="234.06123"
       x="334.95667"><tspan
         sodipodi:role="line"
         id="tspan3276"
         y="234.06123"
         x="334.95667">h(Ticket)</tspan></text>
    <path
       style="fill:none;fill-rule:evenodd;stroke:#000000;stroke-width:1px;stroke-linecap:butt;stroke-linejoin:miter;stroke-opacity:1"
       d="M 320,242.36218 L 129.28571,242.36218"
       id="path2258" />
    <path
       style="fill:none;fill-rule:evenodd;stroke:#000000;stroke-width:1px;stroke-linecap:butt;stroke-linejoin:miter;stroke-opacity:1"
       d="M 310,232.36218 C 320,242.97746 320,242.97746 320,242.97746 L 310,252.82644"
       id="path2260" />
    <path
       style="fill:none;fill-rule:evenodd;stroke:#000000;stroke-width:0.93052232px;stroke-linecap:butt;stroke-linejoin:miter;stroke-opacity:1"
       d="M 130.46526,309.27291 L 295.59939,309.27291"
       id="path2262" />
    <path
       style="fill:none;fill-rule:evenodd;stroke:#000000;stroke-width:1px;stroke-linecap:butt;stroke-linejoin:miter;stroke-opacity:1"
       d="M 140.53232,299.27291 C 130.53232,309.88819 130.53232,309.88819 130.53232,309.88819 L 140.53232,319.73717"
       id="path2264" />
    <text
       xml:space="preserve"
       style="font-size:12px;font-style:normal;font-weight:normal;fill:#000000;fill-opacity:1;stroke:none;stroke-width:1px;stroke-linecap:butt;stroke-linejoin:miter;stroke-opacity:1;font-family:Bitstream Vera Sans"
       id="text2266"
       y="235.93362"
       x="182.85715"><tspan
         sodipodi:role="line"
         id="tspan2270"
         y="235.93362"
         x="182.85715">UID, Ticket</tspan></text>
    <text
       xml:space="preserve"
       style="font-size:12px;font-style:normal;font-weight:normal;fill:#000000;fill-opacity:1;stroke:none;stroke-width:1px;stroke-linecap:butt;stroke-linejoin:miter;stroke-opacity:1;font-family:Bitstream Vera Sans"
       id="text2274"
       y="303.79074"
       x="188.03232"><tspan
         sodipodi:role="line"
         id="tspan2276"
         y="303.79074"
         x="188.03232">UID, Ticket</tspan></text>
    <text
       xml:space="preserve"
       style="font-size:12px;font-style:normal;font-weight:normal;fill:#000000;fill-opacity:1;stroke:none;stroke-width:1px;stroke-linecap:butt;stroke-linejoin:miter;stroke-opacity:1;font-family:Bitstream Vera Sans"
       id="text2345"
       y="284.50504"
       x="331.42856"><tspan
         sodipodi:role="line"
         id="tspan2349"
         y="284.50504"
         x="331.42856" /></text>
    <g
       id="g2543"
       transform="matrix(0.2792533,0,0,0.2792533,182.63555,193.91006)">
      <g
         style="font-style:normal;font-variant:normal;font-weight:normal;font-stretch:normal;letter-spacing:normal;word-spacing:normal;text-anchor:start;fill:none;fill-opacity:1;stroke:#000000;stroke-linecap:butt;stroke-linejoin:miter;stroke-miterlimit:10.43299961;stroke-dasharray:none;stroke-dashoffset:0;stroke-opacity:1"
         id="g2545"
         xml:space="preserve"
         transform="matrix(1.0629921,0,0,-1.0629921,-186.02362,789.27165)"><path
           style="fill:#000000;stroke-width:0"
           id="path2547"
           d="M 477.27,436.24 L 477.3,436.37 L 477.33,436.49 L 477.36,436.6 L 477.39,436.71 L 477.42,436.82 L 477.45,436.91 L 477.48,437.01 L 477.51,437.09 L 477.54,437.18 L 477.57,437.25 L 477.6,437.33 L 477.63,437.39 L 477.66,437.46 L 477.69,437.52 L 477.72,437.57 L 477.75,437.63 L 477.78,437.67 L 477.81,437.72 L 477.85,437.76 L 477.88,437.8 L 477.92,437.83 L 477.95,437.87 L 477.99,437.9 L 478.03,437.92 L 478.07,437.95 L 478.12,437.97 L 478.16,437.99 L 478.21,438.01 L 478.26,438.03 L 478.31,438.05 L 478.36,438.06 L 478.41,438.08 C 478.86,438.18 480.51,438.18 481.55,438.18 C 486.59,438.18 488.83,437.98 488.83,434.09 C 488.83,433.35 488.63,431.41 488.43,430.11 C 488.38,429.91 488.28,429.31 488.28,429.16 C 488.28,428.86 488.43,428.52 488.88,428.52 C 489.43,428.52 489.52,428.91 489.62,429.66 L 490.97,438.33 C 491.02,438.53 491.07,439.03 491.07,439.18 C 491.07,439.72 490.57,439.72 489.72,439.72 L 462.08,439.72 C 460.88,439.72 460.83,439.67 460.48,438.73 L 457.5,429.96 C 457.45,429.86 457.2,429.16 457.2,429.06 C 457.2,428.77 457.45,428.52 457.79,428.52 C 458.29,428.52 458.34,428.77 458.64,429.56 C 461.33,437.28 462.62,438.18 470,438.18 L 471.94,438.18 C 473.34,438.18 473.34,437.98 473.34,437.58 C 473.34,437.28 473.18,436.68 473.14,436.54 L 466.46,409.93 C 466.01,408.09 465.86,407.54 460.53,407.54 C 458.74,407.54 458.44,407.54 458.44,406.6 C 458.44,406 458.99,406 459.29,406 C 460.63,406 462.03,406.1 463.37,406.1 C 464.77,406.1 466.21,406.15 467.61,406.15 C 469,406.15 470.39,406.1 471.74,406.1 C 473.18,406.1 474.68,406 476.07,406 C 476.57,406 477.17,406 477.17,407 C 477.17,407.54 476.77,407.54 475.48,407.54 C 474.23,407.54 473.59,407.54 472.29,407.64 C 470.84,407.79 470.45,407.94 470.45,408.74 C 470.45,408.79 470.45,409.04 470.64,409.79 L 477.27,436.24 z " /><path
           style="fill:#000000;stroke-width:0"
           id="path2549"
           d="M 506.15,437.13 L 506.15,437.23 L 506.14,437.32 L 506.13,437.41 L 506.12,437.5 L 506.1,437.58 L 506.08,437.67 L 506.05,437.75 L 506.02,437.83 L 505.99,437.91 L 505.95,437.99 L 505.91,438.07 L 505.87,438.14 L 505.82,438.21 L 505.77,438.28 L 505.71,438.34 L 505.66,438.4 L 505.59,438.46 L 505.53,438.52 L 505.46,438.57 L 505.39,438.62 L 505.32,438.67 L 505.24,438.71 L 505.16,438.75 L 505.08,438.79 L 504.99,438.82 L 504.9,438.85 L 504.81,438.87 L 504.71,438.89 L 504.61,438.91 L 504.51,438.92 L 504.41,438.92 L 504.3,438.93 C 502.96,438.93 501.61,437.63 501.61,436.29 C 501.61,435.34 502.31,434.49 503.51,434.49 C 504.65,434.49 506.15,435.64 506.15,437.13 z " /><path
           style="fill:#000000;stroke-width:0"
           id="path2551"
           d="M 502.36,418.4 L 502.41,418.53 L 502.46,418.66 L 502.51,418.78 L 502.56,418.89 L 502.6,418.99 L 502.64,419.09 L 502.68,419.18 L 502.71,419.27 L 502.75,419.36 L 502.78,419.44 L 502.81,419.52 L 502.84,419.6 L 502.87,419.67 L 502.89,419.74 L 502.94,419.89 L 503,420.03 L 503.05,420.17 L 503.07,420.24 L 503.1,420.32 L 503.13,420.4 L 503.16,420.48 L 503.19,420.56 L 503.22,420.65 L 503.26,420.74 L 503.29,420.84 L 503.33,420.95 L 503.37,421.05 L 503.41,421.17 L 503.46,421.29 C 503.86,422.29 504.11,422.98 504.11,423.93 C 504.11,426.18 502.51,428.02 500.02,428.02 C 495.34,428.02 493.45,420.79 493.45,420.35 C 493.45,419.85 493.94,419.85 494.04,419.85 C 494.54,419.85 494.59,419.95 494.84,420.75 C 496.18,425.43 498.18,426.92 499.87,426.92 C 500.27,426.92 501.12,426.92 501.12,425.33 C 501.12,424.28 500.77,423.23 500.57,422.74 C 500.17,421.44 497.93,415.66 497.13,413.52 C 496.63,412.23 495.98,410.58 495.98,409.54 C 495.98,407.2 497.68,405.45 500.07,405.45 C 504.75,405.45 506.59,412.68 506.59,413.12 C 506.59,413.62 506.15,413.62 506,413.62 C 505.5,413.62 505.5,413.47 505.25,412.73 C 504.36,409.59 502.71,406.55 500.17,406.55 C 499.32,406.55 498.97,407.05 498.97,408.19 C 498.97,409.44 499.27,410.13 500.42,413.17 L 502.36,418.4 z " /><path
           style="fill:#000000;stroke-width:0"
           id="path2553"
           d="M 528.73,424.93 L 528.58,424.93 L 528.43,424.93 L 528.29,424.93 L 528.15,424.92 L 528.01,424.91 L 527.87,424.89 L 527.8,424.88 L 527.73,424.87 L 527.66,424.86 L 527.59,424.84 L 527.53,424.83 L 527.46,424.81 L 527.39,424.78 L 527.32,424.76 L 527.26,424.73 L 527.19,424.7 L 527.12,424.67 L 527.06,424.63 L 526.99,424.6 L 526.93,424.55 L 526.86,424.51 L 526.8,424.46 L 526.73,424.41 L 526.67,424.35 L 526.6,424.29 L 526.53,424.23 C 525.74,423.48 525.64,422.64 525.64,422.29 C 525.64,421.09 526.53,420.55 527.48,420.55 C 528.93,420.55 530.27,421.74 530.27,423.73 C 530.27,426.18 527.93,428.02 524.39,428.02 C 517.67,428.02 511.04,420.89 511.04,413.87 C 511.04,409.39 513.93,405.45 519.11,405.45 C 526.23,405.45 530.42,410.73 530.42,411.33 C 530.42,411.63 530.12,411.98 529.82,411.98 C 529.57,411.98 529.47,411.88 529.18,411.48 C 525.24,406.55 519.81,406.55 519.21,406.55 C 516.07,406.55 514.73,408.99 514.73,411.98 C 514.73,414.02 515.73,418.85 517.42,421.94 C 518.96,424.78 521.7,426.92 524.44,426.92 C 526.14,426.92 528.03,426.27 528.73,424.93 z " /><path
           style="fill:#000000;stroke-width:0"
           id="path2555"
           d="M 544.3,440.02 L 544.3,440.03 L 544.3,440.03 L 544.3,440.04 L 544.3,440.05 L 544.3,440.06 L 544.29,440.07 L 544.29,440.09 L 544.29,440.11 L 544.29,440.13 L 544.28,440.15 L 544.28,440.17 L 544.27,440.19 L 544.26,440.22 L 544.25,440.24 L 544.24,440.27 L 544.23,440.29 L 544.22,440.31 L 544.2,440.34 L 544.18,440.36 L 544.16,440.39 L 544.14,440.41 L 544.13,440.42 L 544.11,440.43 L 544.1,440.44 L 544.09,440.45 L 544.07,440.46 L 544.06,440.47 L 544.04,440.48 L 544.02,440.49 L 544.01,440.5 L 543.99,440.51 L 543.97,440.52 L 543.95,440.52 L 543.93,440.53 L 543.91,440.54 L 543.89,440.54 L 543.86,440.55 L 543.84,440.55 L 543.81,440.56 L 543.79,440.56 L 543.76,440.56 L 543.74,440.57 L 543.71,440.57 L 543.68,440.57 L 543.65,440.57 C 542.5,440.57 538.87,440.17 537.57,440.07 C 537.17,440.02 536.62,439.97 536.62,439.07 C 536.62,438.48 537.07,438.48 537.82,438.48 C 540.21,438.48 540.31,438.13 540.31,437.63 L 540.16,436.64 L 532.94,407.94 C 532.74,407.25 532.74,407.14 532.74,406.85 C 532.74,405.7 533.73,405.45 534.18,405.45 C 534.83,405.45 535.58,405.9 535.88,406.5 C 536.13,406.95 538.37,416.16 538.67,417.41 C 540.36,417.26 544.45,416.46 544.45,413.17 C 544.45,412.82 544.45,412.62 544.3,412.13 C 544.2,411.53 544.1,410.93 544.1,410.38 C 544.1,407.45 546.09,405.45 548.68,405.45 C 550.18,405.45 551.52,406.25 552.61,408.09 C 553.86,410.29 554.41,413.02 554.41,413.12 C 554.41,413.62 553.96,413.62 553.81,413.62 C 553.31,413.62 553.26,413.42 553.11,412.73 C 552.12,409.09 550.97,406.55 548.78,406.55 C 547.83,406.55 547.18,407.1 547.18,408.89 C 547.18,409.73 547.39,410.88 547.59,411.68 C 547.78,412.53 547.78,412.73 547.78,413.22 C 547.78,416.46 544.65,417.91 540.41,418.45 C 541.96,419.35 543.55,420.95 544.7,422.14 C 547.09,424.78 549.38,426.92 551.82,426.92 C 552.12,426.92 552.17,426.92 552.27,426.87 C 552.86,426.77 552.91,426.77 553.31,426.47 C 553.41,426.42 553.41,426.38 553.51,426.27 C 551.12,426.12 550.67,424.18 550.67,423.59 C 550.67,422.79 551.22,421.84 552.57,421.84 C 553.86,421.84 555.3,422.94 555.3,424.88 C 555.3,426.38 554.16,428.02 551.92,428.02 C 550.52,428.02 548.23,427.62 544.65,423.63 C 542.95,421.74 541.01,419.75 539.12,419 L 544.3,440.02 z " /><path
           style="fill:#000000;stroke-width:0"
           id="path2557"
           d="M 567.32,417.51 L 567.46,417.51 L 567.61,417.51 L 567.78,417.51 L 567.96,417.51 L 568.14,417.52 L 568.34,417.52 L 568.55,417.53 L 568.76,417.54 L 568.99,417.55 L 569.22,417.56 L 569.46,417.58 L 569.7,417.59 L 569.95,417.61 L 570.21,417.64 L 570.73,417.69 L 571.27,417.75 L 571.81,417.83 L 572.36,417.92 L 572.9,418.03 L 573.43,418.16 L 573.7,418.23 L 573.95,418.3 L 574.21,418.38 L 574.46,418.47 L 574.7,418.56 L 574.94,418.65 C 578.42,420.15 578.67,423.09 578.67,423.79 C 578.67,425.98 576.78,428.02 573.34,428.02 L 573.34,426.92 C 575.68,426.92 577.03,425.48 577.03,423.79 C 577.03,418.6 569.06,418.6 567.02,418.6 L 564.97,418.6 C 566.92,426.18 572.05,426.92 573.34,426.92 L 573.34,428.02 C 567.81,428.02 560.29,423.18 560.29,414.47 C 560.29,409.39 563.23,405.45 568.11,405.45 C 575.23,405.45 579.42,410.73 579.42,411.33 C 579.42,411.63 579.12,411.98 578.82,411.98 C 578.57,411.98 578.47,411.88 578.18,411.48 C 574.24,406.55 568.81,406.55 568.21,406.55 C 564.33,406.55 563.88,410.73 563.88,412.33 C 563.88,412.93 563.93,414.47 564.68,417.51 L 567.32,417.51 z " /><path
           style="fill:#000000;stroke-width:0"
           id="path2559"
           d="M 591.26,425.93 L 595.95,425.93 C 596.94,425.93 597.44,425.93 597.44,426.92 C 597.44,427.47 596.94,427.47 596.04,427.47 L 591.66,427.47 C 593.45,434.54 593.7,435.54 593.7,435.84 C 593.7,436.68 593.1,437.18 592.26,437.18 C 592.11,437.18 590.72,437.13 590.27,435.39 L 588.32,427.47 L 583.64,427.47 C 582.65,427.47 582.15,427.47 582.15,426.52 C 582.15,425.93 582.54,425.93 583.54,425.93 L 587.93,425.93 C 584.34,411.78 584.14,410.93 584.14,410.04 C 584.14,407.34 586.03,405.45 588.72,405.45 C 593.8,405.45 596.64,412.73 596.64,413.12 C 596.64,413.62 596.24,413.62 596.04,413.62 C 595.59,413.62 595.55,413.47 595.3,412.93 C 593.16,407.74 590.52,406.55 588.82,406.55 C 587.77,406.55 587.28,407.2 587.28,408.84 C 587.28,410.04 587.38,410.38 587.57,411.23 L 591.26,425.93 z " /><path
           style="fill:#000000;stroke-width:0"
           id="path2561"
           d="M 640.4,417.46 L 640.46,417.46 L 640.53,417.46 L 640.67,417.46 L 640.81,417.46 L 640.88,417.47 L 640.95,417.47 L 641.02,417.48 L 641.09,417.49 L 641.16,417.5 L 641.22,417.51 L 641.29,417.52 L 641.36,417.54 L 641.42,417.56 L 641.48,417.58 L 641.54,417.61 L 641.6,417.63 L 641.65,417.67 L 641.71,417.7 L 641.76,417.74 L 641.8,417.78 L 641.84,417.83 L 641.86,417.85 L 641.88,417.88 L 641.9,417.9 L 641.92,417.93 L 641.94,417.96 L 641.95,417.99 L 641.97,418.02 L 641.98,418.06 L 641.99,418.09 L 642,418.12 L 642.01,418.16 L 642.02,418.2 L 642.03,418.24 L 642.03,418.28 L 642.04,418.32 L 642.04,418.36 L 642.04,418.41 L 642.04,418.45 C 642.04,419.45 641.09,419.45 640.4,419.45 L 619.18,419.45 C 619.77,426.22 625.65,430.91 632.43,430.91 L 640.4,430.91 C 641.09,430.91 642.04,430.91 642.04,431.9 C 642.04,432.9 641.09,432.9 640.4,432.9 L 632.28,432.9 C 624.31,432.9 617.13,426.82 617.13,418.45 C 617.13,410.18 624.21,404.01 632.33,404.01 L 640.4,404.01 C 641.09,404.01 642.04,404.01 642.04,405 C 642.04,406 641.09,406 640.4,406 L 632.48,406 C 625.5,406 619.77,410.78 619.18,417.46 L 640.4,417.46 z " /><path
           style="fill:#000000;stroke-width:0"
           id="path2563"
           d="M 666.71,410.86 L 667.1,410.95 L 667.48,411.06 L 667.86,411.17 L 668.24,411.29 L 668.61,411.42 L 668.98,411.56 L 669.34,411.71 L 669.69,411.86 L 670.03,412.02 L 670.37,412.19 L 670.7,412.37 L 671.02,412.55 L 671.33,412.74 L 671.63,412.94 L 671.92,413.14 L 672.19,413.35 L 672.46,413.57 L 672.71,413.79 L 672.95,414.02 L 673.17,414.25 L 673.38,414.49 L 673.58,414.74 L 673.75,414.99 L 673.92,415.24 L 674.06,415.5 L 674.19,415.77 L 674.3,416.04 L 674.39,416.31 L 674.46,416.59 L 674.52,416.87 L 674.55,417.16 L 674.56,417.45 C 674.56,420.45 671,422.82 665.95,422.82 L 655.24,422.82 C 654.58,422.82 654.12,422.82 654.12,422.05 C 654.12,421.56 654.54,421.56 655.24,421.56 C 655.27,421.56 655.94,421.56 656.57,421.49 C 657.3,421.42 657.37,421.35 657.37,421 C 657.37,420.93 657.37,420.76 657.23,420.23 L 652.59,401.72 C 652.31,400.54 652.24,400.25 649.52,400.25 C 648.93,400.25 648.48,400.25 648.48,399.52 C 648.48,399.18 648.72,399 649.03,399 C 649.7,399 650.5,399.11 651.2,399.11 C 651.86,399.11 652.87,399.14 653.5,399.14 C 654.2,399.14 655,399.11 655.73,399.11 C 656.46,399.11 657.33,399 658.07,399 C 658.24,399 658.8,399 658.8,399.73 C 658.8,400.25 658.45,400.25 657.65,400.25 C 657.09,400.25 656.95,400.25 656.32,400.32 C 655.55,400.43 655.55,400.5 655.55,400.85 C 655.55,400.88 655.55,401.09 655.7,401.61 L 657.89,410.44 L 662.63,410.44 L 662.67,411.41 L 658.17,411.41 L 660.4,420.38 C 660.65,421.35 660.72,421.46 661.48,421.56 L 663.72,421.56 C 666.96,421.56 670.97,421.56 670.97,417.97 C 670.97,416.54 670.3,414.34 668.66,413.09 C 667.23,411.97 665.07,411.41 662.67,411.41 L 662.63,410.44 C 665.63,410.44 666.92,408.94 666.92,407.3 C 666.92,406.84 666.61,405.66 666.43,404.86 C 666.02,403.25 665.88,402.73 665.88,402.14 C 665.88,399.38 668.42,398.3 671,398.3 C 674.21,398.3 675.6,401.72 675.6,402.35 C 675.6,402.45 675.53,402.84 675.01,402.84 C 674.56,402.84 674.49,402.59 674.38,402.24 C 673.9,400.71 672.6,399.28 671.14,399.28 C 670.23,399.28 669.57,399.66 669.57,401.55 C 669.57,402.42 669.78,404.23 669.92,405.17 C 670.06,406.11 670.06,406.46 670.06,406.81 C 670.06,407.23 670.06,408.34 669.08,409.39 C 668.42,410.12 667.48,410.58 666.71,410.86 z " /><path
           style="fill:#000000;stroke-width:0"
           id="path2565"
           d="M 707.1,434.04 L 707.1,434.37 L 707.1,434.69 L 707.1,434.99 L 707.1,435.28 L 707.1,435.55 L 707.11,435.82 L 707.11,436.07 L 707.12,436.31 L 707.12,436.54 L 707.13,436.76 L 707.15,436.97 L 707.16,437.17 L 707.18,437.36 L 707.2,437.54 L 707.22,437.72 L 707.25,437.89 L 707.28,438.05 L 707.31,438.2 L 707.35,438.35 L 707.39,438.5 L 707.44,438.63 L 707.49,438.77 L 707.54,438.9 L 707.6,439.03 L 707.67,439.15 L 707.74,439.27 L 707.82,439.39 L 707.9,439.51 L 707.99,439.62 L 708.08,439.74 L 708.18,439.86 L 708.29,439.97 C 709.19,440.87 710.34,442.07 713.82,442.27 C 714.07,442.31 714.27,442.51 714.27,442.81 C 714.27,443.36 713.87,443.36 713.27,443.36 C 708.29,443.36 703.86,440.82 703.76,437.23 L 703.76,428.12 C 703.76,423.43 703.76,422.64 702.47,421.24 C 701.77,420.55 700.42,419.2 697.28,419 C 696.93,419 696.59,418.95 696.59,418.45 C 696.59,417.96 696.89,417.96 697.38,417.91 C 699.53,417.76 703.76,416.71 703.76,411.73 L 703.76,401.87 C 703.76,398.98 703.76,397.28 706.35,395.44 C 708.49,393.95 711.73,393.55 713.27,393.55 C 713.87,393.55 714.27,393.55 714.27,394.09 C 714.27,394.59 713.97,394.59 713.47,394.64 C 709.54,394.89 707.7,397.13 707.25,398.93 C 707.1,399.47 707.1,399.57 707.1,401.32 L 707.1,408.79 C 707.1,410.29 707.1,412.82 707,413.32 C 706.35,416.61 703.16,417.91 701.22,418.45 C 707.1,420.15 707.1,423.68 707.1,425.08 L 707.1,434.04 z " /><path
           style="fill:#000000;stroke-width:0"
           id="path2567"
           d="M 739.91,421.94 L 739.91,422.69 L 739.9,423.43 L 739.88,424.18 L 739.85,424.92 L 739.8,425.67 L 739.74,426.41 L 739.67,427.15 L 739.57,427.88 L 739.46,428.61 L 739.32,429.34 L 739.16,430.06 L 738.97,430.78 L 738.75,431.49 L 738.51,432.2 L 738.23,432.9 L 738.08,433.25 L 737.92,433.6 C 735.63,438.38 731.55,439.18 729.45,439.18 C 726.47,439.18 722.83,437.88 720.78,433.25 C 719.19,429.81 718.94,425.93 718.94,421.94 C 718.94,418.2 719.14,413.72 721.18,409.93 C 723.33,405.9 726.96,404.9 729.4,404.9 L 729.4,406 C 727.46,406 724.52,407.25 723.62,412.03 C 723.08,415.02 723.08,419.6 723.08,422.54 C 723.08,425.73 723.08,429.01 723.48,431.7 C 724.42,437.63 728.16,438.08 729.4,438.08 C 731.05,438.08 734.34,437.18 735.28,432.25 C 735.78,429.46 735.78,425.68 735.78,422.54 C 735.78,418.8 735.78,415.41 735.23,412.23 C 734.48,407.5 731.65,406 729.4,406 L 729.4,406 L 729.4,404.9 C 732.09,404.9 735.88,405.95 738.07,410.68 C 739.66,414.12 739.91,418 739.91,421.94 z " /><path
           style="fill:#000000;stroke-width:0"
           id="path2569"
           d="M 752.11,406.05 L 752.11,406.36 L 752.1,406.65 L 752.08,406.94 L 752.06,407.22 L 752.02,407.49 L 751.99,407.75 L 751.94,408.01 L 751.89,408.25 L 751.83,408.49 L 751.76,408.72 L 751.69,408.94 L 751.62,409.15 L 751.53,409.35 L 751.44,409.54 L 751.35,409.72 L 751.25,409.9 L 751.14,410.06 L 751.03,410.21 L 750.91,410.36 L 750.79,410.49 L 750.66,410.62 L 750.53,410.73 L 750.39,410.83 L 750.24,410.93 L 750.09,411.01 L 749.94,411.08 L 749.78,411.14 L 749.62,411.19 L 749.45,411.23 L 749.28,411.26 L 749.11,411.28 L 748.93,411.28 C 747.28,411.28 746.28,410.04 746.28,408.64 C 746.28,407.3 747.28,406 748.93,406 C 749.52,406 750.17,406.2 750.67,406.65 C 750.82,406.75 750.87,406.8 750.92,406.8 C 750.97,406.8 751.02,406.75 751.02,406.05 C 751.02,402.36 749.27,399.38 747.63,397.73 C 747.08,397.18 747.08,397.08 747.08,396.93 C 747.08,396.59 747.33,396.39 747.58,396.39 C 748.13,396.39 752.11,400.22 752.11,406.05 z " /><path
           style="fill:#000000;stroke-width:0"
           id="path2571"
           d="M 779.65,437.88 L 779.65,437.93 L 779.64,437.99 L 779.64,438.04 L 779.64,438.09 L 779.64,438.14 L 779.64,438.19 L 779.64,438.23 L 779.64,438.28 L 779.64,438.32 L 779.64,438.36 L 779.64,438.4 L 779.64,438.44 L 779.64,438.48 L 779.63,438.52 L 779.63,438.55 L 779.63,438.59 L 779.62,438.62 L 779.62,438.65 L 779.61,438.71 L 779.6,438.76 L 779.58,438.81 L 779.57,438.86 L 779.55,438.9 L 779.53,438.94 L 779.5,438.98 L 779.47,439.01 L 779.44,439.03 L 779.41,439.06 L 779.37,439.08 L 779.32,439.1 L 779.3,439.11 L 779.27,439.12 L 779.25,439.12 L 779.22,439.13 L 779.19,439.14 L 779.16,439.14 L 779.13,439.15 L 779.1,439.15 L 779.07,439.16 L 779.03,439.16 L 778.99,439.16 L 778.96,439.16 L 778.92,439.17 L 778.88,439.17 L 778.84,439.17 L 778.79,439.17 L 778.75,439.17 L 778.7,439.17 L 778.65,439.18 L 778.6,439.18 L 778.55,439.18 L 778.5,439.18 C 775.41,435.99 771.03,435.99 769.43,435.99 L 769.43,434.44 C 770.43,434.44 773.37,434.44 775.96,435.74 L 775.96,409.93 C 775.96,408.14 775.81,407.54 771.33,407.54 L 769.73,407.54 L 769.73,406 C 771.48,406.15 775.81,406.15 777.8,406.15 C 779.79,406.15 784.13,406.15 785.87,406 L 785.87,407.54 L 784.28,407.54 C 779.79,407.54 779.65,408.09 779.65,409.93 L 779.65,437.88 z " /><path
           style="fill:#000000;stroke-width:0"
           id="path2573"
           d="M 803.1,435.04 L 803.1,435.31 L 803.1,435.57 L 803.1,435.82 L 803.09,436.07 L 803.09,436.31 L 803.08,436.55 L 803.07,436.78 L 803.06,437 L 803.04,437.22 L 803.02,437.44 L 802.99,437.65 L 802.96,437.86 L 802.92,438.06 L 802.88,438.26 L 802.83,438.45 L 802.77,438.65 L 802.71,438.84 L 802.64,439.02 L 802.56,439.21 L 802.47,439.39 L 802.37,439.57 L 802.26,439.74 L 802.14,439.92 L 802.01,440.09 L 801.86,440.27 L 801.71,440.44 L 801.54,440.61 L 801.36,440.78 L 801.17,440.95 L 800.96,441.12 L 800.74,441.3 L 800.51,441.47 C 798.36,442.91 795.18,443.36 793.58,443.36 C 793.09,443.36 792.59,443.36 792.59,442.81 C 792.59,442.31 792.89,442.31 793.38,442.27 C 797.32,442.02 799.16,439.77 799.61,437.98 C 799.76,437.43 799.76,437.33 799.76,435.59 L 799.76,428.12 C 799.76,426.62 799.76,424.08 799.86,423.59 C 800.51,420.3 803.7,419 805.64,418.45 C 799.76,416.76 799.76,413.22 799.76,411.83 L 799.76,402.86 C 799.76,399.27 799.76,398.18 798.56,396.93 C 797.67,396.04 796.52,394.84 793.03,394.64 C 792.78,394.59 792.59,394.39 792.59,394.09 C 792.59,393.55 793.09,393.55 793.58,393.55 C 798.56,393.55 803,396.09 803.1,399.67 L 803.1,408.79 C 803.1,413.47 803.1,414.27 804.39,415.66 C 805.09,416.36 806.43,417.71 809.57,417.91 C 809.92,417.91 810.27,417.96 810.27,418.45 C 810.27,418.95 809.97,418.95 809.47,419 C 807.33,419.15 803.1,420.2 803.1,425.18 L 803.1,435.04 z " /><path
           style="fill:#000000;stroke-width:0"
           id="path2575"
           d="M 831.61,437.35 L 830.42,437.35 C 830.32,436.58 829.97,434.52 829.52,434.17 C 829.24,433.96 826.55,433.96 826.07,433.96 L 819.65,433.96 C 823.31,437.21 824.53,438.18 826.62,439.82 C 829.2,441.88 831.61,444.04 831.61,447.36 C 831.61,451.57 827.91,454.15 823.45,454.15 C 819.12,454.15 816.2,451.12 816.2,447.91 C 816.2,446.13 817.7,445.96 818.04,445.96 C 818.88,445.96 819.9,446.55 819.9,447.81 C 819.9,448.43 819.65,449.66 817.84,449.66 C 818.92,452.13 821.29,452.9 822.93,452.9 C 826.41,452.9 828.23,450.18 828.23,447.36 C 828.23,444.32 826.07,441.91 824.95,440.66 L 816.55,432.36 C 816.2,432.05 816.2,431.98 816.2,431 L 830.56,431 L 831.61,437.35 z " /><path
           style="fill:#000000;stroke-width:0"
           id="path2577"
           d="M 839.41,450.46 L 839.57,450.42 L 839.73,450.38 L 839.89,450.34 L 840.04,450.31 L 840.19,450.28 L 840.33,450.25 L 840.47,450.22 L 840.61,450.2 L 840.74,450.17 L 840.87,450.15 L 840.99,450.13 L 841.11,450.11 L 841.23,450.1 L 841.34,450.08 L 841.45,450.07 L 841.55,450.06 L 841.66,450.05 L 841.75,450.04 L 841.85,450.03 L 841.94,450.03 L 842.03,450.02 L 842.11,450.02 L 842.19,450.01 L 842.27,450.01 L 842.35,450.01 L 842.42,450.01 L 842.49,450.01 L 842.55,450 L 842.62,450 L 842.68,450 L 842.73,450 L 842.78,450 C 847.39,450 850.11,453.14 850.11,453.66 C 850.11,454.05 849.87,454.15 849.69,454.15 C 849.62,454.15 849.55,454.15 849.41,454.05 C 848.57,453.73 846.73,453.04 844.15,453.04 C 843.17,453.04 841.32,453.11 839.05,453.98 C 838.71,454.15 838.64,454.15 838.6,454.15 C 838.15,454.15 838.15,453.77 838.15,453.21 L 838.15,442.93 C 838.15,442.33 838.15,441.91 838.71,441.91 C 839.02,441.91 839.05,441.98 839.41,442.4 C 840.9,444.32 843.03,444.6 844.25,444.6 C 846.34,444.6 847.28,442.93 847.46,442.64 C 848.09,441.5 848.3,440.17 848.3,438.15 C 848.3,437.1 848.3,435.04 847.25,433.51 C 846.38,432.25 844.88,431.42 843.17,431.42 C 840.9,431.42 838.57,432.67 837.7,434.98 C 839.02,434.87 839.68,435.74 839.68,436.68 C 839.68,438.18 838.4,438.46 837.94,438.46 C 837.87,438.46 836.2,438.46 836.2,436.58 C 836.2,433.44 839.05,430.3 843.24,430.3 C 847.7,430.3 851.61,433.61 851.61,438.01 C 851.61,441.95 848.61,445.57 844.28,445.57 C 842.75,445.57 840.94,445.19 839.41,443.87 L 839.41,450.46 z " /><path
           style="fill:#000000;stroke-width:0"
           id="path2579"
           d="M 859.23,442.4 L 859.23,442.93 L 859.24,443.46 L 859.26,443.98 L 859.29,444.49 L 859.33,445 L 859.38,445.49 L 859.44,445.98 L 859.52,446.46 L 859.61,446.93 L 859.72,447.39 L 859.85,447.85 L 860,448.29 L 860.08,448.51 L 860.16,448.73 L 860.25,448.94 L 860.35,449.15 L 860.46,449.36 L 860.56,449.56 L 860.68,449.77 L 860.8,449.97 C 861.98,451.85 863.87,453.14 866.1,453.14 C 867.15,453.14 868.54,452.86 869.24,451.92 C 868.37,451.85 867.63,451.26 867.63,450.25 C 867.63,449.38 868.23,448.61 869.27,448.61 C 870.32,448.61 870.95,449.3 870.95,450.32 C 870.95,452.34 869.48,454.15 866.03,454.15 C 861.01,454.15 855.88,449.55 855.88,442.05 C 855.88,433.02 860.14,430.3 863.97,430.3 C 868.23,430.3 871.92,433.55 871.92,438.11 C 871.92,442.54 868.4,445.82 864.32,445.82 L 864.15,444.84 C 865.75,444.84 866.83,444.21 867.7,442.93 C 868.54,441.6 868.57,440.14 868.57,438.11 C 868.57,436.12 868.57,434.66 867.63,433.3 C 866.8,432.08 865.68,431.42 863.97,431.42 L 863.97,431.42 C 862.23,431.42 860.87,432.43 860.14,433.96 C 859.61,435.01 859.34,436.75 859.34,438.84 C 859.34,442.23 861.35,444.84 864.15,444.84 L 864.32,445.82 C 861.53,445.82 860,443.97 859.23,442.4 z " /></g>    </g>
    <g
       id="g2691"
       transform="matrix(0.2850079,0,0,0.2850079,180.39293,170.21282)">
      <g
         id="g2693"
         transform="matrix(1.0629921,0,0,-1.0629921,-186.02362,789.27165)"
         style="font-style:normal;font-variant:normal;font-weight:normal;font-stretch:normal;letter-spacing:normal;word-spacing:normal;text-anchor:start;fill:none;fill-opacity:1;stroke:#000000;stroke-linecap:butt;stroke-linejoin:miter;stroke-miterlimit:10.43299961;stroke-dasharray:none;stroke-dashoffset:0;stroke-opacity:1"
         xml:space="preserve"><path
           id="path2695"
           d="M 487.63,434.79 L 487.73,435.17 L 487.79,435.35 L 487.84,435.53 L 487.91,435.71 L 487.97,435.88 L 488.04,436.05 L 488.12,436.21 L 488.21,436.37 L 488.3,436.52 L 488.4,436.67 L 488.5,436.82 L 488.62,436.96 L 488.74,437.09 L 488.87,437.22 L 489.01,437.35 L 489.17,437.46 L 489.33,437.58 L 489.5,437.68 L 489.69,437.78 L 489.89,437.88 L 490.1,437.97 L 490.32,438.05 L 490.56,438.13 L 490.81,438.19 L 491.08,438.26 L 491.36,438.31 L 491.66,438.36 L 491.97,438.4 L 492.3,438.43 L 492.65,438.46 L 492.83,438.47 L 493.01,438.48 C 493.26,438.48 493.86,438.53 493.86,439.47 C 493.86,439.52 493.86,440.02 493.21,440.02 C 491.57,440.02 489.82,439.87 488.13,439.87 C 486.44,439.87 484.59,440.02 482.95,440.02 C 482.65,440.02 482.05,440.02 482.05,439.03 C 482.05,438.48 482.55,438.48 482.95,438.48 C 485.79,438.43 486.34,437.38 486.34,436.29 C 486.34,436.14 486.24,435.39 486.19,435.24 L 481.7,417.46 C 480.01,410.78 474.28,406.45 469.3,406.45 C 465.91,406.45 463.22,408.64 463.22,412.93 C 463.22,413.02 463.22,414.62 463.77,416.81 L 468.6,436.19 C 469.05,437.98 469.15,438.48 472.79,438.48 C 474.08,438.48 474.48,438.48 474.48,439.47 C 474.48,440.02 473.93,440.02 473.79,440.02 C 472.39,440.02 468.8,439.87 467.41,439.87 C 465.96,439.87 462.43,440.02 460.98,440.02 C 460.58,440.02 460.04,440.02 460.04,439.03 C 460.04,438.48 460.48,438.48 461.43,438.48 C 461.53,438.48 462.48,438.48 463.32,438.38 C 464.22,438.28 464.67,438.23 464.67,437.58 C 464.67,437.28 464.12,435.19 463.82,434.04 L 462.73,429.66 C 462.28,427.72 459.89,418.3 459.69,417.36 C 459.34,415.96 459.34,415.21 459.34,414.47 C 459.34,408.39 463.87,404.9 469.1,404.9 C 475.38,404.9 481.55,410.53 483.2,417.11 L 487.63,434.79 z "
           style="fill:#000000;stroke-width:0" /><path
           id="path2697"
           d="M 513.63,436.19 L 513.67,436.35 L 513.71,436.51 L 513.75,436.66 L 513.79,436.8 L 513.83,436.94 L 513.88,437.06 L 513.92,437.19 L 513.97,437.3 L 514.03,437.41 L 514.09,437.51 L 514.15,437.61 L 514.22,437.7 L 514.3,437.78 L 514.39,437.86 L 514.48,437.94 L 514.59,438 L 514.7,438.07 L 514.83,438.12 L 514.97,438.18 L 515.12,438.23 L 515.28,438.27 L 515.37,438.29 L 515.46,438.31 L 515.55,438.32 L 515.65,438.34 L 515.75,438.36 L 515.86,438.37 L 515.97,438.38 L 516.08,438.4 L 516.2,438.41 L 516.32,438.42 L 516.45,438.43 L 516.58,438.44 L 516.72,438.45 L 516.86,438.45 L 517,438.46 L 517.15,438.46 L 517.31,438.47 L 517.47,438.47 L 517.63,438.47 L 517.81,438.48 L 517.98,438.48 L 518.16,438.48 C 519.36,438.48 519.76,438.48 519.76,439.43 C 519.76,440.02 519.21,440.02 519.01,440.02 C 517.57,440.02 513.88,439.87 512.43,439.87 C 510.94,439.87 507.3,440.02 505.81,440.02 C 505.46,440.02 504.81,440.02 504.81,439.03 C 504.81,438.48 505.26,438.48 506.21,438.48 C 508.3,438.48 509.64,438.48 509.64,437.53 C 509.64,437.28 509.64,437.18 509.55,436.73 L 502.82,409.89 C 502.37,408.04 502.22,407.54 498.29,407.54 C 497.14,407.54 496.7,407.54 496.7,406.55 C 496.7,406 497.29,406 497.44,406 C 498.89,406 502.52,406.15 503.96,406.15 C 505.46,406.15 509.15,406 510.64,406 C 511.04,406 511.64,406 511.64,406.95 C 511.64,407.54 511.24,407.54 510.14,407.54 C 509.25,407.54 509,407.54 508,407.64 C 506.96,407.74 506.76,407.94 506.76,408.49 C 506.76,408.89 506.86,409.29 506.96,409.64 L 513.63,436.19 z "
           style="fill:#000000;stroke-width:0" /><path
           id="path2699"
           d="M 528.92,409.89 L 528.88,409.71 L 528.83,409.54 L 528.79,409.38 L 528.75,409.23 L 528.7,409.08 L 528.66,408.95 L 528.61,408.82 L 528.56,408.7 L 528.5,408.59 L 528.44,408.48 L 528.38,408.38 L 528.31,408.29 L 528.23,408.2 L 528.14,408.13 L 528.05,408.05 L 527.94,407.99 L 527.83,407.92 L 527.71,407.87 L 527.57,407.82 L 527.42,407.77 L 527.26,407.73 L 527.17,407.71 L 527.08,407.69 L 526.99,407.68 L 526.89,407.66 L 526.79,407.65 L 526.69,407.64 L 526.58,407.62 L 526.46,407.61 L 526.35,407.6 L 526.22,407.59 L 526.1,407.58 L 525.97,407.58 L 525.83,407.57 L 525.69,407.56 L 525.55,407.56 L 525.4,407.55 L 525.24,407.55 L 525.08,407.55 L 524.92,407.55 L 524.74,407.54 L 524.57,407.54 L 524.39,407.54 C 523.54,407.54 522.99,407.54 522.99,406.6 C 522.99,406 523.44,406 524.39,406 L 540.88,406 L 539.98,407.54 L 534.35,407.54 C 533.65,407.54 533.55,407.54 533.25,407.59 C 532.76,407.64 532.6,407.7 532.6,408.09 C 532.6,408.24 532.6,408.34 532.85,409.24 L 539.68,436.59 C 540.13,438.33 540.23,438.48 542.37,438.48 L 547.7,438.48 C 552.58,438.48 556.72,435.84 556.72,429.26 C 556.72,426.82 555.72,418.65 551.48,413.17 C 550.04,411.33 546.1,407.54 539.98,407.54 L 540.88,406 C 551.24,406 561.05,416.51 561.05,427.42 C 561.05,434.44 556.82,440.02 549.34,440.02 L 532.6,440.02 C 531.66,440.02 531.11,440.02 531.11,439.07 C 531.11,438.48 531.56,438.48 532.56,438.48 C 533.2,438.48 534.1,438.43 534.7,438.38 C 535.5,438.28 535.79,438.13 535.79,437.58 C 535.79,437.38 535.75,437.23 535.59,436.64 L 528.92,409.89 z "
           style="fill:#000000;stroke-width:0" /><path
           id="path2701"
           d="M 604.4,417.46 L 604.46,417.46 L 604.53,417.46 L 604.67,417.46 L 604.81,417.46 L 604.88,417.47 L 604.95,417.47 L 605.02,417.48 L 605.09,417.49 L 605.16,417.5 L 605.22,417.51 L 605.29,417.52 L 605.36,417.54 L 605.42,417.56 L 605.48,417.58 L 605.54,417.61 L 605.6,417.63 L 605.65,417.67 L 605.71,417.7 L 605.76,417.74 L 605.8,417.78 L 605.84,417.83 L 605.86,417.85 L 605.88,417.88 L 605.9,417.9 L 605.92,417.93 L 605.94,417.96 L 605.95,417.99 L 605.97,418.02 L 605.98,418.06 L 605.99,418.09 L 606,418.12 L 606.01,418.16 L 606.02,418.2 L 606.03,418.24 L 606.03,418.28 L 606.04,418.32 L 606.04,418.36 L 606.04,418.41 L 606.04,418.45 C 606.04,419.45 605.09,419.45 604.4,419.45 L 583.18,419.45 C 583.77,426.22 589.65,430.91 596.43,430.91 L 604.4,430.91 C 605.09,430.91 606.04,430.91 606.04,431.9 C 606.04,432.9 605.09,432.9 604.4,432.9 L 596.28,432.9 C 588.31,432.9 581.13,426.82 581.13,418.45 C 581.13,410.18 588.21,404.01 596.33,404.01 L 604.4,404.01 C 605.09,404.01 606.04,404.01 606.04,405 C 606.04,406 605.09,406 604.4,406 L 596.48,406 C 589.5,406 583.77,410.78 583.18,417.46 L 604.4,417.46 z "
           style="fill:#000000;stroke-width:0" /><path
           id="path2703"
           d="M 631.71,410.86 L 632.1,410.95 L 632.48,411.06 L 632.86,411.17 L 633.24,411.29 L 633.61,411.42 L 633.98,411.56 L 634.34,411.71 L 634.69,411.86 L 635.03,412.02 L 635.37,412.19 L 635.7,412.37 L 636.02,412.55 L 636.33,412.74 L 636.63,412.94 L 636.92,413.14 L 637.19,413.35 L 637.46,413.57 L 637.71,413.79 L 637.95,414.02 L 638.17,414.25 L 638.38,414.49 L 638.58,414.74 L 638.75,414.99 L 638.92,415.24 L 639.06,415.5 L 639.19,415.77 L 639.3,416.04 L 639.39,416.31 L 639.46,416.59 L 639.52,416.87 L 639.55,417.16 L 639.56,417.45 C 639.56,420.45 636,422.82 630.95,422.82 L 620.24,422.82 C 619.58,422.82 619.12,422.82 619.12,422.05 C 619.12,421.56 619.54,421.56 620.24,421.56 C 620.27,421.56 620.94,421.56 621.57,421.49 C 622.3,421.42 622.37,421.35 622.37,421 C 622.37,420.93 622.37,420.76 622.23,420.23 L 617.59,401.72 C 617.31,400.54 617.24,400.25 614.52,400.25 C 613.93,400.25 613.48,400.25 613.48,399.52 C 613.48,399.18 613.72,399 614.03,399 C 614.7,399 615.5,399.11 616.2,399.11 C 616.86,399.11 617.87,399.14 618.5,399.14 C 619.2,399.14 620,399.11 620.73,399.11 C 621.46,399.11 622.33,399 623.07,399 C 623.24,399 623.8,399 623.8,399.73 C 623.8,400.25 623.45,400.25 622.65,400.25 C 622.09,400.25 621.95,400.25 621.32,400.32 C 620.55,400.43 620.55,400.5 620.55,400.85 C 620.55,400.88 620.55,401.09 620.7,401.61 L 622.89,410.44 L 627.63,410.44 L 627.67,411.41 L 623.17,411.41 L 625.4,420.38 C 625.65,421.35 625.72,421.46 626.48,421.56 L 628.72,421.56 C 631.96,421.56 635.97,421.56 635.97,417.97 C 635.97,416.54 635.3,414.34 633.66,413.09 C 632.23,411.97 630.07,411.41 627.67,411.41 L 627.63,410.44 C 630.63,410.44 631.92,408.94 631.92,407.3 C 631.92,406.84 631.61,405.66 631.43,404.86 C 631.02,403.25 630.88,402.73 630.88,402.14 C 630.88,399.38 633.42,398.3 636,398.3 C 639.21,398.3 640.6,401.72 640.6,402.35 C 640.6,402.45 640.53,402.84 640.01,402.84 C 639.56,402.84 639.49,402.59 639.38,402.24 C 638.9,400.71 637.6,399.28 636.14,399.28 C 635.23,399.28 634.57,399.66 634.57,401.55 C 634.57,402.42 634.78,404.23 634.92,405.17 C 635.06,406.11 635.06,406.46 635.06,406.81 C 635.06,407.23 635.06,408.34 634.08,409.39 C 633.42,410.12 632.48,410.58 631.71,410.86 z "
           style="fill:#000000;stroke-width:0" /><path
           id="path2705"
           d="M 671.1,434.04 L 671.1,434.37 L 671.1,434.69 L 671.1,434.99 L 671.1,435.28 L 671.1,435.55 L 671.11,435.82 L 671.11,436.07 L 671.12,436.31 L 671.12,436.54 L 671.13,436.76 L 671.15,436.97 L 671.16,437.17 L 671.18,437.36 L 671.2,437.54 L 671.22,437.72 L 671.25,437.89 L 671.28,438.05 L 671.31,438.2 L 671.35,438.35 L 671.39,438.5 L 671.44,438.63 L 671.49,438.77 L 671.54,438.9 L 671.6,439.03 L 671.67,439.15 L 671.74,439.27 L 671.82,439.39 L 671.9,439.51 L 671.99,439.62 L 672.08,439.74 L 672.18,439.86 L 672.29,439.97 C 673.19,440.87 674.34,442.07 677.82,442.27 C 678.07,442.31 678.27,442.51 678.27,442.81 C 678.27,443.36 677.87,443.36 677.27,443.36 C 672.29,443.36 667.86,440.82 667.76,437.23 L 667.76,428.12 C 667.76,423.43 667.76,422.64 666.47,421.24 C 665.77,420.55 664.42,419.2 661.28,419 C 660.93,419 660.59,418.95 660.59,418.45 C 660.59,417.96 660.89,417.96 661.38,417.91 C 663.53,417.76 667.76,416.71 667.76,411.73 L 667.76,401.87 C 667.76,398.98 667.76,397.28 670.35,395.44 C 672.49,393.95 675.73,393.55 677.27,393.55 C 677.87,393.55 678.27,393.55 678.27,394.09 C 678.27,394.59 677.97,394.59 677.47,394.64 C 673.54,394.89 671.7,397.13 671.25,398.93 C 671.1,399.47 671.1,399.57 671.1,401.32 L 671.1,408.79 C 671.1,410.29 671.1,412.82 671,413.32 C 670.35,416.61 667.16,417.91 665.22,418.45 C 671.1,420.15 671.1,423.68 671.1,425.08 L 671.1,434.04 z "
           style="fill:#000000;stroke-width:0" /><path
           id="path2707"
           d="M 704.91,421.94 L 704.91,422.69 L 704.9,423.43 L 704.88,424.18 L 704.85,424.92 L 704.8,425.67 L 704.74,426.41 L 704.67,427.15 L 704.57,427.88 L 704.46,428.61 L 704.32,429.34 L 704.16,430.06 L 703.97,430.78 L 703.75,431.49 L 703.51,432.2 L 703.23,432.9 L 703.08,433.25 L 702.92,433.6 C 700.63,438.38 696.55,439.18 694.45,439.18 C 691.47,439.18 687.83,437.88 685.78,433.25 C 684.19,429.81 683.94,425.93 683.94,421.94 C 683.94,418.2 684.14,413.72 686.18,409.93 C 688.33,405.9 691.96,404.9 694.4,404.9 L 694.4,406 C 692.46,406 689.52,407.25 688.62,412.03 C 688.08,415.02 688.08,419.6 688.08,422.54 C 688.08,425.73 688.08,429.01 688.48,431.7 C 689.42,437.63 693.16,438.08 694.4,438.08 C 696.05,438.08 699.34,437.18 700.28,432.25 C 700.78,429.46 700.78,425.68 700.78,422.54 C 700.78,418.8 700.78,415.41 700.23,412.23 C 699.48,407.5 696.65,406 694.4,406 L 694.4,406 L 694.4,404.9 C 697.09,404.9 700.88,405.95 703.07,410.68 C 704.66,414.12 704.91,418 704.91,421.94 z "
           style="fill:#000000;stroke-width:0" /><path
           id="path2709"
           d="M 724.56,408.64 L 724.56,408.78 L 724.55,408.91 L 724.53,409.04 L 724.51,409.17 L 724.48,409.3 L 724.44,409.42 L 724.4,409.54 L 724.35,409.66 L 724.3,409.78 L 724.24,409.89 L 724.18,410 L 724.11,410.11 L 724.03,410.21 L 723.96,410.31 L 723.87,410.41 L 723.78,410.5 L 723.69,410.59 L 723.6,410.67 L 723.5,410.75 L 723.39,410.83 L 723.29,410.9 L 723.18,410.96 L 723.06,411.02 L 722.95,411.07 L 722.83,411.12 L 722.7,411.16 L 722.58,411.2 L 722.45,411.23 L 722.32,411.25 L 722.19,411.27 L 722.06,411.28 L 721.93,411.28 C 720.48,411.28 719.28,410.09 719.28,408.64 C 719.28,407.2 720.48,406 721.93,406 C 723.37,406 724.56,407.2 724.56,408.64 z "
           style="fill:#000000;stroke-width:0" /><path
           id="path2711"
           d="M 746.56,408.64 L 746.56,408.78 L 746.55,408.91 L 746.53,409.04 L 746.51,409.17 L 746.48,409.3 L 746.44,409.42 L 746.4,409.54 L 746.35,409.66 L 746.3,409.78 L 746.24,409.89 L 746.18,410 L 746.11,410.11 L 746.03,410.21 L 745.96,410.31 L 745.87,410.41 L 745.78,410.5 L 745.69,410.59 L 745.6,410.67 L 745.5,410.75 L 745.39,410.83 L 745.29,410.9 L 745.18,410.96 L 745.06,411.02 L 744.95,411.07 L 744.83,411.12 L 744.7,411.16 L 744.58,411.2 L 744.45,411.23 L 744.32,411.25 L 744.19,411.27 L 744.06,411.28 L 743.93,411.28 C 742.48,411.28 741.28,410.09 741.28,408.64 C 741.28,407.2 742.48,406 743.93,406 C 745.37,406 746.56,407.2 746.56,408.64 z "
           style="fill:#000000;stroke-width:0" /><path
           id="path2713"
           d="M 768.56,408.64 L 768.56,408.78 L 768.55,408.91 L 768.53,409.04 L 768.51,409.17 L 768.48,409.3 L 768.44,409.42 L 768.4,409.54 L 768.35,409.66 L 768.3,409.78 L 768.24,409.89 L 768.18,410 L 768.11,410.11 L 768.03,410.21 L 767.96,410.31 L 767.87,410.41 L 767.78,410.5 L 767.69,410.59 L 767.6,410.67 L 767.5,410.75 L 767.39,410.83 L 767.29,410.9 L 767.18,410.96 L 767.06,411.02 L 766.95,411.07 L 766.83,411.12 L 766.7,411.16 L 766.58,411.2 L 766.45,411.23 L 766.32,411.25 L 766.19,411.27 L 766.06,411.28 L 765.93,411.28 C 764.48,411.28 763.28,410.09 763.28,408.64 C 763.28,407.2 764.48,406 765.93,406 C 767.37,406 768.56,407.2 768.56,408.64 z "
           style="fill:#000000;stroke-width:0" /><path
           id="path2715"
           d="M 786.38,408.94 L 786.37,408.87 L 786.35,408.79 L 786.34,408.72 L 786.32,408.64 L 786.29,408.48 L 786.25,408.32 L 786.21,408.16 L 786.18,408 L 786.14,407.84 L 786.1,407.68 L 786.09,407.6 L 786.07,407.53 L 786.05,407.46 L 786.04,407.39 L 786.02,407.32 L 786.01,407.25 L 786,407.19 L 785.98,407.13 L 785.97,407.08 L 785.96,407.02 L 785.95,406.97 L 785.95,406.93 L 785.94,406.89 L 785.94,406.85 L 785.93,406.82 L 785.93,406.8 C 785.93,405.9 786.63,405.45 787.38,405.45 C 787.98,405.45 788.88,405.85 789.22,406.85 C 789.27,406.95 789.87,409.29 790.17,410.53 C 790.52,412.03 790.92,413.52 791.27,415.02 C 791.56,416.11 791.86,417.21 792.11,418.36 C 792.31,419.2 792.71,420.64 792.76,420.84 C 793.51,422.39 796.15,426.92 800.88,426.92 C 803.12,426.92 803.57,425.08 803.57,423.43 C 803.57,422.19 803.22,420.79 802.82,419.3 C 802.22,416.76 801.98,415.76 801.43,413.52 C 800.93,411.68 800.88,411.38 800.43,409.73 C 800.23,408.74 799.78,407.05 799.78,406.8 C 799.78,405.9 800.48,405.45 801.23,405.45 C 802.77,405.45 803.07,406.7 803.47,408.29 C 804.17,411.08 806.01,418.36 806.46,420.3 C 806.61,420.95 809.25,426.92 814.68,426.92 C 816.82,426.92 817.37,425.23 817.37,423.43 C 817.37,420.59 815.27,414.92 814.28,412.28 C 813.83,411.08 813.63,410.53 813.63,409.54 C 813.63,407.2 815.38,405.45 817.72,405.45 C 822.4,405.45 824.24,412.73 824.24,413.12 C 824.24,413.62 823.79,413.62 823.65,413.62 C 823.15,413.62 823.15,413.47 822.9,412.73 C 822.15,410.09 820.55,406.55 817.82,406.55 C 816.97,406.55 816.62,407.05 816.62,408.19 C 816.62,409.44 817.07,410.63 817.52,411.73 C 818.47,414.32 820.55,419.85 820.55,422.69 C 820.55,425.93 818.56,428.02 814.83,428.02 C 811.09,428.02 808.55,425.82 806.71,423.18 C 806.66,423.83 806.51,425.53 805.11,426.72 C 803.87,427.77 802.27,428.02 801.03,428.02 C 796.55,428.02 794.1,424.83 793.26,423.68 C 793.01,426.52 790.92,428.02 788.68,428.02 C 786.38,428.02 785.44,426.07 784.99,425.18 C 784.09,423.43 783.45,420.5 783.45,420.35 C 783.45,419.85 783.94,419.85 784.04,419.85 C 784.54,419.85 784.59,419.9 784.89,420.99 C 785.73,424.53 786.73,426.92 788.53,426.92 C 789.32,426.92 790.07,426.52 790.07,424.63 C 790.07,423.59 789.92,423.04 789.27,420.45 L 786.38,408.94 z "
           style="fill:#000000;stroke-width:0" /><path
           id="path2717"
           d="M 843.58,424.83 L 843.5,425 L 843.41,425.17 L 843.31,425.33 L 843.22,425.49 L 843.12,425.65 L 843.02,425.81 L 842.91,425.96 L 842.8,426.1 L 842.69,426.25 L 842.57,426.38 L 842.45,426.52 L 842.33,426.65 L 842.2,426.77 L 842.07,426.89 L 841.93,427 L 841.79,427.11 L 841.65,427.22 L 841.5,427.31 L 841.35,427.41 L 841.2,427.49 L 841.04,427.57 L 840.87,427.65 L 840.7,427.72 L 840.53,427.78 L 840.36,427.83 L 840.17,427.88 L 839.99,427.92 L 839.8,427.95 L 839.61,427.98 L 839.41,428 L 839.2,428.01 L 839,428.02 L 839.05,426.92 C 842.28,426.92 842.98,422.84 842.98,422.54 C 842.98,422.24 842.88,421.94 842.83,421.69 L 840.34,411.93 C 840.09,411.03 840.09,410.93 839.35,410.09 C 837.16,407.34 835.11,406.55 833.72,406.55 C 831.23,406.55 830.53,409.29 830.53,411.23 C 830.53,413.72 832.12,419.85 833.27,422.14 C 834.81,425.08 837.05,426.92 839.05,426.92 L 839,428.02 C 833.17,428.02 826.99,420.7 826.99,413.42 C 826.99,408.74 829.73,405.45 833.62,405.45 C 834.61,405.45 837.1,405.65 840.09,409.19 C 840.49,407.1 842.23,405.45 844.62,405.45 C 846.37,405.45 847.52,406.6 848.31,408.19 C 849.16,409.98 849.81,413.02 849.81,413.12 C 849.81,413.62 849.36,413.62 849.21,413.62 C 848.71,413.62 848.66,413.42 848.51,412.73 C 847.66,409.49 846.77,406.55 844.73,406.55 C 843.38,406.55 843.23,407.84 843.23,408.84 C 843.23,409.93 843.33,410.33 843.88,412.53 C 844.43,414.62 844.53,415.12 844.98,417.01 C 845.82,420.2 846.02,421.14 846.77,423.98 C 847.12,425.38 847.12,425.48 847.12,425.68 C 847.12,426.52 846.52,427.02 845.67,427.02 C 844.48,427.02 843.73,425.93 843.58,424.83 z "
           style="fill:#000000;stroke-width:0" /><path
           id="path2719"
           d="M 867.64,421.04 L 867.67,421.17 L 867.7,421.32 L 867.75,421.49 L 867.79,421.67 L 867.85,421.86 L 867.91,422.07 L 867.97,422.28 L 868.04,422.51 L 868.12,422.74 L 868.21,422.98 L 868.31,423.23 L 868.41,423.47 L 868.52,423.72 L 868.64,423.97 L 868.77,424.22 L 868.91,424.47 L 869.06,424.71 L 869.21,424.95 L 869.38,425.18 L 869.56,425.4 L 869.74,425.62 L 869.94,425.82 L 870.15,426.01 L 870.37,426.19 L 870.6,426.35 L 870.85,426.49 L 870.97,426.56 L 871.1,426.62 L 871.23,426.67 L 871.37,426.72 L 871.51,426.77 L 871.65,426.81 L 871.79,426.84 L 871.94,426.87 L 872.09,426.89 L 872.25,426.91 L 872.41,426.92 L 872.57,426.92 C 872.82,426.92 874.02,426.92 875.06,426.27 C 873.66,426.02 872.67,424.78 872.67,423.59 C 872.67,422.79 873.22,421.84 874.56,421.84 C 875.66,421.84 877.25,422.74 877.25,424.73 C 877.25,427.32 874.31,428.02 872.62,428.02 C 869.73,428.02 867.98,425.38 867.39,424.23 C 866.15,427.52 863.45,428.02 862.01,428.02 C 856.83,428.02 853.99,421.59 853.99,420.35 C 853.99,419.85 854.49,419.85 854.59,419.85 C 854.98,419.85 855.13,419.95 855.23,420.39 C 856.93,425.68 860.22,426.92 861.91,426.92 C 862.85,426.92 864.6,426.47 864.6,423.59 C 864.6,422.04 863.75,418.7 861.91,411.73 C 861.11,408.64 859.37,406.55 857.18,406.55 C 856.88,406.55 855.73,406.55 854.69,407.2 C 855.93,407.45 857.03,408.49 857.03,409.89 C 857.03,411.23 855.93,411.63 855.18,411.63 C 853.69,411.63 852.45,410.33 852.45,408.74 C 852.45,406.45 854.93,405.45 857.13,405.45 C 860.41,405.45 862.21,408.94 862.35,409.24 C 862.96,407.39 864.75,405.45 867.74,405.45 C 872.87,405.45 875.71,411.88 875.71,413.12 C 875.71,413.62 875.26,413.62 875.11,413.62 C 874.66,413.62 874.56,413.42 874.46,413.07 C 872.82,407.74 869.43,406.55 867.84,406.55 C 865.9,406.55 865.1,408.14 865.1,409.84 C 865.1,410.93 865.4,412.03 865.95,414.22 L 867.64,421.04 z "
           style="fill:#000000;stroke-width:0" /><path
           id="path2721"
           d="M 897.43,408.79 L 897.49,408.6 L 897.55,408.41 L 897.62,408.23 L 897.69,408.06 L 897.78,407.89 L 897.86,407.72 L 897.96,407.56 L 898.06,407.41 L 898.16,407.26 L 898.27,407.11 L 898.39,406.97 L 898.51,406.84 L 898.64,406.71 L 898.77,406.58 L 898.91,406.47 L 899.05,406.35 L 899.2,406.25 L 899.35,406.15 L 899.51,406.06 L 899.67,405.97 L 899.83,405.89 L 900,405.82 L 900.17,405.75 L 900.35,405.69 L 900.53,405.63 L 900.71,405.59 L 900.9,405.55 L 901.08,405.51 L 901.28,405.49 L 901.47,405.47 L 901.67,405.46 L 901.87,405.45 C 903.61,405.45 904.76,406.6 905.55,408.19 C 906.4,409.98 907.05,413.02 907.05,413.12 C 907.05,413.62 906.6,413.62 906.45,413.62 C 905.95,413.62 905.9,413.42 905.75,412.73 C 905.05,409.93 904.11,406.55 902.02,406.55 C 900.97,406.55 900.47,407.2 900.47,408.84 C 900.47,409.93 901.07,412.28 901.47,414.02 C 901.92,415.81 902.41,417.61 902.86,419.4 C 903.02,420.15 903.51,422.04 903.71,422.79 C 903.96,423.93 904.46,425.82 904.46,426.12 C 904.46,427.02 903.76,427.47 903.02,427.47 C 902.77,427.47 901.47,427.42 901.07,425.73 C 900.12,422.09 897.93,413.37 897.34,410.73 C 897.28,410.53 895.29,406.55 891.66,406.55 C 889.07,406.55 888.57,408.79 888.57,410.63 C 888.57,413.42 889.96,417.36 891.26,420.79 C 891.85,422.29 892.1,422.98 892.1,423.93 C 892.1,426.18 890.51,428.02 888.02,428.02 C 883.29,428.02 881.45,420.79 881.45,420.35 C 881.45,419.85 881.94,419.85 882.04,419.85 C 882.54,419.85 882.59,419.95 882.84,420.75 C 884.09,425.08 885.98,426.92 887.87,426.92 C 888.32,426.92 889.12,426.87 889.12,425.28 C 889.12,424.08 888.57,422.64 888.27,421.89 C 886.43,416.96 885.38,413.87 885.38,411.43 C 885.38,406.7 888.82,405.45 891.51,405.45 C 894.79,405.45 896.59,407.7 897.43,408.79 z "
           style="fill:#000000;stroke-width:0" /><path
           id="path2723"
           d="M 927.48,424.63 L 927.35,424.62 L 927.22,424.61 L 927.1,424.59 L 926.97,424.56 L 926.85,424.53 L 926.74,424.5 L 926.63,424.46 L 926.51,424.41 L 926.41,424.36 L 926.3,424.31 L 926.2,424.25 L 926.11,424.19 L 926.01,424.12 L 925.93,424.05 L 925.84,423.98 L 925.76,423.9 L 925.68,423.82 L 925.61,423.74 L 925.54,423.65 L 925.47,423.57 L 925.41,423.48 L 925.36,423.38 L 925.31,423.29 L 925.26,423.19 L 925.22,423.1 L 925.19,423 L 925.16,422.9 L 925.13,422.8 L 925.11,422.69 L 925.1,422.59 L 925.09,422.49 L 925.09,422.39 C 925.09,421.69 925.53,420.95 926.63,420.95 C 927.73,420.95 928.92,421.79 928.92,423.73 C 928.92,425.98 926.78,428.02 922.99,428.02 C 916.42,428.02 914.57,422.94 914.57,420.75 C 914.57,416.86 918.26,416.11 919.71,415.81 C 922.3,415.32 924.89,414.77 924.89,412.03 C 924.89,410.73 923.74,406.55 917.76,406.55 C 917.07,406.55 913.23,406.55 912.09,409.19 C 913.98,408.94 915.22,410.43 915.22,411.83 C 915.22,412.97 914.43,413.57 913.38,413.57 C 912.09,413.57 910.59,412.53 910.59,410.29 C 910.59,407.45 913.43,405.45 917.72,405.45 C 925.78,405.45 927.73,411.48 927.73,413.72 C 927.73,415.52 926.78,416.76 926.18,417.36 C 924.84,418.75 923.39,419 921.2,419.45 C 919.41,419.85 917.41,420.2 917.41,422.44 C 917.41,423.88 918.61,426.92 922.99,426.92 C 924.24,426.92 926.73,426.57 927.48,424.63 z "
           style="fill:#000000;stroke-width:0" /><path
           id="path2725"
           d="M 941.32,417.51 L 941.46,417.51 L 941.61,417.51 L 941.78,417.51 L 941.96,417.51 L 942.14,417.52 L 942.34,417.52 L 942.55,417.53 L 942.76,417.54 L 942.99,417.55 L 943.22,417.56 L 943.46,417.58 L 943.7,417.59 L 943.95,417.61 L 944.21,417.64 L 944.73,417.69 L 945.27,417.75 L 945.81,417.83 L 946.36,417.92 L 946.9,418.03 L 947.43,418.16 L 947.7,418.23 L 947.95,418.3 L 948.21,418.38 L 948.46,418.47 L 948.7,418.56 L 948.94,418.65 C 952.42,420.15 952.67,423.09 952.67,423.79 C 952.67,425.98 950.78,428.02 947.34,428.02 L 947.34,426.92 C 949.68,426.92 951.03,425.48 951.03,423.79 C 951.03,418.6 943.06,418.6 941.02,418.6 L 938.97,418.6 C 940.92,426.18 946.05,426.92 947.34,426.92 L 947.34,428.02 C 941.81,428.02 934.29,423.18 934.29,414.47 C 934.29,409.39 937.23,405.45 942.11,405.45 C 949.23,405.45 953.42,410.73 953.42,411.33 C 953.42,411.63 953.12,411.98 952.82,411.98 C 952.57,411.98 952.47,411.88 952.18,411.48 C 948.24,406.55 942.81,406.55 942.21,406.55 C 938.33,406.55 937.88,410.73 937.88,412.33 C 937.88,412.93 937.93,414.47 938.68,417.51 L 941.32,417.51 z "
           style="fill:#000000;stroke-width:0" /><path
           id="path2727"
           d="M 959.38,408.94 L 959.37,408.87 L 959.35,408.79 L 959.34,408.72 L 959.32,408.64 L 959.29,408.48 L 959.25,408.32 L 959.21,408.16 L 959.18,408 L 959.14,407.84 L 959.1,407.68 L 959.09,407.6 L 959.07,407.53 L 959.05,407.46 L 959.04,407.39 L 959.02,407.32 L 959.01,407.25 L 959,407.19 L 958.98,407.13 L 958.97,407.08 L 958.96,407.02 L 958.95,406.97 L 958.95,406.93 L 958.94,406.89 L 958.94,406.85 L 958.93,406.82 L 958.93,406.8 C 958.93,405.9 959.63,405.45 960.38,405.45 C 960.98,405.45 961.88,405.85 962.22,406.85 C 962.32,407.05 964.02,413.82 964.22,414.72 C 964.61,416.36 965.51,419.85 965.81,421.19 C 966.01,421.84 967.4,424.18 968.6,425.28 C 969,425.62 970.44,426.92 972.59,426.92 C 973.88,426.92 974.62,426.32 974.68,426.32 C 973.18,426.07 972.09,424.88 972.09,423.59 C 972.09,422.79 972.63,421.84 973.98,421.84 C 975.32,421.84 976.72,422.98 976.72,424.78 C 976.72,426.52 975.12,428.02 972.59,428.02 C 969.35,428.02 967.16,425.58 966.21,424.18 C 965.81,426.42 964.02,428.02 961.68,428.02 C 959.38,428.02 958.44,426.07 957.99,425.18 C 957.09,423.48 956.45,420.5 956.45,420.35 C 956.45,419.85 956.94,419.85 957.04,419.85 C 957.54,419.85 957.59,419.9 957.89,420.99 C 958.73,424.53 959.73,426.92 961.53,426.92 C 962.37,426.92 963.07,426.52 963.07,424.63 C 963.07,423.59 962.92,423.04 962.27,420.45 L 959.38,408.94 z "
           style="fill:#000000;stroke-width:0" /><path
           id="path2729"
           d="M 998.48,424.63 L 998.35,424.62 L 998.22,424.61 L 998.1,424.59 L 997.97,424.56 L 997.85,424.53 L 997.74,424.5 L 997.63,424.46 L 997.51,424.41 L 997.41,424.36 L 997.3,424.31 L 997.2,424.25 L 997.11,424.19 L 997.01,424.12 L 996.93,424.05 L 996.84,423.98 L 996.76,423.9 L 996.68,423.82 L 996.61,423.74 L 996.54,423.65 L 996.47,423.57 L 996.41,423.48 L 996.36,423.38 L 996.31,423.29 L 996.26,423.19 L 996.22,423.1 L 996.19,423 L 996.16,422.9 L 996.13,422.8 L 996.11,422.69 L 996.1,422.59 L 996.09,422.49 L 996.09,422.39 C 996.09,421.69 996.53,420.95 997.63,420.95 C 998.73,420.95 999.92,421.79 999.92,423.73 C 999.92,425.98 997.78,428.02 993.99,428.02 C 987.42,428.02 985.57,422.94 985.57,420.75 C 985.57,416.86 989.26,416.11 990.71,415.81 C 993.3,415.32 995.89,414.77 995.89,412.03 C 995.89,410.73 994.74,406.55 988.76,406.55 C 988.07,406.55 984.23,406.55 983.09,409.19 C 984.98,408.94 986.22,410.43 986.22,411.83 C 986.22,412.97 985.43,413.57 984.38,413.57 C 983.09,413.57 981.59,412.53 981.59,410.29 C 981.59,407.45 984.43,405.45 988.72,405.45 C 996.78,405.45 998.73,411.48 998.73,413.72 C 998.73,415.52 997.78,416.76 997.18,417.36 C 995.84,418.75 994.39,419 992.2,419.45 C 990.41,419.85 988.41,420.2 988.41,422.44 C 988.41,423.88 989.61,426.92 993.99,426.92 C 995.24,426.92 997.73,426.57 998.48,424.63 z "
           style="fill:#000000;stroke-width:0" /><path
           id="path2731"
           d="M 1045.9,417.46 L 1046,417.46 L 1046.1,417.46 L 1046.2,417.46 L 1046.3,417.46 L 1046.4,417.47 L 1046.5,417.47 L 1046.5,417.48 L 1046.6,417.49 L 1046.7,417.5 L 1046.8,417.51 L 1046.8,417.52 L 1046.9,417.54 L 1046.9,417.56 L 1047,417.58 L 1047.1,417.61 L 1047.1,417.63 L 1047.2,417.67 L 1047.2,417.7 L 1047.3,417.74 L 1047.3,417.78 L 1047.4,417.83 L 1047.4,417.85 L 1047.4,417.88 L 1047.4,417.9 L 1047.4,417.93 L 1047.5,417.96 L 1047.5,417.99 L 1047.5,418.02 L 1047.5,418.06 L 1047.5,418.09 L 1047.5,418.12 L 1047.5,418.16 L 1047.5,418.2 L 1047.6,418.24 L 1047.6,418.28 L 1047.6,418.32 L 1047.6,418.36 L 1047.6,418.41 L 1047.6,418.45 C 1047.6,419.45 1046.6,419.45 1045.9,419.45 L 1018.8,419.45 C 1018.1,419.45 1017.1,419.45 1017.1,418.45 C 1017.1,417.46 1018.1,417.46 1018.8,417.46 L 1045.9,417.46 z "
           style="fill:#000000;stroke-width:0" /><path
           id="path2733"
           d="M 1077.6,437.88 L 1077.6,437.93 L 1077.6,437.99 L 1077.6,438.04 L 1077.6,438.09 L 1077.6,438.14 L 1077.6,438.19 L 1077.6,438.23 L 1077.6,438.28 L 1077.6,438.32 L 1077.6,438.36 L 1077.6,438.4 L 1077.6,438.44 L 1077.6,438.48 L 1077.6,438.52 L 1077.6,438.55 L 1077.6,438.59 L 1077.6,438.62 L 1077.6,438.65 L 1077.6,438.71 L 1077.6,438.76 L 1077.6,438.81 L 1077.6,438.86 L 1077.5,438.9 L 1077.5,438.94 L 1077.5,438.98 L 1077.5,439.01 L 1077.4,439.03 L 1077.4,439.06 L 1077.4,439.08 L 1077.3,439.1 L 1077.3,439.11 L 1077.3,439.12 L 1077.2,439.12 L 1077.2,439.13 L 1077.2,439.14 L 1077.2,439.14 L 1077.1,439.15 L 1077.1,439.15 L 1077.1,439.16 L 1077,439.16 L 1077,439.16 L 1077,439.16 L 1076.9,439.17 L 1076.9,439.17 L 1076.8,439.17 L 1076.8,439.17 L 1076.7,439.17 L 1076.7,439.17 L 1076.7,439.18 L 1076.6,439.18 L 1076.6,439.18 L 1076.5,439.18 C 1073.4,435.99 1069,435.99 1067.4,435.99 L 1067.4,434.44 C 1068.4,434.44 1071.4,434.44 1074,435.74 L 1074,409.93 C 1074,408.14 1073.8,407.54 1069.3,407.54 L 1067.7,407.54 L 1067.7,406 C 1069.5,406.15 1073.8,406.15 1075.8,406.15 C 1077.8,406.15 1082.1,406.15 1083.9,406 L 1083.9,407.54 L 1082.3,407.54 C 1077.8,407.54 1077.6,408.09 1077.6,409.93 L 1077.6,437.88 z "
           style="fill:#000000;stroke-width:0" /><path
           id="path2735"
           d="M 1102.1,435.04 L 1102.1,435.31 L 1102.1,435.57 L 1102.1,435.82 L 1102.1,436.07 L 1102.1,436.31 L 1102.1,436.55 L 1102.1,436.78 L 1102.1,437 L 1102,437.22 L 1102,437.44 L 1102,437.65 L 1102,437.86 L 1101.9,438.06 L 1101.9,438.26 L 1101.8,438.45 L 1101.8,438.65 L 1101.7,438.84 L 1101.6,439.02 L 1101.6,439.21 L 1101.5,439.39 L 1101.4,439.57 L 1101.3,439.74 L 1101.1,439.92 L 1101,440.09 L 1100.9,440.27 L 1100.7,440.44 L 1100.5,440.61 L 1100.4,440.78 L 1100.2,440.95 L 1100,441.12 L 1099.7,441.3 L 1099.5,441.47 C 1097.4,442.91 1094.2,443.36 1092.6,443.36 C 1092.1,443.36 1091.6,443.36 1091.6,442.81 C 1091.6,442.31 1091.9,442.31 1092.4,442.27 C 1096.3,442.02 1098.2,439.77 1098.6,437.98 C 1098.8,437.43 1098.8,437.33 1098.8,435.59 L 1098.8,428.12 C 1098.8,426.62 1098.8,424.08 1098.9,423.59 C 1099.5,420.3 1102.7,419 1104.6,418.45 C 1098.8,416.76 1098.8,413.22 1098.8,411.83 L 1098.8,402.86 C 1098.8,399.27 1098.8,398.18 1097.6,396.93 C 1096.7,396.04 1095.5,394.84 1092,394.64 C 1091.8,394.59 1091.6,394.39 1091.6,394.09 C 1091.6,393.55 1092.1,393.55 1092.6,393.55 C 1097.6,393.55 1102,396.09 1102.1,399.67 L 1102.1,408.79 C 1102.1,413.47 1102.1,414.27 1103.4,415.66 C 1104.1,416.36 1105.4,417.71 1108.6,417.91 C 1108.9,417.91 1109.3,417.96 1109.3,418.45 C 1109.3,418.95 1109,418.95 1108.5,419 C 1106.3,419.15 1102.1,420.2 1102.1,425.18 L 1102.1,435.04 z "
           style="fill:#000000;stroke-width:0" /></g>    </g>
  </g>
</svg>
