<?xml version="1.0" standalone="no"?>
<!DOCTYPE svg PUBLIC "-//W3C//DTD SVG 1.1//EN" "http://www.w3.org/Graphics/SVG/1.1/DTD/svg11.dtd">
<svg xmlns="http://www.w3.org/2000/svg" viewBox="0 0 346.0 346.0">
<g transform="translate(0,346) scale(0.100000,-0.100000)" fill="#000000" stroke="none">
<path d="M0 1730 l0 -1730 1730 0 1730 0 0 1730 0 1730 -1730 0 -1730 0 0 -1730z m1924 968 l193 -593 629 -5 629 -5 -252 -182 c-245 -179 -252 -183 -299 -182 l-49 0 29 22 c64 49 250 185 316 232 l71 50 -558 3 -559 2 -164 508 c-90 279 -169 517 -175 530 -12 24 9 83 -244 -695 l-112 -343 -557 0 -557 -1 33 -27 c18 -15 32 -30 32 -33 0 -3 -19 -5 -43 -4 -35 1 -58 12 -126 61 l-83 59 629 3 629 2 153 473 c84 259 172 529 194 599 23 70 43 125 45 123 2 -2 90 -270 196 -597z m-1529 -822 c4 -19 2 -43 -5 -55 -9 -18 -19 -22 -53 -19 l-42 3 -3 53 -3 52 50 0 c49 0 50 -1 56 -34z m249 9 c15 -60 -19 -96 -79 -81 -22 6 -25 11 -25 56 l0 50 49 0 c44 0 49 -3 55 -25z m124 -18 c4 -46 -11 -67 -48 -67 -50 0 -60 9 -60 54 0 24 3 46 7 50 4 4 28 6 53 4 44 -3 45 -4 48 -41z m117 -12 l0 -50 -45 0 c-42 0 -45 2 -51 33 -12 60 -3 73 50 70 l46 -3 0 -50z m129 39 c10 -26 7 -69 -6 -82 -13 -13 -56 -16 -82 -6 -11 4 -16 19 -16 48 0 24 3 46 7 49 3 4 25 7 49 7 29 0 44 -5 48 -16z m189 -16 c2 -18 1 -43 -4 -56 -8 -20 -15 -23 -51 -20 l-43 3 -3 53 -3 52 49 0 c48 0 50 -1 55 -32z m121 16 c12 -31 6 -82 -10 -88 -26 -10 -69 -7 -82 6 -13 13 -17 80 -5 91 3 4 25 7 49 7 29 0 44 -5 48 -16z m124 -36 l-3 -53 -45 0 c-39 0 -46 3 -54 26 -5 14 -6 38 -2 53 6 24 11 26 57 26 l50 0 -3 -52z m116 46 c19 -7 22 -74 4 -92 -13 -13 -56 -16 -82 -6 -11 4 -16 19 -16 48 0 24 3 46 7 49 8 9 66 9 87 1z m198 -25 c3 -17 3 -42 0 -55 -4 -21 -10 -24 -48 -24 -48 0 -68 20 -60 62 3 13 5 29 5 36 1 8 18 12 50 12 47 0 49 -1 53 -31z m122 15 c8 -20 8 -58 0 -78 -4 -10 -18 -16 -39 -16 -57 0 -65 7 -65 61 l0 49 49 0 c35 0 51 -4 55 -16z m124 -36 l-3 -53 -38 -3 c-46 -4 -67 11 -67 48 0 52 8 60 62 60 l49 0 -3 -52z m116 46 c21 -8 22 -77 2 -93 -8 -7 -32 -11 -53 -9 l-38 3 -3 53 -3 52 40 0 c21 0 46 -3 55 -6z m197 -26 c3 -67 -5 -78 -59 -78 -26 0 -34 5 -43 27 -5 14 -7 39 -4 55 6 26 10 28 56 28 48 0 49 0 50 -32z m127 -17 c4 -48 -6 -61 -50 -61 -48 0 -58 9 -58 54 0 24 3 46 7 50 4 4 28 6 53 4 l45 -3 3 -44z m117 -6 l0 -50 -45 0 c-39 0 -46 3 -54 26 -5 14 -6 38 -2 53 6 25 10 27 54 24 l47 -3 0 -50z m-2174 -202 c9 -83 7 -90 -36 -93 -64 -4 -65 -4 -65 50 l0 50 50 0 c28 0 50 -3 51 -7z m129 -42 c0 -39 -4 -51 -17 -55 -18 -5 -72 -1 -79 6 -6 7 -13 81 -8 90 3 4 27 8 55 8 l49 0 0 -49z m122 24 c3 -14 3 -36 0 -50 -4 -23 -9 -25 -53 -25 l-49 0 0 50 0 50 49 0 c44 0 49 -2 53 -25z m128 -24 c0 -40 -4 -51 -19 -56 -20 -6 -63 -1 -81 10 -11 7 -14 78 -3 88 3 4 28 7 55 7 l48 0 0 -49z m118 -3 l-3 -53 -45 0 -45 0 -3 53 -3 52 51 0 51 0 -3 -52z m127 2 c0 -39 -3 -46 -26 -54 -14 -5 -38 -6 -53 -2 -23 6 -26 11 -26 50 0 23 3 46 7 50 4 4 28 6 53 4 l45 -3 0 -45z m125 1 c0 -55 -7 -60 -62 -53 -38 4 -40 8 -40 57 0 43 1 45 52 45 l50 0 0 -49z m122 24 c7 -33 -1 -73 -16 -78 -6 -2 -28 -2 -48 1 -37 4 -38 5 -38 46 0 24 3 46 7 49 3 4 25 7 49 7 37 0 42 -3 46 -25z m128 -26 l0 -50 -52 3 c-47 3 -53 6 -56 27 -2 12 -1 34 2 47 6 21 12 24 56 24 l50 0 0 -51z m121 44 c4 -30 4 -75 -1 -82 -7 -11 -75 -20 -88 -12 -11 6 -16 39 -14 79 2 20 7 22 52 22 28 0 50 -3 51 -7z m127 -42 c4 -52 -8 -63 -58 -55 -47 8 -50 11 -50 44 0 53 8 61 59 58 l46 -3 3 -44z m124 37 c5 -14 2 -77 -4 -83 -2 -2 -22 -6 -46 -8 -51 -6 -67 13 -56 68 6 34 7 35 54 35 29 0 50 -5 52 -12z m126 -36 c2 -33 -1 -44 -14 -49 -24 -9 -67 -8 -82 1 -13 8 -17 78 -5 90 4 4 28 6 53 4 l45 -3 3 -43z m248 23 c3 -14 3 -36 0 -50 -6 -23 -11 -25 -66 -26 -176 -3 -179 -3 -166 66 l7 35 109 0 c109 0 110 0 116 -25z m185 13 c2 -24 -3 -83 -7 -87 -9 -10 -88 0 -96 12 -4 6 -6 23 -4 37 3 14 5 31 5 38 1 8 18 12 51 12 33 0 50 -4 51 -12z m127 -36 c3 -36 0 -43 -20 -51 -13 -5 -38 -6 -55 -4 -32 5 -33 7 -33 55 l0 49 53 -3 52 -3 3 -43z m122 -3 l0 -50 -52 3 -53 3 0 35 c-1 56 3 60 56 60 l49 0 0 -51z m188 7 c2 -21 -2 -44 -8 -50 -14 -14 -72 -17 -87 -4 -14 11 -18 80 -6 92 4 4 28 6 53 4 45 -3 45 -3 48 -42z m124 27 c7 -37 -4 -81 -21 -86 -29 -7 -79 4 -86 20 -3 9 -3 31 1 49 6 33 8 34 54 34 38 0 49 -4 52 -17z m123 -33 c0 -44 -1 -45 -35 -50 -60 -9 -70 -3 -70 44 0 24 3 46 7 50 4 4 28 6 53 4 l45 -3 0 -45z m123 -1 c3 -47 3 -47 -32 -51 -53 -6 -76 6 -76 41 0 54 8 62 59 59 l46 -3 3 -46z m-2676 -83 c10 -15 10 -68 -1 -84 -5 -9 -29 -12 -82 -10 l-74 3 -3 39 c-5 64 -1 68 80 65 40 -1 76 -7 80 -13z m126 -43 l3 -53 -50 0 c-47 0 -50 2 -53 28 -2 15 -1 40 1 55 3 27 6 28 50 25 l46 -3 3 -52z m121 43 c7 -8 11 -32 9 -53 l-3 -38 -50 0 -50 0 -3 39 c-2 21 -1 44 2 52 7 19 80 18 95 0z m126 -41 l0 -50 -47 -3 c-27 -2 -48 1 -49 5 0 4 -3 19 -5 33 -3 14 -2 35 1 48 5 21 11 23 53 20 l47 -3 0 -50z m122 43 c5 -7 9 -20 8 -28 -1 -8 -3 -28 -3 -43 -2 -27 -4 -28 -49 -25 -48 3 -48 3 -51 42 -2 21 -1 44 2 52 7 18 80 19 93 2z m129 -12 c3 -13 4 -37 2 -52 -3 -28 -5 -29 -52 -29 -47 0 -50 1 -53 29 -2 17 -2 40 2 53 5 20 12 23 50 23 39 0 45 -3 51 -24z m123 6 c6 -11 8 -32 6 -48 -2 -16 -4 -32 -4 -36 -1 -5 -23 -8 -51 -8 l-50 0 0 48 c0 27 3 52 7 55 3 4 23 7 44 7 27 0 41 -5 48 -18z m119 9 c9 -5 12 -24 10 -52 l-3 -44 -50 0 c-48 0 -50 1 -53 29 -2 15 -1 39 2 52 5 20 13 24 44 24 20 0 43 -4 50 -9z m130 -48 l3 -53 -49 0 c-52 0 -62 9 -62 51 0 44 19 60 63 57 l42 -3 3 -52z m127 2 l0 -50 -50 0 -50 0 -3 44 c-4 52 7 62 63 59 l40 -3 0 -50z m123 -2 l3 -53 -49 0 c-52 0 -62 9 -62 51 0 44 19 60 63 57 l42 -3 3 -52z m127 37 c3 -10 3 -35 -1 -55 -6 -34 -8 -35 -50 -35 -49 0 -58 9 -56 57 2 48 8 53 57 53 35 0 45 -4 50 -20z m120 -35 l0 -50 -44 -3 c-49 -4 -61 6 -61 54 0 41 17 55 65 52 l40 -3 0 -50z m189 39 c3 -9 6 -26 6 -39 0 -50 -7 -55 -86 -55 -82 0 -98 12 -88 65 8 44 10 45 89 45 57 0 74 -3 79 -16z m184 -1 c5 -10 7 -35 4 -56 l-4 -38 -46 3 c-54 4 -68 20 -58 71 7 36 8 37 51 37 32 0 47 -5 53 -17z m128 -7 c3 -13 4 -37 2 -52 -3 -28 -5 -29 -53 -29 l-50 0 -3 44 c-4 51 6 61 60 61 31 0 39 -4 44 -24z m119 -31 l0 -50 -44 -3 c-47 -4 -61 6 -61 46 0 46 18 63 63 60 l42 -3 0 -50z m191 31 c3 -13 4 -37 2 -52 -3 -28 -5 -29 -53 -29 l-50 0 -3 39 c-5 58 2 66 52 66 40 0 46 -3 52 -24z m124 -32 l0 -55 -47 3 c-41 3 -48 6 -56 31 -5 15 -6 39 -3 52 6 22 12 25 56 25 l50 0 0 -56z m124 40 c9 -22 7 -67 -3 -82 -5 -9 -24 -12 -52 -10 -43 3 -44 4 -47 42 -5 58 2 66 52 66 31 0 46 -5 50 -16z m121 -99 l0 -110 -50 0 -50 0 -1 85 c-1 47 1 98 3 113 5 27 7 28 51 25 l47 -3 0 -110z m-2515 -66 l0 -49 -49 0 c-48 0 -49 1 -53 33 -5 51 1 66 30 69 62 7 72 0 72 -53z m105 51 c23 -9 26 -14 23 -52 l-3 -43 -50 0 -50 0 0 45 c0 39 3 45 25 51 14 4 26 7 27 8 1 1 14 -3 28 -9z m145 -51 l0 -49 -49 0 c-48 0 -48 0 -54 36 -8 49 -1 62 36 66 60 6 67 0 67 -53z m125 0 l0 -44 -52 -3 -53 -3 0 50 c0 49 1 50 33 53 58 6 72 -4 72 -53z m116 51 c5 0 9 -22 9 -50 l0 -50 -49 0 c-47 0 -49 1 -55 34 -4 18 -4 40 0 49 6 16 47 27 72 20 8 -1 18 -3 23 -3z m133 -34 c10 -54 0 -66 -55 -66 l-49 0 0 49 0 50 38 3 c52 5 59 1 66 -36z m102 34 c24 0 25 -3 22 -47 l-3 -48 -50 0 -50 0 -3 40 c-4 42 19 71 46 60 8 -3 25 -5 38 -5z m375 0 c16 0 19 -7 19 -49 0 -55 -7 -60 -62 -53 -42 5 -53 24 -43 72 6 28 27 41 53 34 8 -2 22 -4 33 -4z m144 -50 l0 -45 -52 -3 -53 -3 0 50 c0 44 3 50 23 53 12 2 36 1 52 -2 28 -5 30 -9 30 -50z m893 48 c7 -7 12 -29 12 -50 0 -44 -19 -56 -76 -50 -35 4 -35 4 -32 51 3 44 5 46 38 52 19 4 37 7 41 8 3 0 10 -4 17 -11z m-2263 -48 l0 -45 -97 -3 -98 -3 0 51 0 51 98 -3 97 -3 0 -45z m997 25 c8 -38 -2 -74 -21 -77 -9 -2 -30 -2 -48 0 -37 5 -48 26 -38 72 6 28 9 30 55 30 43 0 48 -2 52 -25z m123 -25 l0 -45 -50 0 c-49 0 -50 0 -53 33 -5 55 2 63 55 60 l48 -3 0 -45z m531 25 c3 -14 3 -36 0 -50 -6 -25 -6 -25 -130 -25 -104 0 -125 3 -130 16 -8 21 -8 69 1 77 3 4 62 7 129 7 123 0 124 0 130 -25z m746 7 c3 -10 3 -32 0 -50 -4 -31 -6 -32 -53 -32 -27 0 -49 3 -50 8 0 4 -3 20 -5 36 -8 47 1 56 55 56 38 0 50 -4 53 -18z m126 -30 c3 -36 0 -43 -19 -50 -12 -5 -36 -6 -53 -3 -29 6 -31 10 -34 54 l-3 48 53 -3 53 -3 3 -43z m-2463 -127 l0 -50 -125 0 -125 0 -3 39 c-6 67 -6 67 130 64 l123 -3 0 -50z m126 38 c0 -10 2 -25 3 -33 7 -33 -13 -60 -43 -60 -49 0 -61 9 -61 45 0 56 8 65 56 65 35 0 44 -4 45 -17z m124 -38 l0 -50 -45 0 -45 0 -3 53 -3 53 48 -3 48 -3 0 -50z m127 20 c13 -50 1 -75 -37 -75 -57 0 -65 7 -65 62 l0 49 47 -3 c42 -3 47 -6 55 -33z m126 -14 c4 -50 -6 -61 -54 -61 -39 0 -54 17 -50 55 2 17 4 36 5 43 1 9 15 12 49 10 l47 -3 3 -44z m120 -3 l-3 -53 -45 0 c-42 0 -45 2 -50 30 -3 17 -4 40 -2 53 4 19 10 22 54 22 l49 0 -3 -52z m126 36 c10 -26 7 -69 -6 -82 -7 -7 -29 -12 -50 -12 -40 0 -38 -3 -43 65 -3 37 6 45 50 45 30 0 45 -5 49 -16z m121 -39 l0 -50 -44 0 c-53 0 -67 17 -57 69 l7 37 47 -3 47 -3 0 -50z m131 29 c4 -15 3 -39 -2 -53 -7 -20 -17 -27 -44 -29 -55 -4 -64 9 -61 81 1 26 3 27 51 27 45 0 50 -2 56 -26z m119 -29 c0 -48 -1 -50 -29 -53 -15 -2 -39 -1 -52 2 -21 6 -24 12 -24 50 0 23 3 46 7 50 4 4 28 6 53 4 l45 -3 0 -50z m130 21 c10 -49 -8 -76 -50 -76 -45 0 -67 23 -60 62 8 45 12 48 60 48 42 0 44 -1 50 -34z m340 13 c4 -11 4 -36 0 -55 l-6 -34 -157 2 -157 3 -3 29 c-2 15 -1 39 2 52 6 24 7 24 161 24 147 0 154 -1 160 -21z m313 -13 c7 -55 -5 -76 -42 -76 -57 0 -66 8 -66 54 0 24 3 46 7 50 4 4 28 6 53 4 41 -3 45 -5 48 -32z m310 0 c7 -55 -5 -76 -42 -76 -58 0 -66 7 -66 62 l0 49 53 -3 c49 -3 52 -5 55 -32z m122 -16 c0 -43 -3 -50 -22 -55 -64 -14 -95 12 -83 71 6 33 7 34 55 34 l50 0 0 -50z m124 34 c3 -9 6 -26 6 -39 0 -42 -10 -55 -45 -55 -57 0 -65 7 -65 61 l0 49 49 0 c35 0 51 -4 55 -16z m124 -101 l3 -113 -50 0 c-59 0 -61 3 -61 115 0 112 2 117 59 113 l46 -3 3 -112z m-2670 -42 c2 -12 1 -34 -2 -47 -6 -24 -9 -25 -84 -22 l-77 3 -3 48 -3 48 83 -3 c79 -3 83 -4 86 -27z m310 -18 l-3 -48 -82 -3 -83 -3 0 51 0 50 86 0 85 0 -3 -47z m867 -3 l0 -45 -422 -3 -423 -2 0 50 0 50 423 -2 422 -3 0 -45z m190 41 c3 -6 3 -28 -1 -50 l-7 -41 -77 0 c-87 0 -95 7 -84 66 l6 34 79 0 c43 0 80 -4 84 -9z m311 -16 c3 -14 3 -36 0 -50 -6 -24 -9 -25 -85 -25 -76 0 -79 1 -83 25 -3 14 -3 36 0 50 4 24 7 25 83 25 76 0 79 -1 85 -25z m186 3 c2 -13 1 -35 -1 -50 -3 -26 -6 -28 -51 -28 -46 0 -49 2 -55 30 -12 54 0 70 55 70 43 0 49 -3 52 -22z m126 -7 c2 -12 1 -34 -2 -48 -6 -22 -11 -24 -54 -21 l-47 3 -3 48 -3 48 53 -3 c47 -3 53 -6 56 -27z m120 -18 l-3 -48 -50 0 c-45 0 -50 2 -53 24 -2 12 -1 34 2 47 6 21 12 24 57 24 l50 0 -3 -47z m312 -3 l0 -51 -112 3 -113 3 -3 48 -3 47 115 0 116 0 0 -50z m128 21 c2 -12 1 -34 -2 -48 -6 -22 -11 -24 -54 -21 l-47 3 -3 48 -3 48 53 -3 c47 -3 53 -6 56 -27z m-2000 -233 c-16 -51 -59 -183 -95 -293 -79 -240 -86 -265 -79 -272 3 -3 204 140 448 317 404 295 444 321 462 310 18 -11 365 -263 556 -403 84 -62 256 -186 299 -216 l33 -24 -7 24 c-4 13 -52 161 -106 329 -54 169 -99 309 -99 313 0 4 13 7 30 7 l29 0 116 -357 c64 -197 125 -384 135 -416 10 -31 17 -57 15 -57 -2 0 -149 106 -327 236 -178 131 -343 251 -367 268 -24 17 -106 77 -183 132 l-140 102 -172 -124 c-239 -172 -331 -239 -486 -353 -264 -194 -355 -259 -358 -256 -2 2 56 188 129 414 l133 411 32 0 32 0 -30 -92z"/>
</g>
</svg>
