<?xml version="1.0" encoding="UTF-8" standalone="no"?>
<!DOCTYPE svg PUBLIC "-//W3C//DTD SVG 20010904//EN"
"http://www.w3.org/TR/2001/REC-SVG-20010904/DTD/svg10.dtd">
<!-- Created with Inkscape (http://www.inkscape.org/) -->
<svg
   width="210mm"
   height="297mm"
   id="svg1"
   sodipodi:version="0.32"
   inkscape:version="0.40"
   sodipodi:docbase="/home/joerg/Desktop/bildas"
   sodipodi:docname="Kabel-faust.svg"
   xmlns="http://www.w3.org/2000/svg"
   xmlns:cc="http://web.resource.org/cc/"
   xmlns:inkscape="http://www.inkscape.org/namespaces/inkscape"
   xmlns:sodipodi="http://sodipodi.sourceforge.net/DTD/sodipodi-0.dtd"
   xmlns:rdf="http://www.w3.org/1999/02/22-rdf-syntax-ns#"
   xmlns:dc="http://purl.org/dc/elements/1.1/"
   xmlns:xlink="http://www.w3.org/1999/xlink">
  <defs
     id="defs3" />
  <sodipodi:namedview
     id="base"
     pagecolor="#ffffff"
     bordercolor="#666666"
     borderopacity="1.0"
     inkscape:pageopacity="0.0"
     inkscape:pageshadow="2"
     inkscape:zoom="0.86831672"
     inkscape:cx="642.13678"
     inkscape:cy="540.15924"
     inkscape:current-layer="svg1"
     inkscape:window-width="1024"
     inkscape:window-height="724"
     inkscape:window-x="0"
     inkscape:window-y="25" />
  <metadata
     id="metadata4">
    <rdf:RDF
       id="RDF5">
      <cc:Work
         rdf:about=""
         id="Work6">
        <dc:format
           id="format7">image/svg+xml</dc:format>
        <dc:type
           id="type9"
           rdf:resource="http://purl.org/dc/dcmitype/StillImage" />
      </cc:Work>
    </rdf:RDF>
  </metadata>
  <g
     inkscape:label="Layer 1"
     inkscape:groupmode="layer"
     id="layer1" />
  <path
     d="M 69.236066,902.84435 C 63.650212,898.40323 57.091737,895.68743 54.661672,896.80921 C 52.031382,898.02341 51.611707,897.19510 53.624587,894.76243 C 55.604446,892.36969 53.082126,886.71210 47.538749,881.11185 C 42.331855,875.85151 34.982655,862.19793 31.207143,850.77059 C 25.013333,832.02361 25.000016,828.31856 31.070760,812.85037 C 34.771220,803.42163 36.752119,793.66970 35.472685,791.17937 C 34.193276,788.68906 35.163293,786.65155 37.628295,786.65155 C 40.093295,786.65155 42.833565,788.27260 43.717763,790.25389 C 44.601987,792.23520 54.089442,784.50936 64.800993,773.08536 C 86.246566,750.21345 91.214310,745.38070 111.05061,728.09285 C 130.48619,711.15417 152.29601,686.44670 152.29601,681.36761 C 152.29601,678.96712 148.35558,671.51176 143.53951,664.80015 C 138.72344,658.08845 134.78303,649.09783 134.78303,644.82095 C 134.78303,640.54406 131.82770,630.78838 128.21566,623.14167 C 116.09476,597.48177 121.80160,577.92230 147.39643,557.40233 C 155.11418,551.21480 155.03487,550.53833 144.83635,535.57369 C 126.22123,508.25894 139.54303,480.40075 178.56550,465.04027 C 190.38370,460.38827 197.60021,455.46445 196.59973,452.73551 C 192.04610,440.31494 197.17743,418.87686 207.00828,409.24991 C 225.44808,391.19255 241.48724,384.52761 268.69737,383.61569 C 282.37624,383.15724 293.44631,382.04635 293.29757,381.14705 C 293.14884,380.24773 288.94557,372.39990 283.95702,363.70741 C 272.41305,343.59212 272.43662,328.76245 284.03001,317.75389 C 294.80499,307.52248 315.82011,298.80057 333.40914,297.26007 C 348.83516,295.90908 389.61486,304.33348 411.65819,313.42508 C 420.66140,317.13839 428.80731,319.54691 429.76019,318.77739 C 430.71311,318.00783 440.58702,304.13390 451.70226,287.94643 C 462.81750,271.75895 476.85188,251.80103 482.88972,243.59548 C 494.28697,228.10653 507.65911,194.99744 504.20408,190.82187 C 503.11540,189.50619 506.23956,182.55152 511.14675,175.36706 C 516.05385,168.18261 520.06880,159.55487 520.06880,156.19438 C 520.06880,152.83389 525.66551,143.57781 532.50587,135.62538 C 539.34621,127.67290 550.26543,114.17631 556.77080,105.63292 C 563.27618,97.089525 569.96208,90.099478 571.62835,90.099478 C 578.62346,90.099478 620.74062,108.35749 620.66194,111.35575 C 620.61478,113.15438 616.75685,120.91121 612.08865,128.59316 C 607.42052,136.27514 604.64045,144.58342 605.91080,147.05600 C 608.78258,152.64574 585.44383,187.73474 573.49249,195.79579 C 564.91469,201.58143 564.15522,201.51155 546.83123,193.34315 C 527.10712,184.04307 518.01830,182.09589 531.27222,190.00984 C 539.45296,194.89463 539.36152,195.01248 528.82534,193.16057 C 518.43868,191.33493 518.51432,191.50635 530.30694,196.51737 C 544.91336,202.72402 543.04244,206.81592 528.10580,201.33168 C 518.26675,197.71919 518.29400,197.83018 528.82534,204.26420 C 540.92394,211.65580 548.60289,213.20907 543.68929,207.27088 C 541.49715,204.62150 543.10068,204.13192 548.90373,205.67879 C 555.04630,207.31618 554.36129,206.17419 546.33826,201.40197 C 533.94682,194.03123 540.07866,192.23371 553.16342,199.40119 C 561.56400,204.00275 561.56122,204.12833 552.93065,210.26524 C 544.35422,216.36370 543.92667,216.36272 528.85029,210.20972 L 513.50147,203.94552 L 525.54167,211.06411 C 532.16369,214.97934 537.55163,219.89945 537.51482,221.99769 C 537.46718,224.70878 536.51689,224.77147 534.23115,222.21450 C 532.46197,220.23552 526.08895,216.72470 520.06880,214.41273 L 509.12322,210.20917 L 519.28320,218.46735 L 529.44330,226.72552 L 516.31981,242.47416 L 503.19630,258.22278 L 516.01083,264.04350 C 523.58829,267.48542 529.06908,272.89091 529.42176,277.27025 C 532.92854,320.81371 539.46165,343.73591 550.63973,351.71526 C 558.76728,357.51713 578.79434,383.17634 591.53188,404.10738 C 606.91348,429.38351 644.23439,472.84838 672.90303,498.87416 C 692.14889,516.34585 701.02533,531.35599 698.34308,541.89380 C 696.80151,547.95032 696.26589,547.37725 695.79499,539.16742 C 695.37260,531.80406 685.91817,519.40592 663.37631,496.65484 C 624.39802,457.31482 598.78441,426.77207 588.44931,407.30863 C 578.75735,389.05642 565.53850,372.22765 552.48742,361.52587 C 537.17176,348.96724 531.71099,336.46065 526.78543,302.66232 C 522.32999,272.08997 522.06471,271.57886 510.11977,270.55362 C 492.10967,269.00780 485.11180,283.94754 489.71862,314.10799 C 491.79437,327.69817 491.37799,346.15971 488.69393,359.54390 C 486.20734,371.94334 484.91012,393.28139 485.81123,406.96174 L 487.44959,431.83511 L 521.91372,458.71110 C 540.86895,473.49288 557.90163,484.88371 559.76393,484.02396 C 566.77989,480.78526 581.36432,499.83792 581.36432,512.24211 C 581.36432,528.69914 574.16401,539.94625 552.90570,556.69566 C 536.11419,569.92564 521.69424,588.18705 503.01940,619.87148 C 498.24886,627.96521 490.38888,639.73794 485.55265,646.03305 C 480.71643,652.32818 464.81801,676.04655 450.22286,698.74053 C 435.62770,721.43452 416.80425,745.45261 408.39295,752.11411 C 399.98162,758.77557 393.09964,765.62191 393.09964,767.32817 C 393.09964,769.03447 387.89678,776.58650 381.53778,784.11047 C 375.17876,791.63441 371.94408,798.28042 374.34952,798.87930 C 376.75502,799.47821 382.20730,801.87112 386.46572,804.19692 C 392.77547,807.64305 393.29175,809.70477 389.25559,815.33777 C 384.04108,822.61528 389.59077,837.00924 400.26017,843.88000 C 403.05319,845.67860 409.09346,861.55127 413.68301,879.15257 L 422.02767,911.15494 L 385.00051,910.21945 L 347.97333,909.28396 L 338.79421,890.91300 C 333.74566,880.80897 322.96596,867.56466 314.83933,861.48120 C 306.71266,855.39776 293.60731,843.06244 285.71633,834.06939 C 277.82532,825.07635 267.15829,814.40734 262.01183,810.36047 C 256.86536,806.31360 253.73914,803.00252 255.06466,803.00252 C 256.39019,803.00252 248.23675,794.54091 236.94590,784.19889 C 225.65508,773.85689 208.03136,755.72335 197.78211,743.90212 C 171.39045,713.46265 168.27846,711.99170 154.38738,723.39066 C 144.41054,731.57759 165.33763,708.60103 189.35679,684.99641 C 197.69716,676.80005 198.45418,676.68803 214.22700,681.31570 C 248.33083,691.32172 284.95064,674.54842 291.49267,645.92503 C 294.44688,632.99952 296.23163,631.33437 309.26538,629.34330 C 335.37050,625.35548 362.45190,599.88438 362.45190,579.31942 C 362.45190,574.12408 365.57263,570.51944 371.23204,569.17782 C 395.48977,563.42720 432.54301,529.97242 432.43684,513.91696 C 432.34944,500.70377 427.56331,495.47701 409.83976,489.23951 C 398.88400,485.38382 394.28873,481.09976 391.24125,471.90066 C 386.15638,456.55152 390.22993,453.37679 406.21619,460.22971 C 423.80572,467.76985 451.95081,464.61943 463.30333,453.83973 C 473.23017,444.41357 473.77315,439.98552 466.97582,423.89181 C 453.31030,391.53721 447.99601,381.92687 438.48642,372.37218 C 432.78796,366.64674 428.12563,359.59809 428.12563,356.70850 C 428.12563,349.31165 413.10801,328.19412 403.41658,321.96300 C 382.84801,308.73850 371.22206,312.92347 371.18396,333.56568 C 371.17057,340.85004 369.39155,351.96055 367.23062,358.25567 C 365.06974,364.55080 362.17905,373.47686 360.80691,378.09135 C 358.34148,386.38254 349.52723,395.19682 335.56937,403.32901 C 329.59889,406.80754 325.76310,406.35528 312.80547,400.64491 C 287.79444,389.62269 262.90196,394.04066 238.00620,413.92035 C 214.36086,432.80157 210.71869,441.62559 219.84028,457.93162 C 228.89919,474.12557 228.53436,476.85215 217.65374,474.27276 C 201.59281,470.46533 188.52990,475.58098 172.94884,491.77993 C 152.96128,512.56011 150.98986,518.19181 159.59028,529.94103 C 163.54002,535.33686 170.37855,544.79884 174.78700,550.96770 L 182.80237,562.18375 L 170.83288,566.55763 C 155.62597,572.11460 139.16126,590.90235 139.16126,602.69793 C 139.16126,608.20342 147.82182,621.32039 161.16158,636.01891 C 173.26177,649.35152 182.62028,661.16219 181.95828,662.26485 C 180.43094,664.80869 143.50399,703.65311 94.559501,754.20182 C 49.256620,800.98959 45.344928,808.28259 51.139007,835.15535 C 56.317528,859.17296 58.624958,862.54814 86.487714,886.86159 C 98.559103,897.39528 108.45322,907.11744 108.47463,908.46641 C 108.49601,909.81537 101.96123,910.91904 93.952865,910.91904 C 84.130874,910.91904 76.086934,908.29118 69.236066,902.84435 z M 592.73673,167.94380 C 598.47102,159.49783 602.05593,150.43322 600.70323,147.80023 C 599.35045,145.16725 601.09198,138.83326 604.57320,133.72476 C 619.09837,112.40990 618.59037,110.66359 595.30134,101.84888 L 573.74448,93.689730 L 565.93251,106.62930 C 561.63582,113.74608 555.32543,121.30146 551.90931,123.41905 C 540.72579,130.35165 528.82534,151.71126 528.82534,164.85168 C 528.82534,176.53139 530.55806,178.49768 547.43286,185.96693 C 564.90446,193.70034 566.53708,193.87033 574.17558,188.75162 C 578.64994,185.75330 587.00242,176.38980 592.73673,167.94380 z M 553.96711,172.13561 C 534.12872,162.63641 534.14458,160.76978 554.00029,168.24873 C 564.23439,172.10357 572.60779,175.96346 572.60779,176.82620 C 572.60779,179.62629 566.29140,178.03690 553.96711,172.13561 z M 576.98424,129.16744 C 568.55710,125.81692 562.64730,122.90132 563.85128,122.68835 C 577.10226,120.34409 581.36432,120.78463 581.36432,124.49847 C 581.36432,126.91216 585.79729,129.35903 591.21532,129.93601 C 596.63338,130.51298 599.09540,131.94676 596.68637,133.12215 C 594.27743,134.29760 585.41141,132.51799 576.98424,129.16744 z M 591.21532,114.65585 C 583.38920,112.11516 576.98607,108.51758 576.98607,106.66125 C 576.98607,104.73793 583.57760,105.63390 592.30993,108.74419 C 600.73804,111.74609 607.63378,115.40127 607.63378,116.86676 C 607.63378,120.13958 608.44244,120.24848 591.21532,114.65585 z M 688.26486,882.26061 C 675.88307,851.65329 647.31984,798.83774 633.02122,780.11114 L 624.28202,768.66546 L 633.25006,776.84096 C 638.18260,781.33748 648.41662,794.21397 655.99228,805.45541 C 663.56804,816.69679 671.58035,826.73174 673.79747,827.75518 C 676.01457,828.77865 676.74461,830.92607 675.41966,832.52725 C 674.09478,834.12840 674.94905,838.07360 677.31792,841.29432 C 679.68688,844.51507 684.65193,856.65590 688.35121,868.27399 C 695.05530,889.32842 712.10051,907.06791 721.47060,902.74243 C 723.82213,901.65694 724.73618,902.73452 723.50187,905.13718 C 722.26748,907.53978 716.43458,909.80367 710.53990,910.16808 C 700.68968,910.77698 698.88703,908.51849 688.26486,882.26061 z M 234.38813,804.10693 C 237.39821,803.19975 242.32373,803.19975 245.33379,804.10693 C 248.34382,805.01411 245.88106,805.75639 239.86097,805.75639 C 233.84087,805.75639 231.37811,805.01411 234.38813,804.10693 z M 84.433190,783.38134 C 94.566066,775.01832 96.976942,775.01832 89.984484,783.38134 C 86.976791,786.97856 82.714320,789.92174 80.512307,789.92174 C 78.310297,789.92174 80.074695,786.97856 84.433190,783.38134 z M 95.378805,773.15929 C 95.378805,772.25998 101.28943,767.29460 108.51352,762.12505 C 115.73765,756.95553 121.64829,753.46172 121.64829,754.36102 C 121.64829,755.26034 115.73765,760.22570 108.51352,765.39526 C 101.28943,770.56480 95.378805,774.05861 95.378805,773.15929 z M 616.82445,759.67241 C 614.81046,755.62553 613.76694,750.84288 614.50560,749.04428 C 615.24425,747.24566 624.66970,724.43603 635.45122,698.35621 C 646.23270,672.27637 660.13959,636.95824 666.35540,619.87148 C 679.24258,584.44571 696.35204,545.50764 693.65718,557.73770 C 690.96634,569.94897 662.29262,644.59935 639.78577,697.98872 C 627.20086,727.84201 620.57939,749.05800 621.66977,756.03470 C 623.66693,768.81228 621.99712,770.06599 616.82445,759.67241 z M 130.40478,742.50387 C 136.06036,738.00734 141.67275,734.32838 142.87678,734.32838 C 144.08080,734.32838 140.43860,738.00734 134.78303,742.50387 C 129.12745,747.00039 123.51505,750.67936 122.31102,750.67936 C 121.10702,750.67936 124.74919,747.00039 130.40478,742.50387 z "
     id="path1062" />
</svg>
