<?xml version="1.0" encoding="UTF-8" standalone="no"?>
<!DOCTYPE svg PUBLIC "-//W3C//DTD SVG 20010904//EN"
"http://www.w3.org/TR/2001/REC-SVG-20010904/DTD/svg10.dtd">
<!-- Created with Sodipodi ("http://www.sodipodi.com/") -->
<svg
   id="svg602"
   sodipodi:version="0.32"
   width="209.90278mm"
   height="297.03889mm"
   xml:space="preserve"
   sodipodi:docname="Labor2.svg"
   inkscape:version="0.40"
   sodipodi:docbase="/home/joerg/Desktop/bildas"
   xmlns="http://www.w3.org/2000/svg"
   xmlns:cc="http://web.resource.org/cc/"
   xmlns:inkscape="http://www.inkscape.org/namespaces/inkscape"
   xmlns:sodipodi="http://sodipodi.sourceforge.net/DTD/sodipodi-0.dtd"
   xmlns:rdf="http://www.w3.org/1999/02/22-rdf-syntax-ns#"
   xmlns:xml="http://www.w3.org/XML/1998/namespace"
   xmlns:dc="http://purl.org/dc/elements/1.1/"
   xmlns:xlink="http://www.w3.org/1999/xlink">
  <metadata
   id="metadata26">
    <rdf:RDF
   id="RDF27">
      <cc:Work
   rdf:about=""
   id="Work28">
        <dc:format
   id="format29">image/svg+xml</dc:format>


        <dc:type
   id="type31"
   rdf:resource="http://purl.org/dc/dcmitype/StillImage" />


      </cc:Work>


    </rdf:RDF>


  </metadata>


  <defs
   id="defs604" />


  <sodipodi:namedview
   id="base"
   showgrid="false"
   inkscape:grid-bbox="true"
   showguides="true"
   inkscape:guide-bbox="true"
   showborder="true"
   inkscape:grid-points="false"
   inkscape:guide-points="true"
   inkscape:zoom="0.79283337"
   inkscape:cx="403.37927"
   inkscape:cy="501.60881"
   inkscape:window-width="1024"
   inkscape:window-height="724"
   inkscape:window-x="0"
   inkscape:window-y="25"
   inkscape:current-layer="svg602"
   gridempspacing="10"
   pagecolor="#000000"
   inkscape:pageopacity="0.0000000"
   gridspacingx="5.0000000mm"
   gridspacingy="5.0000000mm"
   gridtolerance="5.0000000px" />


  
  
<text
   style="font-size:64.000000;font-style:normal;font-weight:normal;fill:#000000;fill-opacity:1.0000000;stroke:none;stroke-width:1.0000000pt;stroke-linecap:butt;stroke-linejoin:miter;stroke-opacity:1.0000000;font-family:Arial Black;text-anchor:start;writing-mode:lr"
   x="54.781284"
   y="517.25775"
   id="text608"
   sodipodi:linespacing="100%"
   xml:space="preserve"
   transform="matrix(1.979007,0.000000,0.000000,2.006829,-59.62627,-93.80357)"><tspan
     x="54.781284"
     y="517.25775"
     sodipodi:role="line"
     id="tspan613">L A B O R .</tspan></text>














<path
   style="fill:#000000;fill-opacity:1.0000000;fill-rule:evenodd;stroke:none;stroke-width:1.2500000;stroke-linecap:butt;stroke-linejoin:miter;stroke-miterlimit:4.0000000;stroke-dashoffset:0.0000000;stroke-opacity:1.0000000"
   d="M 370.85829,78.090551 C 348.04489,78.213940 325.76887,80.724716 304.24885,85.284174 C 300.06793,86.170014 296.06042,87.461474 291.93831,88.505014 C 151.62295,123.33133 45.688190,247.04558 36.215582,397.47288 L 105.47388,397.47288 L 105.47388,324.57269 L 118.23594,324.57269 L 156.49199,324.57269 L 156.49199,283.48722 C 149.17470,281.18750 143.79012,274.51697 143.79012,266.33087 C 143.79012,256.26908 151.76517,248.15086 161.66894,248.15086 C 171.57300,248.15086 179.63819,256.26908 179.63819,266.33087 C 179.63819,273.61889 175.34308,279.78873 169.25405,282.70471 L 169.25405,324.57269 L 202.39332,324.57269 C 204.88843,317.55288 211.39202,312.47280 219.15836,312.47280 C 229.06240,312.47280 237.03732,320.59102 237.03732,330.65267 C 237.03732,340.71447 229.06240,348.89286 219.15836,348.89286 C 211.37430,348.89286 204.87538,343.77719 202.39332,336.73264 L 118.23594,336.73264 L 118.23594,397.47288 L 150.17102,397.47288 L 160.22415,397.47288 L 162.87289,397.47288 L 162.87289,494.75328 L 202.39332,494.75328 C 204.87538,487.70901 211.37430,482.56324 219.15836,482.56324 C 229.06240,482.56324 237.03732,490.77160 237.03732,500.83339 C 237.03732,510.89532 229.06240,519.01340 219.15836,519.01340 C 211.37141,519.01340 204.87318,513.90185 202.39332,506.85332 L 95.480795,506.85332 C 93.000525,513.90102 86.562205,519.01340 78.775944,519.01340 C 68.871899,519.01340 60.836808,510.89532 60.836808,500.83339 C 60.836808,490.77160 68.871899,482.56324 78.775944,482.56324 C 86.559185,482.56324 92.998335,487.70984 95.480795,494.75328 L 150.17102,494.75328 L 150.17102,409.66292 L 118.23594,409.66292 L 105.47388,409.66292 L 35.643845,409.66292 C 35.552883,412.91540 35.433071,416.17063 35.433071,419.44524 C 35.433071,589.07181 157.98982,729.47922 318.12456,755.71342 C 335.34260,758.59959 352.86404,760.58232 370.85829,760.67974 L 370.85829,760.43874 C 371.26046,760.44024 371.62967,760.49905 372.03199,760.49905 C 557.84223,760.49905 708.66141,607.71982 708.66141,419.44524 C 708.66141,231.17065 557.84223,78.331420 372.03199,78.331420 C 371.62967,78.331420 371.26046,78.390228 370.85829,78.391465 L 370.85829,78.090551 z M 372.03199,89.287534 C 552.40710,89.287534 698.81905,237.33980 698.81905,419.80661 C 698.81878,602.27313 552.40710,750.32541 372.03199,750.32541 C 371.62953,750.32569 371.26060,750.26675 370.85829,750.26551 L 370.85829,659.06481 L 304.54976,659.06481 L 304.54976,350.87944 L 370.85829,350.87944 L 370.85829,316.20509 C 334.42173,315.47808 305.03137,285.37927 305.03137,248.21104 C 305.03137,211.04295 334.42173,180.85330 370.85829,180.12671 L 370.85829,89.347704 C 371.26060,89.346204 371.62953,89.287534 372.03199,89.287534 z M 370.85829,180.12671 L 370.85829,189.66816 C 371.40584,189.65236 371.90215,189.48761 372.45341,189.48761 C 403.95799,189.48761 429.52153,215.55473 429.52153,247.66925 C 429.52153,279.78378 403.95799,305.88099 372.45341,305.88099 C 371.90215,305.88099 371.40584,305.71639 370.85829,305.70059 L 370.85829,316.20509 C 371.30457,316.21402 371.70429,316.32559 372.15249,316.32559 C 409.20764,316.32559 439.30385,285.83463 439.30385,248.21104 C 439.30385,210.58759 409.20764,180.00621 372.15249,180.00621 C 371.70429,180.00621 371.30457,180.11778 370.85829,180.12671 z M 370.85829,305.70059 L 370.85829,189.66816 C 340.11491,190.55799 315.38555,216.11684 315.38555,247.66925 C 315.38555,279.22166 340.11505,304.80993 370.85829,305.70059 z M 370.85829,350.87944 L 370.85829,361.86542 L 427.44482,361.86542 L 427.44482,648.07870 L 370.85829,648.07870 L 370.85829,659.06481 L 439.69504,659.06481 L 439.69504,350.87944 L 370.85829,350.87944 z M 370.85829,648.07870 L 370.85829,361.86542 L 316.89040,361.86542 L 316.89040,648.07870 L 370.85829,648.07870 z "
   id="path4853" />








</svg>
