<?xml version="1.0" encoding="UTF-8" standalone="no"?>
<!-- Created with Inkscape (http://www.inkscape.org/) -->
<svg
   xmlns:dc="http://purl.org/dc/elements/1.1/"
   xmlns:cc="http://web.resource.org/cc/"
   xmlns:rdf="http://www.w3.org/1999/02/22-rdf-syntax-ns#"
   xmlns:svg="http://www.w3.org/2000/svg"
   xmlns="http://www.w3.org/2000/svg"
   xmlns:sodipodi="http://sodipodi.sourceforge.net/DTD/sodipodi-0.dtd"
   xmlns:inkscape="http://www.inkscape.org/namespaces/inkscape"
   width="210mm"
   height="297mm"
   id="svg13963"
   sodipodi:version="0.32"
   inkscape:version="0.45.1"
   sodipodi:docbase="/home/anzgar/LaborSVN/labor-artwork"
   sodipodi:docname="Labor:TVLogobeta.svg"
   inkscape:output_extension="org.inkscape.output.svg.inkscape">
  <defs
     id="defs13965">
    <linearGradient
       id="linearGradient33630">
      <stop
         style="stop-color:#000000;stop-opacity:1;"
         offset="0"
         id="stop33632" />
      <stop
         style="stop-color:#000000;stop-opacity:0;"
         offset="1"
         id="stop33634" />
    </linearGradient>
    <linearGradient
       id="linearGradient20857">
      <stop
         style="stop-color:#000000;stop-opacity:1;"
         offset="0"
         id="stop20859" />
      <stop
         style="stop-color:#000000;stop-opacity:0;"
         offset="1"
         id="stop20861" />
    </linearGradient>
  </defs>
  <sodipodi:namedview
     id="base"
     pagecolor="#ffffff"
     bordercolor="#666666"
     borderopacity="1.0"
     inkscape:pageopacity="0.0"
     inkscape:pageshadow="2"
     inkscape:zoom="0.50172841"
     inkscape:cx="372.04724"
     inkscape:cy="526.18109"
     inkscape:document-units="px"
     inkscape:current-layer="layer4"
     showgrid="true"
     inkscape:window-width="1280"
     inkscape:window-height="725"
     inkscape:window-x="0"
     inkscape:window-y="25" />
  <metadata
     id="metadata13968">
    <rdf:RDF>
      <cc:Work
         rdf:about="">
        <dc:format>image/svg+xml</dc:format>
        <dc:type
           rdf:resource="http://purl.org/dc/dcmitype/StillImage" />
      </cc:Work>
    </rdf:RDF>
  </metadata>
  <g
     inkscape:groupmode="layer"
     id="layer4"
     inkscape:label="Ebene2"
     style="display:inline">
    <rect
       style="fill:#ffffff;fill-opacity:1;stroke:#000000;stroke-width:29.07724762;stroke-linejoin:round;stroke-miterlimit:4;stroke-dasharray:none;stroke-opacity:1;display:inline"
       id="rect33583"
       width="137.2686"
       height="409.5173"
       x="590.99011"
       y="208.30624"
       inkscape:export-filename="/home/anzgar/path5203.png"
       inkscape:export-xdpi="90"
       inkscape:export-ydpi="90" />
    <g
       style="display:inline"
       id="g8180"
       transform="translate(1.245829,4.2522143)"
       inkscape:export-filename="/home/anzgar/path5203.png"
       inkscape:export-xdpi="90"
       inkscape:export-ydpi="90">
      <text
         transform="scale(0.9949341,1.0050917)"
         id="text33614"
         y="290.23001"
         x="636.74957"
         style="font-size:21.75756264px;font-style:normal;font-weight:normal;fill:#000000;fill-opacity:1;stroke:none;stroke-width:1px;stroke-linecap:butt;stroke-linejoin:miter;stroke-opacity:1;display:inline;font-family:Bitstream Vera Sans"
         xml:space="preserve"><tspan
           y="290.23001"
           x="636.74957"
           id="tspan33616"
           sodipodi:role="line">D V D</tspan></text>
      <path
         transform="matrix(4.9164683,0,0,2.4833175,70.906125,-236.84334)"
         d="M 111.3402 209.40663 A 0.056864243 0.11372849 0 1 1  111.22647,209.40663 A 0.056864243 0.11372849 0 1 1  111.3402 209.40663 z"
         sodipodi:ry="0.11372849"
         sodipodi:rx="0.056864243"
         sodipodi:cy="209.40663"
         sodipodi:cx="111.28333"
         id="path2269"
         style="fill:#000000;fill-opacity:1;stroke:#000000;stroke-width:4.29287767;stroke-linejoin:round;stroke-miterlimit:4;stroke-dasharray:none;stroke-opacity:1;display:inline"
         sodipodi:type="arc" />
    </g>
    <g
       style="display:inline"
       id="g8170"
       transform="translate(0.185793,11.728321)"
       inkscape:export-filename="/home/anzgar/path5203.png"
       inkscape:export-xdpi="90"
       inkscape:export-ydpi="90">
      <g
         id="g8190"
         transform="translate(-3.199926e-8,-86.99994)">
        <text
           xml:space="preserve"
           style="font-size:20.28371811px;font-style:normal;font-weight:normal;fill:#000000;fill-opacity:1;stroke:none;stroke-width:1px;stroke-linecap:butt;stroke-linejoin:miter;stroke-opacity:1;display:inline;font-family:Bitstream Vera Sans"
           x="682.49481"
           y="398.2359"
           id="text33622"
           transform="scale(0.9275378,1.0781231)"><tspan
             sodipodi:role="line"
             id="tspan33624"
             x="682.49481"
             y="398.2359">X.org rl</tspan></text>
        <path
           sodipodi:type="arc"
           style="fill:#000000;fill-opacity:1;stroke:#000000;stroke-width:4.29287767;stroke-linejoin:round;stroke-miterlimit:4;stroke-dasharray:none;stroke-opacity:1;display:inline"
           id="path7118"
           sodipodi:cx="111.28333"
           sodipodi:cy="209.40663"
           sodipodi:rx="0.056864243"
           sodipodi:ry="0.11372849"
           d="M 111.3402 209.40663 A 0.056864243 0.11372849 0 1 1  111.22647,209.40663 A 0.056864243 0.11372849 0 1 1  111.3402 209.40663 z"
           transform="matrix(4.9164683,0,0,2.4833175,71.718629,-100.38657)" />
      </g>
    </g>
    <g
       style="display:inline"
       id="g8165"
       transform="translate(1.465616,-70.508862)"
       inkscape:export-filename="/home/anzgar/path5203.png"
       inkscape:export-xdpi="90"
       inkscape:export-ydpi="90">
      <text
         transform="scale(0.9940632,1.0059723)"
         id="text33626"
         y="393.63809"
         x="639.4281"
         style="font-size:21.73851776px;font-style:normal;font-weight:normal;fill:#000000;fill-opacity:1;stroke:none;stroke-width:1px;stroke-linecap:butt;stroke-linejoin:miter;stroke-opacity:1;display:inline;font-family:Bitstream Vera Sans"
         xml:space="preserve"><tspan
           y="393.63809"
           x="639.4281"
           id="tspan33628"
           sodipodi:role="line">Video</tspan></text>
      <path
         transform="matrix(4.9164683,0,0,2.4833175,71.269484,-131.6992)"
         d="M 111.3402 209.40663 A 0.056864243 0.11372849 0 1 1  111.22647,209.40663 A 0.056864243 0.11372849 0 1 1  111.3402 209.40663 z"
         sodipodi:ry="0.11372849"
         sodipodi:rx="0.056864243"
         sodipodi:cy="209.40663"
         sodipodi:cx="111.28333"
         id="path7120"
         style="fill:#000000;fill-opacity:1;stroke:#000000;stroke-width:4.29287767;stroke-linejoin:round;stroke-miterlimit:4;stroke-dasharray:none;stroke-opacity:1;display:inline"
         sodipodi:type="arc" />
    </g>
    <g
       style="display:inline"
       id="g8185"
       transform="translate(1.755835,14.172583)"
       inkscape:export-filename="/home/anzgar/path5203.png"
       inkscape:export-xdpi="90"
       inkscape:export-ydpi="90">
      <text
         transform="scale(0.9949341,1.0050917)"
         id="text33606"
         y="250.82318"
         x="636.38013"
         style="font-size:21.75756264px;font-style:normal;font-weight:normal;fill:#000000;fill-opacity:1;stroke:none;stroke-width:1px;stroke-linecap:butt;stroke-linejoin:miter;stroke-opacity:1;display:inline;font-family:Bitstream Vera Sans"
         xml:space="preserve"><tspan
           y="250.82318"
           x="636.38013"
           id="tspan33608"
           sodipodi:role="line">Status</tspan></text>
      <path
         transform="matrix(4.9164683,0,0,2.4833175,70.979265,-276.91127)"
         d="M 111.3402 209.40663 A 0.056864243 0.11372849 0 1 1  111.22647,209.40663 A 0.056864243 0.11372849 0 1 1  111.3402 209.40663 z"
         sodipodi:ry="0.11372849"
         sodipodi:rx="0.056864243"
         sodipodi:cy="209.40663"
         sodipodi:cx="111.28333"
         id="path7124"
         style="fill:#000000;fill-opacity:1;stroke:#000000;stroke-width:4.29287767;stroke-linejoin:round;stroke-miterlimit:4;stroke-dasharray:none;stroke-opacity:1;display:inline"
         sodipodi:type="arc" />
    </g>
    <g
       style="display:inline"
       id="g8175"
       transform="translate(2.80242,-73.582452)"
       inkscape:export-filename="/home/anzgar/path5203.png"
       inkscape:export-xdpi="90"
       inkscape:export-ydpi="90">
      <text
         transform="scale(0.9275378,1.0781231)"
         id="text8159"
         y="426.53323"
         x="680.56921"
         style="font-size:20.28371811px;font-style:normal;font-weight:normal;fill:#000000;fill-opacity:1;stroke:none;stroke-width:1px;stroke-linecap:butt;stroke-linejoin:miter;stroke-opacity:1;display:inline;font-family:Bitstream Vera Sans"
         xml:space="preserve"><tspan
           y="426.53323"
           x="680.56921"
           id="tspan8161"
           sodipodi:role="line">FooBar</tspan></text>
      <path
         transform="matrix(4.9164683,0,0,2.4833175,69.93268,-69.878546)"
         d="M 111.3402 209.40663 A 0.056864243 0.11372849 0 1 1  111.22647,209.40663 A 0.056864243 0.11372849 0 1 1  111.3402 209.40663 z"
         sodipodi:ry="0.11372849"
         sodipodi:rx="0.056864243"
         sodipodi:cy="209.40663"
         sodipodi:cx="111.28333"
         id="path8163"
         style="fill:#000000;fill-opacity:1;stroke:#000000;stroke-width:4.29287767;stroke-linejoin:round;stroke-miterlimit:4;stroke-dasharray:none;stroke-opacity:1;display:inline"
         sodipodi:type="arc" />
    </g>
  </g>
  <g
     inkscape:label="Ebene 1"
     inkscape:groupmode="layer"
     id="layer1"
     style="display:inline"
     sodipodi:insensitive="true">
    <text
       xml:space="preserve"
       style="font-size:12px;font-style:normal;font-weight:normal;fill:#000000;fill-opacity:1;stroke:none;stroke-width:1px;stroke-linecap:butt;stroke-linejoin:miter;stroke-opacity:1;font-family:Bitstream Vera Sans"
       x="199.34663"
       y="184.94148"
       id="text36595"><tspan
         sodipodi:role="line"
         id="tspan36597"
         x="199.34663"
         y="184.94148" /></text>
    <rect
       style="opacity:1;fill:#ffffff;fill-opacity:1;fill-rule:evenodd;stroke:#ffffff;stroke-width:8;stroke-linecap:round;stroke-linejoin:round;stroke-miterlimit:4;stroke-dasharray:none;stroke-opacity:1;display:inline"
       id="rect2289"
       width="109.85635"
       height="379.88495"
       x="601.29077"
       y="223.64456" />
    <path
       style="fill:none;fill-rule:evenodd;stroke:#000000;stroke-width:1px;stroke-linecap:butt;stroke-linejoin:miter;stroke-opacity:1"
       d="M 572.97271,631.86218 C 598.52301,631.86218 598.66985,631.71534 598.66985,631.71534"
       id="path5201" />
  </g>
  <g
     inkscape:groupmode="layer"
     id="layer3"
     inkscape:label="farbe"
     style="display:inline">
    <rect
       style="fill:#000000;fill-opacity:1;stroke:#000000;stroke-width:29.07724762;stroke-linejoin:round;stroke-miterlimit:4;stroke-dasharray:none;stroke-opacity:1;display:inline"
       id="rect21860"
       width="550.02075"
       height="409.50958"
       x="30.881147"
       y="208.31398"
       inkscape:export-filename="/home/anzgar/path5203.png"
       inkscape:export-xdpi="90"
       inkscape:export-ydpi="90" />
    <rect
       style="fill:#ffffff;fill-opacity:1;stroke:#ffffff;stroke-width:18.17327881;stroke-linejoin:round;stroke-miterlimit:4;stroke-dasharray:none;stroke-opacity:1;display:inline"
       id="rect21864"
       width="451.60547"
       height="310.79886"
       x="79.67131"
       y="259.37387"
       inkscape:export-filename="/home/anzgar/path5203.png"
       inkscape:export-xdpi="90"
       inkscape:export-ydpi="90" />
    <text
       xml:space="preserve"
       style="font-size:87.23173523px;font-style:normal;font-weight:normal;fill:#000000;fill-opacity:1;stroke:none;stroke-width:1px;stroke-linecap:butt;stroke-linejoin:miter;stroke-opacity:1;display:inline;font-family:Bitstream Vera Sans"
       x="-154.00726"
       y="533.24011"
       id="text24800"
       transform="matrix(0.8275241,-0.5579957,0.5523565,0.8359726,0,0)"
       inkscape:export-filename="/home/anzgar/path5203.png"
       inkscape:export-xdpi="90"
       inkscape:export-ydpi="90"><tspan
         sodipodi:role="line"
         id="tspan24802"
         x="-154.00726"
         y="533.24011"
         style="fill:#000000;fill-opacity:1;stroke:none;stroke-opacity:1">Labor:tv</tspan></text>
    <text
       xml:space="preserve"
       style="font-size:21.75756264px;font-style:normal;font-weight:normal;fill:#000000;fill-opacity:1;stroke:none;stroke-width:1px;stroke-linecap:butt;stroke-linejoin:miter;stroke-opacity:1;display:inline;font-family:Bitstream Vera Sans"
       x="632.71887"
       y="598.466"
       id="text36587"
       transform="scale(0.9949341,1.0050917)"
       inkscape:export-filename="/home/anzgar/path5203.png"
       inkscape:export-xdpi="90"
       inkscape:export-ydpi="90"><tspan
         sodipodi:role="line"
         id="tspan36589"
         x="632.71887"
         y="598.466">Power</tspan></text>
    <path
       sodipodi:type="arc"
       style="fill:#ff0000;fill-opacity:1;stroke:#ff0000;stroke-width:4;stroke-linejoin:round;stroke-miterlimit:4;stroke-dasharray:none;stroke-opacity:1"
       id="path36591"
       sodipodi:cx="111.28333"
       sodipodi:cy="209.40663"
       sodipodi:rx="0.056864243"
       sodipodi:ry="0.11372849"
       d="M 111.3402 209.40663 A 0.056864243 0.11372849 0 1 1  111.22647,209.40663 A 0.056864243 0.11372849 0 1 1  111.3402 209.40663 z"
       transform="matrix(4.9164683,0,0,2.4833175,71.150079,72.390921)"
       inkscape:export-filename="/home/anzgar/path5203.png"
       inkscape:export-xdpi="90"
       inkscape:export-ydpi="90" />
    <path
       style="fill:none;fill-rule:evenodd;stroke:#000000;stroke-width:1px;stroke-linecap:butt;stroke-linejoin:miter;stroke-opacity:1"
       d="M 571.72274,194.26388 C 603.5,194.26388 603.5,194.26388 603.5,194.26388"
       id="path5203"
       inkscape:export-xdpi="90"
       inkscape:export-ydpi="90" />
  </g>
  <g
     inkscape:groupmode="layer"
     id="layer2"
     inkscape:label="nack"
     style="display:inline"
     sodipodi:insensitive="true">
    <path
       sodipodi:type="arc"
       style="opacity:1;fill:none;fill-opacity:1;fill-rule:evenodd;stroke:#000000;stroke-width:1.98632216;stroke-linecap:round;stroke-linejoin:round;stroke-miterlimit:4;stroke-dasharray:none;stroke-opacity:1"
       id="path6175"
       sodipodi:cx="637.13049"
       sodipodi:cy="506.60632"
       sodipodi:rx="24.920359"
       sodipodi:ry="27.412394"
       d="M 662.05085 506.60632 A 24.920359 27.412394 0 1 1  612.21013,506.60632 A 24.920359 27.412394 0 1 1  662.05085 506.60632 z"
       transform="matrix(2.1263387,0,0,1.9071647,-698.21225,-439.53956)" />
    <path
       style="fill:none;fill-rule:evenodd;stroke:#000000;stroke-width:1px;stroke-linecap:butt;stroke-linejoin:miter;stroke-opacity:1"
       d="M 632.89854,480.06881 L 680.26423,480.06881"
       id="path7146" />
    <path
       style="fill:none;fill-rule:evenodd;stroke:#000000;stroke-width:1px;stroke-linecap:butt;stroke-linejoin:miter;stroke-opacity:1"
       d="M 625.2865,484.72595 C 688.17615,484.72595 688.17615,484.72595 688.17615,484.72595 L 688.17615,484.72595"
       id="path7148" />
    <path
       style="fill:none;fill-rule:evenodd;stroke:#000000;stroke-width:1px;stroke-linecap:butt;stroke-linejoin:miter;stroke-opacity:1"
       d="M 693.44196,489.3831 C 618.92698,489.3831 618.92698,489.3831 618.92698,489.3831"
       id="path7150" />
    <path
       style="fill:none;fill-rule:evenodd;stroke:#000000;stroke-width:1px;stroke-linecap:butt;stroke-linejoin:miter;stroke-opacity:1"
       d="M 614.73726,494.04024 C 698.09914,494.04024 698.09914,494.04024 698.09914,494.04024"
       id="path7152" />
    <path
       style="fill:none;fill-rule:evenodd;stroke:#000000;stroke-width:1px;stroke-linecap:butt;stroke-linejoin:miter;stroke-opacity:1"
       d="M 701.36269,498.69738 C 611.69422,498.69738 611.69422,498.69738 611.69422,498.69738"
       id="path7154" />
    <path
       style="fill:none;fill-rule:evenodd;stroke:#000000;stroke-width:1px;stroke-linecap:butt;stroke-linejoin:miter;stroke-opacity:1"
       d="M 609.61261,503.35452 C 703.59426,503.35452 703.59426,503.35452 703.59426,503.35452"
       id="path7156" />
    <path
       style="fill:none;fill-rule:evenodd;stroke:#000000;stroke-width:1px;stroke-linecap:butt;stroke-linejoin:miter;stroke-opacity:1"
       d="M 607.02822,508.01166 C 706.02868,508.01166 706.02868,508.01166 706.02868,508.01166"
       id="path7160" />
    <path
       style="fill:none;fill-rule:evenodd;stroke:#000000;stroke-width:1px;stroke-linecap:butt;stroke-linejoin:miter;stroke-opacity:1"
       d="M 707.41352,512.66881 C 605.811,512.66881 605.811,512.66881 605.811,512.66881"
       id="path7162" />
    <path
       style="fill:none;fill-rule:evenodd;stroke:#000000;stroke-width:1px;stroke-linecap:butt;stroke-linejoin:miter;stroke-opacity:1"
       d="M 604.95542,517.32595 C 708.666,517.32595 708.666,517.32595 708.666,517.32595"
       id="path7164" />
    <path
       style="fill:none;fill-rule:evenodd;stroke:#000000;stroke-width:1px;stroke-linecap:butt;stroke-linejoin:miter;stroke-opacity:1"
       d="M 709.47748,521.98309 C 603.7823,521.98309 603.7823,521.98309 603.7823,521.98309"
       id="path7166" />
    <path
       style="fill:none;fill-rule:evenodd;stroke:#000000;stroke-width:1px;stroke-linecap:butt;stroke-linejoin:miter;stroke-opacity:1"
       d="M 603.98516,526.64024 C 709.47748,526.64024 709.47748,526.64024 709.47748,526.64024"
       id="path7168" />
    <path
       style="fill:none;fill-rule:evenodd;stroke:#000000;stroke-width:1px;stroke-linecap:butt;stroke-linejoin:miter;stroke-opacity:1"
       d="M 709.07174,531.29737 C 603.37655,531.29737 603.37655,531.29737 603.37655,531.29737"
       id="path7170" />
    <path
       style="fill:none;fill-rule:evenodd;stroke:#000000;stroke-width:1px;stroke-linecap:butt;stroke-linejoin:miter;stroke-opacity:1"
       d="M 604.95542,535.95452 C 708.666,535.95452 708.666,535.95452 708.666,535.95452"
       id="path7172" />
    <path
       style="fill:none;fill-rule:evenodd;stroke:#000000;stroke-width:1px;stroke-linecap:butt;stroke-linejoin:miter;stroke-opacity:1"
       d="M 707.41352,540.61166 C 604.95542,540.61166 604.95542,540.61166 604.95542,540.61166"
       id="path7174" />
    <path
       style="fill:none;fill-rule:evenodd;stroke:#000000;stroke-width:1px;stroke-linecap:butt;stroke-linejoin:miter;stroke-opacity:1"
       d="M 607.43395,545.2688 C 706.02868,545.2688 706.02868,545.2688 706.02868,545.2688"
       id="path7176" />
    <path
       style="fill:none;fill-rule:evenodd;stroke:#000000;stroke-width:1px;stroke-linecap:butt;stroke-linejoin:miter;stroke-opacity:1"
       d="M 703.39139,549.92595 C 609.05691,549.92595 609.05691,549.92595 609.05691,549.92595"
       id="path7178" />
    <path
       style="fill:none;fill-rule:evenodd;stroke:#000000;stroke-width:1px;stroke-linecap:butt;stroke-linejoin:miter;stroke-opacity:1"
       d="M 612.5057,554.58309 C 700.95695,554.58309 700.95695,554.58309 700.95695,554.58309"
       id="path7180" />
    <path
       style="fill:none;fill-rule:evenodd;stroke:#000000;stroke-width:1px;stroke-linecap:butt;stroke-linejoin:miter;stroke-opacity:1"
       d="M 697.71103,559.24023 C 615.143,559.24023 615.143,559.24023 615.143,559.24023"
       id="path7182" />
    <path
       style="fill:none;fill-rule:evenodd;stroke:#000000;stroke-width:1px;stroke-linecap:butt;stroke-linejoin:miter;stroke-opacity:1"
       d="M 620.01188,563.89737 C 693.8565,563.89737 693.8565,563.89737 693.8565,563.89737"
       id="path7184" />
    <path
       style="fill:none;fill-rule:evenodd;stroke:#000000;stroke-width:1px;stroke-linecap:butt;stroke-linejoin:miter;stroke-opacity:1"
       d="M 687.56754,568.55451 C 625.2865,568.55451 625.08363,568.55451 625.08363,568.55451"
       id="path7186" />
    <path
       style="fill:none;fill-rule:evenodd;stroke:#000000;stroke-width:1px;stroke-linecap:butt;stroke-linejoin:miter;stroke-opacity:1"
       d="M 633.40129,573.21166 C 680.66997,573.21166 680.66997,573.21166 680.66997,573.21166"
       id="path7188" />
    <path
       id="path4853"
       d="M 655.63813,234.43507 C 652.24948,234.45315 648.94065,234.82098 645.74413,235.48894 C 645.12308,235.61871 644.52783,235.80792 643.91553,235.96082 C 623.07334,241.06288 607.33802,259.18717 605.93099,281.22489 L 616.21847,281.22489 L 616.21847,270.54495 L 618.1141,270.54495 L 623.79657,270.54495 L 623.79657,264.52589 C 622.70966,264.18897 621.90988,263.21171 621.90988,262.01244 C 621.90988,260.53839 623.09448,259.34905 624.56557,259.34905 C 626.03669,259.34905 627.23464,260.53839 627.23464,262.01244 C 627.23464,263.08017 626.59668,263.98404 625.69223,264.41124 L 625.69223,270.54495 L 630.61468,270.54495 C 630.98531,269.51654 631.95134,268.77231 633.1049,268.77231 C 634.57606,268.77231 635.7606,269.96161 635.7606,271.43568 C 635.7606,272.90972 634.57606,274.10788 633.1049,274.10788 C 631.94869,274.10788 630.98337,273.3584 630.61468,272.32637 L 618.1141,272.32637 L 618.1141,281.22489 L 622.8577,281.22489 L 624.35095,281.22489 L 624.7444,281.22489 L 624.7444,295.47659 L 630.61468,295.47659 C 630.98337,294.44458 631.94869,293.69071 633.1049,293.69071 C 634.57606,293.69071 635.7606,294.89325 635.7606,296.3673 C 635.7606,297.84141 634.57606,299.03069 633.1049,299.03069 C 631.94823,299.03069 630.98302,298.28184 630.61468,297.24922 L 614.73411,297.24922 C 614.3657,298.28171 613.40935,299.03069 612.25281,299.03069 C 610.7817,299.03069 609.58817,297.84141 609.58817,296.3673 C 609.58817,294.89325 610.7817,293.69071 612.25281,293.69071 C 613.40892,293.69071 614.36536,294.44468 614.73411,295.47659 L 622.8577,295.47659 L 622.8577,283.01075 L 618.1141,283.01075 L 616.21847,283.01075 L 605.84603,283.01075 C 605.83253,283.48724 605.81475,283.96412 605.81475,284.44385 C 605.81475,309.29433 624.01906,329.86414 647.80517,333.70749 C 650.36272,334.13033 652.96533,334.42078 655.63813,334.43507 L 655.63813,334.39977 C 655.69788,334.39995 655.75272,334.40859 655.81247,334.40859 C 683.41234,334.40859 705.81475,312.02628 705.81475,284.44385 C 705.81475,256.86146 683.41234,234.47036 655.81247,234.47036 C 655.75272,234.47036 655.69788,234.47896 655.63813,234.47917 L 655.63813,234.43507 z M 655.81247,236.07547 C 682.605,236.07547 704.35277,257.76523 704.35277,284.49681 C 704.35275,311.22833 682.605,332.91814 655.81247,332.91814 C 655.75269,332.91818 655.69792,332.90953 655.63813,332.90936 L 655.63813,319.54837 L 645.78881,319.54837 L 645.78881,274.39891 L 655.63813,274.39891 L 655.63813,269.31908 C 650.22594,269.21258 645.86031,264.80306 645.86031,259.3579 C 645.86031,253.91274 650.22594,249.48992 655.63813,249.38347 L 655.63813,236.08421 C 655.69792,236.08405 655.75269,236.07547 655.81247,236.07547 z M 655.63813,249.38347 L 655.63813,250.78128 C 655.71948,250.77897 655.7932,250.75484 655.87507,250.75484 C 660.55471,250.75484 664.35186,254.57372 664.35186,259.2785 C 664.35186,263.98333 660.55471,267.80658 655.87507,267.80658 C 655.7932,267.80658 655.71948,267.78249 655.63813,267.78018 L 655.63813,269.31908 C 655.70445,269.32038 655.76377,269.33674 655.83035,269.33674 C 661.33446,269.33674 665.80489,264.86979 665.80489,259.3579 C 665.80489,253.84599 661.33446,249.36582 655.83035,249.36582 C 655.76377,249.36582 655.70445,249.38216 655.63813,249.38347 z M 655.63813,267.78018 L 655.63813,250.78128 C 651.07158,250.91168 647.39831,254.65605 647.39831,259.2785 C 647.39831,263.90097 651.0716,267.64966 655.63813,267.78018 z M 655.63813,274.39891 L 655.63813,276.00839 L 664.04341,276.00839 L 664.04341,317.93885 L 655.63813,317.93885 L 655.63813,319.54837 L 665.86299,319.54837 L 665.86299,274.39891 L 655.63813,274.39891 z M 655.63813,317.93885 L 655.63813,276.00839 L 647.62186,276.00839 L 647.62186,317.93885 L 655.63813,317.93885 z "
       style="fill:#000000;fill-opacity:1;fill-rule:evenodd;stroke:none;stroke-width:1.25;stroke-linecap:butt;stroke-linejoin:miter;stroke-miterlimit:4;stroke-dashoffset:0;stroke-opacity:1;display:inline" />
  </g>
</svg>
