<?xml version="1.0" encoding="UTF-8" standalone="no"?>
<!DOCTYPE svg PUBLIC "-//W3C//DTD SVG 1.0//EN"
"http://www.w3.org/TR/2001/REC-SVG-20010904/DTD/svg10.dtd">
<!-- Created with Inkscape (http://www.inkscape.org/) -->
<svg
   id="svg1092"
   sodipodi:version="0.32"
   inkscape:version="0.40"
   xmlns="http://www.w3.org/2000/svg"
   xmlns:sodipodi="http://sodipodi.sourceforge.net/DTD/sodipodi-0.dtd"
   xmlns:inkscape="http://www.inkscape.org/namespaces/inkscape"
   xmlns:xlink="http://www.w3.org/1999/xlink"
   xmlns:rdf="http://www.w3.org/1999/02/22-rdf-syntax-ns#"
   xmlns:cc="http://web.resource.org/cc/"
   xmlns:dc="http://purl.org/dc/elements/1.1/"
   width="29.703889cm"
   height="20.990278cm"
   sodipodi:docbase="/home/joerg/Desktop"
   sodipodi:docname="Pesthornchen.svg"
   inkscape:export-filename="/home/joerg/Desktop/Pesthornchen.png"
   inkscape:export-xdpi="129.95216"
   inkscape:export-ydpi="129.95216">
  <defs
     id="defs1095" />
  <metadata
     id="metadata1094">
    <rdf:RDF
       id="RDF1096">
      <cc:Work
         rdf:about=""
         id="Work1097">
        <dc:format
           id="format1098">image/svg+xml</dc:format>
        <dc:type
           id="type1100"
           rdf:resource="http://purl.org/dc/dcmitype/StillImage" />
      </cc:Work>
    </rdf:RDF>
  </metadata>
  <sodipodi:namedview
     id="base"
     pagecolor="#ffffff"
     bordercolor="#666666"
     borderopacity="1.0"
     inkscape:pageopacity="0.0"
     inkscape:pageshadow="2"
     inkscape:zoom="1.0000000"
     inkscape:cx="359.23851"
     inkscape:cy="264.41290"
     inkscape:window-width="1024"
     inkscape:window-height="724"
     inkscape:window-x="0"
     inkscape:window-y="25"
     inkscape:current-layer="svg1092" />
  <path
     d="M 578.72237,337.63533 C 570.40301,339.73894 562.43774,341.46034 561.02177,341.46034 C 555.77529,341.46034 548.56026,330.42073 541.75680,311.98336 C 537.90799,301.55319 531.91187,285.83290 528.43210,277.04954 C 520.28895,256.49540 519.04928,235.30017 525.30339,223.55680 C 536.55998,202.42045 555.12833,188.44677 575.26009,185.96203 C 590.82403,184.04120 624.90643,187.05515 634.11443,191.16678 C 642.79324,195.04206 658.14373,208.37356 662.01819,215.40025 C 675.70882,240.22982 676.36610,242.37622 675.14485,258.26413 C 672.43896,293.46683 666.33724,300.19447 622.78709,315.99281 C 619.26827,317.26928 611.31757,321.80042 605.11886,326.06196 C 597.13037,331.55388 589.44383,334.92409 578.72237,337.63533 z M 437.90368,345.66446 C 426.10671,354.27854 411.22099,352.53541 388.27607,339.85337 C 379.75283,335.14234 367.27527,330.26645 357.20072,327.70986 C 335.00341,322.07699 332.98353,321.17947 321.01130,311.63055 C 308.53390,301.67877 306.62225,296.03348 306.04294,267.42788 C 305.66455,248.74410 305.99276,246.59332 310.67800,237.05283 C 315.17458,227.89656 316.95503,226.18339 327.12965,221.22249 C 333.40482,218.16285 345.94228,213.07948 354.99070,209.92605 C 364.03911,206.77264 374.90544,202.52847 379.13812,200.49432 C 388.09934,196.18782 417.40122,189.79837 428.34920,189.76345 C 434.81722,189.74298 436.58809,190.64014 440.68794,196.01545 C 443.32071,199.46720 445.47480,202.82461 445.47480,203.47665 C 445.47480,204.12867 448.20419,209.32465 451.54013,215.02333 C 454.87605,220.72217 458.47964,228.83905 459.54811,233.06110 C 461.51164,240.81989 460.33150,260.86787 456.55666,283.87954 C 455.56713,289.91182 453.51482,302.54906 451.99596,311.96252 C 448.89585,331.17623 445.00619,340.47835 437.90368,345.66446 z M 690.38169,418.49942 C 684.05745,425.42209 677.29069,427.61272 674.77984,423.55008 C 674.10120,422.45202 676.53756,419.08765 680.19398,416.07371 C 688.04765,409.59999 690.80084,404.50545 694.04324,390.44697 C 696.53871,379.62689 695.78259,356.50373 692.14254,332.32052 C 687.02820,298.34273 688.36209,269.69784 695.65383,256.91711 C 698.84670,251.32062 701.68726,250.58577 704.94668,254.51315 C 706.67186,256.59190 706.22184,258.77303 702.77806,265.02392 C 698.81696,272.21403 698.48228,274.69056 698.99483,293.01935 C 699.30408,304.07852 700.08360,314.36080 700.72709,315.86887 C 702.36657,319.71124 703.17491,324.49503 703.97024,335.06247 C 704.34857,340.08935 705.16872,350.37914 705.79279,357.92862 C 706.41914,365.50589 706.06152,375.74193 704.99445,380.77815 C 703.93131,385.79590 702.76606,391.67591 702.40502,393.84497 C 700.93493,402.67622 696.46680,411.83852 690.38169,418.49942 z M 290.09806,422.67320 C 290.09806,428.53292 285.99526,428.84440 282.34664,423.26162 C 268.28139,401.74011 265.65330,388.97344 265.50733,341.46034 L 265.38656,302.15916 L 259.46269,285.49052 C 252.51997,265.95509 252.37936,264.68594 257.15759,264.68594 C 261.25929,264.68594 266.17078,273.17536 272.34562,290.93839 C 275.81514,300.91925 276.26846,306.40113 276.44769,340.54635 C 276.65774,380.55915 277.85732,395.30477 281.23331,399.37255 C 282.33362,400.69836 282.64368,401.78307 281.92235,401.78307 C 281.20103,401.78307 282.74548,405.42547 285.35444,409.87747 C 287.96343,414.32929 290.09806,420.08737 290.09806,422.67320 z M 488.63903,423.90141 C 488.28334,443.44798 482.98377,439.91947 473.26484,413.66482 C 460.46307,379.08217 459.08799,351.07011 468.20379,310.56503 C 471.12627,297.57938 472.89807,284.14368 472.90443,274.91978 C 472.91867,254.23456 477.34403,239.96714 480.88424,249.19287 C 481.47236,250.72542 482.44939,264.50370 483.05541,279.81122 C 484.21279,309.04527 486.11894,318.23516 490.83635,317.32448 C 493.22456,316.86329 493.71958,311.35253 494.16906,280.22361 C 494.71971,242.08795 495.93775,233.06202 500.65626,232.15298 C 503.80679,231.54591 505.79754,238.56346 505.79754,250.27648 C 505.79754,254.16438 507.77476,267.83990 510.19135,280.66634 C 512.60796,293.49280 516.42762,317.10804 518.67953,333.14494 C 523.22416,365.50954 522.60938,373.60723 513.74666,398.11929 C 511.38541,404.64986 509.44087,412.46440 509.42548,415.48493 C 509.39322,421.81242 507.95580,424.44102 503.66387,426.02148 C 500.15096,427.31495 498.48570,424.15640 498.48570,416.19984 C 498.48570,410.41691 494.13738,407.22820 490.80113,410.56442 C 489.72590,411.63962 488.75297,417.64120 488.63903,423.90141 z M 373.17855,523.73903 C 369.77340,528.93591 367.86374,528.94341 357.66298,523.79952 C 348.47980,519.16874 342.75634,509.62935 342.45034,498.44423 C 342.14910,487.43386 345.45815,485.22953 360.40570,486.48260 C 377.01025,487.87477 378.55194,489.76049 377.04059,506.83037 C 376.42042,513.83494 374.68250,521.44383 373.17855,523.73903 z M 626.34690,524.71350 L 624.44322,531.56835 L 612.99207,531.56835 C 595.46270,531.56835 590.08288,524.74367 592.33766,505.36708 C 593.65538,494.04287 598.26660,489.51939 612.10956,485.97150 C 622.55361,483.29481 623.20284,483.70464 626.42627,495.00912 C 628.78628,503.28559 628.75217,516.05244 626.34690,524.71350 z M 415.24180,532.25695 C 406.58033,535.58056 391.97663,530.07838 388.74361,522.27318 C 386.37004,516.54288 387.63431,496.96176 390.75425,491.13202 C 395.10025,483.01147 412.21596,483.29134 421.09003,491.62812 C 424.63147,494.95520 425.36723,497.49077 425.36723,506.36826 C 425.36723,517.89795 420.54756,530.22079 415.24180,532.25695 z M 577.75654,531.63105 C 575.42844,533.95914 563.62755,535.34456 557.41729,534.01893 C 550.54891,532.55289 547.83757,524.48629 547.86865,505.61057 C 547.88404,496.26092 548.58807,487.52070 549.43316,486.18775 C 551.86477,482.35231 564.48487,481.48093 572.01767,484.62832 C 577.42622,486.88823 578.93027,488.65622 579.91660,493.91400 C 581.66681,503.24336 580.17981,529.20773 577.75654,531.63105 z M 476.41949,532.63973 C 474.09364,535.44217 470.64592,535.53906 453.35280,533.28719 C 435.74465,530.99438 433.97157,529.50386 435.37088,518.17013 C 438.96359,489.07136 440.74390,485.81228 457.75117,477.20075 C 465.55935,473.24706 468.28370,472.67436 472.40344,474.12028 C 477.16922,475.79323 477.54930,476.74651 478.92553,490.47979 C 480.66753,507.86281 479.40884,529.03773 476.41949,532.63973 z M 528.84900,535.65331 C 526.74715,537.04384 502.39747,537.13999 495.46093,535.78492 C 491.61934,535.03454 491.53059,534.34193 491.86324,507.70761 C 492.24842,476.86788 492.86531,475.30754 505.33292,473.63531 C 514.98994,472.34003 525.01490,475.79999 529.24464,481.88801 C 532.98447,487.27100 536.87289,504.41052 536.87289,515.51228 C 536.87289,522.60202 532.68438,533.11572 528.84900,535.65331 z M 491.17384,546.99581 C 495.87291,549.11021 502.26484,549.74963 515.24665,549.40415 C 530.46984,548.99926 533.72205,548.34155 538.69219,544.66351 C 544.18967,540.59520 544.62835,540.54292 547.96115,543.55906 C 551.95676,547.17513 566.42288,549.05593 576.17188,547.22704 C 579.80247,546.54595 584.40014,544.11714 586.38892,541.82999 L 590.00488,537.67119 L 598.98719,542.11643 C 606.49001,545.82957 609.48520,546.35329 617.17178,545.29617 C 629.89410,543.54645 634.89595,539.10961 637.32612,527.41870 L 639.31337,517.85864 L 655.27073,511.68891 C 725.89061,484.38429 778.99534,439.18060 828.41033,364.30986 C 837.54680,350.46670 862.25009,307.65073 862.25009,305.65842 C 862.25009,305.31879 865.82995,297.37958 870.20535,288.01549 C 882.92217,260.79951 898.47908,215.80460 905.12347,187.02261 C 911.18537,160.76376 918.85624,91.708769 918.91043,62.909157 C 918.91673,59.563896 916.15615,59.503427 821.57794,60.777060 C 768.04151,61.498007 723.93677,62.389833 723.56741,62.758917 C 723.19804,63.127983 724.39029,70.668087 726.21687,79.514710 C 731.19036,103.60301 730.81161,159.48527 725.48431,187.59896 C 723.32600,198.98900 720.71536,211.44527 719.68288,215.27979 C 718.65038,219.11412 718.26088,223.43762 718.81731,224.88773 C 719.37375,226.33768 718.21724,229.51047 716.24732,231.93837 L 712.66563,236.35253 L 711.45825,230.86865 C 706.16411,206.82290 696.96030,184.11121 681.86779,157.84961 C 649.71996,101.91084 588.42459,52.080824 528.52721,33.191398 C 512.96975,28.285148 510.50537,28.039142 476.55016,28.002911 C 445.72853,27.970025 438.67860,28.516659 424.45324,32.042414 C 406.53434,36.483611 385.31052,44.237680 370.41957,51.783505 C 341.94676,66.211773 307.61036,96.736705 288.32804,124.76259 C 271.93477,148.58935 254.22525,198.23314 252.59718,224.92411 C 252.00897,234.56734 249.50545,241.37943 247.43415,238.97255 C 247.05923,238.53695 242.59750,225.43047 237.51922,209.84709 C 219.32686,154.02132 212.49800,105.39589 217.94060,70.436138 L 218.72768,65.380397 L 168.04168,65.866232 C 118.70775,66.339108 117.35766,66.449591 117.43043,70.007991 C 117.89124,92.541478 120.89716,132.17809 123.87657,155.00823 C 125.91027,170.59161 127.83844,185.39811 128.16141,187.91154 C 128.77490,192.68618 137.44282,228.68624 140.26490,238.18049 C 145.78594,256.75459 152.82147,275.74986 161.59166,295.76129 C 176.96440,330.83787 185.41944,346.01817 207.83977,378.79609 C 226.09610,405.48634 276.75093,453.09506 315.27612,479.77160 L 331.54875,491.03952 L 333.59261,503.37388 C 336.11059,518.56936 342.17692,526.78020 356.08876,533.82260 C 367.41067,539.55400 375.17435,540.20512 380.01030,535.82860 C 383.12813,533.00696 383.55225,533.00240 385.63812,535.76682 C 386.87887,537.41125 392.44981,540.75350 398.01803,543.19419 C 407.15855,547.20072 408.80282,547.40472 414.94400,545.29343 C 418.68507,544.00728 422.84878,542.03965 424.19669,540.92112 C 426.02693,539.40210 428.18897,539.65617 432.73608,541.92449 C 441.89530,546.49386 469.25864,549.19722 477.85669,546.38253 C 483.66878,544.47981 485.79975,544.57796 491.17384,546.99581 z M 831.16641,701.05077 C 848.65544,706.03104 878.95073,700.88587 898.05280,689.69144 C 919.24688,677.27081 932.04267,648.61951 926.26498,626.52091 C 923.90749,617.50413 912.93433,599.59833 908.79186,598.00874 C 907.29183,597.43311 903.17723,599.58097 899.36030,602.93234 C 890.08865,611.07300 889.68750,606.92718 898.60411,595.11726 C 912.01588,577.35350 922.23499,548.73127 919.90342,535.46100 C 917.15761,519.83302 913.00172,511.20358 903.78012,501.98189 C 883.99094,482.19273 855.21693,476.46958 830.49461,487.40554 C 818.92845,492.52182 802.88868,508.14687 797.56669,519.48224 C 792.61813,530.02227 788.29695,548.69216 789.86201,552.77071 C 790.43177,554.25538 789.88359,555.80512 788.64381,556.21458 C 787.40403,556.62405 760.06702,557.36803 727.89490,557.86797 C 695.72276,558.36792 669.17283,558.82437 668.89502,558.88231 C 668.61722,558.94026 681.71361,578.72977 697.99811,602.85887 L 727.60632,646.72995 L 756.54100,646.72995 L 785.47570,646.72995 L 785.47570,642.24596 C 785.47570,636.22136 789.28664,628.18655 791.73155,629.05666 C 792.81504,629.44237 793.42331,631.31439 793.08327,633.21693 C 791.23624,643.55113 792.48629,664.68310 795.34092,671.38239 C 800.76249,684.10610 816.01305,696.73549 831.16641,701.05077 z M 208.69500,720.95050 C 219.79693,724.42874 227.88920,723.92898 238.00114,719.14045 C 252.61080,712.22199 264.59937,697.44108 268.85585,681.09948 C 272.03330,668.90038 270.57092,659.38657 263.72192,647.69969 C 260.72015,642.57756 259.20493,637.94531 259.92661,636.09688 C 260.90698,633.58599 262.55818,634.61623 268.90636,641.69958 L 276.68485,650.37893 L 289.33232,650.62753 C 296.28844,650.76426 312.67338,650.73227 325.74330,650.55642 L 349.50681,650.23671 L 357.63960,637.05857 C 369.78174,617.38386 384.49645,594.39723 394.15931,580.00935 C 398.88578,572.97168 403.42777,566.08448 404.25260,564.70456 C 405.51833,562.58704 395.99785,562.40772 343.23091,563.55495 L 280.70951,564.91440 L 282.20202,557.83817 C 288.10526,529.84971 270.11452,502.01625 242.79221,496.86725 C 221.28059,492.81337 189.43615,503.72648 174.82444,520.16004 C 163.87118,532.47887 159.51320,542.90537 159.71285,556.31458 C 159.89741,568.71071 165.40676,583.68629 172.09361,589.96827 L 176.26714,593.88906 L 182.85349,590.00317 C 188.98331,586.38638 193.21608,586.37723 193.21608,589.98051 C 193.21608,590.82175 188.89752,594.20914 183.61927,597.50824 C 165.09482,609.08674 156.44807,620.00679 151.97307,637.47443 C 149.41402,647.46333 149.41102,649.64079 151.94274,659.52294 C 156.00422,675.37649 161.20729,684.46146 173.64116,697.41000 C 185.31643,709.56869 196.64186,717.17430 208.69500,720.95050 z M 675.83086,725.19156 C 686.63476,730.09214 691.47373,729.92799 702.81561,724.27611 C 718.61074,716.40509 725.12005,705.47352 725.14275,686.78005 C 725.15631,675.61668 716.74059,658.94293 705.49337,647.84957 C 696.78391,639.25907 681.48563,630.27829 675.56195,630.27829 C 673.53008,630.27829 666.50848,621.56202 656.05068,606.05781 C 647.06525,592.73653 636.16472,576.70384 631.82730,570.42972 L 623.94105,559.02234 L 579.94998,560.17304 C 555.75489,560.80587 535.82781,561.41514 535.66759,561.52665 C 535.50735,561.63833 543.20537,574.89105 552.77429,590.97711 C 562.34322,607.06318 572.65131,624.74871 575.68120,630.27829 C 583.08906,643.79771 583.30980,643.96899 589.84070,641.26380 C 598.78287,637.55997 598.58611,640.62274 589.27452,650.07640 C 580.39822,659.08826 573.39814,673.60702 573.47227,682.85176 C 573.53572,690.76554 579.66361,702.24003 587.10003,708.36974 C 596.35404,715.99764 607.26098,718.77961 622.80477,717.47646 C 638.85473,716.13090 649.29185,711.49647 657.97061,701.86164 C 661.73817,697.67909 665.64543,694.25696 666.65343,694.25696 C 669.83656,694.25696 668.63832,700.86450 664.83021,704.31075 C 657.17340,711.24000 660.97292,718.45203 675.83086,725.19156 z M 374.91096,728.46635 C 383.86200,733.63729 398.23685,728.41059 411.47636,715.17103 C 418.60829,708.03906 419.88334,705.67697 419.88334,699.59643 C 419.88334,694.68873 420.68612,692.42900 422.42971,692.42900 C 425.63292,692.42900 427.19519,696.41268 427.19519,704.58037 C 427.19519,713.06541 429.68234,717.25528 436.03323,719.46931 C 447.93871,723.61951 475.32143,712.83216 485.49862,699.98250 C 499.94987,681.73615 495.61640,652.10817 478.40682,651.49564 C 475.37946,651.38797 472.90068,650.79680 472.89840,650.18206 C 472.89611,649.56731 476.85483,642.98666 481.69559,635.55836 C 486.53634,628.13007 492.08878,619.44634 494.03433,616.26111 C 495.97988,613.07571 504.35802,599.69558 512.65239,586.52731 C 520.94677,573.35904 527.73307,562.09587 527.73307,561.49794 C 527.73307,560.90020 509.84191,561.00165 487.97491,561.72351 L 448.21675,563.03598 L 444.16956,567.86674 C 441.94362,570.52368 440.09281,573.32157 440.05664,574.08419 C 440.02049,574.84700 431.74286,587.86940 421.66191,603.02284 C 411.58095,618.17627 403.14948,631.42882 402.92529,632.47312 C 402.70112,633.51726 405.34708,635.35802 408.80521,636.56374 C 419.31841,640.22935 417.01185,642.15767 402.06071,642.20246 C 390.84599,642.23590 386.17994,643.13326 379.66818,646.50913 C 359.62301,656.90073 351.07893,671.97703 352.66578,694.15550 C 353.79016,709.87012 360.41927,720.09484 374.91096,728.46635 z "
     id="path1743" />
</svg>
