<?xml version="1.0" encoding="UTF-8" standalone="no"?>
<!-- Created with Inkscape (http://www.inkscape.org/) -->
<svg
   xmlns:dc="http://purl.org/dc/elements/1.1/"
   xmlns:cc="http://web.resource.org/cc/"
   xmlns:rdf="http://www.w3.org/1999/02/22-rdf-syntax-ns#"
   xmlns:svg="http://www.w3.org/2000/svg"
   xmlns="http://www.w3.org/2000/svg"
   xmlns:xlink="http://www.w3.org/1999/xlink"
   xmlns:sodipodi="http://inkscape.sourceforge.net/DTD/sodipodi-0.dtd"
   xmlns:inkscape="http://www.inkscape.org/namespaces/inkscape"
   width="29.699999cm"
   height="21.000000cm"
   id="svg1"
   sodipodi:version="0.32"
   inkscape:version="0.42"
   sodipodi:docbase="/home/joerg/src/labor-svn/labor-artwork/labor-gdm-theme"
   sodipodi:docname="labor.svg">
  <defs
     id="defs3">
    <linearGradient
       id="linearGradient2368">
      <stop
         style="stop-color:#ffffff;stop-opacity:1.0000000;"
         offset="0.0000000"
         id="stop2369" />
      <stop
         style="stop-color:#ffffff;stop-opacity:1.0000000;"
         offset="0.44000000"
         id="stop8168" />
      <stop
         style="stop-color:#a33bb8;stop-opacity:0.69019610;"
         offset="0.75000000"
         id="stop10039" />
      <stop
         style="stop-color:#d300ff;stop-opacity:0.0000000;"
         offset="1.0000000"
         id="stop2370" />
    </linearGradient>
    <radialGradient
       inkscape:collect="always"
       xlink:href="#linearGradient2368"
       id="radialGradient1318"
       gradientUnits="userSpaceOnUse"
       gradientTransform="scale(1.114318,0.897410)"
       cx="496.08252"
       cy="901.31110"
       fx="496.08252"
       fy="901.31110"
       r="152.64542" />
  </defs>
  <sodipodi:namedview
     id="base"
     pagecolor="#15193c"
     bordercolor="#666666"
     borderopacity="1.0"
     inkscape:pageopacity="0.0000000"
     inkscape:pageshadow="2"
     inkscape:zoom="1.00000000"
     inkscape:cx="559.78387"
     inkscape:cy="397.73657"
     inkscape:current-layer="svg1"
     showborder="true"
     inkscape:window-width="1280"
     inkscape:window-height="980"
     inkscape:window-x="0"
     inkscape:window-y="25"
     inkscape:document-units="pt" />
  <metadata
     id="metadata4">
    <rdf:RDF>
      <cc:Work
         rdf:about="">
        <dc:format>image/svg+xml</dc:format>
        <dc:type
           rdf:resource="http://purl.org/dc/dcmitype/StillImage" />
        <cc:license
           rdf:resource="http://creativecommons.org/licenses/by/2.0/" />
      </cc:Work>
      <cc:License
         rdf:about="http://creativecommons.org/licenses/by/2.0/">
        <cc:permits
           rdf:resource="http://web.resource.org/cc/Reproduction" />
        <cc:permits
           rdf:resource="http://web.resource.org/cc/Distribution" />
        <cc:requires
           rdf:resource="http://web.resource.org/cc/Notice" />
        <cc:requires
           rdf:resource="http://web.resource.org/cc/Attribution" />
        <cc:permits
           rdf:resource="http://web.resource.org/cc/DerivativeWorks" />
      </cc:License>
    </rdf:RDF>
  </metadata>
  <rect
     style="fill:#15193c;fill-opacity:1.0000000;fill-rule:evenodd;stroke:none;stroke-width:1.0000000;stroke-linecap:butt;stroke-linejoin:miter;stroke-miterlimit:4.0000000;stroke-dashoffset:0.0000000;stroke-opacity:1.0000000"
     id="rect3730"
     width="1355.0000"
     height="1017.5000"
     x="-3.0735970"
     y="-10.055517" />
  <g
     inkscape:label="Layer 1"
     inkscape:groupmode="layer"
     id="layer1" />
  <g
     id="g1314"
     transform="matrix(0.972369,0.000000,0.000000,0.944556,1.171733,0.399629)">
    <path
       transform="matrix(1.704447,0.000000,0.000000,2.110134,-610.2682,-1410.985)"
       d="M 722.66260 808.84546 A 169.86890 136.75885 0 1 1  382.92480,808.84546 A 169.86890 136.75885 0 1 1  722.66260 808.84546 z"
       sodipodi:ry="136.75885"
       sodipodi:rx="169.86890"
       sodipodi:cy="808.84546"
       sodipodi:cx="552.79370"
       id="path1746"
       style="fill:url(#radialGradient1318);fill-opacity:1.0000000;fill-rule:evenodd;stroke:none;stroke-width:0.40153915;stroke-linecap:butt;stroke-linejoin:miter;stroke-miterlimit:4.0000000;stroke-dashoffset:0.0000000;stroke-opacity:1.0000000"
       sodipodi:type="arc" />
    <path
       transform="matrix(0.781786,0.000000,0.000000,0.781786,148.8815,60.93993)"
       id="path4853"
       d="M 232.59127,83.308350 C 217.97325,83.387410 203.69956,84.996230 189.91028,87.917770 C 187.23129,88.485380 184.66342,89.312910 182.02212,89.981570 C 92.112963,112.29705 24.233683,191.56881 18.163963,287.95734 L 62.542253,287.95734 L 62.542253,241.24546 L 70.719733,241.24546 L 95.232873,241.24546 L 95.232873,214.91933 C 90.544213,213.44575 87.093963,209.17151 87.093963,203.92614 C 87.093963,197.47890 92.204093,192.27703 98.550083,192.27703 C 104.89625,192.27703 110.06414,197.47890 110.06414,203.92614 C 110.06414,208.59605 107.31199,212.54947 103.41035,214.41793 L 103.41035,241.24546 L 124.64483,241.24546 C 126.24361,236.74741 130.41088,233.49227 135.38728,233.49227 C 141.73344,233.49227 146.84349,238.69414 146.84349,245.14130 C 146.84349,251.58854 141.73344,256.82897 135.38728,256.82897 C 130.39953,256.82897 126.23525,253.55103 124.64483,249.03713 L 70.719733,249.03713 L 70.719733,287.95734 L 91.182613,287.95734 L 97.624313,287.95734 L 99.321533,287.95734 L 99.321533,350.29121 L 124.64483,350.29121 C 126.23525,345.77749 130.39953,342.48026 135.38728,342.48026 C 141.73344,342.48026 146.84349,347.73989 146.84349,354.18713 C 146.84349,360.63446 141.73344,365.83624 135.38728,365.83624 C 130.39768,365.83624 126.23384,362.56094 124.64483,358.04449 L 56.139043,358.04449 C 54.549773,362.56041 50.424323,365.83624 45.435163,365.83624 C 39.088993,365.83624 33.940393,360.63446 33.940393,354.18713 C 33.940393,347.73989 39.088993,342.48026 45.435163,342.48026 C 50.422383,342.48026 54.548373,345.77802 56.139043,350.29121 L 91.182613,350.29121 L 91.182613,295.76829 L 70.719733,295.76829 L 62.542253,295.76829 L 17.797623,295.76829 C 17.739333,297.85237 17.662563,299.93820 17.662563,302.03646 C 17.662563,410.72722 96.192633,500.69536 198.80135,517.50531 C 209.83407,519.35467 221.06119,520.62513 232.59127,520.68756 L 232.59127,520.53313 C 232.84897,520.53409 233.08555,520.57178 233.34334,520.57178 C 352.40402,520.57178 449.04366,422.67621 449.04366,302.03646 C 449.04366,181.39671 352.40402,83.462690 233.34334,83.462690 C 233.08555,83.462690 232.84897,83.500370 232.59127,83.501160 L 232.59127,83.308350 z M 233.34334,90.482980 C 348.92138,90.482980 442.73702,185.34968 442.73702,302.26801 C 442.73685,419.18616 348.92138,514.05287 233.34334,514.05287 C 233.08546,514.05304 232.84906,514.01528 232.59127,514.01448 L 232.59127,455.57627 L 190.10309,455.57627 L 190.10309,258.10190 L 232.59127,258.10190 L 232.59127,235.88379 C 209.24400,235.41795 190.41169,216.13169 190.41169,192.31559 C 190.41169,168.49958 209.24400,149.15512 232.59127,148.68954 L 232.59127,90.521540 C 232.84906,90.520580 233.08546,90.482980 233.34334,90.482980 z M 232.59127,148.68954 L 232.59127,154.80337 C 232.94212,154.79324 233.26014,154.68768 233.61337,154.68768 C 253.80040,154.68768 270.18062,171.39057 270.18062,191.96843 C 270.18062,212.54630 253.80040,229.26847 233.61337,229.26847 C 233.26014,229.26847 232.94212,229.16300 232.59127,229.15288 L 232.59127,235.88379 C 232.87723,235.88952 233.13336,235.96101 233.42055,235.96101 C 257.16419,235.96101 276.44879,216.42347 276.44879,192.31559 C 276.44879,168.20781 257.16419,148.61233 233.42055,148.61233 C 233.13336,148.61233 232.87723,148.68382 232.59127,148.68954 z M 232.59127,229.15288 L 232.59127,154.80337 C 212.89199,155.37354 197.04629,171.75075 197.04629,191.96843 C 197.04629,212.18611 212.89208,228.58218 232.59127,229.15288 z M 232.59127,258.10190 L 232.59127,265.14133 L 268.84994,265.14133 L 268.84994,448.53676 L 232.59127,448.53676 L 232.59127,455.57627 L 276.69945,455.57627 L 276.69945,258.10190 L 232.59127,258.10190 z M 232.59127,448.53676 L 232.59127,265.14133 L 198.01054,265.14133 L 198.01054,448.53676 L 232.59127,448.53676 z "
       style="fill:#000000;fill-opacity:1.0000000;fill-rule:evenodd;stroke:none;stroke-width:1.2500000;stroke-linecap:butt;stroke-linejoin:miter;stroke-miterlimit:4.0000000;stroke-dashoffset:0.0000000;stroke-opacity:1.0000000" />
  </g>
  <text
     xml:space="preserve"
     style="font-size:36.000000;font-style:normal;font-variant:normal;font-weight:normal;font-stretch:normal;color:#000000;fill:none;fill-opacity:1.0000000;fill-rule:nonzero;stroke:none;stroke-width:2.1784081pt;stroke-linecap:butt;stroke-linejoin:miter;stroke-miterlimit:4.0000000;stroke-dashoffset:0.0000000;stroke-opacity:1.0000000;marker:none;marker-start:none;marker-mid:none;marker-end:none;visibility:visible;display:block;font-family:Bitstream Vera Sans Mono;letter-spacing:0.0000000;text-anchor:start;writing-mode:lr;"
     x="726.61261"
     y="595.91571"
     id="text3094"
     sodipodi:linespacing="100%"><tspan
       sodipodi:role="line"
       id="tspan3095"
       style="stroke-dashoffset:0.0000000;marker:none;marker-start:none;marker-mid:none;marker-end:none;stroke:none;stroke-opacity:1.0000000;font-family:Bitstream Vera Sans Mono;font-weight:normal;font-style:normal;font-stretch:normal;font-variant:normal;font-size:36.000000;text-anchor:start;writing-mode:lr;fill:none;fill-opacity:1.0000000;"
       x="726.61261"
       y="595.91571">dfdfdfd</tspan></text>
</svg>
